<?xml version="1.0" encoding="UTF-8" standalone="no"?><svg xmlns="http://www.w3.org/2000/svg" xmlns:xlink="http://www.w3.org/1999/xlink" clip-rule="evenodd" stroke-miterlimit="10" viewBox="0 0 531 41"><desc>SVG generated by Keynote</desc><defs></defs><g transform="matrix(1.00, 0.00, -0.00, -1.00, 0.0, 41.0)"><image xlink:href="9DA40A0319E4D8F291A8C17C378B4B6E.png" width="524.00" height="33.00" transform="matrix(1.00, 0.00, -0.00, -1.00, 3.0, 38.0)"></image><text xml:space="preserve" font-family="AvenirNext-Medium,Avenir Next" font-size="30.0" fill="#3D3B38" transform="matrix(1.00, 0.00, -0.00, -1.00, 3.3, 15.3)">U</text><text xml:space="preserve" font-family="AvenirNext-Medium,Avenir Next" font-size="30.0" fill="#3D3B38" transform="matrix(1.00, 0.00, -0.00, -1.00, 24.6, 15.3)">m</text><text xml:space="preserve" font-family="AvenirNext-Medium,Avenir Next" font-size="30.0" fill="#3D3B38" transform="matrix(1.00, 0.00, -0.00, -1.00, 51.2, 15.3)">s</text><text xml:space="preserve" font-family="AvenirNext-Medium,Avenir Next" font-size="30.0" fill="#3D3B38" transform="matrix(1.00, 0.00, -0.00, -1.00, 64.6, 15.3)">e</text><text xml:space="preserve" font-family="AvenirNext-Medium,Avenir Next" font-size="30.0" fill="#3D3B38" transform="matrix(1.00, 0.00, -0.00, -1.00, 81.7, 15.3)">t</text><text xml:space="preserve" font-family="AvenirNext-Medium,Avenir Next" font-size="30.0" fill="#3D3B38" transform="matrix(1.00, 0.00, -0.00, -1.00, 91.6, 15.3)">z</text><text xml:space="preserve" font-family="AvenirNext-Medium,Avenir Next" font-size="30.0" fill="#3D3B38" transform="matrix(1.00, 0.00, -0.00, -1.00, 105.5, 15.3)">u</text><text xml:space="preserve" font-family="AvenirNext-Medium,Avenir Next" font-size="30.0" fill="#3D3B38" transform="matrix(1.00, 0.00, -0.00, -1.00, 122.9, 15.3)">n</text><text xml:space="preserve" font-family="AvenirNext-Medium,Avenir Next" font-size="30.0" fill="#3D3B38" transform="matrix(1.00, 0.00, -0.00, -1.00, 140.4, 15.3)">g</text><text xml:space="preserve" font-family="AvenirNext-Medium,Avenir Next" font-size="30.0" fill="#3D3B38" transform="matrix(1.00, 0.00, -0.00, -1.00, 159.4, 15.3)"> </text><text xml:space="preserve" font-family="AvenirNext-Medium,Avenir Next" font-size="30.0" fill="#3D3B38" transform="matrix(1.00, 0.00, -0.00, -1.00, 166.9, 15.3)">v</text><text xml:space="preserve" font-family="AvenirNext-Medium,Avenir Next" font-size="30.0" fill="#3D3B38" transform="matrix(1.00, 0.00, -0.00, -1.00, 182.0, 15.3)">o</text><text xml:space="preserve" font-family="AvenirNext-Medium,Avenir Next" font-size="30.0" fill="#3D3B38" transform="matrix(1.00, 0.00, -0.00, -1.00, 200.3, 15.3)">n</text><text xml:space="preserve" font-family="AvenirNext-Medium,Avenir Next" font-size="30.0" fill="#3D3B38" transform="matrix(1.00, 0.00, -0.00, -1.00, 217.7, 15.3)"> </text><text xml:space="preserve" font-family="AvenirNext-Medium,Avenir Next" font-size="30.0" fill="#3D3B38" transform="matrix(1.00, 0.00, -0.00, -1.00, 225.2, 15.3)">g</text><text xml:space="preserve" font-family="AvenirNext-Medium,Avenir Next" font-size="30.0" fill="#3D3B38" transform="matrix(1.00, 0.00, -0.00, -1.00, 244.2, 15.3)">e</text><text xml:space="preserve" font-family="AvenirNext-Medium,Avenir Next" font-size="30.0" fill="#3D3B38" transform="matrix(1.00, 0.00, -0.00, -1.00, 261.4, 15.3)">n</text><text xml:space="preserve" font-family="AvenirNext-Medium,Avenir Next" font-size="30.0" fill="#3D3B38" transform="matrix(1.00, 0.00, -0.00, -1.00, 278.8, 15.3)">e</text><text xml:space="preserve" font-family="AvenirNext-Medium,Avenir Next" font-size="30.0" fill="#3D3B38" transform="matrix(1.00, 0.00, -0.00, -1.00, 296.0, 15.3)">t</text><text xml:space="preserve" font-family="AvenirNext-Medium,Avenir Next" font-size="30.0" fill="#3D3B38" transform="matrix(1.00, 0.00, -0.00, -1.00, 305.9, 15.3)">i</text><text xml:space="preserve" font-family="AvenirNext-Medium,Avenir Next" font-size="30.0" fill="#3D3B38" transform="matrix(1.00, 0.00, -0.00, -1.00, 313.7, 15.3)">c</text><text xml:space="preserve" font-family="AvenirNext-Medium,Avenir Next" font-size="30.0" fill="#3D3B38" transform="matrix(1.00, 0.00, -0.00, -1.00, 328.5, 15.3)"> </text><text xml:space="preserve" font-family="AvenirNext-Medium,Avenir Next" font-size="30.0" fill="#3D3B38" transform="matrix(1.00, 0.00, -0.00, -1.00, 336.0, 15.3)">p</text><text xml:space="preserve" font-family="AvenirNext-Medium,Avenir Next" font-size="30.0" fill="#3D3B38" transform="matrix(1.00, 0.00, -0.00, -1.00, 355.0, 15.3)">r</text><text xml:space="preserve" font-family="AvenirNext-Medium,Avenir Next" font-size="30.0" fill="#3D3B38" transform="matrix(1.00, 0.00, -0.00, -1.00, 365.3, 15.3)">o</text><text xml:space="preserve" font-family="AvenirNext-Medium,Avenir Next" font-size="30.0" fill="#3D3B38" transform="matrix(1.00, 0.00, -0.00, -1.00, 383.6, 15.3)">g</text><text xml:space="preserve" font-family="AvenirNext-Medium,Avenir Next" font-size="30.0" fill="#3D3B38" transform="matrix(1.00, 0.00, -0.00, -1.00, 402.6, 15.3)">r</text><text xml:space="preserve" font-family="AvenirNext-Medium,Avenir Next" font-size="30.0" fill="#3D3B38" transform="matrix(1.00, 0.00, -0.00, -1.00, 413.1, 15.3)">a</text><text xml:space="preserve" font-family="AvenirNext-Medium,Avenir Next" font-size="30.0" fill="#3D3B38" transform="matrix(1.00, 0.00, -0.00, -1.00, 429.3, 15.3)">m</text><text xml:space="preserve" font-family="AvenirNext-Medium,Avenir Next" font-size="30.0" fill="#3D3B38" transform="matrix(1.00, 0.00, -0.00, -1.00, 455.9, 15.3)">m</text><text xml:space="preserve" font-family="AvenirNext-Medium,Avenir Next" font-size="30.0" fill="#3D3B38" transform="matrix(1.00, 0.00, -0.00, -1.00, 482.5, 15.3)">i</text><text xml:space="preserve" font-family="AvenirNext-Medium,Avenir Next" font-size="30.0" fill="#3D3B38" transform="matrix(1.00, 0.00, -0.00, -1.00, 490.3, 15.3)">n</text><text xml:space="preserve" font-family="AvenirNext-Medium,Avenir Next" font-size="30.0" fill="#3D3B38" transform="matrix(1.00, 0.00, -0.00, -1.00, 507.8, 15.3)">g</text></g></svg>