<?xml version="1.0" encoding="UTF-8" standalone="no"?><svg xmlns="http://www.w3.org/2000/svg" xmlns:xlink="http://www.w3.org/1999/xlink" clip-rule="evenodd" stroke-miterlimit="10" viewBox="0 0 338 41"><desc>SVG generated by Keynote</desc><defs></defs><g transform="matrix(1.00, 0.00, -0.00, -1.00, 0.0, 41.0)"><image xlink:href="EDCFD62D1E1C3671056332489E660548.png" width="335.00" height="38.00" transform="matrix(1.00, 0.00, -0.00, -1.00, 2.0, 39.0)"></image><text xml:space="preserve" font-family="AvenirNext-Regular,Avenir Next" font-size="36.0" fill="#3D3B38" transform="matrix(1.00, 0.00, -0.00, -1.00, 1.0, 6.2)">E</text><text xml:space="preserve" font-family="AvenirNext-Regular,Avenir Next" font-size="36.0" fill="#3D3B38" transform="matrix(1.00, 0.00, -0.00, -1.00, 25.2, 6.2)">X</text><text xml:space="preserve" font-family="AvenirNext-Regular,Avenir Next" font-size="36.0" fill="#3D3B38" transform="matrix(1.00, 0.00, -0.00, -1.00, 51.4, 6.2)">P</text><text xml:space="preserve" font-family="AvenirNext-Regular,Avenir Next" font-size="36.0" fill="#3D3B38" transform="matrix(1.00, 0.00, -0.00, -1.00, 75.2, 6.2)">O</text><text xml:space="preserve" font-family="AvenirNext-Regular,Avenir Next" font-size="36.0" fill="#3D3B38" transform="matrix(1.00, 0.00, -0.00, -1.00, 108.7, 6.2)">S</text><text xml:space="preserve" font-family="AvenirNext-Regular,Avenir Next" font-size="36.0" fill="#3D3B38" transform="matrix(1.00, 0.00, -0.00, -1.00, 131.9, 6.2)">É</text><text xml:space="preserve" font-family="AvenirNext-Regular,Avenir Next" font-size="36.0" fill="#3D3B38" transform="matrix(1.00, 0.00, -0.00, -1.00, 156.1, 6.2)"> </text><text xml:space="preserve" font-family="AvenirNext-Regular,Avenir Next" font-size="36.0" fill="#3D3B38" transform="matrix(1.00, 0.00, -0.00, -1.00, 167.9, 6.2)">R</text><text xml:space="preserve" font-family="AvenirNext-Regular,Avenir Next" font-size="36.0" fill="#3D3B38" transform="matrix(1.00, 0.00, -0.00, -1.00, 192.4, 6.2)">E</text><text xml:space="preserve" font-family="AvenirNext-Regular,Avenir Next" font-size="36.0" fill="#3D3B38" transform="matrix(1.00, 0.00, -0.00, -1.00, 216.6, 6.2)">F</text><text xml:space="preserve" font-family="AvenirNext-Regular,Avenir Next" font-size="36.0" fill="#3D3B38" transform="matrix(1.00, 0.00, -0.00, -1.00, 239.7, 6.2)">E</text><text xml:space="preserve" font-family="AvenirNext-Regular,Avenir Next" font-size="36.0" fill="#3D3B38" transform="matrix(1.00, 0.00, -0.00, -1.00, 263.9, 6.2)">R</text><text xml:space="preserve" font-family="AvenirNext-Regular,Avenir Next" font-size="36.0" fill="#3D3B38" transform="matrix(1.00, 0.00, -0.00, -1.00, 288.3, 6.2)">A</text><text xml:space="preserve" font-family="AvenirNext-Regular,Avenir Next" font-size="36.0" fill="#3D3B38" transform="matrix(1.00, 0.00, -0.00, -1.00, 314.2, 6.2)">T</text></g></svg>