<?xml version="1.0" encoding="UTF-8" standalone="no"?><svg xmlns="http://www.w3.org/2000/svg" xmlns:xlink="http://www.w3.org/1999/xlink" clip-rule="evenodd" stroke-miterlimit="10" viewBox="0 0 831 76"><desc>SVG generated by Keynote</desc><defs></defs><g transform="matrix(1.00, 0.00, -0.00, -1.00, 0.0, 76.0)"><image xlink:href="BCB46E07656542223AB00A5AF185FBE4.png" width="823.00" height="32.00" transform="matrix(1.00, 0.00, -0.00, -1.00, 3.0, 73.0)"></image><text xml:space="preserve" font-family="AvenirNext-Medium,Avenir Next" font-size="27.3" fill="#3D3B38" transform="matrix(1.00, 0.00, -0.00, -1.00, 3.0, 51.3)">U</text><text xml:space="preserve" font-family="AvenirNext-Medium,Avenir Next" font-size="27.3" fill="#3D3B38" transform="matrix(1.00, 0.00, -0.00, -1.00, 22.5, 51.3)">m</text><text xml:space="preserve" font-family="AvenirNext-Medium,Avenir Next" font-size="27.3" fill="#3D3B38" transform="matrix(1.00, 0.00, -0.00, -1.00, 46.7, 51.3)">s</text><text xml:space="preserve" font-family="AvenirNext-Medium,Avenir Next" font-size="27.3" fill="#3D3B38" transform="matrix(1.00, 0.00, -0.00, -1.00, 58.8, 51.3)">e</text><text xml:space="preserve" font-family="AvenirNext-Medium,Avenir Next" font-size="27.3" fill="#3D3B38" transform="matrix(1.00, 0.00, -0.00, -1.00, 74.5, 51.3)">t</text><text xml:space="preserve" font-family="AvenirNext-Medium,Avenir Next" font-size="27.3" fill="#3D3B38" transform="matrix(1.00, 0.00, -0.00, -1.00, 83.4, 51.3)">z</text><text xml:space="preserve" font-family="AvenirNext-Medium,Avenir Next" font-size="27.3" fill="#3D3B38" transform="matrix(1.00, 0.00, -0.00, -1.00, 96.1, 51.3)">u</text><text xml:space="preserve" font-family="AvenirNext-Medium,Avenir Next" font-size="27.3" fill="#3D3B38" transform="matrix(1.00, 0.00, -0.00, -1.00, 111.9, 51.3)">n</text><text xml:space="preserve" font-family="AvenirNext-Medium,Avenir Next" font-size="27.3" fill="#3D3B38" transform="matrix(1.00, 0.00, -0.00, -1.00, 127.8, 51.3)">g</text><text xml:space="preserve" font-family="AvenirNext-Medium,Avenir Next" font-size="27.3" fill="#3D3B38" transform="matrix(1.00, 0.00, -0.00, -1.00, 145.1, 51.3)"> </text><text xml:space="preserve" font-family="AvenirNext-Medium,Avenir Next" font-size="27.3" fill="#3D3B38" transform="matrix(1.00, 0.00, -0.00, -1.00, 151.9, 51.3)">d</text><text xml:space="preserve" font-family="AvenirNext-Medium,Avenir Next" font-size="27.3" fill="#3D3B38" transform="matrix(1.00, 0.00, -0.00, -1.00, 169.2, 51.3)">e</text><text xml:space="preserve" font-family="AvenirNext-Medium,Avenir Next" font-size="27.3" fill="#3D3B38" transform="matrix(1.00, 0.00, -0.00, -1.00, 184.9, 51.3)">r</text><text xml:space="preserve" font-family="AvenirNext-Medium,Avenir Next" font-size="27.3" fill="#3D3B38" transform="matrix(1.00, 0.00, -0.00, -1.00, 194.8, 51.3)"> </text><text xml:space="preserve" font-family="AvenirNext-Medium,Avenir Next" font-size="27.3" fill="#3D3B38" transform="matrix(1.00, 0.00, -0.00, -1.00, 201.6, 51.3)">K</text><text xml:space="preserve" font-family="AvenirNext-Medium,Avenir Next" font-size="27.3" fill="#3D3B38" transform="matrix(1.00, 0.00, -0.00, -1.00, 218.8, 51.3)">o</text><text xml:space="preserve" font-family="AvenirNext-Medium,Avenir Next" font-size="27.3" fill="#3D3B38" transform="matrix(1.00, 0.00, -0.00, -1.00, 235.4, 51.3)">m</text><text xml:space="preserve" font-family="AvenirNext-Medium,Avenir Next" font-size="27.3" fill="#3D3B38" transform="matrix(1.00, 0.00, -0.00, -1.00, 259.6, 51.3)">b</text><text xml:space="preserve" font-family="AvenirNext-Medium,Avenir Next" font-size="27.3" fill="#3D3B38" transform="matrix(1.00, 0.00, -0.00, -1.00, 277.0, 51.3)">i</text><text xml:space="preserve" font-family="AvenirNext-Medium,Avenir Next" font-size="27.3" fill="#3D3B38" transform="matrix(1.00, 0.00, -0.00, -1.00, 284.1, 51.3)">n</text><text xml:space="preserve" font-family="AvenirNext-Medium,Avenir Next" font-size="27.3" fill="#3D3B38" transform="matrix(1.00, 0.00, -0.00, -1.00, 300.0, 51.3)">a</text><text xml:space="preserve" font-family="AvenirNext-Medium,Avenir Next" font-size="27.3" fill="#3D3B38" transform="matrix(1.00, 0.00, -0.00, -1.00, 314.5, 51.3)">t</text><text xml:space="preserve" font-family="AvenirNext-Medium,Avenir Next" font-size="27.3" fill="#3D3B38" transform="matrix(1.00, 0.00, -0.00, -1.00, 323.5, 51.3)">i</text><text xml:space="preserve" font-family="AvenirNext-Medium,Avenir Next" font-size="27.3" fill="#3D3B38" transform="matrix(1.00, 0.00, -0.00, -1.00, 330.5, 51.3)">o</text><text xml:space="preserve" font-family="AvenirNext-Medium,Avenir Next" font-size="27.3" fill="#3D3B38" transform="matrix(1.00, 0.00, -0.00, -1.00, 347.2, 51.3)">n</text><text xml:space="preserve" font-family="AvenirNext-Medium,Avenir Next" font-size="27.3" fill="#3D3B38" transform="matrix(1.00, 0.00, -0.00, -1.00, 363.1, 51.3)">:</text><text xml:space="preserve" font-family="AvenirNext-Medium,Avenir Next" font-size="27.3" fill="#3D3B38" transform="matrix(1.00, 0.00, -0.00, -1.00, 371.3, 51.3)"> </text><text xml:space="preserve" font-family="AvenirNext-Medium,Avenir Next" font-size="27.3" fill="#3D3B38" transform="matrix(1.00, 0.00, -0.00, -1.00, 378.1, 51.3)">N</text><text xml:space="preserve" font-family="AvenirNext-Medium,Avenir Next" font-size="27.3" fill="#3D3B38" transform="matrix(1.00, 0.00, -0.00, -1.00, 399.2, 51.3)">e</text><text xml:space="preserve" font-family="AvenirNext-Medium,Avenir Next" font-size="27.3" fill="#3D3B38" transform="matrix(1.00, 0.00, -0.00, -1.00, 414.8, 51.3)">u</text><text xml:space="preserve" font-family="AvenirNext-Medium,Avenir Next" font-size="27.3" fill="#3D3B38" transform="matrix(1.00, 0.00, -0.00, -1.00, 430.7, 51.3)">r</text><text xml:space="preserve" font-family="AvenirNext-Medium,Avenir Next" font-size="27.3" fill="#3D3B38" transform="matrix(1.00, 0.00, -0.00, -1.00, 440.1, 51.3)">o</text><text xml:space="preserve" font-family="AvenirNext-Medium,Avenir Next" font-size="27.3" fill="#3D3B38" transform="matrix(1.00, 0.00, -0.00, -1.00, 456.7, 51.3)">n</text><text xml:space="preserve" font-family="AvenirNext-Medium,Avenir Next" font-size="27.3" fill="#3D3B38" transform="matrix(1.00, 0.00, -0.00, -1.00, 472.6, 51.3)">a</text><text xml:space="preserve" font-family="AvenirNext-Medium,Avenir Next" font-size="27.3" fill="#3D3B38" transform="matrix(1.00, 0.00, -0.00, -1.00, 487.4, 51.3)">l</text><text xml:space="preserve" font-family="AvenirNext-Medium,Avenir Next" font-size="27.3" fill="#3D3B38" transform="matrix(1.00, 0.00, -0.00, -1.00, 494.5, 51.3)">e</text><text xml:space="preserve" font-family="AvenirNext-Medium,Avenir Next" font-size="27.3" fill="#3D3B38" transform="matrix(1.00, 0.00, -0.00, -1.00, 510.2, 51.3)"> </text><text xml:space="preserve" font-family="AvenirNext-Medium,Avenir Next" font-size="27.3" fill="#3D3B38" transform="matrix(1.00, 0.00, -0.00, -1.00, 517.0, 51.3)">N</text><text xml:space="preserve" font-family="AvenirNext-Medium,Avenir Next" font-size="27.3" fill="#3D3B38" transform="matrix(1.00, 0.00, -0.00, -1.00, 538.1, 51.3)">e</text><text xml:space="preserve" font-family="AvenirNext-Medium,Avenir Next" font-size="27.3" fill="#3D3B38" transform="matrix(1.00, 0.00, -0.00, -1.00, 553.7, 51.3)">t</text><text xml:space="preserve" font-family="AvenirNext-Medium,Avenir Next" font-size="27.3" fill="#3D3B38" transform="matrix(1.00, 0.00, -0.00, -1.00, 562.7, 51.3)">z</text><text xml:space="preserve" font-family="AvenirNext-Medium,Avenir Next" font-size="27.3" fill="#3D3B38" transform="matrix(1.00, 0.00, -0.00, -1.00, 575.3, 51.3)">w</text><text xml:space="preserve" font-family="AvenirNext-Medium,Avenir Next" font-size="27.3" fill="#3D3B38" transform="matrix(1.00, 0.00, -0.00, -1.00, 596.4, 51.3)">e</text><text xml:space="preserve" font-family="AvenirNext-Medium,Avenir Next" font-size="27.3" fill="#3D3B38" transform="matrix(1.00, 0.00, -0.00, -1.00, 612.0, 51.3)">r</text><text xml:space="preserve" font-family="AvenirNext-Medium,Avenir Next" font-size="27.3" fill="#3D3B38" transform="matrix(1.00, 0.00, -0.00, -1.00, 621.9, 51.3)">k</text><text xml:space="preserve" font-family="AvenirNext-Medium,Avenir Next" font-size="27.3" fill="#3D3B38" transform="matrix(1.00, 0.00, -0.00, -1.00, 635.8, 51.3)">e</text><text xml:space="preserve" font-family="AvenirNext-Medium,Avenir Next" font-size="27.3" fill="#3D3B38" transform="matrix(1.00, 0.00, -0.00, -1.00, 651.5, 51.3)"> </text><text xml:space="preserve" font-family="AvenirNext-Medium,Avenir Next" font-size="27.3" fill="#3D3B38" transform="matrix(1.00, 0.00, -0.00, -1.00, 658.3, 51.3)">+</text><text xml:space="preserve" font-family="AvenirNext-Medium,Avenir Next" font-size="27.3" fill="#3D3B38" transform="matrix(1.00, 0.00, -0.00, -1.00, 676.5, 51.3)"> </text><text xml:space="preserve" font-family="AvenirNext-Medium,Avenir Next" font-size="27.3" fill="#3D3B38" transform="matrix(1.00, 0.00, -0.00, -1.00, 683.3, 51.3)">G</text><text xml:space="preserve" font-family="AvenirNext-Medium,Avenir Next" font-size="27.3" fill="#3D3B38" transform="matrix(1.00, 0.00, -0.00, -1.00, 704.5, 51.3)">e</text><text xml:space="preserve" font-family="AvenirNext-Medium,Avenir Next" font-size="27.3" fill="#3D3B38" transform="matrix(1.00, 0.00, -0.00, -1.00, 720.2, 51.3)">n</text><text xml:space="preserve" font-family="AvenirNext-Medium,Avenir Next" font-size="27.3" fill="#3D3B38" transform="matrix(1.00, 0.00, -0.00, -1.00, 736.1, 51.3)">e</text><text xml:space="preserve" font-family="AvenirNext-Medium,Avenir Next" font-size="27.3" fill="#3D3B38" transform="matrix(1.00, 0.00, -0.00, -1.00, 751.7, 51.3)">t</text><text xml:space="preserve" font-family="AvenirNext-Medium,Avenir Next" font-size="27.3" fill="#3D3B38" transform="matrix(1.00, 0.00, -0.00, -1.00, 760.7, 51.3)">i</text><text xml:space="preserve" font-family="AvenirNext-Medium,Avenir Next" font-size="27.3" fill="#3D3B38" transform="matrix(1.00, 0.00, -0.00, -1.00, 767.8, 51.3)">s</text><text xml:space="preserve" font-family="AvenirNext-Medium,Avenir Next" font-size="27.3" fill="#3D3B38" transform="matrix(1.00, 0.00, -0.00, -1.00, 779.9, 51.3)">c</text><text xml:space="preserve" font-family="AvenirNext-Medium,Avenir Next" font-size="27.3" fill="#3D3B38" transform="matrix(1.00, 0.00, -0.00, -1.00, 793.4, 51.3)">h</text><text xml:space="preserve" font-family="AvenirNext-Medium,Avenir Next" font-size="27.3" fill="#3D3B38" transform="matrix(1.00, 0.00, -0.00, -1.00, 809.3, 51.3)">e</text><text xml:space="preserve" font-family="AvenirNext-Medium,Avenir Next" font-size="27.3" fill="#3D3B38" transform="matrix(1.00, 0.00, -0.00, -1.00, 825.0, 51.3)"> </text><image xlink:href="54F0BE2C1A5A631C3398B89A89425DB6.png" width="160.00" height="32.00" transform="matrix(1.00, 0.00, -0.00, -1.00, 333.0, 36.0)"></image><text xml:space="preserve" font-family="AvenirNext-Medium,Avenir Next" font-size="27.3" fill="#3D3B38" transform="matrix(1.00, 0.00, -0.00, -1.00, 335.0, 14.3)">A</text><text xml:space="preserve" font-family="AvenirNext-Medium,Avenir Next" font-size="27.3" fill="#3D3B38" transform="matrix(1.00, 0.00, -0.00, -1.00, 354.4, 14.3)">l</text><text xml:space="preserve" font-family="AvenirNext-Medium,Avenir Next" font-size="27.3" fill="#3D3B38" transform="matrix(1.00, 0.00, -0.00, -1.00, 361.5, 14.3)">g</text><text xml:space="preserve" font-family="AvenirNext-Medium,Avenir Next" font-size="27.3" fill="#3D3B38" transform="matrix(1.00, 0.00, -0.00, -1.00, 378.7, 14.3)">o</text><text xml:space="preserve" font-family="AvenirNext-Medium,Avenir Next" font-size="27.3" fill="#3D3B38" transform="matrix(1.00, 0.00, -0.00, -1.00, 395.4, 14.3)">r</text><text xml:space="preserve" font-family="AvenirNext-Medium,Avenir Next" font-size="27.3" fill="#3D3B38" transform="matrix(1.00, 0.00, -0.00, -1.00, 405.3, 14.3)">i</text><text xml:space="preserve" font-family="AvenirNext-Medium,Avenir Next" font-size="27.3" fill="#3D3B38" transform="matrix(1.00, 0.00, -0.00, -1.00, 412.3, 14.3)">t</text><text xml:space="preserve" font-family="AvenirNext-Medium,Avenir Next" font-size="27.3" fill="#3D3B38" transform="matrix(1.00, 0.00, -0.00, -1.00, 421.3, 14.3)">h</text><text xml:space="preserve" font-family="AvenirNext-Medium,Avenir Next" font-size="27.3" fill="#3D3B38" transform="matrix(1.00, 0.00, -0.00, -1.00, 437.3, 14.3)">m</text><text xml:space="preserve" font-family="AvenirNext-Medium,Avenir Next" font-size="27.3" fill="#3D3B38" transform="matrix(1.00, 0.00, -0.00, -1.00, 461.5, 14.3)">e</text><text xml:space="preserve" font-family="AvenirNext-Medium,Avenir Next" font-size="27.3" fill="#3D3B38" transform="matrix(1.00, 0.00, -0.00, -1.00, 477.1, 14.3)">n</text></g></svg>