<?xml version="1.0" encoding="UTF-8" standalone="no"?><svg xmlns="http://www.w3.org/2000/svg" xmlns:xlink="http://www.w3.org/1999/xlink" clip-rule="evenodd" stroke-miterlimit="10" viewBox="0 0 228 27"><desc>SVG generated by Keynote</desc><defs></defs><g transform="matrix(1.00, 0.00, -0.00, -1.00, 0.0, 27.0)"><path d="M 215.5 14.9 C 215.7 14.8 216.3 15.0 216.5 14.9 M 215.5 14.9 C 216.1 15.8 217.2 15.9 218.6 16.1 C 220.2 16.1 218.6 15.2 218.8 14.9 C 220.8 14.5 220.8 15.2 220.5 16.1 C 221.3 15.5 223.7 16.7 223.2 15.4 C 219.9 15.4 225.6 15.1 222.8 14.4 C 222.5 14.2 223.3 13.9 223.6 13.9 C 222.7 13.4 224.2 12.8 222.8 12.4 C 222.6 11.6 222.8 12.0 221.9 11.4 C 221.5 11.3 221.6 11.5 221.7 11.7 C 221.5 12.6 220.5 11.2 219.7 11.8 C 219.0 10.6 218.3 12.0 218.9 12.5 C 218.2 12.4 217.4 11.1 216.7 12.0 C 216.3 11.4 214.4 11.8 215.5 12.5 C 216.3 13.0 215.4 13.4 215.3 13.6 C 215.6 13.9 216.7 13.5 216.9 13.7 C 216.6 13.9 215.1 14.4 216.6 14.3 C 216.1 14.7 216.9 15.0 215.5 14.9 C 215.5 14.9 215.5 14.9 215.5 14.9 Z M 221.1 15.6 C 221.1 15.9 220.6 15.6 221.1 15.6 C 221.1 15.6 221.1 15.6 221.1 15.6 Z M 217.3 11.4 C 217.3 11.7 216.7 11.4 217.3 11.4 C 217.3 11.4 217.3 11.4 217.3 11.4 Z M 221.4 11.7 C 221.4 12.0 220.9 11.7 221.4 11.7 C 221.4 11.7 221.4 11.7 221.4 11.7 Z M 219.7 15.4 C 218.8 15.1 220.4 15.0 220.5 15.3 C 220.3 15.2 219.9 15.7 219.7 15.4 C 219.7 15.4 219.7 15.4 219.7 15.4 Z M 219.5 13.6 C 219.5 13.7 219.1 13.7 219.1 13.4 C 219.4 13.3 219.6 13.5 219.5 13.6 C 219.5 13.6 219.5 13.6 219.5 13.6 Z M 223.9 14.9 C 223.9 15.0 223.5 15.0 223.5 14.7 C 223.8 14.6 224.0 14.8 223.9 14.9 C 223.9 14.9 223.9 14.9 223.9 14.9 Z M 218.6 14.6 C 218.4 14.5 218.3 14.2 218.6 14.2 C 218.7 14.3 219.4 14.4 218.6 14.6 C 218.6 14.6 218.6 14.6 218.6 14.6 Z M 217.2 15.6 C 216.5 15.5 218.0 15.0 218.0 15.1 C 218.2 15.4 217.7 15.9 217.2 15.6 C 217.2 15.6 217.2 15.6 217.2 15.6 Z M 218.2 14.1 C 217.6 14.0 218.5 13.9 218.2 14.1 C 218.2 14.1 218.2 14.1 218.2 14.1 Z M 223.3 12.5 C 222.7 12.4 223.6 12.3 223.3 12.5 C 223.3 12.5 223.3 12.5 223.3 12.5 Z M 220.1 11.5 C 219.5 11.4 220.3 11.3 220.1 11.5 C 220.1 11.5 220.1 11.5 220.1 11.5 Z M 221.3 14.8 C 222.4 14.8 221.4 15.6 221.3 14.8 C 221.3 14.8 221.3 14.8 221.3 14.8 Z M 215.5 15.7 C 216.6 15.7 215.7 16.5 215.5 15.7 C 215.5 15.7 215.5 15.7 215.5 15.7 Z M 20.4 15.4 C 19.4 15.6 23.3 16.6 21.8 15.4 C 21.4 14.4 24.0 14.4 23.3 15.4 C 24.1 15.5 24.1 15.6 24.5 15.1 C 24.6 15.8 26.5 16.2 27.1 15.8 C 27.5 15.2 25.9 15.7 26.9 15.1 C 29.2 14.9 26.8 14.3 27.6 13.5 C 27.7 13.5 27.8 13.9 28.0 13.7 C 28.0 12.9 26.7 12.3 27.3 11.7 C 27.0 11.9 25.4 11.0 26.0 11.7 C 26.3 12.4 24.3 10.8 24.4 12.0 C 23.9 11.5 23.3 12.2 22.8 11.5 C 22.4 11.4 22.4 12.0 22.4 12.2 C 22.5 12.8 22.0 10.9 21.3 11.9 C 21.2 11.6 19.4 11.8 20.8 12.2 C 20.4 12.1 18.3 11.8 19.4 12.9 C 20.9 13.5 17.9 14.1 19.6 14.1 C 20.9 14.3 21.2 14.0 20.2 14.6 C 19.9 14.5 18.4 14.7 19.7 15.2 C 20.0 15.0 20.6 15.1 20.4 15.4 C 20.4 15.4 20.4 15.4 20.4 15.4 Z M 20.1 13.8 C 20.9 13.7 20.2 14.2 20.1 13.8 C 20.1 13.8 20.1 13.8 20.1 13.8 Z M 22.9 11.3 C 23.6 11.2 22.9 11.7 22.9 11.3 C 22.9 11.3 22.9 11.3 22.9 11.3 Z M 22.8 15.7 C 23.2 15.3 23.3 16.5 22.8 15.7 C 22.8 15.7 22.8 15.7 22.8 15.7 Z M 21.6 12.2 C 21.7 12.2 21.5 12.4 21.3 12.4 C 21.4 12.4 21.6 12.2 21.6 12.2 C 21.6 12.2 21.6 12.2 21.6 12.2 Z M 24.1 15.7 C 25.2 15.1 24.3 16.6 24.1 15.7 C 24.1 15.7 24.1 15.7 24.1 15.7 Z M 26.4 14.6 C 26.5 13.5 27.5 14.8 26.4 14.6 C 26.4 14.6 26.4 14.6 26.4 14.6 Z M 24.8 12.1 C 24.6 12.3 24.6 12.0 24.8 12.1 C 24.8 12.1 24.8 12.1 24.8 12.1 Z M 19.8 11.9 C 19.6 12.2 19.6 11.8 19.8 11.9 C 19.8 11.9 19.8 11.9 19.8 11.9 Z M 26.2 12.2 C 26.1 12.6 25.8 12.0 26.2 12.2 C 26.2 12.2 26.2 12.2 26.2 12.2 Z M 23.0 15.2 C 22.0 16.1 21.7 13.9 23.0 15.2 C 23.0 15.2 23.0 15.2 23.0 15.2 Z M 21.1 15.3 C 20.4 15.5 21.3 14.8 21.6 14.9 C 21.5 15.0 21.3 15.3 21.1 15.3 C 21.1 15.3 21.1 15.3 21.1 15.3 Z M 24.1 15.1 C 23.4 15.6 23.4 14.9 24.1 15.1 C 24.1 15.1 24.1 15.1 24.1 15.1 Z M 22.3 15.6 C 21.9 15.5 22.6 15.5 22.3 15.6 C 22.3 15.6 22.3 15.6 22.3 15.6 Z M 25.5 16.1 C 25.2 16.0 25.8 16.0 25.5 16.1 C 25.5 16.1 25.5 16.1 25.5 16.1 Z M 20.3 15.8 C 19.9 15.7 20.6 15.7 20.3 15.8 C 20.3 15.8 20.3 15.8 20.3 15.8 Z M 25.2 15.5 C 25.3 15.1 24.3 14.2 26.1 14.9 C 26.4 15.2 25.7 15.8 25.2 15.5 C 25.2 15.5 25.2 15.5 25.2 15.5 Z M 212.5 14.9 C 216.8 16.2 215.8 13.9 216.0 13.5 C 216.5 12.9 216.0 12.5 215.1 12.1 C 214.2 10.7 213.8 13.6 213.1 12.2 C 212.0 10.3 211.8 13.8 211.3 11.8 C 211.5 11.3 209.9 11.7 210.0 11.8 C 209.2 10.9 208.0 12.6 208.0 12.8 C 207.4 12.5 207.4 10.7 205.6 12.1 C 204.3 12.5 203.7 10.8 204.1 12.0 C 203.1 10.6 203.4 12.4 202.4 11.9 C 201.8 11.2 202.4 13.1 201.2 11.6 C 200.7 12.8 201.8 10.9 198.5 11.7 C 200.1 11.8 196.9 12.6 197.6 11.8 C 198.7 11.0 196.0 12.1 194.5 11.6 C 194.1 12.1 192.3 13.1 192.6 12.0 C 191.1 10.7 191.1 12.8 190.4 11.7 C 189.9 11.2 189.7 12.2 189.3 12.1 C 188.8 11.3 188.3 11.9 186.4 11.6 C 182.2 11.2 185.7 13.7 184.1 14.0 C 183.9 14.4 186.2 17.1 185.3 15.0 C 185.6 15.6 189.0 13.5 187.3 15.7 C 188.6 14.8 187.0 16.6 189.7 15.6 C 186.1 14.0 193.8 15.0 190.3 15.7 C 190.9 16.2 192.3 16.1 191.3 15.7 C 190.9 14.3 193.7 16.3 192.3 14.6 C 194.5 15.1 193.9 13.6 194.6 14.6 C 195.1 16.5 194.5 14.2 195.6 14.7 C 198.2 14.7 196.2 16.8 197.8 15.4 C 200.3 16.4 198.3 14.6 199.2 14.4 C 199.4 13.1 201.8 15.4 199.9 15.5 C 200.9 14.9 200.0 16.2 201.2 15.3 C 200.4 14.2 202.7 16.6 202.4 15.7 C 203.4 15.4 202.9 14.6 203.2 14.6 C 204.8 14.6 204.3 15.8 204.6 14.9 C 205.0 14.4 205.7 16.0 205.9 15.6 C 204.3 15.5 207.2 14.3 207.4 15.0 C 206.4 15.1 207.9 16.5 208.5 15.6 C 207.7 13.0 209.9 16.3 210.6 15.3 C 209.9 13.9 214.1 15.2 212.6 15.8 C 212.7 15.7 212.5 14.9 212.5 14.9 M 206.4 15.4 C 205.0 15.3 207.8 15.1 206.4 15.4 M 206.4 15.8 C 205.8 15.3 207.7 16.1 206.3 15.9 C 206.3 15.9 206.5 15.8 206.4 15.8 M 201.0 15.8 C 201.1 15.4 201.7 16.0 201.0 15.8 M 199.9 14.9 C 199.0 14.5 201.1 14.8 199.9 14.9 M 187.9 15.2 C 189.1 13.0 189.1 16.4 187.9 15.2 M 195.8 15.6 C 197.3 15.3 195.3 16.5 195.8 15.6 M 196.3 15.1 C 196.9 14.7 196.4 15.6 196.3 15.1 M 190.2 15.2 C 190.0 15.2 190.0 15.2 190.2 15.2 C 190.2 15.2 190.2 15.2 190.2 15.2 Z M 186.6 15.1 C 186.6 15.2 186.6 15.2 186.6 15.1 C 186.6 15.1 186.6 15.1 186.6 15.1 Z M 193.6 15.0 C 194.7 15.5 191.8 15.2 193.6 15.0 C 193.6 15.0 193.6 15.0 193.6 15.0 Z M 188.3 11.9 C 188.3 11.8 188.3 11.8 188.3 11.9 C 188.3 11.9 188.3 11.9 188.3 11.9 Z M 207.4 14.4 C 207.5 14.4 207.5 14.4 207.4 14.4 C 207.4 14.4 207.4 14.4 207.4 14.4 Z M 211.5 15.2 C 211.4 14.9 212.2 15.4 211.5 15.2 C 211.5 15.2 211.5 15.2 211.5 15.2 Z M 214.8 12.8 C 214.8 12.7 214.8 12.7 214.8 12.8 C 214.8 12.8 214.8 12.8 214.8 12.8 Z M 208.8 13.3 C 208.8 13.2 208.8 13.2 208.8 13.3 C 208.8 13.3 208.8 13.3 208.8 13.3 Z M 208.2 14.9 C 208.8 16.0 206.6 14.5 208.2 14.9 C 208.2 14.9 208.2 14.9 208.2 14.9 Z M 195.0 12.0 C 194.9 12.5 194.0 11.8 195.0 12.0 C 195.0 12.0 195.0 12.0 195.0 12.0 Z M 199.8 14.4 C 199.6 14.7 199.2 14.3 199.8 14.4 C 199.8 14.4 199.8 14.4 199.8 14.4 Z M 202.0 16.0 C 201.8 16.3 201.4 15.9 202.0 16.0 C 202.0 16.0 202.0 16.0 202.0 16.0 Z M 211.4 15.5 C 211.3 15.6 211.3 15.6 211.4 15.5 C 211.4 15.5 211.4 15.5 211.4 15.5 Z M 209.9 14.6 C 210.9 15.7 208.4 14.0 209.9 14.6 C 209.9 14.6 209.9 14.6 209.9 14.6 Z M 211.7 14.3 C 211.1 13.9 213.0 14.5 211.7 14.3 M 210.7 12.6 C 209.5 13.1 211.8 10.6 210.7 12.6 C 210.7 12.6 210.7 12.6 210.7 12.6 Z M 204.4 12.2 C 204.3 12.1 204.3 12.1 204.4 12.2 C 204.4 12.2 204.4 12.2 204.4 12.2 Z M 205.1 15.4 C 204.0 15.4 205.8 15.1 205.1 15.4 C 205.1 15.4 205.1 15.4 205.1 15.4 Z M 214.5 15.7 C 213.4 15.6 215.2 15.4 214.5 15.7 C 214.5 15.7 214.5 15.7 214.5 15.7 Z M 200.8 13.3 C 199.0 13.4 201.9 12.7 200.8 13.3 C 200.8 13.3 200.8 13.3 200.8 13.3 Z M 194.2 14.5 C 194.2 14.5 194.2 14.5 194.2 14.5 C 194.2 14.5 194.2 14.5 194.2 14.5 Z M 193.0 15.0 C 193.0 15.0 193.0 15.0 193.0 15.0 C 193.0 15.0 193.0 15.0 193.0 15.0 Z M 188.0 13.9 C 187.9 13.8 187.9 13.8 188.0 13.9 C 188.0 13.9 188.0 13.9 188.0 13.9 Z M 191.9 15.5 C 191.9 15.5 191.9 15.5 191.9 15.5 C 191.9 15.5 191.9 15.5 191.9 15.5 Z M 188.4 15.2 C 188.3 15.2 188.3 15.2 188.4 15.2 C 188.4 15.2 188.4 15.2 188.4 15.2 Z M 188.9 16.2 C 188.8 16.2 188.8 16.2 188.9 16.2 C 188.9 16.2 188.9 16.2 188.9 16.2 Z M 196.7 11.4 C 196.6 11.3 196.6 11.3 196.7 11.4 C 196.7 11.4 196.7 11.4 196.7 11.4 Z M 209.5 15.9 C 209.4 15.8 209.4 15.8 209.5 15.9 C 209.5 15.9 209.5 15.9 209.5 15.9 Z M 188.7 14.8 C 188.7 14.8 188.7 14.8 188.7 14.8 C 188.7 14.8 188.7 14.8 188.7 14.8 Z M 197.3 13.9 C 197.2 13.0 198.0 15.2 197.0 14.0 C 197.1 13.9 197.3 14.1 197.3 13.9 M 196.1 12.4 C 196.2 12.3 196.2 12.3 196.1 12.4 C 196.1 12.4 196.1 12.4 196.1 12.4 Z M 200.0 11.8 C 200.0 11.8 200.0 11.8 200.0 11.8 C 200.0 11.8 200.0 11.8 200.0 11.8 Z M 192.5 15.7 C 192.7 16.2 191.6 15.3 192.7 15.7 M 187.9 12.2 C 188.1 12.7 187.0 11.8 188.1 12.2 M 215.7 15.3 C 215.9 14.9 216.5 15.5 215.7 15.3 M 200.9 11.3 C 201.0 10.9 201.6 11.5 200.9 11.3 M 199.0 12.5 C 199.2 13.0 198.1 12.1 199.2 12.5 M 190.6 12.2 C 190.5 12.2 190.5 12.2 190.6 12.2 C 190.6 12.2 190.6 12.2 190.6 12.2 Z M 203.4 15.3 C 203.4 15.3 203.4 15.3 203.4 15.3 C 203.4 15.3 203.4 15.3 203.4 15.3 Z M 198.7 14.2 C 199.3 14.9 197.8 13.7 198.7 14.2 M 204.8 14.0 C 205.7 14.9 203.3 13.8 204.8 14.0 M 185.9 12.0 C 187.0 13.1 185.1 11.4 185.9 12.0 M 191.1 14.7 C 192.2 15.8 190.3 14.1 191.1 14.7 M 202.5 14.8 C 202.5 15.4 201.4 14.5 202.5 14.8 M 213.3 15.4 C 214.3 15.5 212.0 15.8 213.3 15.4 M 193.2 12.2 C 193.1 12.2 193.1 12.2 193.2 12.2 C 193.2 12.2 193.2 12.2 193.2 12.2 Z M 210.0 11.3 C 210.0 11.2 210.0 11.2 210.0 11.3 C 210.0 11.3 210.0 11.3 210.0 11.3 Z M 184.6 15.5 C 184.5 15.5 184.5 15.5 184.6 15.5 C 184.6 15.5 184.6 15.5 184.6 15.5 Z M 191.8 14.2 C 191.7 14.1 191.7 14.1 191.8 14.2 C 191.8 14.2 191.8 14.2 191.8 14.2 Z M 186.6 15.7 C 186.5 15.6 186.5 15.6 186.6 15.7 C 186.6 15.7 186.6 15.7 186.6 15.7 Z M 195.0 13.4 C 195.0 13.3 195.0 13.3 195.0 13.4 C 195.0 13.4 195.0 13.4 195.0 13.4 Z M 195.7 16.1 C 195.7 16.1 195.7 16.1 195.7 16.1 C 195.7 16.1 195.7 16.1 195.7 16.1 Z M 199.3 14.9 C 199.3 14.9 199.3 14.9 199.3 14.9 C 199.3 14.9 199.3 14.9 199.3 14.9 Z M 194.1 15.9 C 191.9 16.1 195.2 15.0 194.1 15.9 C 194.1 15.9 194.1 15.9 194.1 15.9 Z M 197.8 13.1 C 197.8 13.1 197.8 13.1 197.8 13.1 C 197.8 13.1 197.8 13.1 197.8 13.1 Z M 198.1 15.1 C 196.7 15.9 197.4 13.8 198.1 15.1 M 204.0 15.7 C 203.6 16.2 203.8 15.1 204.0 15.7 M 206.4 12.1 C 206.4 12.1 206.4 12.1 206.4 12.1 C 206.4 12.1 206.4 12.1 206.4 12.1 Z M 205.8 12.4 C 205.7 12.4 205.7 12.4 205.8 12.4 C 205.8 12.4 205.8 12.4 205.8 12.4 Z M 205.5 15.9 C 205.5 15.9 205.5 15.9 205.5 15.9 C 205.5 15.9 205.5 15.9 205.5 15.9 Z M 205.7 11.4 C 205.6 11.4 205.6 11.4 205.7 11.4 C 205.7 11.4 205.7 11.4 205.7 11.4 Z M 196.5 16.0 C 196.5 16.0 196.5 16.0 196.5 16.0 C 196.5 16.0 196.5 16.0 196.5 16.0 Z M 185.5 16.1 C 185.5 16.1 185.5 16.1 185.5 16.1 C 185.5 16.1 185.5 16.1 185.5 16.1 Z M 213.0 12.5 C 212.9 12.5 212.9 12.5 213.0 12.5 C 213.0 12.5 213.0 12.5 213.0 12.5 Z M 195.4 15.0 C 195.3 14.9 195.3 14.9 195.4 15.0 C 195.4 15.0 195.4 15.0 195.4 15.0 Z M 208.0 12.3 C 207.9 12.3 207.9 12.3 208.0 12.3 C 208.0 12.3 208.0 12.3 208.0 12.3 Z M 196.1 15.2 C 196.1 15.2 196.1 15.2 196.1 15.2 C 196.1 15.2 196.1 15.2 196.1 15.2 Z M 193.5 12.0 C 193.5 12.0 193.5 12.0 193.5 12.0 C 193.5 12.0 193.5 12.0 193.5 12.0 Z M 191.1 11.4 C 191.1 11.4 191.1 11.4 191.1 11.4 C 191.1 11.4 191.1 11.4 191.1 11.4 Z M 193.7 13.9 C 193.6 13.9 193.6 13.9 193.7 13.9 C 193.7 13.9 193.7 13.9 193.7 13.9 Z M 208.7 13.5 C 213.1 14.4 205.3 13.9 208.7 13.5 M 192.9 13.7 C 196.0 13.9 190.5 14.7 192.9 13.7 C 192.6 14.0 192.9 13.7 192.9 13.7 M 183.5 16.0 C 184.7 15.0 184.7 14.0 184.2 13.0 C 183.6 12.4 183.6 14.5 183.6 12.7 C 185.0 12.4 183.0 10.2 183.0 12.4 C 181.1 12.7 182.7 11.0 181.6 11.9 C 179.6 12.1 180.6 11.4 179.1 11.6 C 178.2 12.8 178.2 11.0 177.8 12.1 C 178.5 10.9 176.1 12.4 176.1 11.9 C 177.5 11.1 170.8 11.9 174.4 12.2 C 172.9 12.8 173.2 11.8 172.7 11.6 C 172.1 12.4 170.3 11.1 169.3 11.8 C 169.5 11.9 170.0 12.0 170.1 12.2 C 170.4 12.7 169.1 12.1 169.2 12.2 C 168.6 12.4 166.2 13.2 168.8 11.9 C 168.9 11.3 166.7 12.2 166.8 11.6 C 164.5 11.6 166.2 12.8 165.2 11.9 C 163.6 11.9 162.5 11.9 162.5 12.0 C 161.5 11.9 161.3 11.2 160.4 11.9 C 158.5 10.6 159.1 14.4 158.3 11.8 C 157.8 12.4 157.2 10.8 157.3 12.4 C 158.0 11.6 154.0 11.1 155.7 12.3 C 155.3 12.7 152.8 10.6 153.1 12.3 C 152.2 13.4 152.4 14.6 154.3 15.7 C 154.1 14.8 156.4 16.7 154.9 15.1 C 153.3 14.6 158.0 14.5 157.0 15.1 C 156.8 17.0 159.3 13.9 160.3 15.3 C 159.5 14.5 163.4 14.2 162.2 15.6 C 163.0 15.7 163.1 15.0 163.9 15.8 C 161.6 15.7 164.8 14.4 164.7 15.2 C 164.3 15.8 167.7 16.2 167.4 15.4 C 166.2 13.4 168.3 15.8 168.9 15.0 C 170.8 14.6 168.6 16.7 170.0 15.3 C 170.4 15.5 172.9 15.5 171.3 15.9 C 170.7 15.7 172.8 13.8 173.1 15.4 C 170.4 16.4 176.2 15.9 175.3 15.4 C 171.1 14.5 179.7 14.4 176.4 15.3 C 178.3 16.2 175.9 15.7 178.2 15.3 C 177.9 14.8 179.7 14.2 179.3 15.3 C 179.6 16.9 179.9 13.2 181.3 15.3 C 181.5 16.3 184.1 14.7 183.1 15.7 C 183.0 15.8 183.4 16.0 183.5 16.0 M 182.7 15.8 C 183.0 15.4 183.2 16.2 182.7 15.8 M 183.0 15.5 C 183.0 15.5 183.0 15.5 183.0 15.5 C 183.0 15.5 183.0 15.5 183.0 15.5 Z M 178.5 15.2 C 178.6 15.3 178.6 15.3 178.5 15.2 C 178.5 15.2 178.5 15.2 178.5 15.2 Z M 175.0 11.3 C 175.0 11.3 175.0 11.3 175.0 11.3 C 175.0 11.3 175.0 11.3 175.0 11.3 Z M 175.6 15.1 C 175.6 15.1 175.6 15.1 175.6 15.1 C 175.6 15.1 175.6 15.1 175.6 15.1 Z M 180.1 15.0 C 180.2 15.0 180.2 15.0 180.1 15.0 C 180.1 15.0 180.1 15.0 180.1 15.0 Z M 175.8 15.7 C 175.6 15.1 176.9 16.1 175.8 15.8 C 175.8 15.8 176.0 15.8 175.8 15.7 M 172.0 15.9 C 171.9 15.9 171.9 15.9 172.0 15.9 M 163.4 11.3 C 163.4 11.2 163.4 11.2 163.4 11.3 M 162.7 16.0 C 162.6 15.9 162.6 15.9 162.7 16.0 M 168.1 15.3 C 166.9 15.4 167.8 15.0 168.1 15.3 M 159.6 15.6 C 161.1 16.0 158.0 16.0 159.6 15.6 M 158.1 16.0 C 158.0 15.9 158.0 15.9 158.1 16.0 M 164.9 15.8 C 164.9 15.7 164.9 15.7 164.9 15.8 C 164.9 15.8 164.9 15.8 164.9 15.8 Z M 168.6 15.6 C 170.2 15.9 167.0 16.1 168.6 15.6 M 178.0 15.8 C 177.2 16.1 178.0 15.0 178.0 15.8 M 179.8 15.5 C 179.8 15.4 179.8 15.4 179.8 15.5 C 179.8 15.5 179.8 15.5 179.8 15.5 Z M 162.0 15.7 C 162.0 15.7 162.0 15.7 162.0 15.7 C 162.0 15.7 162.0 15.7 162.0 15.7 Z M 160.3 15.8 C 160.3 15.8 160.3 15.8 160.3 15.8 C 160.3 15.8 160.3 15.8 160.3 15.8 Z M 157.4 11.4 C 157.5 11.4 157.5 11.4 157.4 11.4 C 157.4 11.4 157.4 11.4 157.4 11.4 Z M 178.5 13.6 C 179.6 13.9 177.3 15.1 177.5 14.0 C 177.4 13.6 178.3 13.7 178.5 13.6 M 169.7 14.3 C 169.4 12.8 170.9 16.3 169.7 14.3 M 157.9 15.0 C 156.8 13.3 159.4 16.3 157.9 15.0 M 155.6 15.3 C 154.9 15.0 159.9 15.1 156.4 15.6 C 156.1 15.9 155.8 15.5 155.6 15.3 M 171.9 15.2 C 171.6 14.4 173.8 15.6 171.9 15.2 M 164.8 12.8 C 164.2 13.3 162.7 13.8 163.4 12.9 C 163.4 11.7 165.5 12.3 164.8 12.8 M 182.3 15.0 C 181.4 16.3 182.3 13.9 182.3 15.0 M 177.8 14.8 C 177.8 14.9 177.8 14.9 177.8 14.8 C 177.8 14.8 177.8 14.8 177.8 14.8 Z M 176.0 15.1 C 175.9 15.0 175.9 15.0 176.0 15.1 M 181.6 16.1 C 181.5 16.0 181.5 16.0 181.6 16.1 M 164.8 14.1 C 164.7 14.0 164.7 14.0 164.8 14.1 M 168.4 15.0 C 166.7 13.7 169.4 14.7 168.4 15.0 M 172.7 12.5 C 172.2 11.9 173.8 12.5 172.7 12.5 M 165.6 15.5 C 164.4 14.3 167.3 14.3 165.6 15.5 M 169.3 15.1 C 169.2 15.1 169.2 15.1 169.3 15.1 C 169.3 15.1 169.3 15.1 169.3 15.1 Z M 164.3 12.6 C 164.4 12.6 164.4 12.6 164.3 12.6 C 164.3 12.6 164.3 12.6 164.3 12.6 Z M 163.8 12.7 C 163.8 12.7 163.8 12.7 163.8 12.7 C 163.8 12.7 163.8 12.7 163.8 12.7 Z M 164.1 15.6 C 164.1 15.6 164.1 15.6 164.1 15.6 C 164.1 15.6 164.1 15.6 164.1 15.6 Z M 179.9 12.1 C 178.7 12.0 180.9 11.9 179.9 12.1 C 179.9 12.1 179.9 12.1 179.9 12.1 Z M 174.4 15.7 C 172.4 14.7 175.9 14.8 174.4 15.7 C 174.4 15.7 174.4 15.7 174.4 15.7 Z M 172.1 14.1 C 172.1 14.0 172.1 14.0 172.1 14.1 C 172.1 14.1 172.1 14.1 172.1 14.1 Z M 166.4 16.2 C 166.4 16.2 166.4 16.2 166.4 16.2 C 166.4 16.2 166.4 16.2 166.4 16.2 Z M 179.3 11.9 C 179.3 11.8 179.3 11.8 179.3 11.9 C 179.3 11.9 179.3 11.9 179.3 11.9 Z M 160.6 15.0 C 160.6 14.9 160.6 14.9 160.6 15.0 C 160.6 15.0 160.6 15.0 160.6 15.0 Z M 167.7 12.4 C 167.2 12.9 167.6 12.1 167.7 12.4 C 167.7 12.4 167.7 12.4 167.7 12.4 Z M 165.8 12.4 C 165.8 12.4 165.8 12.4 165.8 12.4 C 165.8 12.4 165.8 12.4 165.8 12.4 Z M 157.7 16.1 C 157.6 16.1 157.6 16.1 157.7 16.1 C 157.7 16.1 157.7 16.1 157.7 16.1 Z M 161.1 11.3 C 161.1 11.3 161.1 11.3 161.1 11.3 C 161.1 11.3 161.1 11.3 161.1 11.3 Z M 159.6 12.7 C 159.6 12.7 159.6 12.7 159.6 12.7 C 159.6 12.7 159.6 12.7 159.6 12.7 Z M 164.4 15.3 C 162.6 15.6 164.8 14.8 164.4 15.3 C 164.4 15.3 164.4 15.3 164.4 15.3 Z M 155.0 13.1 C 155.0 13.0 155.0 13.0 155.0 13.1 C 155.0 13.1 155.0 13.1 155.0 13.1 Z M 154.1 14.8 C 154.0 14.7 154.0 14.7 154.1 14.8 C 154.1 14.8 154.1 14.8 154.1 14.8 Z M 153.6 15.7 C 153.6 15.6 153.6 15.6 153.6 15.7 C 153.6 15.7 153.6 15.7 153.6 15.7 Z M 176.0 13.3 C 176.1 13.3 176.1 13.3 176.0 13.3 C 176.0 13.3 176.0 13.3 176.0 13.3 Z M 176.8 16.0 C 176.8 16.0 176.8 16.0 176.8 16.0 C 176.8 16.0 176.8 16.0 176.8 16.0 Z M 174.3 16.1 C 174.3 16.1 174.3 16.1 174.3 16.1 C 174.3 16.1 174.3 16.1 174.3 16.1 Z M 176.5 11.6 C 176.5 11.6 176.5 11.6 176.5 11.6 C 176.5 11.6 176.5 11.6 176.5 11.6 Z M 167.2 13.9 C 167.2 14.0 167.2 14.0 167.2 13.9 C 167.2 13.9 167.2 13.9 167.2 13.9 Z M 166.3 12.8 C 166.3 12.9 166.3 12.9 166.3 12.8 C 166.3 12.8 166.3 12.8 166.3 12.8 Z M 168.4 11.3 C 168.5 11.4 168.5 11.4 168.4 11.3 C 168.4 11.3 168.4 11.3 168.4 11.3 Z M 165.6 11.9 C 165.6 11.9 165.6 11.9 165.6 11.9 C 165.6 11.9 165.6 11.9 165.6 11.9 Z M 182.8 12.1 C 182.8 12.1 182.8 12.1 182.8 12.1 C 182.8 12.1 182.8 12.1 182.8 12.1 Z M 183.0 14.2 C 183.0 14.1 183.0 14.1 183.0 14.2 C 183.0 14.2 183.0 14.2 183.0 14.2 Z M 166.9 15.4 C 166.5 15.9 166.0 14.8 166.9 15.4 M 170.4 15.2 C 170.5 15.1 170.5 15.1 170.4 15.2 C 170.4 15.2 170.4 15.2 170.4 15.2 Z M 160.9 15.4 C 160.4 14.5 162.6 15.8 160.9 15.4 C 160.9 15.4 160.9 15.4 160.9 15.4 Z M 162.8 11.9 C 162.7 11.8 162.7 11.8 162.8 11.9 C 162.8 11.9 162.8 11.9 162.8 11.9 Z M 161.8 12.2 C 161.8 12.1 161.8 12.1 161.8 12.2 C 161.8 12.2 161.8 12.2 161.8 12.2 Z M 156.7 14.5 C 156.6 14.4 156.6 14.4 156.7 14.5 M 170.9 15.9 C 170.4 15.6 170.5 15.6 170.9 15.9 M 159.7 15.3 C 159.7 15.3 159.7 15.3 159.7 15.3 C 159.7 15.3 159.7 15.3 159.7 15.3 Z M 155.5 14.9 C 155.6 14.9 155.6 14.9 155.5 14.9 C 155.5 14.9 155.5 14.9 155.5 14.9 Z M 173.4 15.4 C 173.3 14.3 173.8 14.6 173.4 15.4 M 180.5 15.0 C 180.5 15.0 180.5 15.0 180.5 15.0 C 180.5 15.0 180.5 15.0 180.5 15.0 Z M 149.9 15.7 C 151.8 16.8 151.8 15.2 151.8 15.2 C 151.6 17.3 153.6 14.3 153.2 13.9 C 153.2 13.6 151.7 9.9 150.4 12.2 C 150.0 12.4 149.8 11.8 149.5 11.7 C 147.2 11.8 151.2 12.9 148.3 12.9 C 147.8 12.6 148.4 10.8 146.7 12.0 C 146.6 11.9 144.7 11.2 145.4 12.0 C 144.5 11.2 143.9 12.2 143.0 12.4 C 142.3 11.9 143.7 11.1 140.9 12.1 C 139.7 10.6 139.3 13.2 138.2 11.6 C 137.5 11.5 136.5 14.2 138.1 12.7 C 137.8 12.8 138.9 14.1 136.7 13.6 C 137.0 13.3 138.2 10.6 134.7 11.9 C 134.2 11.8 132.9 12.5 132.6 12.2 C 134.3 11.9 130.1 11.0 130.6 11.9 C 127.8 11.3 129.4 12.5 127.4 11.6 C 125.8 11.6 127.9 12.8 125.9 12.1 C 124.4 12.2 125.4 11.6 125.6 11.6 C 124.3 11.5 123.8 12.0 123.3 12.0 C 123.0 11.8 122.4 11.3 122.1 11.9 C 120.7 13.2 122.0 14.4 121.3 15.6 C 122.4 16.2 121.8 14.7 122.5 15.6 C 123.0 14.8 122.6 15.6 125.4 15.5 C 125.3 15.3 124.6 14.8 125.3 14.7 C 126.4 14.8 125.6 16.8 127.4 15.4 C 125.3 14.9 130.4 14.7 128.4 14.3 C 130.9 14.0 129.1 14.5 130.9 14.9 C 130.8 13.6 131.0 16.4 131.7 15.3 C 131.9 15.9 134.7 15.6 132.7 14.8 C 135.6 14.4 133.7 15.2 134.8 15.9 C 136.1 16.0 134.9 13.7 135.7 15.4 C 137.4 16.2 135.8 14.6 137.0 15.9 C 136.5 14.7 138.3 15.9 137.8 14.6 C 140.8 14.5 137.5 16.0 139.6 15.1 C 138.9 15.0 139.2 16.8 140.4 15.6 C 139.9 13.6 142.1 17.5 141.2 14.7 C 145.3 14.0 141.9 15.9 144.2 15.9 C 144.8 15.9 143.5 15.0 144.1 15.0 C 147.0 15.4 144.6 16.1 146.1 14.7 C 149.0 14.4 146.9 15.9 148.4 16.0 C 148.5 15.3 149.6 14.2 149.9 15.7 M 147.3 15.0 C 146.7 15.4 146.9 14.6 147.3 15.0 M 153.2 15.7 C 152.5 16.1 152.8 15.2 153.2 15.7 M 144.9 15.4 C 144.1 15.9 144.7 14.7 144.9 15.4 M 129.3 14.8 C 130.4 14.8 128.8 15.1 129.3 14.8 M 150.8 15.7 C 150.0 16.3 150.6 15.0 150.8 15.7 M 151.9 14.7 C 151.8 14.7 151.8 14.7 151.9 14.7 M 127.7 15.9 C 127.7 15.8 127.7 15.8 127.7 15.9 M 131.9 15.9 C 131.0 15.8 132.4 15.6 131.9 15.9 M 132.1 11.4 C 131.2 11.4 132.6 11.1 132.1 11.4 M 125.4 15.9 C 124.5 16.3 125.2 15.4 125.4 15.9 M 123.1 14.9 C 122.3 15.3 122.6 14.5 123.1 14.9 M 147.8 13.5 C 147.9 13.4 147.9 13.4 147.8 13.5 C 147.8 13.5 147.8 13.5 147.8 13.5 Z M 140.2 12.3 C 141.1 12.8 139.0 11.8 140.2 12.3 M 141.6 15.3 C 141.0 14.4 142.8 15.3 141.6 15.3 C 141.6 15.3 141.6 15.3 141.6 15.3 Z M 142.9 14.9 C 142.9 14.8 142.9 14.8 142.9 14.9 C 142.9 14.9 142.9 14.9 142.9 14.9 Z M 138.6 14.8 C 138.6 14.8 138.6 14.8 138.6 14.8 C 138.6 14.8 138.6 14.8 138.6 14.8 Z M 139.5 14.7 C 139.8 14.5 140.0 14.9 139.5 14.7 C 139.5 14.7 139.5 14.7 139.5 14.7 Z M 133.2 11.8 C 133.5 11.7 133.6 12.0 133.2 11.8 C 133.2 11.8 133.2 11.8 133.2 11.8 Z M 140.8 14.4 C 141.0 13.5 141.5 15.0 140.8 14.4 C 140.8 14.4 140.8 14.4 140.8 14.4 Z M 136.2 12.3 C 135.8 12.5 135.4 11.4 136.2 12.3 M 126.8 15.7 C 126.5 15.9 126.0 14.8 126.8 15.7 M 136.0 16.0 C 135.6 16.2 135.2 15.1 136.0 16.0 M 146.8 15.4 C 146.7 15.3 146.7 15.3 146.8 15.4 M 141.7 11.5 C 141.1 11.8 141.4 11.1 141.7 11.5 M 150.4 11.8 C 149.8 12.1 150.1 11.4 150.4 11.8 M 128.1 11.5 C 128.2 11.7 127.2 11.4 128.1 11.5 M 134.9 14.5 C 134.1 14.4 133.3 13.9 135.0 14.0 C 135.1 14.2 134.6 14.3 134.9 14.5 C 134.9 14.5 134.9 14.5 134.9 14.5 Z M 132.1 12.4 C 131.9 12.3 131.9 12.3 132.1 12.4 M 133.5 15.3 C 133.4 15.3 133.4 15.3 133.5 15.3 M 128.8 15.3 C 128.7 15.1 128.7 15.1 128.8 15.3 M 128.2 15.5 C 128.2 15.5 128.2 15.5 128.2 15.5 C 128.2 15.5 128.2 15.5 128.2 15.5 Z M 123.1 15.9 C 123.1 15.8 123.1 15.8 123.1 15.9 C 123.1 15.9 123.1 15.9 123.1 15.9 Z M 130.3 15.1 C 130.3 15.1 130.3 15.1 130.3 15.1 C 130.3 15.1 130.3 15.1 130.3 15.1 Z M 126.1 11.7 C 126.1 11.6 126.1 11.6 126.1 11.7 C 126.1 11.7 126.1 11.7 126.1 11.7 Z M 126.6 12.2 C 126.6 12.2 126.6 12.2 126.6 12.2 C 126.6 12.2 126.6 12.2 126.6 12.2 Z M 149.5 15.7 C 148.8 16.3 149.1 14.1 149.5 15.7 M 124.3 12.2 C 123.6 11.6 125.5 12.1 124.3 12.2 C 124.3 12.2 124.3 12.2 124.3 12.2 Z M 130.9 14.4 C 130.8 14.3 130.8 14.3 130.9 14.4 M 127.9 15.4 C 127.9 15.3 127.9 15.3 127.9 15.4 M 141.6 16.1 C 141.5 16.0 141.5 16.0 141.6 16.1 M 124.3 15.2 C 122.1 15.0 125.3 14.0 124.3 15.2 M 142.6 15.2 C 142.7 15.3 142.7 15.3 142.6 15.2 M 137.7 13.6 C 136.2 13.6 138.2 13.0 137.7 13.6 M 133.9 14.7 C 134.0 14.6 134.0 14.6 133.9 14.7 C 133.9 14.7 133.9 14.7 133.9 14.7 Z M 136.1 14.7 C 137.2 14.6 136.4 14.9 136.1 14.7 C 136.1 14.7 136.1 14.7 136.1 14.7 Z M 148.5 14.8 C 147.1 14.7 149.9 14.5 148.5 14.8 C 148.5 14.8 148.5 14.8 148.5 14.8 Z M 125.3 13.1 C 125.4 13.1 125.4 13.1 125.3 13.1 C 125.3 13.1 125.3 13.1 125.3 13.1 Z M 130.6 15.8 C 131.2 15.5 130.9 16.0 130.6 15.8 C 130.6 15.8 130.6 15.8 130.6 15.8 Z M 122.3 15.9 C 122.9 15.6 122.6 16.1 122.3 15.9 C 122.3 15.9 122.3 15.9 122.3 15.9 Z M 150.1 15.0 C 145.0 13.5 156.9 15.4 150.1 15.0 C 150.1 15.0 150.1 15.0 150.1 15.0 Z M 135.2 15.3 C 135.3 15.3 135.3 15.3 135.2 15.3 C 135.2 15.3 135.2 15.3 135.2 15.3 Z M 144.6 15.9 C 144.7 15.9 144.7 15.9 144.6 15.9 C 144.6 15.9 144.6 15.9 144.6 15.9 Z M 146.2 15.1 C 146.3 15.1 146.3 15.1 146.2 15.1 C 146.2 15.1 146.2 15.1 146.2 15.1 Z M 145.8 11.6 C 145.8 11.5 145.8 11.5 145.8 11.6 C 145.8 11.6 145.8 11.6 145.8 11.6 Z M 145.2 13.2 C 145.3 13.1 145.3 13.1 145.2 13.2 C 145.2 13.2 145.2 13.2 145.2 13.2 Z M 148.5 12.6 C 148.6 12.5 148.6 12.5 148.5 12.6 C 148.5 12.6 148.5 12.6 148.5 12.6 Z M 148.4 12.1 C 148.5 12.1 148.5 12.1 148.4 12.1 C 148.4 12.1 148.4 12.1 148.4 12.1 Z M 127.9 14.4 C 128.0 14.3 128.0 14.3 127.9 14.4 C 127.9 14.4 127.9 14.4 127.9 14.4 Z M 129.7 12.9 C 128.5 13.5 130.0 12.2 129.7 12.9 C 129.7 12.9 129.7 12.9 129.7 12.9 Z M 140.2 13.7 C 139.1 13.9 140.9 13.2 140.2 13.7 C 140.2 13.7 140.2 13.7 140.2 13.7 Z M 139.0 11.7 C 139.0 11.7 139.0 11.7 139.0 11.7 C 139.0 11.7 139.0 11.7 139.0 11.7 Z M 146.2 16.0 C 146.3 15.9 146.3 15.9 146.2 16.0 C 146.2 16.0 146.2 16.0 146.2 16.0 Z M 148.2 15.4 C 148.3 14.6 148.8 15.7 148.2 15.4 M 138.2 15.8 C 138.2 15.7 138.2 15.7 138.2 15.8 C 138.2 15.8 138.2 15.8 138.2 15.8 Z M 131.8 14.6 C 131.8 14.6 131.8 14.6 131.8 14.6 C 131.8 14.6 131.8 14.6 131.8 14.6 Z M 125.5 15.1 C 125.5 15.0 125.5 15.0 125.5 15.1 C 125.5 15.1 125.5 15.1 125.5 15.1 Z M 134.2 15.7 C 134.2 15.6 134.2 15.6 134.2 15.7 C 134.2 15.7 134.2 15.7 134.2 15.7 Z M 137.2 15.0 C 137.2 14.9 137.2 14.9 137.2 15.0 C 137.2 15.0 137.2 15.0 137.2 15.0 Z M 124.1 14.0 C 124.1 14.0 124.1 14.0 124.1 14.0 C 124.1 14.0 124.1 14.0 124.1 14.0 Z M 133.5 15.8 C 133.5 15.8 133.5 15.8 133.5 15.8 C 133.5 15.8 133.5 15.8 133.5 15.8 Z M 131.7 13.4 C 131.7 13.4 131.7 13.4 131.7 13.4 C 131.7 13.4 131.7 13.4 131.7 13.4 Z M 147.9 16.4 C 148.0 16.4 148.0 16.4 147.9 16.4 C 147.9 16.4 147.9 16.4 147.9 16.4 Z M 124.0 15.0 C 124.0 15.0 124.0 15.0 124.0 15.0 C 124.0 15.0 124.0 15.0 124.0 15.0 Z M 123.6 15.7 C 123.6 15.7 123.6 15.7 123.6 15.7 C 123.6 15.7 123.6 15.7 123.6 15.7 Z M 128.1 12.1 C 130.3 12.6 126.1 12.3 127.7 13.1 C 124.5 13.3 127.6 12.1 128.1 12.1 C 128.1 12.1 128.1 12.1 128.1 12.1 Z M 120.6 16.0 C 121.9 15.0 121.9 14.0 121.3 13.0 C 120.7 12.4 120.7 14.5 120.7 12.7 C 122.1 12.4 120.1 10.2 120.1 12.4 C 118.3 12.7 119.8 11.0 118.7 11.9 C 116.7 12.1 117.7 11.4 116.2 11.6 C 115.3 12.8 115.3 11.0 114.9 12.1 C 115.7 10.9 113.3 12.4 113.2 11.9 C 114.6 11.1 107.9 11.9 111.6 12.2 C 110.1 12.8 110.3 11.8 109.8 11.6 C 109.2 12.4 107.4 11.1 106.5 11.8 C 106.7 11.9 107.1 12.0 107.3 12.2 C 107.5 12.7 106.2 12.1 106.4 12.2 C 105.7 12.4 103.3 13.2 105.9 11.9 C 106.0 11.3 103.8 12.2 103.9 11.6 C 101.7 11.6 103.3 12.8 102.3 11.9 C 100.8 11.9 99.6 11.9 99.6 12.0 C 98.7 11.9 98.5 11.2 97.6 11.9 C 95.6 10.6 96.2 14.4 95.5 11.8 C 94.9 12.4 94.4 10.8 94.5 12.4 C 95.1 11.6 91.1 11.1 92.9 12.3 C 92.4 12.7 89.9 10.6 90.2 12.3 C 89.4 13.4 89.5 14.6 91.5 15.7 C 91.3 14.8 93.5 16.7 92.1 15.1 C 90.4 14.6 95.2 14.5 94.1 15.1 C 93.9 17.0 96.5 13.9 97.5 15.3 C 96.6 14.5 100.5 14.2 99.4 15.6 C 100.1 15.7 100.3 15.0 101.1 15.8 C 98.7 15.7 101.9 14.4 101.8 15.2 C 101.4 15.8 104.9 16.2 104.5 15.4 C 103.3 13.4 105.4 15.8 106.0 15.0 C 107.9 14.6 105.7 16.7 107.1 15.3 C 107.5 15.5 110.0 15.5 108.4 15.9 C 107.8 15.7 110.0 13.8 110.2 15.4 C 107.5 16.4 113.3 15.9 112.4 15.4 C 108.2 14.5 116.9 14.4 113.6 15.3 C 115.4 16.2 113.0 15.7 115.3 15.3 C 115.0 14.8 116.8 14.2 116.4 15.3 C 116.8 16.9 117.0 13.2 118.4 15.3 C 118.7 16.3 121.2 14.7 120.2 15.7 C 120.2 15.8 120.6 16.0 120.6 16.0 M 119.8 15.8 C 120.1 15.4 120.3 16.2 119.8 15.8 M 120.1 15.5 C 120.2 15.5 120.2 15.5 120.1 15.5 C 120.1 15.5 120.1 15.5 120.1 15.5 Z M 115.7 15.2 C 115.7 15.3 115.7 15.3 115.7 15.2 C 115.7 15.2 115.7 15.2 115.7 15.2 Z M 112.2 11.3 C 112.2 11.3 112.2 11.3 112.2 11.3 C 112.2 11.3 112.2 11.3 112.2 11.3 Z M 112.7 15.1 C 112.7 15.1 112.7 15.1 112.7 15.1 C 112.7 15.1 112.7 15.1 112.7 15.1 Z M 117.3 15.0 C 117.3 15.0 117.3 15.0 117.3 15.0 C 117.3 15.0 117.3 15.0 117.3 15.0 Z M 113.0 15.7 C 112.8 15.1 114.0 16.1 112.9 15.8 C 112.9 15.8 113.1 15.8 113.0 15.7 M 109.1 15.9 C 109.1 15.9 109.1 15.9 109.1 15.9 M 100.6 11.3 C 100.5 11.2 100.5 11.2 100.6 11.3 M 99.8 16.0 C 99.8 15.9 99.8 15.9 99.8 16.0 M 105.2 15.3 C 104.1 15.4 105.0 15.0 105.2 15.3 M 96.7 15.6 C 98.2 16.0 95.1 16.0 96.7 15.6 M 95.3 16.0 C 95.1 15.9 95.1 15.9 95.3 16.0 M 102.0 15.8 C 102.0 15.7 102.0 15.7 102.0 15.8 C 102.0 15.8 102.0 15.8 102.0 15.8 Z M 105.7 15.6 C 107.3 15.9 104.2 16.1 105.7 15.6 M 115.2 15.8 C 114.3 16.1 115.2 15.0 115.2 15.8 M 116.9 15.5 C 116.9 15.4 116.9 15.4 116.9 15.5 C 116.9 15.5 116.9 15.5 116.9 15.5 Z M 99.1 15.7 C 99.2 15.7 99.2 15.7 99.1 15.7 C 99.1 15.7 99.1 15.7 99.1 15.7 Z M 97.4 15.8 C 97.5 15.8 97.5 15.8 97.4 15.8 C 97.4 15.8 97.4 15.8 97.4 15.8 Z M 94.5 11.4 C 94.6 11.4 94.6 11.4 94.5 11.4 C 94.5 11.4 94.5 11.4 94.5 11.4 Z M 115.6 13.6 C 116.8 13.9 114.4 15.1 114.7 14.0 C 114.5 13.6 115.5 13.7 115.6 13.6 M 106.9 14.3 C 106.6 12.8 108.0 16.3 106.9 14.3 M 95.1 15.0 C 93.9 13.3 96.5 16.3 95.1 15.0 M 92.7 15.3 C 92.0 15.0 97.1 15.1 93.5 15.6 C 93.2 15.9 93.0 15.5 92.7 15.3 M 109.0 15.2 C 108.7 14.4 110.9 15.6 109.0 15.2 M 101.9 12.8 C 101.4 13.3 99.9 13.8 100.5 12.9 C 100.5 11.7 102.6 12.3 101.9 12.8 M 119.4 15.0 C 118.5 16.3 119.5 13.9 119.4 15.0 M 114.9 14.8 C 114.9 14.9 114.9 14.9 114.9 14.8 C 114.9 14.8 114.9 14.8 114.9 14.8 Z M 113.2 15.1 C 113.1 15.0 113.1 15.0 113.2 15.1 M 118.7 16.1 C 118.6 16.0 118.6 16.0 118.7 16.1 M 101.9 14.1 C 101.9 14.0 101.9 14.0 101.9 14.1 M 105.6 15.0 C 103.9 13.7 106.5 14.7 105.6 15.0 M 109.8 12.5 C 109.3 11.9 110.9 12.5 109.8 12.5 M 102.7 15.5 C 101.5 14.3 104.4 14.3 102.7 15.5 M 106.4 15.1 C 106.4 15.1 106.4 15.1 106.4 15.1 C 106.4 15.1 106.4 15.1 106.4 15.1 Z M 101.5 12.6 C 101.5 12.6 101.5 12.6 101.5 12.6 C 101.5 12.6 101.5 12.6 101.5 12.6 Z M 100.9 12.7 C 101.0 12.7 101.0 12.7 100.9 12.7 C 100.9 12.7 100.9 12.7 100.9 12.7 Z M 101.2 15.6 C 101.3 15.6 101.3 15.6 101.2 15.6 C 101.2 15.6 101.2 15.6 101.2 15.6 Z M 117.0 12.1 C 115.8 12.0 118.0 11.9 117.0 12.1 C 117.0 12.1 117.0 12.1 117.0 12.1 Z M 111.6 15.7 C 109.5 14.7 113.0 14.8 111.6 15.7 C 111.6 15.7 111.6 15.7 111.6 15.7 Z M 109.3 14.1 C 109.3 14.0 109.3 14.0 109.3 14.1 C 109.3 14.1 109.3 14.1 109.3 14.1 Z M 103.5 16.2 C 103.5 16.2 103.5 16.2 103.5 16.2 C 103.5 16.2 103.5 16.2 103.5 16.2 Z M 116.4 11.9 C 116.4 11.8 116.4 11.8 116.4 11.9 C 116.4 11.9 116.4 11.9 116.4 11.9 Z M 97.7 15.0 C 97.7 14.9 97.7 14.9 97.7 15.0 C 97.7 15.0 97.7 15.0 97.7 15.0 Z M 104.8 12.4 C 104.3 12.9 104.7 12.1 104.8 12.4 C 104.8 12.4 104.8 12.4 104.8 12.4 Z M 103.0 12.4 C 102.9 12.4 102.9 12.4 103.0 12.4 C 103.0 12.4 103.0 12.4 103.0 12.4 Z M 94.8 16.1 C 94.8 16.1 94.8 16.1 94.8 16.1 C 94.8 16.1 94.8 16.1 94.8 16.1 Z M 98.3 11.3 C 98.2 11.3 98.2 11.3 98.3 11.3 C 98.3 11.3 98.3 11.3 98.3 11.3 Z M 96.7 12.7 C 96.7 12.7 96.7 12.7 96.7 12.7 C 96.7 12.7 96.7 12.7 96.7 12.7 Z M 101.5 15.3 C 99.7 15.6 102.0 14.8 101.5 15.3 C 101.5 15.3 101.5 15.3 101.5 15.3 Z M 92.2 13.1 C 92.1 13.0 92.1 13.0 92.2 13.1 C 92.2 13.1 92.2 13.1 92.2 13.1 Z M 91.2 14.8 C 91.2 14.7 91.2 14.7 91.2 14.8 C 91.2 14.8 91.2 14.8 91.2 14.8 Z M 90.8 15.7 C 90.7 15.6 90.7 15.6 90.8 15.7 C 90.8 15.7 90.8 15.7 90.8 15.7 Z M 113.2 13.3 C 113.2 13.3 113.2 13.3 113.2 13.3 C 113.2 13.3 113.2 13.3 113.2 13.3 Z M 113.9 16.0 C 113.9 16.0 113.9 16.0 113.9 16.0 C 113.9 16.0 113.9 16.0 113.9 16.0 Z M 111.4 16.1 C 111.4 16.1 111.4 16.1 111.4 16.1 C 111.4 16.1 111.4 16.1 111.4 16.1 Z M 113.6 11.6 C 113.7 11.6 113.7 11.6 113.6 11.6 C 113.6 11.6 113.6 11.6 113.6 11.6 Z M 104.3 13.9 C 104.3 14.0 104.3 14.0 104.3 13.9 C 104.3 13.9 104.3 13.9 104.3 13.9 Z M 103.4 12.8 C 103.5 12.9 103.5 12.9 103.4 12.8 C 103.4 12.8 103.4 12.8 103.4 12.8 Z M 105.6 11.3 C 105.6 11.4 105.6 11.4 105.6 11.3 C 105.6 11.3 105.6 11.3 105.6 11.3 Z M 102.7 11.9 C 102.8 11.9 102.8 11.9 102.7 11.9 C 102.7 11.9 102.7 11.9 102.7 11.9 Z M 119.9 12.1 C 119.9 12.1 119.9 12.1 119.9 12.1 C 119.9 12.1 119.9 12.1 119.9 12.1 Z M 120.1 14.2 C 120.1 14.1 120.1 14.1 120.1 14.2 C 120.1 14.2 120.1 14.2 120.1 14.2 Z M 104.0 15.4 C 103.6 15.9 103.2 14.8 104.0 15.4 M 107.6 15.2 C 107.6 15.1 107.6 15.1 107.6 15.2 C 107.6 15.2 107.6 15.2 107.6 15.2 Z M 98.0 15.4 C 97.6 14.5 99.7 15.8 98.0 15.4 C 98.0 15.4 98.0 15.4 98.0 15.4 Z M 99.9 11.9 C 99.9 11.8 99.9 11.8 99.9 11.9 C 99.9 11.9 99.9 11.9 99.9 11.9 Z M 99.0 12.2 C 98.9 12.1 98.9 12.1 99.0 12.2 C 99.0 12.2 99.0 12.2 99.0 12.2 Z M 93.8 14.5 C 93.7 14.4 93.7 14.4 93.8 14.5 M 108.0 15.9 C 107.5 15.6 107.6 15.6 108.0 15.9 M 96.8 15.3 C 96.9 15.3 96.9 15.3 96.8 15.3 C 96.8 15.3 96.8 15.3 96.8 15.3 Z M 92.7 14.9 C 92.7 14.9 92.7 14.9 92.7 14.9 C 92.7 14.9 92.7 14.9 92.7 14.9 Z M 110.5 15.4 C 110.5 14.3 110.9 14.6 110.5 15.4 M 117.6 15.0 C 117.6 15.0 117.6 15.0 117.6 15.0 C 117.6 15.0 117.6 15.0 117.6 15.0 Z M 87.0 15.7 C 89.0 16.8 89.0 15.2 89.0 15.2 C 88.8 17.3 90.7 14.3 90.3 13.9 C 90.4 13.6 88.9 9.9 87.5 12.2 C 87.2 12.4 87.0 11.8 86.7 11.7 C 84.3 11.8 88.3 12.9 85.4 12.9 C 84.9 12.6 85.5 10.8 83.8 12.0 C 83.7 11.9 81.8 11.2 82.5 12.0 C 81.6 11.2 81.0 12.2 80.2 12.4 C 79.4 11.9 80.8 11.1 78.0 12.1 C 76.9 10.6 76.4 13.2 75.4 11.6 C 74.7 11.5 73.6 14.2 75.2 12.7 C 75.0 12.8 76.0 14.1 73.8 13.6 C 74.1 13.3 75.3 10.6 71.9 11.9 C 71.3 11.8 70.0 12.5 69.7 12.2 C 71.5 11.9 67.3 11.0 67.7 11.9 C 64.9 11.3 66.5 12.5 64.5 11.6 C 62.9 11.6 65.1 12.8 63.0 12.1 C 61.5 12.2 62.6 11.6 62.7 11.6 C 61.4 11.5 60.9 12.0 60.4 12.0 C 60.2 11.8 59.6 11.3 59.2 11.9 C 57.8 13.2 59.1 14.4 58.5 15.6 C 59.5 16.2 58.9 14.7 59.6 15.6 C 60.1 14.8 59.7 15.6 62.5 15.5 C 62.4 15.3 61.8 14.8 62.4 14.7 C 63.5 14.8 62.8 16.8 64.6 15.4 C 62.4 14.9 67.5 14.7 65.5 14.3 C 68.0 14.0 66.3 14.5 68.0 14.9 C 67.9 13.6 68.2 16.4 68.8 15.3 C 69.0 15.9 71.8 15.6 69.8 14.8 C 72.7 14.4 70.9 15.2 71.9 15.9 C 73.2 16.0 72.0 13.7 72.8 15.4 C 74.6 16.2 72.9 14.6 74.2 15.9 C 73.6 14.7 75.4 15.9 75.0 14.6 C 77.9 14.5 74.6 16.0 76.7 15.1 C 76.0 15.0 76.3 16.8 77.6 15.6 C 77.0 13.6 79.3 17.5 78.3 14.7 C 82.5 14.0 79.0 15.9 81.3 15.9 C 81.9 15.9 80.7 15.0 81.2 15.0 C 84.1 15.4 81.7 16.1 83.2 14.7 C 86.1 14.4 84.1 15.9 85.5 16.0 C 85.6 15.3 86.8 14.2 87.0 15.7 M 84.5 15.0 C 83.9 15.4 84.1 14.6 84.5 15.0 M 90.3 15.7 C 89.7 16.1 89.9 15.2 90.3 15.7 M 82.1 15.4 C 81.2 15.9 81.8 14.7 82.1 15.4 M 66.4 14.8 C 67.5 14.8 65.9 15.1 66.4 14.8 M 88.0 15.7 C 87.1 16.3 87.7 15.0 88.0 15.7 M 89.0 14.7 C 89.0 14.7 89.0 14.7 89.0 14.7 M 64.9 15.9 C 64.8 15.8 64.8 15.8 64.9 15.9 M 69.1 15.9 C 68.2 15.8 69.5 15.6 69.1 15.9 M 69.2 11.4 C 68.3 11.4 69.7 11.1 69.2 11.4 M 62.6 15.9 C 61.7 16.3 62.3 15.4 62.6 15.9 M 60.2 14.9 C 59.4 15.3 59.7 14.5 60.2 14.9 M 85.0 13.5 C 85.0 13.4 85.0 13.4 85.0 13.5 C 85.0 13.5 85.0 13.5 85.0 13.5 Z M 77.3 12.3 C 78.2 12.8 76.2 11.8 77.3 12.3 M 78.7 15.3 C 78.1 14.4 79.9 15.3 78.7 15.3 C 78.7 15.3 78.7 15.3 78.7 15.3 Z M 80.1 14.9 C 80.1 14.8 80.1 14.8 80.1 14.9 C 80.1 14.9 80.1 14.9 80.1 14.9 Z M 75.7 14.8 C 75.8 14.8 75.8 14.8 75.7 14.8 C 75.7 14.8 75.7 14.8 75.7 14.8 Z M 76.6 14.7 C 77.0 14.5 77.1 14.9 76.6 14.7 C 76.6 14.7 76.6 14.7 76.6 14.7 Z M 70.3 11.8 C 70.7 11.7 70.8 12.0 70.3 11.8 C 70.3 11.8 70.3 11.8 70.3 11.8 Z M 78.0 14.4 C 78.1 13.5 78.6 15.0 78.0 14.4 C 78.0 14.4 78.0 14.4 78.0 14.4 Z M 73.3 12.3 C 72.9 12.5 72.5 11.4 73.3 12.3 M 64.0 15.7 C 63.6 15.9 63.2 14.8 64.0 15.7 M 73.2 16.0 C 72.8 16.2 72.4 15.1 73.2 16.0 M 84.0 15.4 C 83.9 15.3 83.9 15.3 84.0 15.4 M 78.9 11.5 C 78.3 11.8 78.5 11.1 78.9 11.5 M 87.5 11.8 C 86.9 12.1 87.2 11.4 87.5 11.8 M 65.3 11.5 C 65.3 11.7 64.3 11.4 65.3 11.5 M 72.1 14.5 C 71.3 14.4 70.5 13.9 72.1 14.0 C 72.2 14.2 71.7 14.3 72.1 14.5 C 72.1 14.5 72.1 14.5 72.1 14.5 Z M 69.2 12.4 C 69.1 12.3 69.1 12.3 69.2 12.4 M 70.7 15.3 C 70.5 15.3 70.5 15.3 70.7 15.3 M 66.0 15.3 C 65.8 15.1 65.8 15.1 66.0 15.3 M 65.4 15.5 C 65.4 15.5 65.4 15.5 65.4 15.5 C 65.4 15.5 65.4 15.5 65.4 15.5 Z M 60.2 15.9 C 60.2 15.8 60.2 15.8 60.2 15.9 C 60.2 15.9 60.2 15.9 60.2 15.9 Z M 67.5 15.1 C 67.5 15.1 67.5 15.1 67.5 15.1 C 67.5 15.1 67.5 15.1 67.5 15.1 Z M 63.2 11.7 C 63.2 11.6 63.2 11.6 63.2 11.7 C 63.2 11.7 63.2 11.7 63.2 11.7 Z M 63.7 12.2 C 63.7 12.2 63.7 12.2 63.7 12.2 C 63.7 12.2 63.7 12.2 63.7 12.2 Z M 86.6 15.7 C 85.9 16.3 86.2 14.1 86.6 15.7 M 61.4 12.2 C 60.8 11.6 62.6 12.1 61.4 12.2 C 61.4 12.2 61.4 12.2 61.4 12.2 Z M 68.0 14.4 C 67.9 14.3 67.9 14.3 68.0 14.4 M 65.1 15.4 C 65.0 15.3 65.0 15.3 65.1 15.4 M 78.7 16.1 C 78.7 16.0 78.7 16.0 78.7 16.1 M 61.4 15.2 C 59.3 15.0 62.4 14.0 61.4 15.2 M 79.7 15.2 C 79.8 15.3 79.8 15.3 79.7 15.2 M 74.8 13.6 C 73.3 13.6 75.3 13.0 74.8 13.6 M 71.1 14.7 C 71.1 14.6 71.1 14.6 71.1 14.7 C 71.1 14.7 71.1 14.7 71.1 14.7 Z M 73.3 14.7 C 74.3 14.6 73.5 14.9 73.3 14.7 C 73.3 14.7 73.3 14.7 73.3 14.7 Z M 85.6 14.8 C 84.2 14.7 87.0 14.5 85.6 14.8 C 85.6 14.8 85.6 14.8 85.6 14.8 Z M 62.5 13.1 C 62.5 13.1 62.5 13.1 62.5 13.1 C 62.5 13.1 62.5 13.1 62.5 13.1 Z M 67.7 15.8 C 68.4 15.5 68.0 16.0 67.7 15.8 C 67.7 15.8 67.7 15.8 67.7 15.8 Z M 59.4 15.9 C 60.1 15.6 59.7 16.1 59.4 15.9 C 59.4 15.9 59.4 15.9 59.4 15.9 Z M 87.3 15.0 C 82.2 13.5 94.0 15.4 87.3 15.0 C 87.3 15.0 87.3 15.0 87.3 15.0 Z M 72.4 15.3 C 72.4 15.3 72.4 15.3 72.4 15.3 C 72.4 15.3 72.4 15.3 72.4 15.3 Z M 81.8 15.9 C 81.8 15.9 81.8 15.9 81.8 15.9 C 81.8 15.9 81.8 15.9 81.8 15.9 Z M 83.4 15.1 C 83.4 15.1 83.4 15.1 83.4 15.1 C 83.4 15.1 83.4 15.1 83.4 15.1 Z M 82.9 11.6 C 82.9 11.5 82.9 11.5 82.9 11.6 C 82.9 11.6 82.9 11.6 82.9 11.6 Z M 82.4 13.2 C 82.4 13.1 82.4 13.1 82.4 13.2 C 82.4 13.2 82.4 13.2 82.4 13.2 Z M 85.6 12.6 C 85.7 12.5 85.7 12.5 85.6 12.6 C 85.6 12.6 85.6 12.6 85.6 12.6 Z M 85.6 12.1 C 85.6 12.1 85.6 12.1 85.6 12.1 C 85.6 12.1 85.6 12.1 85.6 12.1 Z M 65.1 14.4 C 65.1 14.3 65.1 14.3 65.1 14.4 C 65.1 14.4 65.1 14.4 65.1 14.4 Z M 66.8 12.9 C 65.6 13.5 67.2 12.2 66.8 12.9 C 66.8 12.9 66.8 12.9 66.8 12.9 Z M 77.3 13.7 C 76.2 13.9 78.0 13.2 77.3 13.7 C 77.3 13.7 77.3 13.7 77.3 13.7 Z M 76.1 11.7 C 76.1 11.7 76.1 11.7 76.1 11.7 C 76.1 11.7 76.1 11.7 76.1 11.7 Z M 83.4 16.0 C 83.4 15.9 83.4 15.9 83.4 16.0 C 83.4 16.0 83.4 16.0 83.4 16.0 Z M 85.4 15.4 C 85.4 14.6 86.0 15.7 85.4 15.4 M 75.3 15.8 C 75.3 15.7 75.3 15.7 75.3 15.8 C 75.3 15.8 75.3 15.8 75.3 15.8 Z M 68.9 14.6 C 68.9 14.6 68.9 14.6 68.9 14.6 C 68.9 14.6 68.9 14.6 68.9 14.6 Z M 62.6 15.1 C 62.6 15.0 62.6 15.0 62.6 15.1 C 62.6 15.1 62.6 15.1 62.6 15.1 Z M 71.3 15.7 C 71.4 15.6 71.4 15.6 71.3 15.7 C 71.3 15.7 71.3 15.7 71.3 15.7 Z M 74.3 15.0 C 74.4 14.9 74.4 14.9 74.3 15.0 C 74.3 15.0 74.3 15.0 74.3 15.0 Z M 61.2 14.0 C 61.3 14.0 61.3 14.0 61.2 14.0 C 61.2 14.0 61.2 14.0 61.2 14.0 Z M 70.6 15.8 C 70.6 15.8 70.6 15.8 70.6 15.8 C 70.6 15.8 70.6 15.8 70.6 15.8 Z M 68.8 13.4 C 68.8 13.4 68.8 13.4 68.8 13.4 C 68.8 13.4 68.8 13.4 68.8 13.4 Z M 85.1 16.4 C 85.1 16.4 85.1 16.4 85.1 16.4 C 85.1 16.4 85.1 16.4 85.1 16.4 Z M 61.1 15.0 C 61.2 15.0 61.2 15.0 61.1 15.0 C 61.1 15.0 61.1 15.0 61.1 15.0 Z M 60.8 15.7 C 60.8 15.7 60.8 15.7 60.8 15.7 C 60.8 15.7 60.8 15.7 60.8 15.7 Z M 65.2 12.1 C 67.5 12.6 63.2 12.3 64.9 13.1 C 61.7 13.3 64.8 12.1 65.2 12.1 C 65.2 12.1 65.2 12.1 65.2 12.1 Z M 57.8 16.0 C 59.0 15.0 59.0 14.0 58.5 13.0 C 57.9 12.4 57.9 14.5 57.8 12.7 C 59.3 12.4 57.2 10.2 57.3 12.4 C 55.4 12.7 57.0 11.0 55.8 11.9 C 53.9 12.1 54.9 11.4 53.3 11.6 C 52.4 12.8 52.4 11.0 52.0 12.1 C 52.8 10.9 50.4 12.4 50.4 11.9 C 51.8 11.1 45.0 11.9 48.7 12.2 C 47.2 12.8 47.5 11.8 47.0 11.6 C 46.3 12.4 44.5 11.1 43.6 11.8 C 43.8 11.9 44.3 12.0 44.4 12.2 C 44.6 12.7 43.4 12.1 43.5 12.2 C 42.9 12.4 40.5 13.2 43.0 11.9 C 43.2 11.3 41.0 12.2 41.0 11.6 C 38.8 11.6 40.5 12.8 39.5 11.9 C 37.9 11.9 36.7 11.9 36.8 12.0 C 35.8 11.9 35.6 11.2 34.7 11.9 C 32.8 10.6 33.3 14.4 32.6 11.8 C 32.0 12.4 31.5 10.8 31.6 12.4 C 32.3 11.6 28.3 11.1 30.0 12.3 C 29.5 12.7 27.0 10.6 27.4 12.3 C 26.5 13.4 26.7 14.6 28.6 15.7 C 28.4 14.8 30.7 16.7 29.2 15.1 C 27.5 14.6 32.3 14.5 31.3 15.1 C 31.0 17.0 33.6 13.9 34.6 15.3 C 33.8 14.5 37.6 14.2 36.5 15.6 C 37.2 15.7 37.4 15.0 38.2 15.8 C 35.9 15.7 39.1 14.4 38.9 15.2 C 38.5 15.8 42.0 16.2 41.7 15.4 C 40.4 13.4 42.6 15.8 43.1 15.0 C 45.0 14.6 42.8 16.7 44.3 15.3 C 44.6 15.5 47.2 15.5 45.6 15.9 C 45.0 15.7 47.1 13.8 47.4 15.4 C 44.6 16.4 50.5 15.9 49.6 15.4 C 45.4 14.5 54.0 14.4 50.7 15.3 C 52.6 16.2 50.2 15.7 52.5 15.3 C 52.2 14.8 54.0 14.2 53.5 15.3 C 53.9 16.9 54.2 13.2 55.6 15.3 C 55.8 16.3 58.4 14.7 57.4 15.7 C 57.3 15.8 57.7 16.0 57.8 16.0 M 56.9 15.8 C 57.2 15.4 57.4 16.2 56.9 15.8 M 57.3 15.5 C 57.3 15.5 57.3 15.5 57.3 15.5 C 57.3 15.5 57.3 15.5 57.3 15.5 Z M 52.8 15.2 C 52.8 15.3 52.8 15.3 52.8 15.2 C 52.8 15.2 52.8 15.2 52.8 15.2 Z M 49.3 11.3 C 49.3 11.3 49.3 11.3 49.3 11.3 C 49.3 11.3 49.3 11.3 49.3 11.3 Z M 49.8 15.1 C 49.9 15.1 49.9 15.1 49.8 15.1 C 49.8 15.1 49.8 15.1 49.8 15.1 Z M 54.4 15.0 C 54.4 15.0 54.4 15.0 54.4 15.0 C 54.4 15.0 54.4 15.0 54.4 15.0 Z M 50.1 15.7 C 49.9 15.1 51.1 16.1 50.1 15.8 C 50.0 15.8 50.2 15.8 50.1 15.7 M 46.2 15.9 C 46.2 15.9 46.2 15.9 46.2 15.9 M 37.7 11.3 C 37.7 11.2 37.7 11.2 37.7 11.3 M 37.0 16.0 C 36.9 15.9 36.9 15.9 37.0 16.0 M 42.4 15.3 C 41.2 15.4 42.1 15.0 42.4 15.3 M 33.9 15.6 C 35.3 16.0 32.3 16.0 33.9 15.6 M 32.4 16.0 C 32.3 15.9 32.3 15.9 32.4 16.0 M 39.1 15.8 C 39.2 15.7 39.2 15.7 39.1 15.8 C 39.1 15.8 39.1 15.8 39.1 15.8 Z M 42.9 15.6 C 44.4 15.9 41.3 16.1 42.9 15.6 M 52.3 15.8 C 51.4 16.1 52.3 15.0 52.3 15.8 M 54.0 15.5 C 54.1 15.4 54.1 15.4 54.0 15.5 C 54.0 15.5 54.0 15.5 54.0 15.5 Z M 36.3 15.7 C 36.3 15.7 36.3 15.7 36.3 15.7 C 36.3 15.7 36.3 15.7 36.3 15.7 Z M 34.5 15.8 C 34.6 15.8 34.6 15.8 34.5 15.8 C 34.5 15.8 34.5 15.8 34.5 15.8 Z M 31.7 11.4 C 31.7 11.4 31.7 11.4 31.7 11.4 C 31.7 11.4 31.7 11.4 31.7 11.4 Z M 52.7 13.6 C 53.9 13.9 51.6 15.1 51.8 14.0 C 51.7 13.6 52.6 13.7 52.7 13.6 M 44.0 14.3 C 43.7 12.8 45.1 16.3 44.0 14.3 M 32.2 15.0 C 31.0 13.3 33.7 16.3 32.2 15.0 M 29.9 15.3 C 29.2 15.0 34.2 15.1 30.7 15.6 C 30.3 15.9 30.1 15.5 29.9 15.3 M 46.2 15.2 C 45.8 14.4 48.0 15.6 46.2 15.2 M 39.0 12.8 C 38.5 13.3 37.0 13.8 37.7 12.9 C 37.7 11.7 39.7 12.3 39.0 12.8 M 56.6 15.0 C 55.6 16.3 56.6 13.9 56.6 15.0 M 52.1 14.8 C 52.1 14.9 52.1 14.9 52.1 14.8 C 52.1 14.8 52.1 14.8 52.1 14.8 Z M 50.3 15.1 C 50.2 15.0 50.2 15.0 50.3 15.1 M 55.9 16.1 C 55.8 16.0 55.8 16.0 55.9 16.1 M 39.1 14.1 C 39.0 14.0 39.0 14.0 39.1 14.1 M 42.7 15.0 C 41.0 13.7 43.7 14.7 42.7 15.0 M 47.0 12.5 C 46.4 11.9 48.1 12.5 47.0 12.5 M 39.9 15.5 C 38.6 14.3 41.6 14.3 39.9 15.5 M 43.6 15.1 C 43.5 15.1 43.5 15.1 43.6 15.1 C 43.6 15.1 43.6 15.1 43.6 15.1 Z M 38.6 12.6 C 38.6 12.6 38.6 12.6 38.6 12.6 C 38.6 12.6 38.6 12.6 38.6 12.6 Z M 38.1 12.7 C 38.1 12.7 38.1 12.7 38.1 12.7 C 38.1 12.7 38.1 12.7 38.1 12.7 Z M 38.4 15.6 C 38.4 15.6 38.4 15.6 38.4 15.6 C 38.4 15.6 38.4 15.6 38.4 15.6 Z M 54.2 12.1 C 52.9 12.0 55.1 11.9 54.2 12.1 C 54.2 12.1 54.2 12.1 54.2 12.1 Z M 48.7 15.7 C 46.7 14.7 50.1 14.8 48.7 15.7 C 48.7 15.7 48.7 15.7 48.7 15.7 Z M 46.4 14.1 C 46.4 14.0 46.4 14.0 46.4 14.1 C 46.4 14.1 46.4 14.1 46.4 14.1 Z M 40.7 16.2 C 40.7 16.2 40.7 16.2 40.7 16.2 C 40.7 16.2 40.7 16.2 40.7 16.2 Z M 53.5 11.9 C 53.5 11.8 53.5 11.8 53.5 11.9 C 53.5 11.9 53.5 11.9 53.5 11.9 Z M 34.9 15.0 C 34.9 14.9 34.9 14.9 34.9 15.0 C 34.9 15.0 34.9 15.0 34.9 15.0 Z M 41.9 12.4 C 41.5 12.9 41.8 12.1 41.9 12.4 C 41.9 12.4 41.9 12.4 41.9 12.4 Z M 40.1 12.4 C 40.0 12.4 40.0 12.4 40.1 12.4 C 40.1 12.4 40.1 12.4 40.1 12.4 Z M 32.0 16.1 C 31.9 16.1 31.9 16.1 32.0 16.1 C 32.0 16.1 32.0 16.1 32.0 16.1 Z M 35.4 11.3 C 35.3 11.3 35.3 11.3 35.4 11.3 C 35.4 11.3 35.4 11.3 35.4 11.3 Z M 33.9 12.7 C 33.9 12.7 33.9 12.7 33.9 12.7 C 33.9 12.7 33.9 12.7 33.9 12.7 Z M 38.7 15.3 C 36.8 15.6 39.1 14.8 38.7 15.3 C 38.7 15.3 38.7 15.3 38.7 15.3 Z M 29.3 13.1 C 29.3 13.0 29.3 13.0 29.3 13.1 C 29.3 13.1 29.3 13.1 29.3 13.1 Z M 28.4 14.8 C 28.3 14.7 28.3 14.7 28.4 14.8 C 28.4 14.8 28.4 14.8 28.4 14.8 Z M 27.9 15.7 C 27.9 15.6 27.9 15.6 27.9 15.7 C 27.9 15.7 27.9 15.7 27.9 15.7 Z M 50.3 13.3 C 50.4 13.3 50.4 13.3 50.3 13.3 C 50.3 13.3 50.3 13.3 50.3 13.3 Z M 51.0 16.0 C 51.1 16.0 51.1 16.0 51.0 16.0 C 51.0 16.0 51.0 16.0 51.0 16.0 Z M 48.6 16.1 C 48.6 16.1 48.6 16.1 48.6 16.1 C 48.6 16.1 48.6 16.1 48.6 16.1 Z M 50.8 11.6 C 50.8 11.6 50.8 11.6 50.8 11.6 C 50.8 11.6 50.8 11.6 50.8 11.6 Z M 41.4 13.9 C 41.5 14.0 41.5 14.0 41.4 13.9 C 41.4 13.9 41.4 13.9 41.4 13.9 Z M 40.6 12.8 C 40.6 12.9 40.6 12.9 40.6 12.8 C 40.6 12.8 40.6 12.8 40.6 12.8 Z M 42.7 11.3 C 42.7 11.4 42.7 11.4 42.7 11.3 C 42.7 11.3 42.7 11.3 42.7 11.3 Z M 39.9 11.9 C 39.9 11.9 39.9 11.9 39.9 11.9 C 39.9 11.9 39.9 11.9 39.9 11.9 Z M 57.0 12.1 C 57.0 12.1 57.0 12.1 57.0 12.1 C 57.0 12.1 57.0 12.1 57.0 12.1 Z M 57.2 14.2 C 57.3 14.1 57.3 14.1 57.2 14.2 C 57.2 14.2 57.2 14.2 57.2 14.2 Z M 41.1 15.4 C 40.7 15.9 40.3 14.8 41.1 15.4 M 44.7 15.2 C 44.7 15.1 44.7 15.1 44.7 15.2 C 44.7 15.2 44.7 15.2 44.7 15.2 Z M 35.2 15.4 C 34.7 14.5 36.8 15.8 35.2 15.4 C 35.2 15.4 35.2 15.4 35.2 15.4 Z M 37.0 11.9 C 37.0 11.8 37.0 11.8 37.0 11.9 C 37.0 11.9 37.0 11.9 37.0 11.9 Z M 36.1 12.2 C 36.0 12.1 36.0 12.1 36.1 12.2 C 36.1 12.2 36.1 12.2 36.1 12.2 Z M 31.0 14.5 C 30.9 14.4 30.9 14.4 31.0 14.5 M 45.2 15.9 C 44.6 15.6 44.7 15.6 45.2 15.9 M 34.0 15.3 C 34.0 15.3 34.0 15.3 34.0 15.3 C 34.0 15.3 34.0 15.3 34.0 15.3 Z M 29.8 14.9 C 29.9 14.9 29.9 14.9 29.8 14.9 C 29.8 14.9 29.8 14.9 29.8 14.9 Z M 47.7 15.4 C 47.6 14.3 48.1 14.6 47.7 15.4 M 54.8 15.0 C 54.8 15.0 54.8 15.0 54.8 15.0 C 54.8 15.0 54.8 15.0 54.8 15.0 Z M 54.8 15.0 " fill="#96443B"></path><path d="M 20.1 2.4 C 20.2 2.0 21.5 1.5 20.6 2.4 C 20.6 2.4 20.1 2.6 20.1 2.4 Z M 18.1 3.6 C 18.2 3.5 18.4 3.5 18.5 3.5 C 18.9 3.7 17.5 3.9 18.1 3.6 Z M 21.3 2.3 C 21.3 2.2 22.0 1.8 21.9 2.0 C 21.9 2.2 21.3 2.3 21.3 2.3 Z M 16.7 5.5 C 16.6 5.3 17.3 4.9 17.5 4.9 C 18.0 5.0 16.9 5.9 16.7 5.5 Z M 22.3 8.9 C 22.3 9.0 22.3 9.1 22.3 9.1 C 22.3 9.1 22.3 9.0 22.3 8.9 Z M 7.0 10.7 C 7.1 10.6 7.4 10.6 7.4 10.8 C 7.5 11.0 6.6 11.0 7.0 10.7 Z M 22.7 22.4 C 22.7 22.4 22.8 22.1 22.9 22.2 C 23.0 22.3 22.8 22.5 22.7 22.4 Z M 22.9 22.4 C 23.1 22.3 23.2 22.6 23.0 22.5 C 22.8 22.5 22.7 22.4 22.9 22.4 Z M 12.0 19.5 C 12.0 19.5 11.9 19.5 12.0 19.4 C 12.1 19.4 12.2 19.6 12.0 19.5 Z M 12.5 19.5 C 12.7 19.4 12.7 19.7 12.5 19.7 C 12.3 19.6 12.3 19.6 12.5 19.5 Z M 13.9 21.6 C 13.9 21.5 13.8 21.5 13.9 21.5 C 14.0 21.5 14.1 21.6 13.9 21.6 Z M 23.2 16.8 C 23.3 16.9 23.2 17.3 23.1 17.3 C 22.8 17.3 23.1 16.7 23.2 16.8 Z M 23.4 17.4 C 23.5 17.3 23.5 17.6 23.4 17.6 C 23.3 17.5 23.2 17.4 23.4 17.4 Z M 23.0 15.7 C 22.8 15.7 22.8 15.2 22.8 15.1 C 22.9 15.0 23.0 14.8 23.0 14.6 C 23.1 14.6 23.3 15.7 23.0 15.7 Z M 22.8 12.1 C 22.9 12.1 22.9 12.1 22.9 12.3 C 22.8 12.5 22.7 12.1 22.8 12.1 Z M 22.9 14.1 C 23.0 14.1 23.1 14.2 23.0 14.3 C 22.9 14.5 22.8 14.1 22.9 14.1 Z M 12.6 7.4 C 12.5 7.3 13.1 7.1 13.1 7.1 C 13.2 7.1 13.0 7.2 13.1 7.2 C 13.3 7.2 13.2 7.7 12.6 7.4 Z M 17.0 4.3 C 17.1 4.3 17.2 4.3 17.2 4.5 C 17.2 4.5 16.7 4.6 17.0 4.3 Z M 13.7 7.6 C 13.6 7.5 13.8 7.4 13.8 7.5 C 13.8 7.5 13.7 7.6 13.7 7.6 Z M 13.4 7.9 C 13.5 7.8 13.8 7.8 13.8 8.0 C 13.9 8.2 13.0 8.2 13.4 7.9 Z M 11.9 7.5 C 12.1 7.4 12.1 7.4 12.0 7.6 C 11.9 7.7 11.9 7.5 11.9 7.5 Z M 14.4 5.7 C 14.5 5.6 14.5 5.6 14.5 5.8 C 14.4 5.9 14.4 5.7 14.4 5.7 Z M 10.9 8.6 C 10.8 8.6 11.1 8.2 11.3 8.4 C 11.7 8.8 10.9 8.6 10.9 8.6 Z M 9.3 10.1 C 9.4 10.0 9.4 10.2 9.3 10.2 C 9.1 10.2 9.1 10.1 9.3 10.1 Z M 9.0 11.1 C 8.7 11.1 8.5 11.1 8.8 10.9 C 9.1 10.8 9.2 11.0 9.0 11.1 Z M 9.2 10.7 C 9.3 10.8 9.1 10.9 9.1 10.8 C 9.0 10.7 9.2 10.7 9.2 10.7 Z M 10.5 9.4 C 10.6 9.2 10.9 9.2 10.7 9.4 C 10.5 9.6 10.4 9.6 10.5 9.4 Z M 23.2 7.1 C 23.2 7.0 23.4 7.0 23.4 7.1 C 23.5 7.2 23.3 7.2 23.2 7.1 Z M 22.4 14.8 C 22.5 14.7 22.5 14.8 22.5 15.0 C 22.4 15.2 22.3 14.9 22.4 14.8 Z M 22.0 19.7 C 22.1 19.6 22.1 19.7 22.1 19.9 C 22.0 20.1 21.9 19.8 22.0 19.7 Z M 22.4 12.9 C 22.5 12.8 22.9 13.3 22.5 13.6 C 22.2 13.9 22.1 13.0 22.4 12.9 Z M 18.5 8.0 C 18.4 7.9 18.6 8.0 18.6 8.0 C 18.6 8.1 18.6 8.1 18.5 8.0 Z M 21.8 14.0 C 21.8 13.9 22.0 13.9 22.1 14.0 C 22.1 14.1 21.9 14.1 21.8 14.0 Z M 22.3 18.9 C 22.4 18.7 22.7 18.8 22.8 18.9 C 23.1 19.3 22.7 19.6 22.5 19.9 C 22.3 20.1 22.2 19.0 22.3 18.9 Z M 22.5 5.9 C 22.4 6.0 22.4 6.1 22.4 6.2 C 22.5 6.3 22.4 6.3 22.4 6.4 C 22.4 6.9 22.9 7.2 23.0 7.5 C 23.3 8.2 22.3 8.5 22.3 8.9 C 22.3 8.8 22.3 8.7 22.2 8.7 C 21.9 8.5 22.0 10.2 22.0 10.3 C 22.3 11.8 22.5 10.0 23.0 10.0 C 23.2 10.0 22.7 11.0 22.6 11.0 C 22.4 11.5 22.9 11.6 22.7 12.0 C 22.6 12.2 21.5 12.7 21.7 12.9 C 21.8 13.0 21.7 13.5 21.7 13.7 C 21.7 13.9 21.7 14.4 22.1 14.1 C 22.4 14.0 22.7 13.9 22.4 14.3 C 22.2 14.5 21.5 16.2 22.4 16.2 C 22.4 16.2 22.7 15.8 22.7 15.8 C 22.9 16.2 22.6 17.7 22.9 18.0 C 23.7 18.8 22.5 17.8 22.3 18.2 C 21.9 18.9 21.6 19.2 21.8 20.1 C 21.8 20.3 21.8 21.0 22.3 20.7 C 22.6 20.4 22.8 20.6 22.9 20.1 C 23.3 20.7 22.5 21.0 22.7 21.1 C 22.9 21.3 23.0 21.0 23.0 21.4 C 22.9 21.8 23.1 21.6 22.6 21.7 C 22.5 21.8 22.4 22.2 22.4 22.2 C 22.4 22.2 22.3 22.2 22.3 22.2 C 22.3 22.6 23.1 23.2 22.9 23.3 C 22.8 23.4 22.3 23.2 22.1 23.2 C 22.1 23.2 22.1 23.3 22.1 23.3 C 22.1 23.5 22.4 23.9 22.4 23.9 C 22.3 24.0 21.6 23.7 21.8 23.9 C 22.0 24.1 21.7 24.9 21.5 25.0 C 21.3 25.0 20.3 25.3 20.2 25.4 C 20.2 25.6 19.7 25.3 19.6 25.2 C 19.4 25.1 19.3 24.7 19.3 24.7 C 19.2 24.6 18.9 24.4 18.9 24.4 C 18.9 24.4 18.6 24.4 18.4 24.3 C 18.1 24.1 18.0 23.8 17.7 23.5 C 17.4 23.2 17.1 23.3 16.7 23.2 C 16.4 23.0 16.4 22.3 16.1 22.0 C 15.9 21.8 15.6 22.2 15.3 22.1 C 14.9 21.9 14.7 21.6 14.9 21.6 C 15.0 21.6 15.0 21.5 14.9 21.4 C 14.8 21.3 14.5 21.0 14.2 20.9 C 14.1 20.9 14.9 21.9 13.6 21.1 C 12.9 20.6 12.7 19.9 12.9 20.0 C 13.4 20.3 12.8 19.0 12.6 19.2 C 12.5 19.4 11.3 18.7 11.4 19.2 C 11.4 19.4 10.2 18.8 10.1 18.6 C 9.9 18.5 9.3 18.2 9.4 17.8 C 9.4 17.6 8.5 17.6 8.3 17.6 C 8.2 17.5 7.3 16.9 7.2 16.6 C 7.0 16.4 7.5 16.7 7.7 16.8 C 7.9 17.0 8.1 17.3 8.3 17.4 C 8.5 17.4 8.2 17.0 8.0 16.9 C 7.8 16.7 7.8 16.5 7.7 16.3 C 7.5 16.3 7.4 16.2 7.2 16.0 C 7.1 16.0 7.1 16.0 7.0 16.1 C 6.9 16.2 7.0 16.3 7.0 16.4 C 6.9 16.4 6.7 16.4 6.4 16.3 C 6.1 16.1 5.9 15.9 5.6 15.6 C 5.3 15.2 5.1 15.3 4.9 15.2 C 4.6 15.0 4.4 14.9 4.4 14.8 C 4.4 14.7 4.8 14.8 4.9 14.8 C 4.9 14.7 4.7 14.3 4.6 14.2 C 3.9 13.7 4.8 13.4 4.2 13.0 C 3.8 12.7 4.4 12.7 4.8 12.6 C 4.7 12.5 4.7 12.5 5.0 12.2 C 4.9 12.1 5.4 12.0 5.6 11.8 C 5.8 11.7 6.5 11.0 6.1 11.6 C 6.1 11.6 6.1 11.7 6.0 11.7 C 6.1 11.7 6.1 11.7 6.1 11.7 C 6.1 11.7 6.0 12.2 6.0 12.2 C 6.0 12.2 6.1 11.7 6.1 11.7 C 6.3 11.8 6.4 11.9 6.6 11.9 C 6.6 11.9 6.6 11.8 6.6 11.7 C 6.6 11.7 6.6 11.7 6.6 11.7 C 6.6 11.7 6.6 11.7 6.6 11.7 C 6.5 11.5 6.6 11.5 6.7 11.5 C 7.0 11.1 7.8 11.0 8.2 10.9 C 7.8 12.1 9.2 11.3 9.6 10.9 C 10.0 10.5 9.4 9.6 9.2 9.8 C 9.5 9.5 9.6 9.6 9.9 9.9 C 9.9 9.8 10.6 10.2 10.5 10.2 C 11.5 10.0 10.9 9.4 11.0 9.2 C 11.1 8.9 11.4 8.8 11.6 8.6 C 11.8 8.4 11.5 8.4 11.5 8.2 C 11.6 7.7 12.5 8.0 12.8 7.9 C 12.6 8.1 12.4 8.3 12.3 8.5 C 12.5 8.2 12.9 8.5 13.0 8.5 C 13.3 8.5 13.6 8.2 13.9 8.1 C 14.3 7.8 14.7 7.4 15.0 7.1 C 14.9 7.1 13.9 7.0 13.9 7.0 C 14.0 6.9 14.5 6.8 14.2 6.6 C 13.6 6.2 14.8 5.8 15.0 5.7 C 15.6 5.4 15.9 4.5 16.8 4.8 C 16.8 4.8 16.1 5.5 16.1 5.6 C 16.6 5.9 17.0 6.0 17.5 5.6 C 17.6 5.5 18.2 4.6 18.2 4.6 C 18.2 4.7 16.7 4.0 17.7 3.9 C 17.8 3.9 17.7 4.3 17.9 4.3 C 18.2 4.2 18.6 3.9 18.8 3.8 C 18.9 3.8 19.4 3.7 19.4 3.6 C 19.5 3.4 19.3 3.2 19.4 3.0 C 19.6 2.8 19.9 2.8 19.9 3.0 C 20.0 3.0 20.0 3.0 20.0 3.1 C 20.0 3.0 20.1 3.1 20.2 3.2 C 20.2 3.1 20.3 3.0 20.5 3.1 C 20.6 3.1 20.4 3.3 20.2 3.3 C 20.2 3.3 20.2 3.4 20.3 3.5 C 20.5 3.3 20.7 3.1 20.7 3.1 C 20.9 2.6 20.8 2.4 21.7 2.5 C 22.4 2.6 22.8 4.2 22.6 5.2 C 22.6 5.4 22.6 5.6 22.5 5.9 Z M 6.9 15.5 C 7.0 15.5 7.0 15.6 7.0 15.6 C 7.0 15.5 7.1 15.4 7.1 15.3 C 7.0 15.1 7.1 15.5 6.9 15.3 C 6.7 15.2 6.7 15.3 6.9 15.5 Z M 7.1 13.3 C 6.9 13.3 6.9 13.4 7.0 13.5 C 7.1 13.4 7.1 13.4 7.1 13.3 Z M 6.6 12.4 C 6.4 12.6 7.1 12.7 7.4 12.4 C 7.0 12.3 6.8 12.3 6.6 12.4 Z M 7.1 11.6 C 7.1 11.7 7.1 11.7 7.1 11.8 C 7.1 11.9 7.3 11.6 7.4 11.7 C 7.4 11.9 7.2 12.1 7.4 12.1 C 7.5 12.1 7.5 12.1 7.6 12.1 C 7.6 12.0 7.6 12.0 7.7 12.0 C 7.7 11.8 7.3 11.5 7.1 11.6 Z M 8.6 15.6 C 8.4 15.6 8.5 15.7 8.6 15.7 C 8.7 15.8 8.7 15.7 8.6 15.6 Z M 9.7 17.4 C 9.6 17.2 9.4 17.2 9.5 17.4 C 9.5 17.5 9.8 17.6 9.7 17.4 Z M 12.1 14.8 C 12.0 14.9 12.1 14.9 12.1 14.9 C 12.3 15.0 12.2 14.8 12.1 14.8 Z M 12.2 13.0 C 12.3 12.9 12.1 12.7 12.1 12.9 C 12.0 13.0 12.1 13.1 12.2 13.0 Z M 12.0 17.2 C 12.1 17.2 12.1 17.0 12.0 17.0 C 11.8 17.1 11.8 17.1 12.0 17.2 Z M 11.6 14.7 C 11.7 14.9 11.8 14.8 11.9 14.8 C 11.9 14.7 11.9 14.6 11.7 14.5 C 11.5 14.4 11.5 14.5 11.6 14.7 Z M 11.5 13.2 C 11.9 12.9 11.8 12.7 11.3 13.1 C 10.9 13.5 11.2 13.3 11.5 13.2 Z M 10.6 18.6 C 10.6 18.5 10.3 18.5 10.3 18.5 C 10.3 18.5 10.9 18.9 10.6 18.6 Z M 11.6 9.1 C 11.4 9.1 11.4 9.4 11.7 9.2 C 11.9 9.1 11.8 9.0 11.6 9.1 Z M 12.5 9.8 C 12.1 9.5 11.8 9.6 11.8 9.6 C 11.9 9.7 11.9 10.0 11.8 10.1 C 11.6 10.3 11.1 10.2 10.9 10.6 C 10.8 11.0 11.4 10.7 11.5 10.6 C 11.5 10.7 11.4 10.7 11.5 10.9 C 11.6 10.9 11.7 10.9 11.8 10.8 C 11.8 10.6 12.9 10.1 12.5 9.8 Z M 12.5 14.1 C 12.3 14.1 12.1 14.2 12.3 14.4 C 12.4 14.6 12.6 14.7 12.6 14.6 C 12.7 14.6 12.7 14.2 12.5 14.1 Z M 12.6 15.5 C 12.4 15.6 12.5 15.6 12.7 15.7 C 13.0 15.8 12.8 15.4 12.6 15.5 Z M 15.1 21.2 C 15.3 21.2 15.0 21.0 15.0 21.1 C 14.9 21.2 15.0 21.3 15.1 21.2 Z M 15.1 19.0 C 15.4 19.1 15.2 18.7 15.1 18.7 C 15.0 18.7 14.8 18.9 15.1 19.0 Z M 13.7 17.6 C 13.9 17.7 13.7 17.5 13.6 17.5 C 13.5 17.5 13.6 17.6 13.7 17.6 Z M 13.6 16.8 C 13.7 16.8 13.7 16.6 13.5 16.6 C 13.4 16.6 13.4 16.7 13.6 16.8 Z M 14.3 9.4 C 14.3 9.4 14.4 9.7 14.5 9.5 C 14.6 9.2 14.7 9.2 14.3 9.4 Z M 13.6 12.0 C 13.4 12.2 13.2 12.4 13.5 13.1 C 13.7 13.9 13.9 13.6 14.0 13.1 C 14.1 12.7 14.4 13.9 14.6 13.0 C 14.7 12.7 13.9 11.9 13.6 12.0 Z M 14.9 16.7 C 14.7 16.2 14.0 16.4 14.4 16.6 C 14.8 17.0 15.1 17.1 14.9 16.7 Z M 15.0 17.0 C 14.9 17.0 14.9 17.1 15.0 17.1 C 15.2 17.2 15.1 17.0 15.0 17.0 Z M 14.6 6.2 C 13.9 6.9 15.0 6.8 15.0 6.8 C 16.0 6.6 15.3 5.6 14.6 6.2 Z M 21.9 21.8 C 21.9 21.8 21.9 21.7 21.9 21.7 C 21.9 21.7 21.9 21.7 21.9 21.6 C 21.8 21.5 21.6 21.8 21.6 21.8 C 21.7 21.9 21.9 21.9 21.9 21.8 Z M 22.1 17.1 C 22.1 17.3 22.1 17.4 22.3 17.6 C 22.7 17.5 22.7 16.1 22.0 16.6 C 21.8 16.7 21.2 17.6 21.6 17.7 C 21.8 17.7 22.1 16.6 22.1 17.1 Z M 21.5 18.6 C 21.6 18.0 21.0 19.0 21.3 18.9 C 21.4 18.9 21.5 18.7 21.5 18.6 Z M 20.2 22.7 C 20.5 23.5 21.7 23.3 21.1 22.2 C 20.5 21.0 20.0 20.9 20.2 21.5 C 20.3 22.1 19.8 21.6 20.2 22.7 Z M 20.3 16.6 C 21.1 16.8 20.8 16.4 20.2 16.2 C 20.1 16.2 19.8 16.6 20.3 16.6 Z M 20.1 14.9 C 20.2 14.7 20.2 14.7 20.1 14.9 C 19.9 15.0 20.0 15.2 20.1 14.9 Z M 19.1 23.9 C 19.3 24.2 19.6 24.4 19.4 24.4 C 19.2 24.4 19.3 24.5 19.4 24.6 C 19.6 24.9 19.6 24.5 19.6 24.3 C 19.6 24.1 19.0 23.6 19.1 23.9 Z M 16.4 17.4 C 16.6 17.5 16.5 17.3 16.4 17.3 C 16.3 17.3 16.3 17.3 16.4 17.4 Z M 15.6 11.0 C 15.6 11.0 15.6 11.2 15.7 11.0 C 15.8 10.9 15.8 10.9 15.6 11.0 Z M 15.9 5.8 C 15.7 5.9 16.1 6.0 16.0 6.3 C 16.0 6.4 15.9 6.2 15.8 6.2 C 15.9 6.2 16.0 6.9 16.2 6.4 C 16.3 6.3 16.2 5.5 15.9 5.8 Z M 16.6 15.6 C 16.4 15.4 16.2 16.5 16.0 16.3 C 15.8 16.1 15.7 16.2 16.0 16.4 C 16.2 16.7 16.9 15.9 16.6 15.6 Z M 16.8 18.4 C 16.8 18.2 16.2 17.7 16.4 18.0 C 16.5 18.3 16.8 18.5 16.6 18.5 C 16.4 18.5 16.5 18.6 16.7 18.7 C 16.8 18.9 16.8 18.6 16.8 18.4 Z M 17.0 22.9 C 17.0 22.8 16.6 22.7 16.8 22.9 C 16.8 23.0 17.1 23.0 17.0 22.9 Z M 17.3 10.2 C 17.2 10.4 17.3 10.5 17.5 10.3 C 17.7 10.1 17.4 10.0 17.3 10.2 Z M 17.8 22.5 C 17.5 22.2 17.7 22.7 17.5 22.5 C 17.3 22.3 17.3 22.5 17.5 22.7 C 17.7 22.9 18.0 22.8 17.8 22.5 Z M 18.0 6.1 C 18.0 6.2 18.1 6.4 18.1 6.3 C 18.2 6.1 18.0 6.0 18.0 6.1 Z M 18.6 7.8 C 18.6 7.8 18.5 7.8 18.4 7.9 C 17.3 8.6 19.4 8.0 18.6 7.8 Z M 18.5 10.4 C 18.4 10.1 18.2 10.5 18.3 10.5 C 18.4 10.6 18.5 10.5 18.5 10.4 Z M 18.5 13.3 C 18.7 13.4 18.6 13.1 18.5 13.1 C 18.3 13.2 18.4 13.2 18.5 13.3 Z M 19.0 4.0 C 18.9 4.0 18.9 4.1 19.0 4.1 C 19.1 4.1 19.2 3.9 19.0 4.0 Z M 19.1 11.2 C 19.1 11.1 19.0 11.1 19.1 11.3 C 19.1 11.4 19.2 11.2 19.1 11.2 Z M 19.2 20.0 C 19.1 19.9 19.0 19.8 19.0 19.7 C 18.8 19.8 18.8 20.4 18.6 20.4 C 18.6 20.4 18.5 20.4 18.5 20.4 C 18.5 20.4 18.5 20.4 18.5 20.4 C 18.4 20.4 18.3 20.3 18.4 20.3 C 18.4 20.2 18.3 20.1 18.3 20.0 C 18.1 20.1 18.0 20.3 18.2 20.5 C 18.3 20.7 18.7 20.7 19.0 20.7 C 19.1 20.6 19.1 20.4 19.2 20.3 C 19.2 20.3 19.1 20.3 19.1 20.3 C 18.9 20.2 18.8 20.1 19.0 20.1 C 19.1 20.1 19.2 20.1 19.2 20.2 C 19.2 20.1 19.2 20.0 19.2 20.0 Z M 19.5 12.3 C 19.4 12.1 19.4 12.2 19.3 12.5 C 19.2 12.7 19.7 12.5 19.5 12.3 Z M 19.3 4.3 C 19.3 4.4 19.4 4.5 19.4 4.5 C 19.4 4.5 19.5 4.4 19.5 4.4 C 19.5 4.2 19.5 4.1 19.6 3.9 C 19.4 3.9 19.2 4.0 19.3 4.3 Z M 20.1 6.8 C 20.1 6.8 20.2 5.7 19.9 5.9 C 19.6 6.2 19.2 5.7 19.3 6.5 C 19.4 6.9 19.9 7.2 20.0 7.5 C 20.5 9.4 20.5 7.0 20.6 6.5 C 20.7 6.4 20.2 7.0 20.1 6.8 Z M 20.7 9.3 C 20.9 9.4 21.1 9.1 21.1 9.0 C 21.0 8.5 20.5 9.2 20.7 9.3 Z M 21.0 4.1 C 21.0 4.1 20.9 4.1 20.9 4.1 C 20.9 4.1 20.9 4.1 21.0 4.2 C 21.0 4.1 21.0 4.1 21.0 4.1 Z M 21.2 2.8 C 20.6 3.2 21.6 3.2 21.9 3.1 C 22.2 2.9 21.5 2.5 21.2 2.8 Z M 21.6 7.9 C 21.5 8.2 22.6 8.7 22.6 8.0 C 22.5 7.4 21.6 7.1 21.6 7.9 Z M 23.0 11.8 C 22.8 11.6 23.0 11.2 23.2 11.4 C 23.3 11.6 23.0 11.8 23.0 11.8 Z M 23.5 6.0 C 23.5 6.1 23.4 6.0 23.4 6.0 C 23.6 5.9 23.6 5.9 23.5 6.0 Z M 22.8 6.5 C 22.8 6.4 22.9 6.1 22.9 6.0 C 23.0 5.9 23.1 6.2 23.1 6.3 C 23.0 6.4 22.8 6.5 22.8 6.5 Z M 22.7 9.6 C 22.8 9.4 22.8 9.7 22.8 9.8 C 22.7 9.9 22.6 9.7 22.7 9.6 Z M 22.9 8.9 C 22.9 9.0 22.8 8.9 22.8 8.8 C 22.8 8.6 23.0 8.8 22.9 8.9 Z M 22.3 10.2 C 22.2 9.8 22.1 9.4 22.4 9.4 C 22.6 9.4 22.5 10.8 22.3 10.2 Z M 22.3 10.2 " fill="#96443B"></path></g></svg>