<?xml version="1.0" encoding="UTF-8" standalone="no"?><svg xmlns="http://www.w3.org/2000/svg" xmlns:xlink="http://www.w3.org/1999/xlink" clip-rule="evenodd" stroke-miterlimit="10" viewBox="0 0 27 94"><desc>SVG generated by Keynote</desc><defs></defs><g transform="matrix(1.00, 0.00, -0.00, -1.00, 0.0, 94.0)"><path d="M 14.5 12.4 C 14.4 12.1 14.6 11.5 14.5 11.3 M 14.5 12.4 C 15.5 11.8 15.5 10.7 15.7 9.2 C 15.7 7.6 14.8 9.2 14.5 9.1 C 14.1 7.0 14.8 7.0 15.7 7.3 C 15.1 6.5 16.3 4.1 15.0 4.6 C 15.0 7.9 14.7 2.3 14.0 5.1 C 13.8 5.4 13.5 4.5 13.5 4.2 C 13.0 5.2 12.4 3.6 12.0 5.1 C 11.2 5.3 11.6 5.0 11.0 6.0 C 10.9 6.4 11.2 6.2 11.3 6.1 C 12.2 6.3 10.8 7.3 11.4 8.1 C 10.2 8.8 11.6 9.5 12.1 8.9 C 12.0 9.6 10.7 10.4 11.6 11.2 C 11.0 11.6 11.4 13.5 12.1 12.3 C 12.6 11.5 13.0 12.4 13.2 12.5 C 13.5 12.3 13.1 11.1 13.3 10.9 C 13.5 11.3 14.0 12.8 13.9 11.2 C 14.3 11.7 14.6 10.9 14.5 12.4 C 14.5 12.4 14.5 12.4 14.5 12.4 Z M 15.2 6.7 C 15.5 6.7 15.2 7.2 15.2 6.7 C 15.2 6.7 15.2 6.7 15.2 6.7 Z M 11.0 10.5 C 11.3 10.5 11.0 11.1 11.0 10.5 C 11.0 10.5 11.0 10.5 11.0 10.5 Z M 11.3 6.4 C 11.6 6.4 11.3 7.0 11.3 6.4 C 11.3 6.4 11.3 6.4 11.3 6.4 Z M 15.0 8.2 C 14.7 9.1 14.6 7.4 14.9 7.3 C 14.8 7.5 15.3 8.0 15.0 8.2 C 15.0 8.2 15.0 8.2 15.0 8.2 Z M 13.2 8.3 C 13.3 8.4 13.3 8.7 13.0 8.7 C 12.9 8.5 13.1 8.2 13.2 8.3 C 13.2 8.3 13.2 8.3 13.2 8.3 Z M 14.5 3.9 C 14.6 3.9 14.6 4.3 14.3 4.3 C 14.2 4.0 14.4 3.8 14.5 3.9 C 14.5 3.9 14.5 3.9 14.5 3.9 Z M 14.2 9.2 C 14.1 9.4 13.8 9.5 13.8 9.2 C 13.9 9.1 14.0 8.5 14.2 9.2 C 14.2 9.2 14.2 9.2 14.2 9.2 Z M 15.2 10.6 C 15.1 11.3 14.6 9.8 14.7 9.8 C 15.0 9.6 15.5 10.2 15.2 10.6 C 15.2 10.6 15.2 10.6 15.2 10.6 Z M 13.7 9.6 C 13.6 10.2 13.5 9.4 13.7 9.6 C 13.7 9.6 13.7 9.6 13.7 9.6 Z M 12.1 4.5 C 12.0 5.1 11.9 4.2 12.1 4.5 C 12.1 4.5 12.1 4.5 12.1 4.5 Z M 11.1 7.7 C 11.0 8.4 10.9 7.5 11.1 7.7 C 11.1 7.7 11.1 7.7 11.1 7.7 Z M 14.4 6.5 C 14.4 5.5 15.2 6.4 14.4 6.5 C 14.4 6.5 14.4 6.5 14.4 6.5 Z M 15.3 12.3 C 15.3 11.2 16.1 12.2 15.3 12.3 C 15.3 12.3 15.3 12.3 15.3 12.3 Z M 15.0 73.6 C 15.2 74.6 16.2 70.8 15.0 72.2 C 14.0 72.6 14.0 70.0 15.0 70.7 C 15.1 69.9 15.2 69.9 14.7 69.5 C 15.4 69.4 15.8 67.6 15.4 66.9 C 14.8 66.5 15.3 68.1 14.7 67.1 C 14.5 64.8 13.9 67.3 13.1 66.4 C 13.1 66.3 13.5 66.3 13.3 66.0 C 12.5 66.0 11.9 67.3 11.4 66.7 C 11.5 67.0 10.6 68.7 11.3 68.0 C 12.0 67.7 10.4 69.8 11.6 69.6 C 11.1 70.2 11.8 70.7 11.1 71.2 C 11.0 71.7 11.6 71.6 11.8 71.6 C 12.4 71.5 10.5 72.1 11.5 72.7 C 11.2 72.8 11.4 74.6 11.8 73.2 C 11.7 73.6 11.4 75.7 12.5 74.6 C 13.1 73.2 13.7 76.1 13.7 74.4 C 13.9 73.1 13.6 72.8 14.2 73.8 C 14.1 74.1 14.3 75.6 14.8 74.3 C 14.6 74.1 14.7 73.4 15.0 73.6 C 15.0 73.6 15.0 73.6 15.0 73.6 Z M 13.4 73.9 C 13.3 73.1 13.8 73.8 13.4 73.9 C 13.4 73.9 13.4 73.9 13.4 73.9 Z M 10.9 71.1 C 10.8 70.4 11.3 71.1 10.9 71.1 C 10.9 71.1 10.9 71.1 10.9 71.1 Z M 15.3 71.2 C 15.0 70.8 16.1 70.7 15.3 71.2 C 15.3 71.2 15.3 71.2 15.3 71.2 Z M 11.8 72.4 C 11.8 72.4 12.0 72.5 12.0 72.7 C 12.0 72.6 11.8 72.5 11.8 72.4 C 11.8 72.4 11.8 72.4 11.8 72.4 Z M 15.3 69.9 C 14.7 68.8 16.2 69.7 15.3 69.9 C 15.3 69.9 15.3 69.9 15.3 69.9 Z M 14.2 67.7 C 13.1 67.5 14.4 66.5 14.2 67.7 C 14.2 67.7 14.2 67.7 14.2 67.7 Z M 11.7 69.2 C 11.9 69.4 11.6 69.4 11.7 69.2 C 11.7 69.2 11.7 69.2 11.7 69.2 Z M 11.5 74.2 C 11.8 74.4 11.4 74.4 11.5 74.2 C 11.5 74.2 11.5 74.2 11.5 74.2 Z M 11.8 67.8 C 12.2 67.9 11.6 68.2 11.8 67.8 C 11.8 67.8 11.8 67.8 11.8 67.8 Z M 14.8 71.0 C 15.7 72.1 13.5 72.3 14.8 71.0 C 14.8 71.0 14.8 71.0 14.8 71.0 Z M 14.9 72.9 C 15.1 73.6 14.4 72.8 14.5 72.4 C 14.6 72.5 14.9 72.8 14.9 72.9 C 14.9 72.9 14.9 72.9 14.9 72.9 Z M 14.7 69.9 C 15.2 70.6 14.5 70.6 14.7 69.9 C 14.7 69.9 14.7 69.9 14.7 69.9 Z M 15.2 71.7 C 15.1 72.1 15.1 71.4 15.2 71.7 C 15.2 71.7 15.2 71.7 15.2 71.7 Z M 15.7 68.5 C 15.6 68.9 15.6 68.2 15.7 68.5 C 15.7 68.5 15.7 68.5 15.7 68.5 Z M 15.4 73.8 C 15.3 74.1 15.3 73.5 15.4 73.8 C 15.4 73.8 15.4 73.8 15.4 73.8 Z M 15.1 68.8 C 14.7 68.7 13.8 69.7 14.5 67.9 C 14.8 67.6 15.4 68.3 15.1 68.8 C 15.1 68.8 15.1 68.8 15.1 68.8 Z M 14.5 14.9 C 15.8 11.2 13.5 12.1 13.1 11.9 C 12.5 11.4 12.1 11.9 11.7 12.6 C 10.3 13.4 13.2 13.8 11.8 14.3 C 9.9 15.3 13.4 15.5 11.4 15.9 C 10.9 15.7 11.3 17.2 11.4 17.1 C 10.5 17.8 12.2 18.8 12.4 18.8 C 12.1 19.3 10.3 19.4 11.7 20.9 C 12.1 22.0 10.4 22.5 11.6 22.2 C 10.2 23.1 12.0 22.8 11.5 23.7 C 10.8 24.2 12.7 23.7 11.2 24.7 C 12.4 25.2 10.5 24.2 11.3 27.1 C 11.4 25.7 12.2 28.5 11.4 27.9 C 10.6 26.9 11.7 29.3 11.3 30.6 C 11.7 30.9 12.7 32.5 11.6 32.2 C 10.3 33.6 12.4 33.6 11.3 34.2 C 10.8 34.6 11.8 34.8 11.7 35.1 C 10.9 35.6 11.5 36.0 11.2 37.7 C 10.8 41.3 13.3 38.2 13.6 39.6 C 14.0 39.8 16.7 37.8 14.6 38.6 C 15.2 38.3 13.1 35.4 15.3 36.8 C 14.4 35.7 16.2 37.1 15.2 34.8 C 13.6 37.9 14.6 31.2 15.3 34.2 C 15.8 33.7 15.7 32.5 15.3 33.4 C 13.9 33.7 15.9 31.2 14.2 32.5 C 14.7 30.6 13.2 31.1 14.2 30.5 C 16.1 30.1 13.8 30.6 14.3 29.6 C 14.3 27.4 16.4 29.1 15.0 27.7 C 16.0 25.5 14.2 27.3 14.0 26.5 C 12.7 26.3 15.0 24.2 15.1 25.9 C 14.5 25.0 15.8 25.7 14.9 24.7 C 13.8 25.5 16.2 23.4 15.3 23.7 C 15.0 22.8 14.3 23.3 14.2 23.0 C 14.2 21.6 15.4 22.1 14.5 21.8 C 14.0 21.5 15.6 20.8 15.2 20.6 C 15.1 22.0 13.9 19.5 14.6 19.3 C 14.7 20.2 16.1 18.9 15.2 18.4 C 12.6 19.1 15.9 17.2 14.9 16.5 C 13.5 17.1 14.8 13.5 15.4 14.8 C 15.3 14.8 14.5 14.9 14.5 14.9 M 15.0 20.2 C 14.9 21.4 14.7 19.0 15.0 20.2 M 15.4 20.2 C 14.9 20.7 15.7 19.1 15.5 20.3 C 15.5 20.3 15.4 20.1 15.4 20.2 M 15.4 24.9 C 15.0 24.8 15.6 24.3 15.4 24.9 M 14.5 25.9 C 14.1 26.6 14.4 24.8 14.5 25.9 M 14.8 36.4 C 12.7 35.3 16.0 35.3 14.8 36.4 M 15.2 29.4 C 14.9 28.1 16.1 29.9 15.2 29.4 M 14.7 29.0 C 14.3 28.4 15.2 28.9 14.7 29.0 M 14.8 34.4 C 14.8 34.5 14.8 34.5 14.8 34.4 C 14.8 34.4 14.8 34.4 14.8 34.4 Z M 14.7 37.5 C 14.8 37.5 14.8 37.5 14.7 37.5 C 14.7 37.5 14.7 37.5 14.7 37.5 Z M 14.6 31.3 C 15.1 30.4 14.8 32.9 14.6 31.3 C 14.6 31.3 14.6 31.3 14.6 31.3 Z M 11.5 36.0 C 11.4 35.9 11.4 35.9 11.5 36.0 C 11.5 36.0 11.5 36.0 11.5 36.0 Z M 14.0 19.3 C 14.0 19.3 14.0 19.3 14.0 19.3 C 14.0 19.3 14.0 19.3 14.0 19.3 Z M 14.8 15.8 C 14.5 15.8 15.0 15.1 14.8 15.8 C 14.8 15.8 14.8 15.8 14.8 15.8 Z M 12.4 12.9 C 12.3 12.9 12.3 12.9 12.4 12.9 C 12.4 12.9 12.4 12.9 12.4 12.9 Z M 12.9 18.1 C 12.8 18.1 12.8 18.1 12.9 18.1 C 12.9 18.1 12.9 18.1 12.9 18.1 Z M 14.5 18.7 C 15.6 18.1 14.1 20.0 14.5 18.7 C 14.5 18.7 14.5 18.7 14.5 18.7 Z M 11.6 30.2 C 12.1 30.2 11.4 31.0 11.6 30.2 C 11.6 30.2 11.6 30.2 11.6 30.2 Z M 14.0 26.0 C 14.3 26.1 13.9 26.5 14.0 26.0 C 14.0 26.0 14.0 26.0 14.0 26.0 Z M 15.6 24.0 C 15.9 24.2 15.5 24.6 15.6 24.0 C 15.6 24.0 15.6 24.0 15.6 24.0 Z M 15.1 15.9 C 15.2 15.9 15.2 15.9 15.1 15.9 C 15.1 15.9 15.1 15.9 15.1 15.9 Z M 14.2 17.1 C 15.3 16.2 13.6 18.5 14.2 17.1 C 14.2 17.1 14.2 17.1 14.2 17.1 Z M 13.9 15.6 C 13.5 16.1 14.1 14.5 13.9 15.6 M 12.2 16.5 C 12.7 17.5 10.2 15.5 12.2 16.5 C 12.2 16.5 12.2 16.5 12.2 16.5 Z M 11.8 21.9 C 11.7 22.0 11.7 22.0 11.8 21.9 C 11.8 21.9 11.8 21.9 11.8 21.9 Z M 15.0 21.4 C 15.0 22.3 14.7 20.8 15.0 21.4 C 15.0 21.4 15.0 21.4 15.0 21.4 Z M 15.3 13.1 C 15.2 14.1 15.0 12.5 15.3 13.1 C 15.3 13.1 15.3 13.1 15.3 13.1 Z M 12.9 25.1 C 13.0 26.7 12.3 24.2 12.9 25.1 C 12.9 25.1 12.9 25.1 12.9 25.1 Z M 14.1 30.8 C 14.1 30.9 14.1 30.9 14.1 30.8 C 14.1 30.8 14.1 30.8 14.1 30.8 Z M 14.6 31.9 C 14.6 31.9 14.6 31.9 14.6 31.9 C 14.6 31.9 14.6 31.9 14.6 31.9 Z M 13.5 36.3 C 13.4 36.3 13.4 36.3 13.5 36.3 C 13.5 36.3 13.5 36.3 13.5 36.3 Z M 15.1 32.8 C 15.1 32.9 15.1 32.9 15.1 32.8 C 15.1 32.8 15.1 32.8 15.1 32.8 Z M 14.8 35.9 C 14.8 35.9 14.8 35.9 14.8 35.9 C 14.8 35.9 14.8 35.9 14.8 35.9 Z M 15.8 35.5 C 15.8 35.5 15.8 35.5 15.8 35.5 C 15.8 35.5 15.8 35.5 15.8 35.5 Z M 11.0 28.7 C 10.9 28.7 10.9 28.7 11.0 28.7 C 11.0 28.7 11.0 28.7 11.0 28.7 Z M 15.5 17.5 C 15.4 17.6 15.4 17.6 15.5 17.5 C 15.5 17.5 15.5 17.5 15.5 17.5 Z M 14.4 35.6 C 14.4 35.7 14.4 35.7 14.4 35.6 C 14.4 35.6 14.4 35.6 14.4 35.6 Z M 13.5 28.2 C 12.6 28.2 14.8 27.5 13.6 28.4 C 13.5 28.3 13.7 28.1 13.5 28.2 M 12.0 29.2 C 11.9 29.1 11.9 29.1 12.0 29.2 C 12.0 29.2 12.0 29.2 12.0 29.2 Z M 11.4 25.8 C 11.4 25.8 11.4 25.8 11.4 25.8 C 11.4 25.8 11.4 25.8 11.4 25.8 Z M 15.3 32.3 C 15.8 32.2 14.9 33.1 15.3 32.2 M 11.8 36.3 C 12.3 36.2 11.4 37.1 11.8 36.2 M 14.9 12.1 C 14.5 11.9 15.1 11.4 14.9 12.1 M 10.9 25.0 C 10.5 24.9 11.1 24.4 10.9 25.0 M 12.1 26.6 C 12.6 26.5 11.7 27.5 12.1 26.5 M 11.9 34.0 C 11.8 34.0 11.8 34.0 11.9 34.0 C 11.9 34.0 11.9 34.0 11.9 34.0 Z M 14.9 22.8 C 14.9 22.8 14.9 22.8 14.9 22.8 C 14.9 22.8 14.9 22.8 14.9 22.8 Z M 13.8 26.9 C 14.5 26.4 13.3 27.7 13.8 26.9 M 13.6 21.6 C 14.5 20.8 13.4 22.9 13.6 21.6 M 11.6 38.1 C 12.7 37.2 11.0 38.7 11.6 38.1 M 14.3 33.5 C 15.4 32.6 13.7 34.2 14.3 33.5 M 14.4 23.6 C 15.0 23.6 14.1 24.6 14.4 23.6 M 15.0 14.2 C 15.1 13.3 15.4 15.4 15.0 14.2 M 11.8 31.7 C 11.8 31.8 11.8 31.8 11.8 31.7 C 11.8 31.7 11.8 31.7 11.8 31.7 Z M 10.9 17.1 C 10.8 17.1 10.8 17.1 10.9 17.1 C 10.9 17.1 10.9 17.1 10.9 17.1 Z M 15.1 39.2 C 15.1 39.3 15.1 39.3 15.1 39.2 C 15.1 39.2 15.1 39.2 15.1 39.2 Z M 13.8 33.0 C 13.7 33.0 13.7 33.0 13.8 33.0 C 13.8 33.0 13.8 33.0 13.8 33.0 Z M 15.3 37.5 C 15.2 37.5 15.2 37.5 15.3 37.5 C 15.3 37.5 15.3 37.5 15.3 37.5 Z M 13.0 30.1 C 12.9 30.1 12.9 30.1 13.0 30.1 C 13.0 30.1 13.0 30.1 13.0 30.1 Z M 15.7 29.5 C 15.7 29.6 15.7 29.6 15.7 29.5 C 15.7 29.5 15.7 29.5 15.7 29.5 Z M 14.5 26.4 C 14.5 26.4 14.5 26.4 14.5 26.4 C 14.5 26.4 14.5 26.4 14.5 26.4 Z M 15.5 31.0 C 15.7 32.8 14.6 30.0 15.5 31.0 C 15.5 31.0 15.5 31.0 15.5 31.0 Z M 12.8 27.7 C 12.7 27.7 12.7 27.7 12.8 27.7 C 12.8 27.7 12.8 27.7 12.8 27.7 Z M 14.7 27.5 C 15.5 28.6 13.4 28.1 14.7 27.5 M 15.3 22.3 C 15.8 22.6 14.7 22.4 15.3 22.3 M 11.7 20.2 C 11.7 20.2 11.7 20.2 11.7 20.2 C 11.7 20.2 11.7 20.2 11.7 20.2 Z M 12.0 20.7 C 12.0 20.8 12.0 20.8 12.0 20.7 C 12.0 20.7 12.0 20.7 12.0 20.7 Z M 15.5 21.0 C 15.5 21.0 15.5 21.0 15.5 21.0 C 15.5 21.0 15.5 21.0 15.5 21.0 Z M 11.0 20.8 C 11.0 20.9 11.0 20.9 11.0 20.8 C 11.0 20.8 11.0 20.8 11.0 20.8 Z M 15.6 28.8 C 15.6 28.8 15.6 28.8 15.6 28.8 C 15.6 28.8 15.6 28.8 15.6 28.8 Z M 15.7 38.4 C 15.7 38.4 15.7 38.4 15.7 38.4 C 15.7 38.4 15.7 38.4 15.7 38.4 Z M 12.1 14.5 C 12.1 14.5 12.1 14.5 12.1 14.5 C 12.1 14.5 12.1 14.5 12.1 14.5 Z M 14.6 29.8 C 14.5 29.8 14.5 29.8 14.6 29.8 C 14.6 29.8 14.6 29.8 14.6 29.8 Z M 11.9 18.8 C 11.9 18.9 11.9 18.9 11.9 18.8 C 11.9 18.8 11.9 18.8 11.9 18.8 Z M 14.8 29.2 C 14.8 29.2 14.8 29.2 14.8 29.2 C 14.8 29.2 14.8 29.2 14.8 29.2 Z M 11.6 31.5 C 11.6 31.5 11.6 31.5 11.6 31.5 C 11.6 31.5 11.6 31.5 11.6 31.5 Z M 11.0 33.5 C 11.0 33.5 11.0 33.5 11.0 33.5 C 11.0 33.5 11.0 33.5 11.0 33.5 Z M 13.5 31.3 C 13.5 31.3 13.5 31.3 13.5 31.3 C 13.5 31.3 13.5 31.3 13.5 31.3 Z M 13.1 18.2 C 14.0 14.4 13.5 21.1 13.1 18.2 M 13.3 31.9 C 13.5 29.3 14.3 34.0 13.3 31.9 C 13.6 32.2 13.3 32.0 13.3 31.9 M 15.6 40.2 C 14.6 39.1 13.6 39.1 12.6 39.6 C 12.0 40.1 14.1 40.1 12.3 40.1 C 12.0 38.9 9.8 40.6 12.0 40.6 C 12.3 42.2 10.6 40.9 11.5 41.9 C 11.7 43.6 11.0 42.7 11.2 44.0 C 12.4 44.8 10.6 44.8 11.7 45.2 C 10.5 44.5 12.0 46.6 11.5 46.6 C 10.7 45.4 11.5 51.3 11.8 48.1 C 12.4 49.4 11.4 49.1 11.2 49.6 C 12.0 50.1 10.7 51.7 11.4 52.5 C 11.5 52.3 11.6 51.9 11.8 51.8 C 12.3 51.6 11.7 52.7 11.8 52.6 C 12.0 53.1 12.8 55.2 11.5 53.0 C 10.9 52.9 11.8 54.8 11.2 54.8 C 11.2 56.7 12.4 55.2 11.5 56.1 C 11.5 57.5 11.5 58.5 11.6 58.5 C 11.5 59.3 10.8 59.5 11.5 60.3 C 10.2 62.0 14.0 61.5 11.4 62.1 C 12.0 62.6 10.4 63.1 12.0 63.0 C 11.2 62.4 10.7 65.9 11.9 64.4 C 12.3 64.8 10.2 67.0 11.9 66.6 C 13.0 67.4 14.2 67.3 15.3 65.6 C 14.4 65.8 16.3 63.8 14.7 65.1 C 14.2 66.5 14.1 62.4 14.7 63.3 C 16.6 63.5 13.5 61.2 14.9 60.4 C 14.1 61.1 13.8 57.7 15.2 58.7 C 15.3 58.1 14.6 57.9 15.4 57.2 C 15.3 59.2 14.0 56.5 14.8 56.6 C 15.4 56.9 15.8 53.9 15.0 54.2 C 13.0 55.3 15.4 53.4 14.6 52.9 C 14.2 51.3 16.3 53.2 14.9 51.9 C 15.1 51.6 15.1 49.4 15.5 50.8 C 15.3 51.3 13.4 49.5 15.0 49.2 C 16.0 51.6 15.5 46.5 15.0 47.3 C 14.1 51.0 14.0 43.5 14.9 46.3 C 15.8 44.7 15.3 46.8 14.9 44.8 C 14.4 45.1 13.8 43.5 14.9 43.9 C 16.5 43.5 12.8 43.3 14.9 42.1 C 15.9 41.9 14.3 39.6 15.3 40.5 C 15.4 40.6 15.6 40.2 15.6 40.2 M 15.4 40.9 C 15.1 40.6 15.8 40.5 15.4 40.9 M 15.1 40.6 C 15.1 40.6 15.1 40.6 15.1 40.6 C 15.1 40.6 15.1 40.6 15.1 40.6 Z M 14.8 44.5 C 14.9 44.5 14.9 44.5 14.8 44.5 C 14.8 44.5 14.8 44.5 14.8 44.5 Z M 10.9 47.6 C 10.9 47.5 10.9 47.5 10.9 47.6 C 10.9 47.6 10.9 47.6 10.9 47.6 Z M 14.7 47.1 C 14.7 47.0 14.7 47.0 14.7 47.1 C 14.7 47.1 14.7 47.1 14.7 47.1 Z M 14.6 43.1 C 14.6 43.1 14.6 43.1 14.6 43.1 C 14.6 43.1 14.6 43.1 14.6 43.1 Z M 15.3 46.8 C 14.7 47.0 15.7 45.9 15.4 46.9 C 15.4 46.9 15.4 46.7 15.3 46.8 M 15.5 50.2 C 15.5 50.2 15.5 50.2 15.5 50.2 M 10.9 57.7 C 10.8 57.7 10.8 57.7 10.9 57.7 M 15.6 58.3 C 15.5 58.4 15.5 58.4 15.6 58.3 M 14.9 53.6 C 15.0 54.6 14.6 53.8 14.9 53.6 M 15.2 61.0 C 15.6 59.7 15.6 62.4 15.2 61.0 M 15.6 62.3 C 15.5 62.4 15.5 62.4 15.6 62.3 M 15.4 56.4 C 15.3 56.4 15.3 56.4 15.4 56.4 C 15.4 56.4 15.4 56.4 15.4 56.4 Z M 15.2 53.1 C 15.5 51.8 15.7 54.5 15.2 53.1 M 15.4 44.9 C 15.7 45.7 14.6 44.9 15.4 44.9 M 15.1 43.4 C 15.0 43.4 15.0 43.4 15.1 43.4 C 15.1 43.4 15.1 43.4 15.1 43.4 Z M 15.3 58.9 C 15.3 58.9 15.3 58.9 15.3 58.9 C 15.3 58.9 15.3 58.9 15.3 58.9 Z M 15.4 60.4 C 15.4 60.4 15.4 60.4 15.4 60.4 C 15.4 60.4 15.4 60.4 15.4 60.4 Z M 11.0 62.9 C 11.0 62.9 11.0 62.9 11.0 62.9 C 11.0 62.9 11.0 62.9 11.0 62.9 Z M 13.2 44.5 C 13.5 43.5 14.7 45.6 13.6 45.4 C 13.2 45.5 13.3 44.7 13.2 44.5 M 13.9 52.2 C 12.4 52.4 15.9 51.2 13.9 52.2 M 14.6 62.5 C 12.9 63.5 15.9 61.2 14.6 62.5 M 14.9 64.5 C 14.6 65.1 14.7 60.7 15.2 63.8 C 15.5 64.1 15.1 64.3 14.9 64.5 M 14.8 50.3 C 14.0 50.6 15.2 48.7 14.8 50.3 M 12.4 56.5 C 12.9 57.0 13.4 58.3 12.5 57.7 C 11.3 57.7 11.9 55.9 12.4 56.5 M 14.6 41.2 C 15.9 42.0 13.5 41.2 14.6 41.2 M 14.5 45.1 C 14.5 45.2 14.5 45.2 14.5 45.1 C 14.5 45.1 14.5 45.1 14.5 45.1 Z M 14.7 46.7 C 14.6 46.8 14.6 46.8 14.7 46.7 M 15.7 41.8 C 15.6 41.9 15.6 41.9 15.7 41.8 M 13.7 56.5 C 13.6 56.5 13.6 56.5 13.7 56.5 M 14.6 53.3 C 13.3 54.8 14.3 52.5 14.6 53.3 M 12.1 49.6 C 11.5 50.0 12.1 48.6 12.1 49.6 M 15.1 55.8 C 13.9 56.8 13.9 54.3 15.1 55.8 M 14.7 52.5 C 14.7 52.6 14.7 52.6 14.7 52.5 C 14.7 52.5 14.7 52.5 14.7 52.5 Z M 12.2 56.9 C 12.2 56.9 12.2 56.9 12.2 56.9 C 12.2 56.9 12.2 56.9 12.2 56.9 Z M 12.3 57.3 C 12.3 57.3 12.3 57.3 12.3 57.3 C 12.3 57.3 12.3 57.3 12.3 57.3 Z M 15.2 57.1 C 15.2 57.0 15.2 57.0 15.2 57.1 C 15.2 57.1 15.2 57.1 15.2 57.1 Z M 11.7 43.3 C 11.6 44.4 11.5 42.5 11.7 43.3 C 11.7 43.3 11.7 43.3 11.7 43.3 Z M 15.3 48.1 C 14.3 49.8 14.4 46.8 15.3 48.1 C 15.3 48.1 15.3 48.1 15.3 48.1 Z M 13.7 50.1 C 13.6 50.1 13.6 50.1 13.7 50.1 C 13.7 50.1 13.7 50.1 13.7 50.1 Z M 15.9 55.1 C 15.8 55.1 15.8 55.1 15.9 55.1 C 15.9 55.1 15.9 55.1 15.9 55.1 Z M 11.5 43.8 C 11.4 43.8 11.4 43.8 11.5 43.8 C 11.5 43.8 11.5 43.8 11.5 43.8 Z M 14.6 60.1 C 14.5 60.1 14.5 60.1 14.6 60.1 C 14.6 60.1 14.6 60.1 14.6 60.1 Z M 12.0 54.0 C 12.5 54.4 11.7 54.1 12.0 54.0 C 12.0 54.0 12.0 54.0 12.0 54.0 Z M 12.0 55.6 C 12.0 55.6 12.0 55.6 12.0 55.6 C 12.0 55.6 12.0 55.6 12.0 55.6 Z M 15.7 62.7 C 15.7 62.7 15.7 62.7 15.7 62.7 C 15.7 62.7 15.7 62.7 15.7 62.7 Z M 10.9 59.7 C 10.9 59.7 10.9 59.7 10.9 59.7 C 10.9 59.7 10.9 59.7 10.9 59.7 Z M 12.3 61.0 C 12.3 61.0 12.3 61.0 12.3 61.0 C 12.3 61.0 12.3 61.0 12.3 61.0 Z M 14.9 56.8 C 15.2 58.4 14.4 56.4 14.9 56.8 C 14.9 56.8 14.9 56.8 14.9 56.8 Z M 12.7 65.0 C 12.6 65.0 12.6 65.0 12.7 65.0 C 12.7 65.0 12.7 65.0 12.7 65.0 Z M 14.4 65.8 C 14.3 65.8 14.3 65.8 14.4 65.8 C 14.4 65.8 14.4 65.8 14.4 65.8 Z M 15.3 66.2 C 15.2 66.2 15.2 66.2 15.3 66.2 C 15.3 66.2 15.3 66.2 15.3 66.2 Z M 12.9 46.7 C 12.9 46.6 12.9 46.6 12.9 46.7 C 12.9 46.7 12.9 46.7 12.9 46.7 Z M 15.6 46.0 C 15.6 46.0 15.6 46.0 15.6 46.0 C 15.6 46.0 15.6 46.0 15.6 46.0 Z M 15.7 48.2 C 15.7 48.2 15.7 48.2 15.7 48.2 C 15.7 48.2 15.7 48.2 15.7 48.2 Z M 11.2 46.3 C 11.2 46.2 11.2 46.2 11.2 46.3 C 11.2 46.3 11.2 46.3 11.2 46.3 Z M 13.5 54.4 C 13.6 54.4 13.6 54.4 13.5 54.4 C 13.5 54.4 13.5 54.4 13.5 54.4 Z M 12.4 55.2 C 12.5 55.1 12.5 55.1 12.4 55.2 C 12.4 55.2 12.4 55.2 12.4 55.2 Z M 10.9 53.3 C 11.0 53.3 11.0 53.3 10.9 53.3 C 10.9 53.3 10.9 53.3 10.9 53.3 Z M 11.5 55.8 C 11.5 55.8 11.5 55.8 11.5 55.8 C 11.5 55.8 11.5 55.8 11.5 55.8 Z M 11.7 40.8 C 11.7 40.8 11.7 40.8 11.7 40.8 C 11.7 40.8 11.7 40.8 11.7 40.8 Z M 13.8 40.6 C 13.7 40.6 13.7 40.6 13.8 40.6 C 13.8 40.6 13.8 40.6 13.8 40.6 Z M 15.0 54.7 C 15.5 55.0 14.4 55.4 15.0 54.7 M 14.8 51.6 C 14.7 51.5 14.7 51.5 14.8 51.6 C 14.8 51.6 14.8 51.6 14.8 51.6 Z M 15.0 59.9 C 14.1 60.3 15.4 58.4 15.0 59.9 C 15.0 59.9 15.0 59.9 15.0 59.9 Z M 11.5 58.2 C 11.5 58.3 11.5 58.3 11.5 58.2 C 11.5 58.2 11.5 58.2 11.5 58.2 Z M 11.8 59.0 C 11.7 59.1 11.7 59.1 11.8 59.0 C 11.8 59.0 11.8 59.0 11.8 59.0 Z M 14.1 63.5 C 14.0 63.6 14.0 63.6 14.1 63.5 M 15.5 51.2 C 15.2 51.6 15.2 51.5 15.5 51.2 M 14.9 60.9 C 14.9 60.9 14.9 60.9 14.9 60.9 C 14.9 60.9 14.9 60.9 14.9 60.9 Z M 14.5 64.5 C 14.5 64.5 14.5 64.5 14.5 64.5 C 14.5 64.5 14.5 64.5 14.5 64.5 Z M 15.0 49.0 C 13.9 49.0 14.2 48.6 15.0 49.0 M 14.6 42.8 C 14.6 42.8 14.6 42.8 14.6 42.8 C 14.6 42.8 14.6 42.8 14.6 42.8 Z M 14.6 42.8 " fill="#96443B"></path><path d="M 2.0 73.9 C 1.6 73.8 1.1 72.5 2.0 73.4 C 2.0 73.4 2.2 74.0 2.0 73.9 Z M 3.2 75.9 C 3.1 75.8 3.1 75.7 3.1 75.5 C 3.3 75.1 3.5 76.5 3.2 75.9 Z M 1.9 72.7 C 1.8 72.7 1.4 72.0 1.6 72.1 C 1.8 72.1 1.9 72.7 1.9 72.7 Z M 5.1 77.3 C 4.9 77.4 4.5 76.7 4.5 76.5 C 4.6 76.1 5.5 77.2 5.1 77.3 Z M 8.6 71.7 C 8.6 71.7 8.7 71.7 8.7 71.7 C 8.7 71.7 8.6 71.7 8.6 71.7 Z M 10.3 87.0 C 10.2 86.9 10.2 86.6 10.4 86.6 C 10.6 86.5 10.6 87.4 10.3 87.0 Z M 22.0 71.4 C 22.0 71.4 21.7 71.2 21.8 71.1 C 21.9 71.0 22.1 71.2 22.0 71.4 Z M 22.0 71.1 C 21.9 70.9 22.2 70.9 22.1 71.0 C 22.1 71.2 22.0 71.3 22.0 71.1 Z M 19.1 82.0 C 19.1 82.1 19.1 82.1 19.0 82.0 C 19.0 81.9 19.2 81.8 19.1 82.0 Z M 19.1 81.6 C 19.0 81.4 19.3 81.3 19.3 81.5 C 19.2 81.7 19.2 81.8 19.1 81.6 Z M 21.2 80.1 C 21.2 80.2 21.1 80.2 21.1 80.1 C 21.1 80.0 21.2 79.9 21.2 80.1 Z M 16.4 70.8 C 16.5 70.7 16.9 70.8 16.9 71.0 C 16.9 71.2 16.3 70.9 16.4 70.8 Z M 17.0 70.7 C 16.9 70.5 17.2 70.5 17.2 70.6 C 17.1 70.7 17.0 70.8 17.0 70.7 Z M 15.3 71.0 C 15.3 71.2 14.8 71.2 14.7 71.2 C 14.6 71.1 14.4 71.1 14.2 71.0 C 14.2 71.0 15.3 70.7 15.3 71.0 Z M 11.7 71.2 C 11.7 71.1 11.7 71.1 11.9 71.2 C 12.1 71.3 11.7 71.3 11.7 71.2 Z M 13.7 71.1 C 13.7 71.0 13.8 71.0 13.9 71.0 C 14.1 71.1 13.7 71.2 13.7 71.1 Z M 7.0 81.4 C 6.9 81.5 6.7 80.9 6.7 80.9 C 6.7 80.8 6.8 81.0 6.8 80.9 C 6.8 80.7 7.3 80.8 7.0 81.4 Z M 3.9 77.1 C 3.9 76.9 3.9 76.9 4.1 76.9 C 4.1 76.8 4.2 77.3 3.9 77.1 Z M 7.2 80.4 C 7.1 80.4 7.1 80.3 7.1 80.2 C 7.1 80.2 7.2 80.3 7.2 80.4 Z M 7.5 80.7 C 7.4 80.6 7.4 80.2 7.6 80.2 C 7.8 80.2 7.8 81.0 7.5 80.7 Z M 7.1 82.1 C 7.1 82.0 7.1 82.0 7.2 82.0 C 7.3 82.1 7.1 82.1 7.1 82.1 Z M 5.3 79.7 C 5.2 79.5 5.2 79.5 5.4 79.6 C 5.5 79.6 5.3 79.7 5.3 79.7 Z M 8.2 83.2 C 8.2 83.2 7.8 82.9 8.0 82.7 C 8.4 82.3 8.2 83.1 8.2 83.2 Z M 9.7 84.8 C 9.6 84.6 9.8 84.6 9.8 84.7 C 9.8 84.9 9.7 84.9 9.7 84.8 Z M 10.7 85.1 C 10.7 85.3 10.7 85.6 10.5 85.2 C 10.4 84.9 10.6 84.8 10.7 85.1 Z M 10.3 84.8 C 10.4 84.8 10.5 84.9 10.4 84.9 C 10.3 85.0 10.3 84.8 10.3 84.8 Z M 9.0 83.5 C 8.8 83.4 8.9 83.1 9.0 83.3 C 9.2 83.5 9.2 83.6 9.0 83.5 Z M 6.7 70.8 C 6.6 70.9 6.6 70.7 6.7 70.6 C 6.8 70.5 6.8 70.8 6.7 70.8 Z M 14.4 71.6 C 14.3 71.5 14.4 71.5 14.6 71.5 C 14.8 71.6 14.5 71.7 14.4 71.6 Z M 19.3 72.0 C 19.2 71.9 19.3 71.9 19.5 71.9 C 19.7 72.0 19.4 72.1 19.3 72.0 Z M 12.5 71.6 C 12.4 71.5 12.9 71.2 13.2 71.5 C 13.5 71.9 12.6 71.9 12.5 71.6 Z M 7.6 75.5 C 7.5 75.6 7.6 75.4 7.6 75.4 C 7.7 75.5 7.7 75.5 7.6 75.5 Z M 13.6 72.2 C 13.5 72.3 13.5 72.1 13.6 72.0 C 13.7 71.9 13.7 72.1 13.6 72.2 Z M 18.5 71.7 C 18.3 71.6 18.4 71.3 18.5 71.2 C 18.9 70.9 19.2 71.3 19.5 71.5 C 19.7 71.7 18.6 71.8 18.5 71.7 Z M 5.5 71.6 C 5.6 71.6 5.7 71.6 5.8 71.7 C 5.9 71.6 5.9 71.6 6.0 71.7 C 6.5 71.6 6.8 71.2 7.1 71.0 C 7.8 70.8 8.1 71.7 8.6 71.7 C 8.4 71.7 8.3 71.7 8.3 71.8 C 8.1 72.1 9.8 72.0 9.9 72.0 C 11.4 71.7 9.6 71.5 9.6 71.0 C 9.6 70.8 10.6 71.4 10.7 71.4 C 11.1 71.6 11.2 71.1 11.6 71.3 C 11.8 71.4 12.3 72.5 12.5 72.3 C 12.6 72.2 13.1 72.3 13.3 72.3 C 13.5 72.3 14.0 72.3 13.7 71.9 C 13.6 71.6 13.5 71.3 13.9 71.6 C 14.1 71.8 15.8 72.5 15.8 71.7 C 15.8 71.6 15.4 71.3 15.4 71.4 C 15.8 71.2 17.3 71.4 17.6 71.1 C 18.4 70.4 17.4 71.5 17.8 71.8 C 18.5 72.1 18.8 72.4 19.7 72.2 C 19.9 72.2 20.6 72.2 20.3 71.7 C 20.0 71.4 20.2 71.2 19.7 71.1 C 20.3 70.7 20.6 71.5 20.7 71.4 C 20.9 71.1 20.6 71.0 21.0 71.0 C 21.5 71.1 21.3 71.0 21.3 71.4 C 21.4 71.5 21.8 71.6 21.8 71.6 C 21.8 71.7 21.8 71.7 21.8 71.7 C 22.2 71.7 22.8 70.9 22.9 71.1 C 23.0 71.2 22.8 71.8 22.8 71.9 C 22.8 71.9 22.9 71.9 22.9 72.0 C 23.1 71.9 23.5 71.6 23.5 71.6 C 23.6 71.7 23.3 72.4 23.5 72.2 C 23.7 72.0 24.5 72.3 24.6 72.5 C 24.6 72.7 24.9 73.7 25.0 73.8 C 25.2 73.8 24.9 74.3 24.8 74.5 C 24.8 74.6 24.3 74.7 24.3 74.7 C 24.2 74.8 24.0 75.2 24.0 75.2 C 24.0 75.2 24.0 75.4 23.9 75.7 C 23.7 76.0 23.4 76.1 23.1 76.4 C 22.8 76.7 22.9 76.9 22.8 77.3 C 22.6 77.6 21.9 77.6 21.7 77.9 C 21.4 78.1 21.8 78.4 21.7 78.8 C 21.5 79.1 21.3 79.3 21.2 79.1 C 21.2 79.0 21.1 79.0 21.0 79.1 C 20.9 79.2 20.6 79.6 20.5 79.8 C 20.5 80.0 21.5 79.1 20.7 80.4 C 20.2 81.1 19.5 81.3 19.6 81.1 C 19.9 80.6 18.6 81.3 18.8 81.4 C 19.0 81.5 18.3 82.7 18.8 82.6 C 19.0 82.6 18.4 83.8 18.2 84.0 C 18.1 84.1 17.8 84.7 17.4 84.6 C 17.2 84.6 17.2 85.5 17.2 85.7 C 17.1 85.8 16.5 86.7 16.2 86.8 C 16.0 87.0 16.3 86.5 16.4 86.3 C 16.6 86.1 16.9 86.0 17.0 85.8 C 17.0 85.6 16.6 85.8 16.5 86.0 C 16.3 86.3 16.1 86.2 15.9 86.4 C 15.9 86.5 15.8 86.6 15.6 86.8 C 15.6 86.9 15.6 87.0 15.7 87.0 C 15.8 87.1 16.0 87.0 16.0 87.1 C 16.0 87.1 16.0 87.3 15.9 87.6 C 15.7 87.9 15.5 88.1 15.2 88.4 C 14.8 88.7 14.9 88.9 14.8 89.2 C 14.6 89.4 14.5 89.6 14.4 89.6 C 14.3 89.6 14.4 89.2 14.4 89.1 C 14.3 89.1 13.9 89.3 13.8 89.4 C 13.3 90.1 13.0 89.2 12.6 89.8 C 12.3 90.2 12.3 89.6 12.2 89.3 C 12.1 89.3 12.1 89.3 11.8 89.0 C 11.7 89.1 11.6 88.6 11.4 88.4 C 11.3 88.3 10.6 87.5 11.2 87.9 C 11.2 87.9 11.3 87.9 11.3 88.0 C 11.3 88.0 11.3 88.0 11.3 87.9 C 11.3 87.9 11.8 88.0 11.8 88.0 C 11.8 88.0 11.3 87.9 11.3 87.9 C 11.4 87.8 11.5 87.6 11.5 87.5 C 11.5 87.4 11.4 87.4 11.3 87.4 C 11.3 87.4 11.3 87.4 11.3 87.4 C 11.3 87.4 11.3 87.4 11.3 87.4 C 11.1 87.5 11.1 87.4 11.1 87.3 C 10.7 87.1 10.6 86.2 10.5 85.9 C 11.7 86.2 10.9 84.9 10.5 84.5 C 10.1 84.1 9.2 84.6 9.4 84.9 C 9.1 84.5 9.2 84.4 9.5 84.1 C 9.4 84.2 9.8 83.4 9.8 83.5 C 9.6 82.5 9.0 83.2 8.8 83.0 C 8.5 82.9 8.4 82.6 8.2 82.4 C 8.0 82.2 8.0 82.5 7.8 82.5 C 7.3 82.4 7.6 81.5 7.5 81.2 C 7.7 81.4 7.9 81.6 8.1 81.7 C 7.8 81.5 8.2 81.1 8.1 81.0 C 8.1 80.7 7.8 80.4 7.7 80.2 C 7.4 79.7 7.0 79.4 6.7 79.0 C 6.7 79.1 6.6 80.1 6.6 80.1 C 6.5 80.0 6.4 79.5 6.2 79.9 C 5.8 80.5 5.4 79.2 5.3 79.0 C 5.1 78.4 4.1 78.1 4.4 77.2 C 4.4 77.2 5.1 78.0 5.2 77.9 C 5.5 77.4 5.6 77.0 5.2 76.5 C 5.1 76.4 4.2 75.8 4.2 75.8 C 4.3 75.8 3.6 77.3 3.5 76.4 C 3.5 76.2 3.9 76.4 3.9 76.1 C 3.8 75.8 3.5 75.5 3.4 75.2 C 3.4 75.1 3.3 74.6 3.2 74.6 C 3.0 74.6 2.8 74.7 2.6 74.6 C 2.4 74.5 2.4 74.2 2.6 74.1 C 2.6 74.1 2.6 74.1 2.7 74.0 C 2.6 74.0 2.7 73.9 2.8 73.9 C 2.7 73.8 2.6 73.7 2.7 73.5 C 2.7 73.5 2.9 73.6 2.9 73.8 C 2.9 73.8 3.0 73.8 3.1 73.7 C 2.9 73.5 2.7 73.3 2.7 73.3 C 2.2 73.1 2.0 73.2 2.1 72.3 C 2.2 71.7 3.8 71.2 4.8 71.5 C 5.0 71.4 5.2 71.4 5.5 71.6 Z M 15.1 87.1 C 15.1 87.1 15.2 87.0 15.2 87.0 C 15.1 87.0 15.0 86.9 14.9 86.9 C 14.7 87.1 15.1 86.9 14.9 87.1 C 14.8 87.3 14.9 87.3 15.1 87.1 Z M 12.9 86.9 C 12.9 87.1 13.0 87.1 13.1 87.0 C 13.0 87.0 13.0 86.9 12.9 86.9 Z M 12.0 87.4 C 12.2 87.6 12.3 87.0 12.0 86.6 C 11.9 87.0 11.9 87.2 12.0 87.4 Z M 11.2 86.9 C 11.3 86.9 11.3 86.9 11.4 86.9 C 11.5 86.9 11.2 86.7 11.3 86.6 C 11.5 86.6 11.7 86.8 11.7 86.6 C 11.7 86.5 11.7 86.5 11.7 86.4 C 11.6 86.4 11.6 86.4 11.6 86.4 C 11.4 86.3 11.1 86.7 11.2 86.9 Z M 15.2 85.5 C 15.2 85.6 15.3 85.5 15.4 85.5 C 15.4 85.3 15.3 85.3 15.2 85.5 Z M 17.0 84.3 C 16.8 84.4 16.8 84.6 17.0 84.5 C 17.2 84.5 17.2 84.2 17.0 84.3 Z M 14.4 81.9 C 14.5 82.0 14.5 82.0 14.5 81.9 C 14.6 81.7 14.4 81.8 14.4 81.9 Z M 12.6 81.8 C 12.5 81.7 12.3 81.9 12.5 81.9 C 12.6 82.0 12.7 81.9 12.6 81.8 Z M 16.8 82.0 C 16.8 81.9 16.6 81.9 16.7 82.0 C 16.7 82.2 16.7 82.2 16.8 82.0 Z M 14.3 82.4 C 14.5 82.3 14.4 82.2 14.4 82.2 C 14.3 82.1 14.2 82.1 14.1 82.3 C 14.0 82.5 14.1 82.6 14.3 82.4 Z M 12.8 82.6 C 12.5 82.1 12.3 82.2 12.7 82.7 C 13.1 83.2 12.9 82.8 12.8 82.6 Z M 18.2 83.4 C 18.1 83.4 18.1 83.7 18.1 83.7 C 18.1 83.7 18.5 83.2 18.2 83.4 Z M 8.7 82.4 C 8.7 82.6 9.0 82.6 8.9 82.3 C 8.7 82.1 8.6 82.2 8.7 82.4 Z M 9.4 81.5 C 9.1 81.9 9.2 82.2 9.2 82.2 C 9.3 82.2 9.6 82.1 9.7 82.2 C 9.9 82.4 9.8 82.9 10.2 83.1 C 10.6 83.3 10.3 82.6 10.2 82.5 C 10.3 82.6 10.4 82.6 10.5 82.5 C 10.5 82.4 10.5 82.3 10.4 82.3 C 10.2 82.2 9.7 81.1 9.4 81.5 Z M 13.7 81.5 C 13.7 81.7 13.8 81.9 14.0 81.8 C 14.2 81.6 14.3 81.5 14.2 81.4 C 14.2 81.3 13.8 81.4 13.7 81.5 Z M 15.1 81.4 C 15.2 81.6 15.2 81.5 15.3 81.3 C 15.4 81.1 15.0 81.2 15.1 81.4 Z M 20.8 78.9 C 20.8 78.7 20.6 79.0 20.7 79.0 C 20.8 79.1 20.9 79.0 20.8 78.9 Z M 18.6 79.0 C 18.7 78.6 18.3 78.9 18.3 78.9 C 18.3 79.0 18.5 79.2 18.6 79.0 Z M 17.2 80.3 C 17.3 80.1 17.1 80.3 17.1 80.4 C 17.1 80.5 17.2 80.4 17.2 80.3 Z M 16.4 80.4 C 16.4 80.3 16.2 80.3 16.2 80.5 C 16.2 80.6 16.3 80.6 16.4 80.4 Z M 9.0 79.8 C 9.0 79.8 9.4 79.7 9.1 79.5 C 8.8 79.4 8.8 79.4 9.0 79.8 Z M 11.6 80.4 C 11.8 80.6 12.0 80.8 12.7 80.5 C 13.5 80.3 13.2 80.2 12.7 80.0 C 12.3 79.9 13.5 79.6 12.6 79.4 C 12.3 79.3 11.5 80.2 11.6 80.4 Z M 16.3 79.1 C 15.8 79.4 16.0 80.0 16.2 79.7 C 16.6 79.2 16.7 78.9 16.3 79.1 Z M 16.6 79.1 C 16.6 79.2 16.7 79.1 16.7 79.0 C 16.8 78.9 16.6 78.9 16.6 79.1 Z M 5.8 79.4 C 6.5 80.1 6.4 79.0 6.4 79.0 C 6.2 78.0 5.2 78.7 5.8 79.4 Z M 21.4 72.1 C 21.4 72.1 21.3 72.1 21.3 72.1 C 21.3 72.1 21.3 72.1 21.2 72.1 C 21.1 72.2 21.4 72.4 21.4 72.4 C 21.5 72.3 21.5 72.2 21.4 72.1 Z M 16.7 71.9 C 16.9 71.9 17.0 71.9 17.2 71.8 C 17.1 71.4 15.7 71.3 16.2 72.1 C 16.3 72.2 17.2 72.8 17.3 72.4 C 17.3 72.2 16.2 71.9 16.7 71.9 Z M 18.2 72.5 C 17.6 72.4 18.7 73.0 18.5 72.7 C 18.5 72.6 18.3 72.5 18.2 72.5 Z M 22.3 73.8 C 23.1 73.5 22.9 72.4 21.8 72.9 C 20.6 73.5 20.5 74.0 21.1 73.8 C 21.7 73.7 21.2 74.2 22.3 73.8 Z M 16.2 73.8 C 16.4 73.0 16.0 73.2 15.8 73.8 C 15.8 73.9 16.2 74.2 16.2 73.8 Z M 14.5 73.9 C 14.3 73.8 14.3 73.8 14.5 74.0 C 14.6 74.1 14.8 74.0 14.5 73.9 Z M 23.5 74.9 C 23.8 74.8 24.0 74.4 24.0 74.6 C 24.0 74.8 24.1 74.7 24.2 74.6 C 24.5 74.4 24.1 74.4 23.9 74.4 C 23.7 74.5 23.3 75.0 23.5 74.9 Z M 17.0 77.6 C 17.1 77.5 16.9 77.5 16.9 77.7 C 16.9 77.8 16.9 77.7 17.0 77.6 Z M 10.6 78.4 C 10.6 78.4 10.8 78.4 10.6 78.3 C 10.5 78.2 10.5 78.2 10.6 78.4 Z M 5.4 78.2 C 5.6 78.3 5.6 77.9 5.9 78.0 C 6.0 78.0 5.8 78.2 5.8 78.2 C 5.8 78.2 6.5 78.1 6.0 77.8 C 5.9 77.7 5.1 77.8 5.4 78.2 Z M 15.2 77.4 C 15.0 77.6 16.1 77.8 15.9 78.0 C 15.7 78.2 15.8 78.3 16.0 78.0 C 16.3 77.8 15.5 77.1 15.2 77.4 Z M 18.0 77.2 C 17.8 77.2 17.3 77.8 17.6 77.6 C 17.9 77.5 18.1 77.2 18.1 77.4 C 18.1 77.6 18.2 77.5 18.3 77.4 C 18.5 77.2 18.2 77.2 18.0 77.2 Z M 22.5 77.0 C 22.5 77.1 22.3 77.4 22.5 77.3 C 22.6 77.2 22.6 77.0 22.5 77.0 Z M 9.8 76.7 C 10.0 76.8 10.1 76.8 9.9 76.6 C 9.7 76.3 9.6 76.6 9.8 76.7 Z M 22.1 76.2 C 21.8 76.5 22.3 76.3 22.1 76.5 C 22.0 76.7 22.1 76.7 22.3 76.5 C 22.5 76.3 22.4 76.0 22.1 76.2 Z M 5.7 76.0 C 5.8 76.1 6.0 75.9 5.9 75.9 C 5.7 75.8 5.6 76.0 5.7 76.0 Z M 7.4 75.4 C 7.4 75.4 7.4 75.5 7.5 75.6 C 8.2 76.7 7.6 74.7 7.4 75.4 Z M 10.0 75.5 C 9.7 75.6 10.1 75.8 10.1 75.8 C 10.2 75.6 10.1 75.6 10.0 75.5 Z M 12.9 75.5 C 13.0 75.4 12.7 75.4 12.7 75.5 C 12.8 75.7 12.9 75.6 12.9 75.5 Z M 3.6 75.0 C 3.6 75.2 3.7 75.1 3.7 75.0 C 3.7 74.9 3.5 74.8 3.6 75.0 Z M 10.8 74.9 C 10.7 74.9 10.7 75.0 10.9 74.9 C 11.0 74.9 10.8 74.8 10.8 74.9 Z M 19.6 74.8 C 19.5 74.9 19.4 75.0 19.3 75.1 C 19.4 75.2 20.0 75.3 20.0 75.4 C 20.0 75.5 20.0 75.5 20.0 75.5 C 20.0 75.5 20.0 75.5 20.0 75.5 C 20.0 75.6 19.9 75.7 19.9 75.6 C 19.8 75.7 19.7 75.7 19.6 75.7 C 19.7 75.9 20.0 76.0 20.1 75.9 C 20.3 75.7 20.3 75.3 20.3 75.0 C 20.2 74.9 20.0 74.9 19.9 74.9 C 19.9 74.9 19.9 74.9 19.9 74.9 C 19.8 75.1 19.7 75.2 19.7 75.0 C 19.7 74.9 19.7 74.9 19.8 74.8 C 19.7 74.8 19.6 74.8 19.6 74.8 Z M 11.9 74.5 C 11.7 74.6 11.8 74.7 12.1 74.7 C 12.3 74.8 12.1 74.4 11.9 74.5 Z M 3.9 74.7 C 4.0 74.7 4.1 74.6 4.1 74.6 C 4.1 74.6 4.0 74.6 4.0 74.6 C 3.8 74.5 3.7 74.5 3.5 74.4 C 3.5 74.6 3.6 74.8 3.9 74.7 Z M 6.4 73.9 C 6.4 73.9 5.3 73.9 5.5 74.1 C 5.8 74.5 5.3 74.9 6.1 74.7 C 6.5 74.6 6.8 74.1 7.1 74.0 C 9.0 73.5 6.6 73.5 6.1 73.4 C 6.1 73.4 6.6 73.8 6.4 73.9 Z M 8.9 73.3 C 9.0 73.1 8.7 72.9 8.6 73.0 C 8.1 73.0 8.8 73.5 8.9 73.3 Z M 3.7 73.0 C 3.7 73.1 3.7 73.1 3.7 73.2 C 3.7 73.1 3.7 73.1 3.8 73.0 C 3.7 73.0 3.7 73.0 3.7 73.0 Z M 2.4 72.8 C 2.8 73.4 2.8 72.4 2.7 72.2 C 2.5 71.8 2.1 72.6 2.4 72.8 Z M 7.5 72.4 C 7.8 72.5 8.3 71.4 7.6 71.4 C 7.0 71.5 6.7 72.4 7.5 72.4 Z M 11.4 71.1 C 11.2 71.2 10.8 71.0 11.0 70.8 C 11.2 70.7 11.4 71.0 11.4 71.1 Z M 5.6 70.5 C 5.7 70.5 5.6 70.6 5.6 70.6 C 5.5 70.4 5.5 70.4 5.6 70.5 Z M 6.1 71.3 C 6.0 71.2 5.7 71.1 5.6 71.1 C 5.5 71.0 5.8 70.9 5.9 70.9 C 6.0 71.0 6.1 71.3 6.1 71.3 Z M 9.2 71.4 C 9.0 71.2 9.3 71.2 9.4 71.2 C 9.5 71.3 9.3 71.4 9.2 71.4 Z M 8.5 71.1 C 8.6 71.1 8.5 71.3 8.4 71.2 C 8.2 71.2 8.4 71.1 8.5 71.1 Z M 9.8 71.7 C 9.4 71.8 9.0 71.9 9.0 71.6 C 9.0 71.5 10.4 71.5 9.8 71.7 Z M 9.8 71.7 " fill="#96443B"></path></g></svg>