<?xml version="1.0" encoding="UTF-8" standalone="no"?><svg xmlns="http://www.w3.org/2000/svg" xmlns:xlink="http://www.w3.org/1999/xlink" clip-rule="evenodd" stroke-miterlimit="10" viewBox="0 0 253 80"><desc>SVG generated by Keynote</desc><defs></defs><g transform="matrix(1.00, 0.00, -0.00, -1.00, 0.0, 80.0)"><image xlink:href="../../1E6779FB-9B16-4F0C-8AFF-8D3428667565/assets/904E49CEB9547E9C1621BE4BC4532D64.png" width="250.00" height="74.00" transform="matrix(1.00, 0.00, -0.00, -1.00, 2.1, 76.1)" opacity="0.50"></image><path d="M 6.8 22.3 C 6.7 22.1 7.2 21.9 7.4 21.4 C 7.5 20.8 7.6 20.1 7.3 20.2 C 6.9 20.4 6.7 20.6 6.3 20.3 C 5.9 20.0 5.2 19.6 5.0 20.0 C 4.7 20.4 4.0 22.0 4.4 22.5 C 4.7 23.0 4.9 23.1 5.1 23.5 C 5.4 23.9 4.6 23.6 4.6 23.6 C 4.6 23.6 4.5 24.5 4.4 25.1 C 4.4 25.7 4.3 26.4 4.5 26.5 C 4.6 26.6 4.9 26.8 4.9 26.8 C 4.9 26.8 4.5 27.1 4.4 27.6 C 4.4 28.1 4.6 27.9 4.8 27.8 C 5.0 27.8 5.5 27.2 5.5 27.4 C 5.5 27.6 4.7 28.2 4.6 28.5 C 4.5 28.9 4.6 29.6 4.6 29.6 C 4.6 29.6 5.0 29.5 5.1 29.6 C 5.2 29.7 5.3 30.4 5.1 30.4 C 5.0 30.5 4.5 30.4 4.5 30.7 C 4.4 31.9 5.3 31.7 5.3 31.8 C 5.3 31.9 4.6 31.9 4.5 32.2 C 4.4 32.5 4.5 34.7 4.7 34.8 C 4.8 34.9 4.2 35.7 4.7 36.0 C 5.1 36.3 5.2 36.4 5.3 36.5 C 5.4 36.6 6.1 37.0 5.8 37.2 C 5.6 37.4 4.8 36.5 4.6 36.8 C 4.4 37.1 4.3 38.5 4.5 38.7 C 4.8 39.0 5.5 39.1 5.5 39.3 C 5.5 39.5 4.6 40.3 4.8 40.4 C 4.9 40.4 5.6 40.5 5.8 40.5 C 5.9 40.5 7.1 40.8 7.3 40.6 C 7.5 40.5 7.9 39.6 7.6 39.7 C 7.2 39.8 6.8 40.0 6.6 39.7 C 6.5 39.4 6.4 39.3 6.6 39.2 C 6.7 39.1 6.9 39.3 7.1 38.8 C 7.3 38.3 7.6 38.6 7.6 38.1 C 7.6 37.7 7.5 37.2 7.2 37.3 C 6.9 37.3 6.5 36.8 6.6 36.5 C 6.6 36.2 7.2 36.7 7.4 35.7 C 7.7 34.6 7.7 34.0 7.5 33.7 C 7.3 33.4 6.5 33.3 6.9 32.8 C 7.2 32.3 7.4 32.6 7.4 31.9 C 7.3 31.3 6.8 31.0 6.7 30.6 C 6.7 30.2 6.7 30.0 6.7 30.0 C 6.7 30.0 7.6 30.3 7.6 29.3 C 7.7 28.3 7.7 28.1 7.1 28.3 C 6.5 28.5 6.5 27.8 6.9 27.8 C 7.3 27.7 7.5 27.2 7.6 26.8 C 7.6 26.5 6.6 26.4 6.6 26.3 C 6.6 26.1 6.6 25.8 7.0 25.9 C 7.3 26.1 7.3 25.7 7.5 25.4 C 7.6 25.1 7.5 24.2 7.3 24.2 C 7.1 24.2 6.5 24.7 6.8 24.1 C 7.1 23.5 7.7 23.3 7.6 22.7 C 7.6 22.2 7.0 22.7 6.8 22.3 C 6.8 22.3 6.8 22.3 6.8 22.3 Z M 7.6 41.0 C 7.6 40.0 5.0 40.6 4.4 41.0 C 3.9 41.4 4.2 42.1 4.1 42.8 C 4.0 43.5 4.9 43.3 5.1 43.7 C 5.3 44.1 4.8 43.9 4.4 44.1 C 4.0 44.3 4.4 45.3 4.3 45.9 C 4.3 46.6 5.2 47.2 5.2 47.7 C 5.3 48.2 5.7 47.3 5.6 48.2 C 5.6 49.1 5.1 48.7 4.8 47.6 C 4.6 46.6 4.3 48.0 4.2 48.6 C 4.1 49.2 4.5 50.1 4.5 50.6 C 4.4 51.0 5.1 50.5 5.1 51.1 C 5.1 51.8 4.4 51.5 4.3 52.1 C 4.2 52.8 4.8 52.7 5.0 53.0 C 5.1 53.4 4.7 53.3 4.7 53.6 C 4.6 53.9 4.4 54.3 4.6 55.0 C 4.7 55.6 4.9 55.4 5.0 55.7 C 5.0 56.0 5.0 56.5 5.0 56.5 C 4.8 56.5 4.6 56.6 4.3 56.6 C 4.3 56.6 4.3 57.8 4.2 58.1 C 4.2 58.4 4.5 59.2 4.6 59.0 C 4.8 58.8 5.2 59.6 5.1 59.7 C 5.0 59.9 4.7 60.6 4.6 61.0 C 4.4 61.5 6.1 61.2 6.4 61.2 C 6.6 61.1 7.6 61.3 7.6 60.9 C 7.7 60.6 7.4 60.4 7.6 60.4 C 7.9 60.5 7.6 59.5 7.6 59.2 C 7.6 58.9 7.0 58.6 7.0 58.6 C 7.0 58.6 6.4 58.3 6.4 57.9 C 6.4 57.4 7.5 57.2 7.5 57.2 C 7.5 57.2 7.7 56.7 7.6 56.1 C 7.6 55.5 6.7 54.9 6.5 54.8 C 6.3 54.7 7.1 54.7 7.2 54.3 C 7.3 53.9 7.6 53.3 7.5 53.1 C 7.5 53.0 7.0 52.7 7.0 52.7 C 7.0 52.7 6.6 52.0 6.6 51.8 C 6.6 51.6 7.4 51.9 7.4 51.9 C 7.4 51.9 7.6 50.4 7.7 50.0 C 7.8 49.7 7.6 49.2 7.5 49.0 C 7.5 48.8 6.5 48.4 6.6 48.1 C 6.7 47.7 7.2 48.4 7.3 48.1 C 7.4 47.7 7.6 47.1 7.6 46.9 C 7.6 46.8 7.3 46.6 7.2 46.3 C 7.2 46.0 6.4 45.6 6.4 45.1 C 6.4 44.7 6.9 44.4 7.0 44.3 C 7.1 44.1 7.7 44.0 7.7 43.6 C 7.7 43.3 7.3 43.5 7.3 43.2 C 7.3 42.9 6.8 42.9 6.9 42.5 C 7.0 42.2 7.8 42.4 7.7 42.0 C 7.6 41.8 7.7 42.0 7.6 41.0 C 7.6 41.0 7.6 41.0 7.6 41.0 Z M 7.6 61.7 C 7.9 61.2 7.5 60.9 7.1 61.0 C 6.7 61.1 5.8 61.3 5.5 61.2 C 5.2 61.0 4.4 60.4 4.4 61.4 C 4.3 62.4 4.7 62.6 4.9 62.5 C 5.1 62.5 6.2 62.5 6.1 62.7 C 6.1 63.0 5.9 63.3 5.8 63.3 C 5.6 63.4 4.8 64.1 5.1 64.5 C 5.3 64.9 5.7 65.1 5.7 65.1 C 5.8 65.4 5.9 65.6 6.1 65.8 C 6.1 65.8 5.8 66.6 6.1 67.0 C 6.5 67.3 6.8 67.8 7.0 68.1 C 7.1 68.5 7.4 68.7 7.6 68.6 C 7.9 68.6 8.8 68.4 8.8 68.4 C 8.8 68.4 9.3 68.6 9.4 68.9 C 9.4 69.1 9.1 69.5 8.9 69.6 C 8.8 69.7 8.5 70.0 8.7 70.4 C 8.9 70.7 9.8 72.1 10.2 72.1 C 10.6 72.0 10.7 71.6 11.0 71.7 C 11.2 71.7 12.1 72.2 12.0 72.5 C 12.0 72.7 11.7 73.1 12.0 73.2 C 12.3 73.3 12.8 73.7 12.9 73.6 C 12.9 73.5 13.2 73.4 13.3 73.2 C 13.4 73.0 14.1 73.0 14.2 72.9 C 14.4 72.8 14.9 72.9 14.9 72.9 C 15.0 73.1 15.2 73.3 15.3 73.5 C 15.3 73.5 14.8 73.9 14.6 73.9 C 14.4 74.0 14.6 74.4 14.8 74.5 C 15.0 74.6 16.2 74.8 16.2 74.8 C 16.3 74.4 16.4 74.0 16.5 73.6 C 16.8 73.6 17.1 73.6 17.4 73.5 C 17.4 73.5 17.1 74.9 17.7 74.9 C 18.3 75.0 19.0 75.0 19.0 75.0 C 19.0 75.0 19.6 74.5 19.7 74.4 C 19.9 74.4 19.9 73.2 19.9 73.2 C 19.9 72.7 19.8 72.3 19.8 71.8 C 19.8 71.8 19.2 71.3 18.8 71.5 C 18.5 71.7 18.8 72.2 18.7 72.4 C 18.6 72.7 18.1 72.9 18.1 72.9 C 17.9 72.6 17.7 72.3 17.5 72.0 C 17.5 72.0 17.3 71.8 17.2 71.5 C 17.0 71.2 16.3 71.0 16.1 71.0 C 15.9 71.0 15.6 71.3 15.3 71.4 C 15.0 71.6 14.9 72.0 14.7 71.6 C 14.5 71.1 14.5 70.7 14.4 70.7 C 14.2 70.6 13.4 70.7 13.4 70.7 C 13.2 70.7 13.0 70.7 12.8 70.7 C 12.8 70.7 12.2 70.7 12.3 70.4 C 12.4 70.1 11.4 69.8 11.4 69.8 C 11.4 69.8 11.9 69.2 11.8 68.9 C 11.7 68.7 11.6 68.3 11.2 68.1 C 10.8 67.9 10.0 68.3 10.0 68.3 C 10.1 68.0 10.2 67.8 10.2 67.6 C 10.0 67.2 9.9 66.9 9.7 66.6 C 9.7 66.6 9.2 65.9 9.1 66.0 C 9.0 66.1 8.4 66.5 8.2 66.6 C 8.1 66.6 7.6 66.3 7.8 66.1 C 8.0 66.0 8.3 65.3 8.3 65.3 C 8.3 65.3 8.6 64.8 8.5 64.6 C 8.4 64.3 8.1 64.0 7.9 64.0 C 7.8 63.9 7.1 63.7 7.1 63.7 C 7.3 63.5 7.5 63.3 7.7 63.2 C 7.7 63.2 7.2 62.5 7.6 61.7 C 7.6 61.7 7.6 61.7 7.6 61.7 Z M 20.2 71.4 C 19.2 71.4 19.9 74.1 20.3 74.6 C 20.7 75.2 21.4 74.8 22.0 74.9 C 22.7 75.0 22.5 74.2 22.9 73.9 C 23.3 73.7 23.2 74.2 23.3 74.6 C 23.5 75.0 24.5 74.7 25.2 74.7 C 25.8 74.7 26.5 73.9 27.0 73.8 C 27.5 73.8 26.5 73.3 27.4 73.4 C 28.4 73.4 27.9 73.9 26.9 74.2 C 25.8 74.5 27.3 74.7 27.8 74.8 C 28.4 74.9 29.4 74.5 29.8 74.6 C 30.3 74.6 29.7 73.9 30.4 73.9 C 31.0 74.0 30.7 74.7 31.4 74.8 C 32.0 74.9 31.9 74.2 32.3 74.1 C 32.6 73.9 32.6 74.3 32.8 74.4 C 33.1 74.4 33.6 74.6 34.2 74.5 C 34.8 74.3 34.7 74.1 35.0 74.1 C 35.2 74.0 35.7 74.0 35.7 74.0 C 35.8 74.2 35.8 74.5 35.9 74.7 C 35.9 74.7 37.0 74.8 37.3 74.8 C 37.7 74.9 38.4 74.6 38.2 74.4 C 38.0 74.3 38.8 73.8 39.0 73.9 C 39.1 74.0 39.7 74.4 40.1 74.5 C 40.5 74.7 40.4 72.9 40.4 72.7 C 40.4 72.5 40.6 71.5 40.3 71.4 C 39.9 71.3 39.7 71.7 39.7 71.4 C 39.8 71.2 38.7 71.4 38.5 71.4 C 38.2 71.4 37.8 72.1 37.8 72.1 C 37.8 72.1 37.6 72.6 37.1 72.6 C 36.6 72.6 36.5 71.5 36.5 71.5 C 36.5 71.5 35.9 71.3 35.3 71.4 C 34.8 71.4 34.1 72.3 34.0 72.5 C 33.9 72.7 33.9 71.9 33.5 71.8 C 33.1 71.7 32.6 71.4 32.4 71.5 C 32.2 71.5 31.9 72.1 31.9 72.1 C 31.9 72.1 31.2 72.4 31.0 72.4 C 30.9 72.4 31.1 71.6 31.1 71.6 C 31.1 71.6 29.6 71.4 29.3 71.3 C 29.0 71.3 28.5 71.5 28.2 71.5 C 28.0 71.6 27.7 72.6 27.3 72.5 C 27.0 72.4 27.7 71.8 27.3 71.7 C 27.0 71.6 26.4 71.4 26.2 71.4 C 26.0 71.4 25.8 71.8 25.5 71.8 C 25.2 71.9 24.8 72.6 24.4 72.6 C 23.9 72.6 23.7 72.2 23.5 72.1 C 23.4 72.0 23.2 71.3 22.9 71.3 C 22.5 71.3 22.8 71.7 22.4 71.7 C 22.1 71.7 22.1 72.2 21.8 72.1 C 21.4 72.0 21.6 71.2 21.2 71.3 C 21.1 71.4 21.2 71.3 20.2 71.4 C 20.2 71.4 20.2 71.4 20.2 71.4 Z M 41.1 71.5 C 40.7 71.2 40.2 71.6 40.3 72.0 C 40.3 72.3 40.5 73.3 40.3 73.6 C 40.2 73.9 39.6 74.6 40.4 74.7 C 41.3 74.9 41.5 74.6 41.5 74.3 C 41.5 74.1 41.7 73.1 41.9 73.2 C 42.1 73.3 42.3 73.6 42.4 73.7 C 42.5 73.8 42.8 74.8 43.2 74.7 C 43.6 74.5 44.0 74.2 44.0 74.2 C 44.2 74.2 44.4 74.2 44.7 74.2 C 44.7 74.2 45.2 74.8 45.7 74.7 C 46.2 74.5 46.7 74.5 47.0 74.6 C 47.4 74.6 47.7 74.5 47.8 74.3 C 47.8 74.1 48.3 73.2 48.3 73.2 C 48.3 73.2 48.8 73.0 49.0 73.1 C 49.3 73.3 49.3 73.7 49.3 73.9 C 49.2 74.1 49.3 74.6 49.6 74.7 C 50.0 74.8 51.5 75.2 51.7 74.9 C 51.9 74.7 51.9 74.3 52.0 74.2 C 52.2 74.1 53.2 74.1 53.3 74.3 C 53.4 74.5 53.3 75.0 53.6 75.0 C 53.9 74.9 54.4 75.1 54.4 74.9 C 54.4 74.8 54.6 74.7 54.7 74.4 C 54.7 74.1 55.3 73.9 55.4 73.7 C 55.5 73.6 55.9 73.6 55.9 73.6 C 56.1 73.7 56.3 73.9 56.5 74.0 C 56.5 74.0 56.2 74.5 56.0 74.6 C 55.8 74.7 56.1 75.0 56.3 75.1 C 56.5 75.1 57.6 75.0 57.6 75.0 C 57.6 74.7 57.6 74.3 57.6 73.9 C 57.9 73.8 58.2 73.7 58.4 73.6 C 58.4 73.6 58.3 75.0 58.8 75.0 C 59.3 75.0 60.0 75.0 60.0 75.0 C 60.0 75.0 60.5 74.5 60.7 74.4 C 60.8 74.4 60.8 73.2 60.8 73.2 C 60.8 72.7 60.8 72.3 60.7 71.8 C 60.7 71.8 60.1 71.3 59.7 71.5 C 59.4 71.7 59.7 72.2 59.6 72.4 C 59.6 72.7 59.1 72.9 59.1 72.9 C 58.8 72.6 58.6 72.4 58.3 72.1 C 58.3 72.1 58.1 71.9 57.9 71.7 C 57.7 71.4 56.9 71.3 56.6 71.4 C 56.4 71.5 56.2 71.8 55.9 72.0 C 55.6 72.3 55.7 72.7 55.3 72.3 C 55.0 72.0 54.8 71.7 54.6 71.7 C 54.4 71.7 53.7 72.1 53.7 72.1 C 53.5 72.2 53.3 72.3 53.1 72.4 C 53.1 72.4 52.5 72.7 52.4 72.4 C 52.4 72.1 51.2 72.4 51.2 72.4 C 51.2 72.4 51.3 71.6 51.0 71.5 C 50.8 71.3 50.3 71.1 49.8 71.3 C 49.4 71.4 49.0 72.2 49.0 72.2 C 48.9 72.0 48.7 71.8 48.6 71.6 C 48.2 71.5 47.7 71.5 47.3 71.4 C 47.3 71.4 46.3 71.5 46.3 71.6 C 46.3 71.7 46.4 72.4 46.4 72.6 C 46.3 72.8 45.8 73.0 45.7 72.8 C 45.7 72.6 45.2 71.9 45.2 71.9 C 45.2 71.9 44.8 71.5 44.5 71.5 C 44.2 71.4 43.8 71.7 43.7 71.8 C 43.6 71.9 43.1 72.4 43.1 72.4 C 43.0 72.2 42.9 72.0 42.7 71.8 C 42.7 71.8 41.9 72.1 41.1 71.5 C 41.1 71.5 41.1 71.5 41.1 71.5 Z M 61.2 71.4 C 60.1 71.4 60.8 74.1 61.2 74.6 C 61.6 75.2 62.3 74.8 63.0 74.9 C 63.7 75.0 63.4 74.2 63.8 73.9 C 64.2 73.7 64.1 74.2 64.3 74.6 C 64.4 75.0 65.5 74.7 66.1 74.7 C 66.7 74.7 67.4 73.9 67.9 73.8 C 68.4 73.8 67.5 73.3 68.4 73.4 C 69.3 73.4 68.8 73.9 67.8 74.2 C 66.7 74.5 68.2 74.7 68.8 74.8 C 69.3 74.9 70.3 74.5 70.8 74.6 C 71.2 74.6 70.6 73.9 71.3 73.9 C 72.0 74.0 71.6 74.7 72.3 74.8 C 73.0 74.9 72.9 74.2 73.2 74.1 C 73.6 73.9 73.5 74.3 73.8 74.4 C 74.1 74.4 74.5 74.6 75.1 74.5 C 75.8 74.3 75.6 74.1 75.9 74.1 C 76.2 74.0 76.7 74.0 76.7 74.0 C 76.7 74.2 76.7 74.5 76.8 74.7 C 76.8 74.7 77.9 74.8 78.3 74.8 C 78.6 74.9 79.4 74.6 79.2 74.4 C 79.0 74.3 79.7 73.8 79.9 73.9 C 80.1 74.0 80.7 74.4 81.1 74.5 C 81.4 74.7 81.3 72.9 81.3 72.7 C 81.3 72.5 81.6 71.5 81.2 71.4 C 80.9 71.3 80.6 71.7 80.7 71.4 C 80.7 71.2 79.7 71.4 79.4 71.4 C 79.1 71.4 78.8 72.1 78.8 72.1 C 78.8 72.1 78.5 72.6 78.0 72.6 C 77.6 72.6 77.4 71.5 77.4 71.5 C 77.4 71.5 76.8 71.3 76.3 71.4 C 75.7 71.4 75.1 72.3 75.0 72.5 C 74.9 72.7 74.9 71.9 74.5 71.8 C 74.1 71.7 73.5 71.4 73.3 71.5 C 73.1 71.5 72.9 72.1 72.9 72.1 C 72.9 72.1 72.1 72.4 72.0 72.4 C 71.8 72.4 72.1 71.6 72.1 71.6 C 72.1 71.6 70.5 71.4 70.2 71.3 C 69.9 71.3 69.4 71.5 69.2 71.5 C 68.9 71.6 68.6 72.6 68.3 72.5 C 67.9 72.4 68.6 71.8 68.3 71.7 C 67.9 71.6 67.3 71.4 67.1 71.4 C 67.0 71.4 66.7 71.8 66.4 71.8 C 66.2 71.9 65.8 72.6 65.3 72.6 C 64.9 72.6 64.6 72.2 64.5 72.1 C 64.3 72.0 64.2 71.3 63.8 71.3 C 63.4 71.3 63.7 71.7 63.4 71.7 C 63.0 71.7 63.0 72.2 62.7 72.1 C 62.3 72.0 62.6 71.2 62.2 71.3 C 62.0 71.4 62.2 71.3 61.2 71.4 C 61.2 71.4 61.2 71.4 61.2 71.4 Z M 83.4 72.2 C 83.2 72.3 83.0 71.8 82.5 71.6 C 81.9 71.5 81.2 71.5 81.3 71.8 C 81.5 72.1 81.7 72.3 81.4 72.7 C 81.1 73.1 80.7 73.8 81.1 74.1 C 81.5 74.3 83.1 75.0 83.6 74.7 C 84.1 74.3 84.2 74.1 84.6 73.9 C 85.0 73.7 84.7 74.5 84.7 74.5 C 84.7 74.5 85.6 74.6 86.2 74.6 C 86.8 74.7 87.5 74.7 87.6 74.6 C 87.7 74.4 87.9 74.1 87.9 74.1 C 87.9 74.1 88.2 74.5 88.7 74.6 C 89.2 74.7 89.0 74.4 88.9 74.3 C 88.9 74.1 88.3 73.6 88.5 73.6 C 88.7 73.6 89.3 74.3 89.6 74.4 C 90.0 74.5 90.7 74.5 90.7 74.5 C 90.7 74.5 90.6 74.0 90.7 73.9 C 90.8 73.8 91.5 73.7 91.5 73.9 C 91.6 74.1 91.5 74.5 91.9 74.6 C 93.0 74.7 92.8 73.8 92.9 73.7 C 93.0 73.7 93.0 74.4 93.3 74.5 C 93.6 74.6 95.8 74.5 95.9 74.3 C 96.0 74.2 96.8 74.8 97.1 74.4 C 97.4 74.0 97.5 73.8 97.6 73.7 C 97.7 73.6 98.1 72.9 98.3 73.2 C 98.5 73.5 97.6 74.2 97.9 74.4 C 98.2 74.6 99.6 74.7 99.8 74.5 C 100.1 74.2 100.2 73.5 100.4 73.5 C 100.6 73.5 101.4 74.4 101.5 74.2 C 101.5 74.1 101.6 73.4 101.6 73.3 C 101.6 73.1 101.9 71.9 101.7 71.7 C 101.6 71.6 100.7 71.1 100.8 71.4 C 100.9 71.8 101.1 72.2 100.8 72.4 C 100.6 72.6 100.4 72.6 100.3 72.5 C 100.2 72.3 100.4 72.2 99.9 71.9 C 99.4 71.7 99.7 71.4 99.2 71.4 C 98.8 71.5 98.3 71.5 98.4 71.8 C 98.4 72.1 97.9 72.5 97.6 72.5 C 97.3 72.4 97.8 71.8 96.8 71.6 C 95.8 71.3 95.1 71.3 94.8 71.5 C 94.5 71.8 94.4 72.5 93.9 72.2 C 93.4 71.8 93.7 71.7 93.0 71.7 C 92.4 71.7 92.1 72.3 91.7 72.3 C 91.3 72.3 91.1 72.3 91.1 72.3 C 91.1 72.3 91.4 71.5 90.4 71.4 C 89.4 71.4 89.2 71.3 89.4 71.9 C 89.6 72.5 88.9 72.5 88.9 72.1 C 88.8 71.7 88.3 71.5 87.9 71.4 C 87.6 71.4 87.5 72.4 87.4 72.4 C 87.3 72.5 86.9 72.4 87.0 72.1 C 87.2 71.7 86.8 71.7 86.5 71.6 C 86.2 71.4 85.3 71.5 85.3 71.7 C 85.3 71.9 85.8 72.6 85.2 72.2 C 84.6 71.9 84.4 71.4 83.9 71.4 C 83.3 71.4 83.8 72.0 83.4 72.2 C 83.4 72.2 83.4 72.2 83.4 72.2 Z M 102.5 71.5 C 102.1 71.2 101.6 71.6 101.7 72.0 C 101.7 72.3 101.9 73.3 101.7 73.6 C 101.6 73.9 101.0 74.6 101.8 74.7 C 102.7 74.9 102.9 74.6 102.9 74.3 C 102.9 74.1 103.1 73.1 103.3 73.2 C 103.5 73.3 103.7 73.6 103.8 73.7 C 103.9 73.8 104.2 74.8 104.6 74.7 C 105.0 74.5 105.4 74.2 105.4 74.2 C 105.6 74.2 105.8 74.2 106.1 74.2 C 106.1 74.2 106.6 74.8 107.1 74.7 C 107.6 74.5 108.1 74.5 108.4 74.6 C 108.8 74.6 109.1 74.5 109.2 74.3 C 109.2 74.1 109.7 73.2 109.7 73.2 C 109.7 73.2 110.2 73.0 110.4 73.1 C 110.7 73.3 110.7 73.7 110.7 73.9 C 110.6 74.1 110.7 74.6 111.0 74.7 C 111.4 74.8 112.9 75.2 113.1 74.9 C 113.3 74.7 113.3 74.3 113.4 74.2 C 113.6 74.1 114.6 74.1 114.7 74.3 C 114.8 74.5 114.7 75.0 115.0 75.0 C 115.3 74.9 115.8 75.1 115.8 74.9 C 115.8 74.8 116.0 74.7 116.1 74.4 C 116.1 74.1 116.7 73.9 116.8 73.7 C 116.9 73.6 117.3 73.6 117.3 73.6 C 117.5 73.7 117.7 73.9 117.9 74.0 C 117.9 74.0 117.6 74.5 117.4 74.6 C 117.2 74.7 117.5 75.0 117.7 75.1 C 117.9 75.1 119.0 75.0 119.0 75.0 C 119.0 74.7 119.0 74.3 119.0 73.9 C 119.3 73.8 119.6 73.7 119.8 73.6 C 119.8 73.6 119.7 75.0 120.2 75.0 C 120.7 75.0 121.4 75.0 121.4 75.0 C 121.4 75.0 121.9 74.5 122.1 74.4 C 122.2 74.4 122.2 73.2 122.2 73.2 C 122.2 72.7 122.2 72.3 122.1 71.8 C 122.1 71.8 121.5 71.3 121.1 71.5 C 120.8 71.7 121.1 72.2 121.0 72.4 C 121.0 72.7 120.5 72.9 120.5 72.9 C 120.2 72.6 120.0 72.4 119.7 72.1 C 119.7 72.1 119.5 71.9 119.3 71.7 C 119.1 71.4 118.3 71.3 118.0 71.4 C 117.8 71.5 117.6 71.8 117.3 72.0 C 117.0 72.3 117.1 72.7 116.7 72.3 C 116.4 72.0 116.2 71.7 116.0 71.7 C 115.8 71.7 115.1 72.1 115.1 72.1 C 114.9 72.2 114.7 72.3 114.5 72.4 C 114.5 72.4 113.9 72.7 113.8 72.4 C 113.8 72.1 112.6 72.4 112.6 72.4 C 112.6 72.4 112.7 71.6 112.4 71.5 C 112.2 71.3 111.7 71.1 111.2 71.3 C 110.8 71.4 110.4 72.2 110.4 72.2 C 110.3 72.0 110.1 71.8 110.0 71.6 C 109.6 71.5 109.1 71.5 108.7 71.4 C 108.7 71.4 107.7 71.5 107.7 71.6 C 107.7 71.7 107.8 72.4 107.8 72.6 C 107.7 72.8 107.2 73.0 107.1 72.8 C 107.1 72.6 106.6 71.9 106.6 71.9 C 106.6 71.9 106.2 71.5 105.9 71.5 C 105.6 71.4 105.2 71.7 105.1 71.8 C 105.0 71.9 104.5 72.4 104.5 72.4 C 104.4 72.2 104.3 72.0 104.1 71.8 C 104.1 71.8 103.3 72.1 102.5 71.5 C 102.5 71.5 102.5 71.5 102.5 71.5 Z M 122.6 71.4 C 121.5 71.4 122.2 74.1 122.6 74.6 C 123.0 75.2 123.7 74.8 124.4 74.9 C 125.1 75.0 124.8 74.2 125.2 73.9 C 125.6 73.7 125.5 74.2 125.7 74.6 C 125.8 75.0 126.9 74.7 127.5 74.7 C 128.1 74.7 128.8 73.9 129.3 73.8 C 129.8 73.8 128.9 73.3 129.8 73.4 C 130.7 73.4 130.2 73.9 129.2 74.2 C 128.1 74.5 129.6 74.7 130.2 74.8 C 130.7 74.9 131.7 74.5 132.2 74.6 C 132.6 74.6 132.0 73.9 132.7 73.9 C 133.4 74.0 133.0 74.7 133.7 74.8 C 134.4 74.9 134.3 74.2 134.6 74.1 C 135.0 73.9 134.9 74.3 135.2 74.4 C 135.5 74.4 135.9 74.6 136.5 74.5 C 137.2 74.3 137.0 74.1 137.3 74.1 C 137.6 74.0 138.1 74.0 138.1 74.0 C 138.1 74.2 138.1 74.5 138.2 74.7 C 138.2 74.7 139.3 74.8 139.7 74.8 C 140.0 74.9 140.8 74.6 140.6 74.4 C 140.4 74.3 141.1 73.8 141.3 73.9 C 141.5 74.0 142.1 74.4 142.5 74.5 C 142.8 74.7 142.7 72.9 142.7 72.7 C 142.7 72.5 143.0 71.5 142.6 71.4 C 142.3 71.3 142.0 71.7 142.1 71.4 C 142.1 71.2 141.1 71.4 140.8 71.4 C 140.5 71.4 140.2 72.1 140.2 72.1 C 140.2 72.1 139.9 72.6 139.4 72.6 C 139.0 72.6 138.8 71.5 138.8 71.5 C 138.8 71.5 138.2 71.3 137.7 71.4 C 137.1 71.4 136.5 72.3 136.4 72.5 C 136.3 72.7 136.3 71.9 135.9 71.8 C 135.5 71.7 134.9 71.4 134.7 71.5 C 134.5 71.5 134.3 72.1 134.3 72.1 C 134.3 72.1 133.5 72.4 133.4 72.4 C 133.2 72.4 133.5 71.6 133.5 71.6 C 133.5 71.6 131.9 71.4 131.6 71.3 C 131.3 71.3 130.8 71.5 130.6 71.5 C 130.3 71.6 130.0 72.6 129.7 72.5 C 129.3 72.4 130.0 71.8 129.7 71.7 C 129.3 71.6 128.7 71.4 128.5 71.4 C 128.4 71.4 128.1 71.8 127.8 71.8 C 127.6 71.9 127.2 72.6 126.7 72.6 C 126.2 72.6 126.0 72.2 125.9 72.1 C 125.7 72.0 125.6 71.3 125.2 71.3 C 124.8 71.3 125.1 71.7 124.8 71.7 C 124.4 71.7 124.4 72.2 124.1 72.1 C 123.7 72.0 124.0 71.2 123.6 71.3 C 123.4 71.4 123.6 71.3 122.6 71.4 C 122.6 71.4 122.6 71.4 122.6 71.4 Z M 143.5 71.5 C 143.0 71.2 142.5 71.6 142.6 72.0 C 142.7 72.3 142.8 73.3 142.7 73.6 C 142.5 73.9 141.9 74.6 142.8 74.7 C 143.6 74.9 143.8 74.6 143.8 74.3 C 143.8 74.1 144.0 73.1 144.2 73.2 C 144.4 73.3 144.7 73.6 144.7 73.7 C 144.8 73.8 145.1 74.8 145.5 74.7 C 146.0 74.5 146.4 74.2 146.4 74.2 C 146.6 74.2 146.8 74.2 147.0 74.2 C 147.0 74.2 147.6 74.8 148.0 74.7 C 148.5 74.5 149.0 74.5 149.4 74.6 C 149.7 74.6 150.0 74.5 150.1 74.3 C 150.2 74.1 150.6 73.2 150.6 73.2 C 150.6 73.2 151.1 73.0 151.4 73.1 C 151.6 73.3 151.7 73.7 151.6 73.9 C 151.5 74.1 151.6 74.6 151.9 74.7 C 152.3 74.8 153.8 75.2 154.0 74.9 C 154.2 74.7 154.2 74.3 154.4 74.2 C 154.5 74.1 155.5 74.1 155.6 74.3 C 155.7 74.5 155.6 75.0 155.9 75.0 C 156.2 74.9 156.8 75.1 156.8 74.9 C 156.8 74.8 157.0 74.7 157.0 74.4 C 157.0 74.1 157.6 73.9 157.7 73.7 C 157.8 73.6 158.3 73.6 158.3 73.6 C 158.5 73.7 158.7 73.9 158.9 74.0 C 158.9 74.0 158.5 74.5 158.3 74.6 C 158.2 74.7 158.4 75.0 158.6 75.1 C 158.8 75.1 159.9 75.0 159.9 75.0 C 159.9 74.7 159.9 74.3 160.0 73.9 C 160.2 73.8 160.5 73.7 160.8 73.6 C 160.8 73.6 160.6 75.0 161.2 75.0 C 161.7 75.0 162.3 75.0 162.3 75.0 C 162.3 75.0 162.9 74.5 163.0 74.4 C 163.1 74.4 163.2 73.2 163.2 73.2 C 163.1 72.7 163.1 72.3 163.1 71.8 C 163.1 71.8 162.4 71.3 162.1 71.5 C 161.7 71.7 162.0 72.2 162.0 72.4 C 161.9 72.7 161.4 72.9 161.4 72.9 C 161.2 72.6 160.9 72.4 160.7 72.1 C 160.7 72.1 160.5 71.9 160.2 71.7 C 160.0 71.4 159.2 71.3 159.0 71.4 C 158.7 71.5 158.5 71.8 158.2 72.0 C 157.9 72.3 158.0 72.7 157.6 72.3 C 157.3 72.0 157.1 71.7 157.0 71.7 C 156.8 71.7 156.0 72.1 156.0 72.1 C 155.8 72.2 155.6 72.3 155.4 72.4 C 155.4 72.4 154.8 72.7 154.8 72.4 C 154.7 72.1 153.6 72.4 153.6 72.4 C 153.6 72.4 153.7 71.6 153.4 71.5 C 153.1 71.3 152.6 71.1 152.2 71.3 C 151.7 71.4 151.4 72.2 151.4 72.2 C 151.2 72.0 151.1 71.8 150.9 71.6 C 150.5 71.5 150.1 71.5 149.6 71.4 C 149.6 71.4 148.7 71.5 148.7 71.6 C 148.7 71.7 148.8 72.4 148.7 72.6 C 148.7 72.8 148.1 73.0 148.1 72.8 C 148.0 72.6 147.6 71.9 147.6 71.9 C 147.6 71.9 147.2 71.5 146.9 71.5 C 146.6 71.4 146.1 71.7 146.0 71.8 C 145.9 71.9 145.4 72.4 145.4 72.4 C 145.3 72.2 145.2 72.0 145.1 71.8 C 145.1 71.8 144.3 72.1 143.5 71.5 C 143.5 71.5 143.5 71.5 143.5 71.5 Z M 163.5 71.4 C 162.5 71.4 163.1 74.1 163.5 74.6 C 163.9 75.2 164.6 74.8 165.3 74.9 C 166.0 75.0 165.8 74.2 166.2 73.9 C 166.6 73.7 166.4 74.2 166.6 74.6 C 166.8 75.0 167.8 74.7 168.4 74.7 C 169.1 74.7 169.7 73.9 170.2 73.8 C 170.7 73.8 169.8 73.3 170.7 73.4 C 171.6 73.4 171.2 73.9 170.1 74.2 C 169.1 74.5 170.5 74.7 171.1 74.8 C 171.7 74.9 172.6 74.5 173.1 74.6 C 173.5 74.6 173.0 73.9 173.6 73.9 C 174.3 74.0 174.0 74.7 174.6 74.8 C 175.3 74.9 175.2 74.2 175.6 74.1 C 175.9 73.9 175.8 74.3 176.1 74.4 C 176.4 74.4 176.8 74.6 177.5 74.5 C 178.1 74.3 177.9 74.1 178.2 74.1 C 178.5 74.0 179.0 74.0 179.0 74.0 C 179.0 74.2 179.1 74.5 179.1 74.7 C 179.1 74.7 180.3 74.8 180.6 74.8 C 180.9 74.9 181.7 74.6 181.5 74.4 C 181.3 74.3 182.1 73.8 182.2 73.9 C 182.4 74.0 183.0 74.4 183.4 74.5 C 183.8 74.7 183.7 72.9 183.7 72.7 C 183.7 72.5 183.9 71.5 183.6 71.4 C 183.2 71.3 182.9 71.7 183.0 71.4 C 183.0 71.2 182.0 71.4 181.7 71.4 C 181.4 71.4 181.1 72.1 181.1 72.1 C 181.1 72.1 180.8 72.6 180.4 72.6 C 179.9 72.6 179.7 71.5 179.7 71.5 C 179.7 71.5 179.2 71.3 178.6 71.4 C 178.0 71.4 177.4 72.3 177.3 72.5 C 177.2 72.7 177.2 71.9 176.8 71.8 C 176.4 71.7 175.8 71.4 175.6 71.5 C 175.5 71.5 175.2 72.1 175.2 72.1 C 175.2 72.1 174.5 72.4 174.3 72.4 C 174.1 72.4 174.4 71.6 174.4 71.6 C 174.4 71.6 172.9 71.4 172.5 71.3 C 172.2 71.3 171.7 71.5 171.5 71.5 C 171.3 71.6 170.9 72.6 170.6 72.5 C 170.3 72.4 170.9 71.8 170.6 71.7 C 170.3 71.6 169.6 71.4 169.5 71.4 C 169.3 71.4 169.1 71.8 168.8 71.8 C 168.5 71.9 168.1 72.6 167.6 72.6 C 167.2 72.6 167.0 72.2 166.8 72.1 C 166.6 72.0 166.5 71.3 166.1 71.3 C 165.8 71.3 166.0 71.7 165.7 71.7 C 165.4 71.7 165.4 72.2 165.0 72.1 C 164.7 72.0 164.9 71.2 164.5 71.3 C 164.3 71.4 164.5 71.3 163.5 71.4 C 163.5 71.4 163.5 71.4 163.5 71.4 Z M 184.4 71.5 C 183.9 71.2 183.5 71.6 183.5 72.0 C 183.6 72.3 183.8 73.3 183.6 73.6 C 183.4 73.9 182.8 74.6 183.7 74.7 C 184.6 74.9 184.8 74.6 184.8 74.3 C 184.8 74.1 184.9 73.1 185.2 73.2 C 185.4 73.3 185.6 73.6 185.7 73.7 C 185.7 73.8 186.1 74.8 186.5 74.7 C 186.9 74.5 187.3 74.2 187.3 74.2 C 187.5 74.2 187.7 74.2 187.9 74.2 C 187.9 74.2 188.5 74.8 189.0 74.7 C 189.4 74.5 189.9 74.5 190.3 74.6 C 190.6 74.6 191.0 74.5 191.0 74.3 C 191.1 74.1 191.5 73.2 191.5 73.2 C 191.5 73.2 192.1 73.0 192.3 73.1 C 192.5 73.3 192.6 73.7 192.5 73.9 C 192.5 74.1 192.5 74.6 192.9 74.7 C 193.2 74.8 194.7 75.2 194.9 74.9 C 195.2 74.7 195.1 74.3 195.3 74.2 C 195.5 74.1 196.5 74.1 196.5 74.3 C 196.6 74.5 196.6 75.0 196.8 75.0 C 197.1 74.9 197.7 75.1 197.7 74.9 C 197.7 74.8 197.9 74.7 197.9 74.4 C 197.9 74.1 198.5 73.9 198.6 73.7 C 198.8 73.6 199.2 73.6 199.2 73.6 C 199.4 73.7 199.6 73.9 199.8 74.0 C 199.8 74.0 199.4 74.5 199.3 74.6 C 199.1 74.7 199.4 75.0 199.6 75.1 C 199.7 75.1 200.8 75.0 200.8 75.0 C 200.8 74.7 200.9 74.3 200.9 73.9 C 201.1 73.8 201.4 73.7 201.7 73.6 C 201.7 73.6 201.6 75.0 202.1 75.0 C 202.6 75.0 203.2 75.0 203.2 75.0 C 203.2 75.0 203.8 74.5 203.9 74.4 C 204.1 74.4 204.1 73.2 204.1 73.2 C 204.1 72.7 204.0 72.3 204.0 71.8 C 204.0 71.8 203.4 71.3 203.0 71.5 C 202.7 71.7 203.0 72.2 202.9 72.4 C 202.8 72.7 202.3 72.9 202.3 72.9 C 202.1 72.6 201.9 72.4 201.6 72.1 C 201.6 72.1 201.4 71.9 201.2 71.7 C 200.9 71.4 200.1 71.3 199.9 71.4 C 199.7 71.5 199.4 71.8 199.2 72.0 C 198.9 72.3 198.9 72.7 198.6 72.3 C 198.2 72.0 198.1 71.7 197.9 71.7 C 197.7 71.7 197.0 72.1 197.0 72.1 C 196.8 72.2 196.5 72.3 196.3 72.4 C 196.3 72.4 195.8 72.7 195.7 72.4 C 195.6 72.1 194.5 72.4 194.5 72.4 C 194.5 72.4 194.6 71.6 194.3 71.5 C 194.0 71.3 193.6 71.1 193.1 71.3 C 192.6 71.4 192.3 72.2 192.3 72.2 C 192.2 72.0 192.0 71.8 191.9 71.6 C 191.4 71.5 191.0 71.5 190.6 71.4 C 190.6 71.4 189.6 71.5 189.6 71.6 C 189.6 71.7 189.7 72.4 189.6 72.6 C 189.6 72.8 189.1 73.0 189.0 72.8 C 189.0 72.6 188.5 71.9 188.5 71.9 C 188.5 71.9 188.1 71.5 187.8 71.5 C 187.5 71.4 187.1 71.7 186.9 71.8 C 186.8 71.9 186.4 72.4 186.4 72.4 C 186.2 72.2 186.1 72.0 186.0 71.8 C 186.0 71.8 185.2 72.1 184.4 71.5 C 184.4 71.5 184.4 71.5 184.4 71.5 Z M 204.4 71.4 C 203.4 71.4 204.1 74.1 204.5 74.6 C 204.9 75.2 205.6 74.8 206.2 74.9 C 206.9 75.0 206.7 74.2 207.1 73.9 C 207.5 73.7 207.3 74.2 207.5 74.6 C 207.7 75.0 208.7 74.7 209.4 74.7 C 210.0 74.7 210.7 73.9 211.2 73.8 C 211.7 73.8 210.7 73.3 211.6 73.4 C 212.5 73.4 212.1 73.9 211.1 74.2 C 210.0 74.5 211.5 74.7 212.0 74.8 C 212.6 74.9 213.6 74.5 214.0 74.6 C 214.5 74.6 213.9 73.9 214.6 73.9 C 215.2 74.0 214.9 74.7 215.6 74.8 C 216.2 74.9 216.1 74.2 216.5 74.1 C 216.8 73.9 216.8 74.3 217.0 74.4 C 217.3 74.4 217.8 74.6 218.4 74.5 C 219.0 74.3 218.9 74.1 219.1 74.1 C 219.4 74.0 219.9 74.0 219.9 74.0 C 220.0 74.2 220.0 74.5 220.0 74.7 C 220.0 74.7 221.2 74.8 221.5 74.8 C 221.9 74.9 222.6 74.6 222.4 74.4 C 222.2 74.3 223.0 73.8 223.2 73.9 C 223.3 74.0 223.9 74.4 224.3 74.5 C 224.7 74.7 224.6 72.9 224.6 72.7 C 224.6 72.5 224.8 71.5 224.5 71.4 C 224.1 71.3 223.9 71.7 223.9 71.4 C 224.0 71.2 222.9 71.4 222.7 71.4 C 222.4 71.4 222.0 72.1 222.0 72.1 C 222.0 72.1 221.8 72.6 221.3 72.6 C 220.8 72.6 220.7 71.5 220.7 71.5 C 220.7 71.5 220.1 71.3 219.5 71.4 C 219.0 71.4 218.3 72.3 218.2 72.5 C 218.1 72.7 218.1 71.9 217.7 71.8 C 217.3 71.7 216.8 71.4 216.6 71.5 C 216.4 71.5 216.1 72.1 216.1 72.1 C 216.1 72.1 215.4 72.4 215.2 72.4 C 215.0 72.4 215.3 71.6 215.3 71.6 C 215.3 71.6 213.8 71.4 213.5 71.3 C 213.2 71.3 212.7 71.5 212.4 71.5 C 212.2 71.6 211.9 72.6 211.5 72.5 C 211.2 72.4 211.9 71.8 211.5 71.7 C 211.2 71.6 210.6 71.4 210.4 71.4 C 210.2 71.4 210.0 71.8 209.7 71.8 C 209.4 71.9 209.0 72.6 208.6 72.6 C 208.1 72.6 207.9 72.2 207.7 72.1 C 207.5 72.0 207.4 71.3 207.1 71.3 C 206.7 71.3 207.0 71.7 206.6 71.7 C 206.3 71.7 206.3 72.2 206.0 72.1 C 205.6 72.0 205.8 71.2 205.4 71.3 C 205.3 71.4 205.4 71.3 204.4 71.4 C 204.4 71.4 204.4 71.4 204.4 71.4 Z M 226.7 72.2 C 226.5 72.3 226.3 71.8 225.7 71.6 C 225.2 71.5 224.5 71.5 224.6 71.8 C 224.7 72.1 224.9 72.3 224.6 72.7 C 224.3 73.1 224.0 73.8 224.4 74.1 C 224.8 74.3 226.4 75.0 226.9 74.7 C 227.3 74.3 227.5 74.1 227.9 73.9 C 228.2 73.7 228.0 74.5 228.0 74.5 C 228.0 74.5 228.8 74.6 229.5 74.6 C 230.1 74.7 230.8 74.7 230.9 74.6 C 230.9 74.4 231.2 74.1 231.2 74.1 C 231.2 74.1 231.5 74.5 232.0 74.6 C 232.4 74.7 232.3 74.4 232.2 74.3 C 232.1 74.1 231.6 73.6 231.8 73.6 C 232.0 73.6 232.6 74.3 232.9 74.4 C 233.2 74.5 234.0 74.5 234.0 74.5 C 234.0 74.5 233.9 74.0 234.0 73.9 C 234.0 73.8 234.8 73.7 234.8 73.9 C 234.9 74.1 234.8 74.5 235.2 74.5 C 236.6 74.5 236.2 73.6 236.4 73.6 C 236.5 73.6 236.5 74.2 236.9 74.3 C 237.2 74.3 239.5 73.6 239.6 73.4 C 239.6 73.2 240.6 73.4 240.8 72.9 C 240.9 72.3 240.9 72.2 240.9 72.0 C 240.9 71.9 241.0 71.1 241.3 71.2 C 241.6 71.4 241.2 72.5 241.5 72.5 C 241.9 72.6 243.2 71.7 243.3 71.4 C 243.4 71.0 243.0 70.4 243.2 70.3 C 243.3 70.2 244.5 70.2 244.4 70.1 C 244.4 69.9 244.0 69.4 243.9 69.3 C 243.8 69.2 243.0 68.1 242.8 68.1 C 242.6 68.1 241.8 68.3 242.1 68.5 C 242.4 68.7 242.8 68.9 242.7 69.2 C 242.6 69.5 242.5 69.6 242.4 69.5 C 242.3 69.5 242.3 69.3 241.8 69.3 C 241.3 69.4 241.3 69.1 241.0 69.3 C 240.7 69.6 240.4 69.8 240.6 70.0 C 240.8 70.2 240.6 70.8 240.3 70.9 C 240.0 71.1 240.2 70.3 239.3 70.5 C 238.4 70.7 237.8 70.7 237.6 71.1 C 237.4 71.4 237.6 72.1 237.0 71.9 C 236.5 71.7 236.7 71.4 236.1 71.5 C 235.6 71.6 235.4 72.2 234.9 72.3 C 234.5 72.3 234.4 72.3 234.4 72.3 C 234.4 72.3 234.6 71.5 233.7 71.4 C 232.7 71.4 232.5 71.3 232.7 71.9 C 232.9 72.5 232.2 72.5 232.1 72.1 C 232.1 71.7 231.5 71.5 231.2 71.4 C 230.9 71.4 230.8 72.4 230.7 72.4 C 230.5 72.5 230.1 72.4 230.3 72.1 C 230.4 71.7 230.1 71.7 229.8 71.6 C 229.5 71.4 228.6 71.5 228.6 71.7 C 228.6 71.9 229.0 72.6 228.4 72.2 C 227.8 71.9 227.7 71.4 227.1 71.4 C 226.5 71.4 227.0 72.0 226.7 72.2 C 226.7 72.2 226.7 72.2 226.7 72.2 Z M 243.1 67.5 C 242.6 67.6 242.7 68.1 243.0 68.3 C 243.3 68.6 244.1 69.1 244.2 69.4 C 244.2 69.7 244.3 70.7 245.1 70.1 C 245.8 69.5 245.7 69.2 245.5 69.0 C 245.3 68.9 244.7 68.1 244.9 68.0 C 245.1 67.9 245.4 67.8 245.6 67.9 C 245.7 67.9 246.7 68.2 246.9 67.7 C 247.0 67.2 246.9 66.7 246.9 66.7 C 247.0 66.5 247.1 66.3 247.2 66.1 C 247.2 66.1 248.0 65.8 248.1 65.3 C 248.1 64.7 248.3 64.2 248.4 63.8 C 248.6 63.5 248.6 63.1 248.4 63.0 C 248.2 62.9 247.4 62.2 247.4 62.2 C 247.4 62.2 247.3 61.7 247.4 61.5 C 247.6 61.2 248.1 61.2 248.3 61.3 C 248.4 61.4 248.9 61.4 249.0 61.0 C 249.1 60.6 249.6 59.0 249.3 58.8 C 249.1 58.5 248.7 58.6 248.6 58.4 C 248.5 58.2 248.5 57.3 248.7 57.2 C 248.9 57.1 249.4 57.1 249.4 56.9 C 249.3 56.6 249.5 56.0 249.3 56.0 C 249.2 56.0 249.1 55.8 248.8 55.8 C 248.5 55.8 248.3 55.2 248.1 55.1 C 248.0 55.0 247.9 54.5 247.9 54.5 C 248.1 54.3 248.3 54.1 248.4 53.9 C 248.4 53.9 248.9 54.3 249.0 54.4 C 249.1 54.6 249.4 54.3 249.5 54.2 C 249.5 54.0 249.4 52.9 249.4 52.9 C 249.0 52.9 248.7 52.8 248.3 52.8 C 248.2 52.6 248.1 52.3 248.0 52.0 C 248.0 52.0 249.4 52.1 249.4 51.6 C 249.4 51.1 249.4 50.5 249.4 50.5 C 249.4 50.5 248.9 49.9 248.8 49.8 C 248.8 49.7 247.6 49.6 247.6 49.6 C 247.1 49.6 246.7 49.7 246.2 49.7 C 246.2 49.7 245.7 50.4 245.9 50.7 C 246.1 51.0 246.6 50.8 246.8 50.8 C 247.1 50.9 247.3 51.4 247.3 51.4 C 247.0 51.6 246.8 51.9 246.5 52.1 C 246.5 52.1 246.3 52.3 246.1 52.5 C 245.8 52.8 245.7 53.6 245.8 53.8 C 245.9 54.0 246.2 54.3 246.4 54.6 C 246.7 54.8 247.1 54.8 246.7 55.1 C 246.4 55.5 246.1 55.7 246.1 55.8 C 246.1 56.0 246.5 56.7 246.5 56.7 C 246.6 57.0 246.7 57.2 246.8 57.4 C 246.8 57.4 247.1 57.9 246.8 58.0 C 246.5 58.1 246.8 59.2 246.8 59.2 C 246.8 59.2 246.0 59.1 245.9 59.4 C 245.7 59.7 245.5 60.1 245.7 60.5 C 245.8 61.0 246.5 61.4 246.5 61.4 C 246.3 61.5 246.1 61.6 245.9 61.7 C 245.8 62.1 245.6 62.4 245.5 62.8 C 245.5 62.8 245.3 63.6 245.4 63.6 C 245.5 63.7 246.2 63.8 246.4 63.9 C 246.6 64.0 246.6 64.6 246.4 64.6 C 246.1 64.5 245.4 64.7 245.4 64.7 C 245.4 64.7 244.8 64.8 244.7 65.0 C 244.5 65.2 244.6 65.7 244.6 65.8 C 244.7 66.0 244.9 66.6 244.9 66.6 C 244.7 66.6 244.4 66.6 244.2 66.5 C 244.2 66.5 244.0 67.3 243.1 67.5 C 243.1 67.5 243.1 67.5 243.1 67.5 Z M 245.8 49.3 C 245.8 50.3 248.5 49.6 249.0 49.2 C 249.5 48.8 249.2 48.2 249.3 47.5 C 249.4 46.8 248.6 47.0 248.3 46.6 C 248.1 46.2 248.6 46.4 249.0 46.2 C 249.4 46.0 249.0 45.0 249.1 44.3 C 249.1 43.7 248.2 43.1 248.2 42.5 C 248.1 42.0 247.7 43.0 247.8 42.1 C 247.8 41.2 248.3 41.6 248.6 42.7 C 248.9 43.7 249.1 42.2 249.2 41.7 C 249.3 41.1 248.9 40.1 248.9 39.7 C 249.0 39.2 248.3 39.8 248.3 39.1 C 248.4 38.5 249.0 38.8 249.1 38.2 C 249.3 37.5 248.6 37.6 248.5 37.2 C 248.3 36.9 248.7 37.0 248.8 36.7 C 248.8 36.4 249.0 35.9 248.9 35.3 C 248.7 34.7 248.5 34.8 248.5 34.6 C 248.4 34.3 248.4 33.8 248.4 33.8 C 248.6 33.7 248.9 33.7 249.1 33.7 C 249.1 33.7 249.1 32.5 249.2 32.2 C 249.2 31.8 248.9 31.1 248.8 31.3 C 248.7 31.5 248.2 30.7 248.3 30.5 C 248.4 30.4 248.8 29.8 248.9 29.4 C 249.0 29.0 247.3 29.1 247.1 29.1 C 246.8 29.1 245.9 28.9 245.8 29.2 C 245.7 29.6 246.1 29.8 245.8 29.8 C 245.6 29.7 245.8 30.8 245.8 31.0 C 245.8 31.3 246.5 31.7 246.5 31.7 C 246.5 31.7 247.0 32.0 247.0 32.4 C 247.0 32.9 245.9 33.0 245.9 33.0 C 245.9 33.0 245.7 33.6 245.8 34.2 C 245.8 34.7 246.7 35.4 246.9 35.5 C 247.1 35.6 246.3 35.6 246.2 36.0 C 246.1 36.4 245.8 37.0 245.9 37.1 C 245.9 37.3 246.5 37.6 246.5 37.6 C 246.5 37.6 246.8 38.3 246.8 38.5 C 246.8 38.7 246.0 38.4 246.0 38.4 C 246.0 38.4 245.8 39.9 245.7 40.2 C 245.6 40.6 245.9 41.1 245.9 41.3 C 246.0 41.5 246.9 41.8 246.8 42.2 C 246.7 42.5 246.2 41.8 246.1 42.2 C 246.0 42.5 245.8 43.2 245.8 43.3 C 245.8 43.5 246.2 43.7 246.2 44.0 C 246.3 44.3 247.0 44.7 247.0 45.1 C 247.0 45.6 246.6 45.8 246.5 46.0 C 246.4 46.2 245.7 46.3 245.7 46.6 C 245.7 47.0 246.1 46.7 246.1 47.1 C 246.1 47.4 246.6 47.4 246.5 47.8 C 246.4 48.1 245.6 47.9 245.7 48.3 C 245.8 48.4 245.7 48.3 245.8 49.3 C 245.8 49.3 245.8 49.3 245.8 49.3 Z M 245.9 28.4 C 245.5 28.9 246.0 29.3 246.4 29.2 C 246.7 29.2 247.7 29.0 248.0 29.2 C 248.3 29.4 249.0 29.9 249.1 29.1 C 249.2 28.2 249.0 28.0 248.7 28.0 C 248.5 28.0 247.5 27.9 247.6 27.6 C 247.7 27.4 247.9 27.2 248.1 27.1 C 248.2 27.0 249.2 26.7 249.1 26.3 C 248.9 25.9 248.6 25.5 248.6 25.5 C 248.6 25.3 248.6 25.1 248.6 24.9 C 248.6 24.9 249.2 24.3 249.1 23.8 C 248.9 23.4 248.9 22.8 249.0 22.5 C 249.0 22.1 248.9 21.8 248.7 21.7 C 248.5 21.7 247.6 21.2 247.6 21.2 C 247.6 21.2 247.4 20.7 247.5 20.5 C 247.7 20.3 248.1 20.2 248.3 20.3 C 248.5 20.3 249.0 20.3 249.1 19.9 C 249.1 19.5 249.4 17.7 249.1 17.5 C 248.8 17.2 248.4 17.4 248.3 17.2 C 248.2 17.1 247.9 16.0 248.1 15.9 C 248.3 15.7 248.8 15.6 248.6 15.3 C 248.5 15.0 248.4 14.4 248.2 14.4 C 248.1 14.5 247.9 14.3 247.6 14.4 C 247.4 14.5 246.9 14.1 246.7 14.0 C 246.6 14.0 246.3 13.6 246.3 13.6 C 246.3 13.3 246.4 13.1 246.4 12.8 C 246.4 12.8 247.0 12.9 247.2 13.0 C 247.4 13.1 247.5 12.7 247.4 12.5 C 247.4 12.3 246.6 11.3 246.6 11.3 C 246.3 11.6 246.0 11.8 245.7 12.0 C 245.4 11.8 245.2 11.6 245.0 11.5 C 245.0 11.5 246.1 10.7 245.7 10.3 C 245.4 9.8 244.9 9.3 244.9 9.3 C 244.9 9.3 244.1 9.3 244.0 9.2 C 243.8 9.2 243.0 10.1 243.0 10.1 C 242.7 10.4 242.4 10.8 242.1 11.2 C 242.1 11.2 242.2 11.9 242.6 12.0 C 242.9 12.0 243.1 11.5 243.3 11.4 C 243.5 11.3 244.0 11.5 244.0 11.5 C 244.0 11.8 243.9 12.1 243.8 12.5 C 243.8 12.5 243.8 12.8 243.7 13.1 C 243.6 13.4 243.9 14.0 244.1 14.1 C 244.3 14.2 244.7 14.2 245.0 14.4 C 245.3 14.5 245.7 14.3 245.5 14.7 C 245.4 15.1 245.1 15.4 245.1 15.5 C 245.2 15.7 245.9 16.1 245.9 16.1 C 246.0 16.3 246.2 16.4 246.3 16.6 C 246.3 16.6 246.7 17.1 246.5 17.2 C 246.2 17.3 246.7 18.3 246.7 18.3 C 246.7 18.3 245.9 18.3 245.8 18.6 C 245.7 18.9 245.5 19.3 245.7 19.7 C 245.8 20.1 246.6 20.5 246.6 20.5 C 246.4 20.6 246.2 20.8 246.0 20.9 C 245.9 21.3 245.9 21.8 245.8 22.2 C 245.8 22.2 245.9 23.2 246.0 23.2 C 246.1 23.2 246.8 23.1 247.0 23.1 C 247.2 23.2 247.4 23.7 247.2 23.8 C 247.0 23.8 246.3 24.3 246.3 24.3 C 246.3 24.3 245.9 24.7 245.9 25.0 C 245.8 25.3 246.1 25.7 246.2 25.8 C 246.3 26.0 246.8 26.4 246.8 26.4 C 246.6 26.5 246.4 26.7 246.2 26.8 C 246.2 26.8 246.5 27.6 245.9 28.4 C 245.9 28.4 245.9 28.4 245.9 28.4 Z M 240.8 9.7 C 241.0 9.7 240.9 10.2 241.2 10.6 C 241.5 11.0 241.9 11.4 242.0 11.1 C 242.2 10.8 242.1 10.5 242.6 10.4 C 243.1 10.3 243.8 10.0 243.7 9.5 C 243.5 9.0 242.6 7.4 241.9 7.5 C 241.3 7.5 241.1 7.6 240.6 7.6 C 240.2 7.7 240.8 7.1 240.8 7.1 C 240.8 7.1 240.0 6.6 239.3 6.3 C 238.7 6.0 237.9 5.8 237.8 5.9 C 237.7 6.0 237.4 6.2 237.4 6.2 C 237.4 6.2 237.1 5.8 236.6 5.6 C 236.1 5.5 236.3 5.7 236.3 5.9 C 236.4 6.1 236.9 6.7 236.7 6.7 C 236.5 6.6 235.9 5.8 235.6 5.7 C 235.2 5.6 234.4 5.6 234.4 5.6 C 234.4 5.6 234.4 6.0 234.4 6.1 C 234.3 6.2 233.6 6.3 233.5 6.1 C 233.5 6.0 233.6 5.5 233.2 5.5 C 232.1 5.4 232.2 6.3 232.1 6.3 C 232.0 6.3 232.0 5.6 231.7 5.5 C 231.5 5.4 229.2 5.5 229.1 5.7 C 229.0 5.9 228.3 5.2 227.9 5.7 C 227.6 6.1 227.5 6.2 227.4 6.3 C 227.4 6.4 226.9 7.1 226.7 6.9 C 226.5 6.6 227.4 5.8 227.2 5.6 C 226.9 5.4 225.5 5.4 225.3 5.6 C 224.9 5.9 224.8 6.5 224.6 6.5 C 224.4 6.5 223.6 5.7 223.6 5.8 C 223.5 5.9 223.4 6.6 223.4 6.8 C 223.4 6.9 223.1 8.2 223.3 8.3 C 223.5 8.5 224.3 9.0 224.2 8.6 C 224.1 8.2 223.9 7.8 224.2 7.6 C 224.5 7.5 224.7 7.5 224.7 7.6 C 224.8 7.7 224.6 7.9 225.1 8.1 C 225.6 8.4 225.4 8.6 225.8 8.6 C 226.3 8.6 226.7 8.5 226.7 8.2 C 226.6 8.0 227.1 7.6 227.4 7.6 C 227.8 7.6 227.2 8.2 228.3 8.5 C 229.3 8.7 230.0 8.8 230.3 8.5 C 230.6 8.3 230.6 7.6 231.1 7.9 C 231.6 8.2 231.3 8.4 232.0 8.4 C 232.7 8.4 232.9 7.8 233.4 7.7 C 233.8 7.7 233.9 7.8 233.9 7.8 C 233.9 7.8 233.7 8.6 234.6 8.6 C 235.5 8.7 235.7 8.8 235.5 8.2 C 235.4 7.6 236.1 7.6 236.1 8.0 C 236.1 8.4 236.5 8.8 236.8 8.9 C 237.1 9.0 237.4 8.0 237.5 8.0 C 237.7 8.0 238.0 8.2 237.8 8.5 C 237.5 8.7 237.8 8.9 238.0 9.1 C 238.3 9.3 239.0 9.5 239.1 9.3 C 239.1 9.2 239.0 8.4 239.4 8.9 C 239.7 9.4 239.6 9.9 240.1 10.2 C 240.5 10.4 240.4 9.6 240.8 9.7 C 240.8 9.7 240.8 9.7 240.8 9.7 Z M 222.5 8.5 C 223.0 8.9 223.4 8.4 223.4 8.1 C 223.3 7.7 223.1 6.7 223.3 6.4 C 223.5 6.2 224.1 5.5 223.2 5.3 C 222.3 5.2 222.2 5.5 222.2 5.7 C 222.2 5.9 222.0 7.0 221.8 6.9 C 221.5 6.8 221.3 6.5 221.2 6.4 C 221.2 6.2 220.9 5.2 220.4 5.4 C 220.0 5.5 219.6 5.8 219.6 5.8 C 219.4 5.8 219.2 5.8 219.0 5.8 C 219.0 5.8 218.4 5.2 218.0 5.4 C 217.5 5.5 217.0 5.5 216.6 5.5 C 216.3 5.4 215.9 5.5 215.9 5.7 C 215.8 6.0 215.4 6.8 215.4 6.8 C 215.4 6.8 214.9 7.0 214.6 6.9 C 214.4 6.8 214.3 6.3 214.4 6.1 C 214.4 5.9 214.4 5.5 214.0 5.4 C 213.7 5.3 212.2 4.8 212.0 5.1 C 211.7 5.4 211.8 5.7 211.6 5.8 C 211.4 5.9 210.5 6.0 210.4 5.7 C 210.3 5.5 210.4 5.0 210.1 5.1 C 209.8 5.1 209.2 5.0 209.2 5.1 C 209.2 5.2 209.0 5.4 209.0 5.7 C 209.0 5.9 208.4 6.2 208.3 6.3 C 208.2 6.4 207.7 6.5 207.7 6.5 C 207.5 6.3 207.3 6.2 207.1 6.0 C 207.1 6.0 207.5 5.5 207.6 5.4 C 207.8 5.3 207.5 5.0 207.4 5.0 C 207.2 4.9 206.1 5.0 206.1 5.0 C 206.1 5.4 206.1 5.8 206.0 6.2 C 205.8 6.2 205.5 6.3 205.2 6.4 C 205.2 6.4 205.3 5.0 204.8 5.0 C 204.3 5.0 203.7 5.0 203.7 5.0 C 203.7 5.0 203.1 5.6 203.0 5.6 C 202.9 5.7 202.8 6.9 202.8 6.9 C 202.8 7.3 202.9 7.8 202.9 8.2 C 202.9 8.2 203.6 8.7 203.9 8.5 C 204.2 8.3 204.0 7.8 204.0 7.6 C 204.1 7.4 204.6 7.1 204.6 7.1 C 204.8 7.4 205.1 7.7 205.3 7.9 C 205.3 7.9 205.5 8.2 205.7 8.4 C 206.0 8.6 206.8 8.8 207.0 8.7 C 207.2 8.6 207.5 8.2 207.8 8.0 C 208.0 7.8 208.0 7.4 208.3 7.7 C 208.7 8.0 208.9 8.4 209.0 8.4 C 209.2 8.4 209.9 7.9 209.9 7.9 C 210.2 7.8 210.4 7.7 210.6 7.6 C 210.6 7.6 211.1 7.4 211.2 7.6 C 211.3 7.9 212.4 7.6 212.4 7.6 C 212.4 7.6 212.3 8.4 212.6 8.6 C 212.9 8.7 213.3 8.9 213.8 8.8 C 214.3 8.6 214.6 7.8 214.6 7.8 C 214.8 8.0 214.9 8.2 215.1 8.4 C 215.5 8.5 215.9 8.6 216.3 8.6 C 216.3 8.6 217.3 8.6 217.3 8.4 C 217.3 8.3 217.2 7.6 217.3 7.4 C 217.3 7.2 217.8 7.0 217.9 7.2 C 218.0 7.5 218.4 8.1 218.4 8.1 C 218.4 8.1 218.8 8.5 219.1 8.6 C 219.4 8.6 219.9 8.4 220.0 8.2 C 220.1 8.1 220.6 7.6 220.6 7.6 C 220.7 7.8 220.8 8.0 220.9 8.2 C 220.9 8.2 221.7 7.9 222.5 8.5 C 222.5 8.5 222.5 8.5 222.5 8.5 Z M 200.7 7.9 C 200.9 7.8 201.1 8.2 201.7 8.4 C 202.2 8.6 202.9 8.6 202.8 8.3 C 202.6 8.0 202.4 7.8 202.7 7.4 C 203.0 7.0 203.4 6.2 203.0 6.0 C 202.6 5.7 201.0 5.0 200.5 5.4 C 200.0 5.8 199.9 5.9 199.5 6.1 C 199.1 6.4 199.4 5.6 199.4 5.6 C 199.4 5.6 198.5 5.5 197.9 5.4 C 197.3 5.4 196.6 5.4 196.5 5.5 C 196.4 5.6 196.2 5.9 196.2 5.9 C 196.2 5.9 195.9 5.5 195.4 5.5 C 194.9 5.4 195.1 5.6 195.2 5.8 C 195.2 6.0 195.8 6.5 195.6 6.5 C 195.4 6.5 194.8 5.7 194.5 5.6 C 194.2 5.5 193.4 5.6 193.4 5.6 C 193.4 5.6 193.5 6.0 193.4 6.1 C 193.4 6.2 192.6 6.3 192.6 6.1 C 192.6 6.0 192.6 5.5 192.3 5.5 C 191.1 5.4 191.3 6.3 191.2 6.3 C 191.1 6.3 191.1 5.6 190.8 5.5 C 190.5 5.4 188.3 5.5 188.2 5.7 C 188.1 5.9 187.3 5.2 187.0 5.7 C 186.7 6.1 186.6 6.2 186.5 6.3 C 186.4 6.4 186.0 7.1 185.8 6.9 C 185.6 6.6 186.5 5.8 186.2 5.6 C 186.0 5.4 184.6 5.4 184.3 5.6 C 184.0 5.9 183.9 6.5 183.7 6.5 C 183.5 6.5 182.7 5.7 182.6 5.8 C 182.6 5.9 182.5 6.6 182.5 6.8 C 182.5 6.9 182.2 8.2 182.4 8.3 C 182.5 8.5 183.4 9.0 183.3 8.6 C 183.2 8.2 183.0 7.8 183.3 7.6 C 183.6 7.5 183.7 7.5 183.8 7.6 C 183.9 7.7 183.7 7.9 184.2 8.1 C 184.7 8.4 184.4 8.6 184.9 8.6 C 185.4 8.6 185.8 8.5 185.7 8.2 C 185.7 8.0 186.2 7.6 186.5 7.6 C 186.8 7.6 186.3 8.2 187.3 8.5 C 188.4 8.7 189.0 8.8 189.3 8.5 C 189.6 8.3 189.7 7.6 190.2 7.9 C 190.7 8.2 190.4 8.4 191.1 8.4 C 191.7 8.4 192.0 7.8 192.4 7.7 C 192.9 7.7 193.0 7.8 193.0 7.8 C 193.0 7.8 192.7 8.6 193.7 8.6 C 194.7 8.7 194.9 8.7 194.7 8.1 C 194.5 7.5 195.2 7.5 195.2 7.9 C 195.3 8.3 195.8 8.6 196.2 8.6 C 196.5 8.7 196.6 7.6 196.7 7.6 C 196.9 7.6 197.2 7.7 197.1 8.0 C 196.9 8.3 197.3 8.4 197.6 8.5 C 197.9 8.6 198.8 8.5 198.8 8.3 C 198.8 8.2 198.3 7.5 198.9 7.8 C 199.5 8.2 199.7 8.7 200.3 8.6 C 200.8 8.6 200.3 8.0 200.7 7.9 C 200.7 7.9 200.7 7.9 200.7 7.9 Z M 181.6 8.5 C 182.1 8.9 182.5 8.4 182.4 8.1 C 182.4 7.7 182.2 6.7 182.4 6.4 C 182.6 6.2 183.1 5.5 182.3 5.3 C 181.4 5.2 181.2 5.5 181.2 5.7 C 181.2 5.9 181.1 7.0 180.8 6.9 C 180.6 6.8 180.4 6.5 180.3 6.4 C 180.2 6.2 179.9 5.2 179.5 5.4 C 179.1 5.5 178.7 5.8 178.7 5.8 C 178.5 5.8 178.3 5.8 178.1 5.8 C 178.1 5.8 177.5 5.2 177.0 5.4 C 176.6 5.5 176.0 5.5 175.7 5.5 C 175.4 5.4 175.0 5.5 174.9 5.7 C 174.9 6.0 174.4 6.8 174.4 6.8 C 174.4 6.8 173.9 7.0 173.7 6.9 C 173.5 6.8 173.4 6.3 173.5 6.1 C 173.5 5.9 173.5 5.5 173.1 5.4 C 172.8 5.3 171.3 4.8 171.0 5.1 C 170.8 5.4 170.9 5.7 170.7 5.8 C 170.5 5.9 169.5 6.0 169.4 5.7 C 169.4 5.5 169.4 5.0 169.1 5.1 C 168.8 5.1 168.3 5.0 168.3 5.1 C 168.3 5.2 168.1 5.4 168.1 5.7 C 168.0 5.9 167.5 6.2 167.3 6.3 C 167.2 6.4 166.8 6.5 166.8 6.5 C 166.6 6.3 166.4 6.2 166.2 6.0 C 166.2 6.0 166.5 5.5 166.7 5.4 C 166.9 5.3 166.6 5.0 166.4 5.0 C 166.2 4.9 165.2 5.0 165.2 5.0 C 165.1 5.4 165.1 5.8 165.1 6.2 C 164.8 6.2 164.6 6.3 164.3 6.4 C 164.3 6.4 164.4 5.0 163.9 5.0 C 163.4 5.0 162.7 5.0 162.7 5.0 C 162.7 5.0 162.2 5.6 162.1 5.6 C 161.9 5.7 161.9 6.9 161.9 6.9 C 161.9 7.3 161.9 7.8 162.0 8.2 C 162.0 8.2 162.6 8.7 163.0 8.5 C 163.3 8.3 163.0 7.8 163.1 7.6 C 163.1 7.4 163.7 7.1 163.7 7.1 C 163.9 7.4 164.1 7.7 164.4 7.9 C 164.4 7.9 164.6 8.2 164.8 8.4 C 165.0 8.6 165.8 8.8 166.1 8.7 C 166.3 8.6 166.5 8.2 166.8 8.0 C 167.1 7.8 167.1 7.4 167.4 7.7 C 167.8 8.0 167.9 8.4 168.1 8.4 C 168.3 8.4 169.0 7.9 169.0 7.9 C 169.2 7.8 169.4 7.7 169.7 7.6 C 169.7 7.6 170.2 7.4 170.3 7.6 C 170.4 7.9 171.5 7.6 171.5 7.6 C 171.5 7.6 171.4 8.4 171.7 8.6 C 172.0 8.7 172.4 8.9 172.9 8.8 C 173.3 8.6 173.7 7.8 173.7 7.8 C 173.8 8.0 174.0 8.2 174.1 8.4 C 174.5 8.5 175.0 8.6 175.4 8.6 C 175.4 8.6 176.4 8.6 176.4 8.4 C 176.4 8.3 176.3 7.6 176.3 7.4 C 176.4 7.2 176.9 7.0 177.0 7.2 C 177.0 7.5 177.5 8.1 177.5 8.1 C 177.5 8.1 177.9 8.5 178.2 8.6 C 178.5 8.6 178.9 8.4 179.0 8.2 C 179.2 8.1 179.6 7.6 179.6 7.6 C 179.7 7.8 179.9 8.0 180.0 8.2 C 180.0 8.2 180.8 7.9 181.6 8.5 C 181.6 8.5 181.6 8.5 181.6 8.5 Z M 159.8 7.9 C 160.0 7.8 160.2 8.2 160.7 8.4 C 161.3 8.6 162.0 8.6 161.8 8.3 C 161.7 8.0 161.5 7.8 161.8 7.4 C 162.1 7.0 162.4 6.2 162.0 6.0 C 161.6 5.7 160.1 5.0 159.6 5.4 C 159.1 5.8 158.9 5.9 158.6 6.1 C 158.2 6.4 158.5 5.6 158.5 5.6 C 158.5 5.6 157.6 5.5 157.0 5.4 C 156.4 5.4 155.6 5.4 155.6 5.5 C 155.5 5.6 155.3 5.9 155.3 5.9 C 155.3 5.9 154.9 5.5 154.5 5.5 C 154.0 5.4 154.2 5.6 154.2 5.8 C 154.3 6.0 154.9 6.5 154.7 6.5 C 154.5 6.5 153.9 5.7 153.5 5.6 C 153.2 5.5 152.5 5.6 152.5 5.6 C 152.5 5.6 152.6 6.0 152.5 6.1 C 152.4 6.2 151.7 6.3 151.7 6.1 C 151.6 6.0 151.7 5.5 151.3 5.5 C 150.2 5.4 150.3 6.3 150.2 6.3 C 150.1 6.3 150.1 5.6 149.9 5.5 C 149.6 5.4 147.4 5.5 147.3 5.7 C 147.2 5.9 146.4 5.2 146.1 5.7 C 145.7 6.1 145.6 6.2 145.6 6.3 C 145.5 6.4 145.1 7.1 144.9 6.9 C 144.7 6.6 145.6 5.8 145.3 5.6 C 145.0 5.4 143.6 5.4 143.4 5.6 C 143.1 5.9 143.0 6.5 142.8 6.5 C 142.6 6.5 141.8 5.7 141.7 5.8 C 141.6 5.9 141.5 6.6 141.5 6.8 C 141.5 6.9 141.3 8.2 141.4 8.3 C 141.6 8.5 142.5 9.0 142.3 8.6 C 142.2 8.2 142.0 7.8 142.3 7.6 C 142.6 7.5 142.8 7.5 142.9 7.6 C 142.9 7.7 142.8 7.9 143.3 8.1 C 143.8 8.4 143.5 8.6 144.0 8.6 C 144.4 8.6 144.8 8.5 144.8 8.2 C 144.8 8.0 145.2 7.6 145.6 7.6 C 145.9 7.6 145.3 8.2 146.4 8.5 C 147.4 8.7 148.1 8.8 148.4 8.5 C 148.7 8.3 148.8 7.6 149.2 7.9 C 149.7 8.2 149.5 8.4 150.1 8.4 C 150.8 8.4 151.1 7.8 151.5 7.7 C 151.9 7.7 152.0 7.8 152.0 7.8 C 152.0 7.8 151.8 8.6 152.8 8.6 C 153.7 8.7 153.9 8.7 153.7 8.1 C 153.5 7.5 154.3 7.5 154.3 7.9 C 154.3 8.3 154.9 8.6 155.2 8.6 C 155.6 8.7 155.7 7.6 155.8 7.6 C 155.9 7.6 156.3 7.7 156.2 8.0 C 156.0 8.3 156.4 8.4 156.7 8.5 C 157.0 8.6 157.9 8.5 157.9 8.3 C 157.8 8.2 157.4 7.5 158.0 7.8 C 158.6 8.2 158.8 8.7 159.3 8.6 C 159.9 8.6 159.4 8.0 159.8 7.9 C 159.8 7.9 159.8 7.9 159.8 7.9 Z M 141.1 8.7 C 142.1 8.6 141.4 6.0 141.0 5.4 C 140.6 4.9 140.0 5.2 139.3 5.1 C 138.6 5.0 138.8 5.9 138.4 6.1 C 138.0 6.4 138.2 5.8 138.0 5.4 C 137.8 5.0 136.8 5.4 136.1 5.3 C 135.5 5.3 134.9 6.2 134.3 6.2 C 133.8 6.3 134.8 6.7 133.9 6.7 C 133.0 6.6 133.4 6.1 134.5 5.8 C 135.5 5.6 134.1 5.3 133.5 5.2 C 132.9 5.1 131.9 5.5 131.5 5.5 C 131.0 5.4 131.6 6.1 130.9 6.1 C 130.3 6.1 130.6 5.4 130.0 5.3 C 129.3 5.2 129.4 5.8 129.0 6.0 C 128.7 6.1 128.8 5.7 128.5 5.7 C 128.2 5.6 127.7 5.4 127.1 5.6 C 126.5 5.7 126.7 5.9 126.4 6.0 C 126.1 6.0 125.6 6.0 125.6 6.0 C 125.5 5.8 125.5 5.6 125.5 5.3 C 125.5 5.3 124.3 5.3 124.0 5.2 C 123.6 5.2 122.9 5.5 123.1 5.6 C 123.3 5.8 122.5 6.2 122.3 6.1 C 122.2 6.0 121.6 5.7 121.2 5.5 C 120.8 5.4 120.9 7.1 120.9 7.3 C 120.9 7.6 120.7 8.5 121.0 8.6 C 121.4 8.7 121.7 8.4 121.6 8.6 C 121.5 8.9 122.6 8.6 122.8 8.6 C 123.1 8.6 123.5 8.0 123.5 8.0 C 123.5 8.0 123.8 7.4 124.2 7.4 C 124.7 7.4 124.8 8.5 124.8 8.5 C 124.8 8.5 125.4 8.7 126.0 8.7 C 126.5 8.6 127.2 7.7 127.3 7.5 C 127.4 7.3 127.4 8.2 127.8 8.3 C 128.2 8.4 128.8 8.6 128.9 8.6 C 129.1 8.5 129.4 8.0 129.4 8.0 C 129.4 8.0 130.1 7.6 130.3 7.6 C 130.5 7.6 130.2 8.4 130.2 8.4 C 130.2 8.4 131.7 8.7 132.0 8.7 C 132.4 8.8 132.9 8.6 133.1 8.5 C 133.3 8.5 133.7 7.5 134.0 7.6 C 134.3 7.7 133.7 8.2 134.0 8.3 C 134.3 8.4 135.0 8.6 135.1 8.6 C 135.3 8.6 135.5 8.3 135.8 8.2 C 136.1 8.2 136.5 7.4 136.9 7.4 C 137.4 7.4 137.6 7.9 137.8 8.0 C 138.0 8.1 138.1 8.7 138.4 8.7 C 138.8 8.8 138.5 8.3 138.9 8.3 C 139.2 8.3 139.2 7.8 139.6 7.9 C 139.9 8.0 139.7 8.8 140.1 8.7 C 140.2 8.7 140.1 8.7 141.1 8.7 C 141.1 8.7 141.1 8.7 141.1 8.7 Z M 120.2 8.5 C 120.7 8.9 121.1 8.4 121.0 8.1 C 121.0 7.7 120.8 6.7 121.0 6.4 C 121.2 6.2 121.7 5.5 120.9 5.3 C 120.0 5.2 119.8 5.5 119.8 5.7 C 119.8 5.9 119.7 7.0 119.4 6.9 C 119.2 6.8 119.0 6.5 118.9 6.4 C 118.9 6.2 118.5 5.2 118.1 5.4 C 117.7 5.5 117.3 5.8 117.3 5.8 C 117.1 5.8 116.9 5.8 116.7 5.8 C 116.7 5.8 116.1 5.2 115.6 5.4 C 115.2 5.5 114.6 5.5 114.3 5.5 C 114.0 5.4 113.6 5.5 113.6 5.7 C 113.5 6.0 113.0 6.8 113.0 6.8 C 113.0 6.8 112.5 7.0 112.3 6.9 C 112.1 6.8 112.0 6.3 112.1 6.1 C 112.1 5.9 112.1 5.5 111.7 5.4 C 111.4 5.3 109.9 4.8 109.6 5.1 C 109.4 5.4 109.5 5.7 109.3 5.8 C 109.1 5.9 108.1 6.0 108.0 5.7 C 108.0 5.5 108.0 5.0 107.7 5.1 C 107.4 5.1 106.9 5.0 106.9 5.1 C 106.9 5.2 106.7 5.4 106.7 5.7 C 106.6 5.9 106.1 6.2 105.9 6.3 C 105.8 6.4 105.4 6.5 105.4 6.5 C 105.2 6.3 105.0 6.2 104.8 6.0 C 104.8 6.0 105.1 5.5 105.3 5.4 C 105.5 5.3 105.2 5.0 105.0 5.0 C 104.8 4.9 103.8 5.0 103.8 5.0 C 103.7 5.4 103.7 5.8 103.7 6.2 C 103.4 6.2 103.2 6.3 102.9 6.4 C 102.9 6.4 103.0 5.0 102.5 5.0 C 102.0 5.0 101.3 5.0 101.3 5.0 C 101.3 5.0 100.8 5.6 100.7 5.6 C 100.5 5.7 100.5 6.9 100.5 6.9 C 100.5 7.3 100.5 7.8 100.6 8.2 C 100.6 8.2 101.2 8.7 101.6 8.5 C 101.9 8.3 101.6 7.8 101.7 7.6 C 101.7 7.4 102.3 7.1 102.3 7.1 C 102.5 7.4 102.7 7.7 103.0 7.9 C 103.0 7.9 103.2 8.2 103.4 8.4 C 103.6 8.6 104.4 8.8 104.7 8.7 C 104.9 8.6 105.1 8.2 105.4 8.0 C 105.7 7.8 105.7 7.4 106.0 7.7 C 106.4 8.0 106.5 8.4 106.7 8.4 C 106.9 8.4 107.6 7.9 107.6 7.9 C 107.8 7.8 108.0 7.7 108.3 7.6 C 108.3 7.6 108.8 7.4 108.9 7.6 C 109.0 7.9 110.1 7.6 110.1 7.6 C 110.1 7.6 110.0 8.4 110.3 8.6 C 110.6 8.7 111.0 8.9 111.5 8.8 C 111.9 8.6 112.3 7.8 112.3 7.8 C 112.4 8.0 112.6 8.2 112.7 8.4 C 113.1 8.5 113.6 8.6 114.0 8.6 C 114.0 8.6 115.0 8.6 115.0 8.4 C 115.0 8.3 114.9 7.6 114.9 7.4 C 115.0 7.2 115.5 7.0 115.6 7.2 C 115.6 7.5 116.1 8.1 116.1 8.1 C 116.1 8.1 116.5 8.5 116.8 8.6 C 117.1 8.6 117.5 8.4 117.6 8.2 C 117.8 8.1 118.2 7.6 118.2 7.6 C 118.3 7.8 118.5 8.0 118.6 8.2 C 118.6 8.2 119.4 7.9 120.2 8.5 C 120.2 8.5 120.2 8.5 120.2 8.5 Z M 98.4 7.9 C 98.6 7.8 98.8 8.2 99.3 8.4 C 99.9 8.6 100.6 8.6 100.4 8.3 C 100.3 8.0 100.1 7.8 100.4 7.4 C 100.7 7.0 101.0 6.2 100.6 6.0 C 100.2 5.7 98.7 5.0 98.2 5.4 C 97.7 5.8 97.5 5.9 97.2 6.1 C 96.8 6.4 97.1 5.6 97.1 5.6 C 97.1 5.6 96.2 5.5 95.6 5.4 C 95.0 5.4 94.2 5.4 94.2 5.5 C 94.1 5.6 93.9 5.9 93.9 5.9 C 93.9 5.9 93.5 5.5 93.1 5.5 C 92.6 5.4 92.8 5.6 92.8 5.8 C 92.9 6.0 93.5 6.5 93.3 6.5 C 93.1 6.5 92.5 5.7 92.1 5.6 C 91.8 5.5 91.1 5.6 91.1 5.6 C 91.1 5.6 91.2 6.0 91.1 6.1 C 91.0 6.2 90.3 6.3 90.3 6.1 C 90.2 6.0 90.3 5.5 89.9 5.5 C 88.8 5.4 88.9 6.3 88.8 6.3 C 88.7 6.3 88.7 5.6 88.5 5.5 C 88.2 5.4 86.0 5.5 85.9 5.7 C 85.8 5.9 85.0 5.2 84.7 5.7 C 84.3 6.1 84.2 6.2 84.2 6.3 C 84.1 6.4 83.7 7.1 83.5 6.9 C 83.3 6.6 84.2 5.8 83.9 5.6 C 83.6 5.4 82.2 5.4 82.0 5.6 C 81.7 5.9 81.6 6.5 81.4 6.5 C 81.2 6.5 80.4 5.7 80.3 5.8 C 80.2 5.9 80.1 6.6 80.1 6.8 C 80.1 6.9 79.9 8.2 80.0 8.3 C 80.2 8.5 81.1 9.0 80.9 8.6 C 80.8 8.2 80.6 7.8 80.9 7.6 C 81.2 7.5 81.4 7.5 81.5 7.6 C 81.5 7.7 81.4 7.9 81.9 8.1 C 82.4 8.4 82.1 8.6 82.6 8.6 C 83.0 8.6 83.4 8.5 83.4 8.2 C 83.4 8.0 83.9 7.6 84.2 7.6 C 84.5 7.6 83.9 8.2 85.0 8.5 C 86.0 8.7 86.7 8.8 87.0 8.5 C 87.3 8.3 87.4 7.6 87.9 7.9 C 88.3 8.2 88.1 8.4 88.7 8.4 C 89.4 8.4 89.7 7.8 90.1 7.7 C 90.5 7.7 90.7 7.8 90.7 7.8 C 90.7 7.8 90.4 8.6 91.4 8.6 C 92.3 8.7 92.5 8.7 92.3 8.1 C 92.1 7.5 92.9 7.5 92.9 7.9 C 92.9 8.3 93.5 8.6 93.8 8.6 C 94.2 8.7 94.3 7.6 94.4 7.6 C 94.5 7.6 94.9 7.7 94.8 8.0 C 94.6 8.3 95.0 8.4 95.3 8.5 C 95.6 8.6 96.5 8.5 96.5 8.3 C 96.4 8.2 96.0 7.5 96.6 7.8 C 97.2 8.2 97.4 8.7 97.9 8.6 C 98.5 8.6 98.0 8.0 98.4 7.9 C 98.4 7.9 98.4 7.9 98.4 7.9 Z M 79.7 8.7 C 80.7 8.6 80.0 6.0 79.6 5.4 C 79.2 4.9 78.6 5.2 77.9 5.1 C 77.2 5.0 77.4 5.9 77.0 6.1 C 76.6 6.4 76.8 5.8 76.6 5.4 C 76.4 5.0 75.4 5.4 74.7 5.3 C 74.1 5.3 73.5 6.2 72.9 6.2 C 72.4 6.3 73.4 6.7 72.5 6.7 C 71.6 6.6 72.0 6.1 73.1 5.8 C 74.1 5.6 72.7 5.3 72.1 5.2 C 71.5 5.1 70.5 5.5 70.1 5.5 C 69.6 5.4 70.2 6.1 69.5 6.1 C 68.9 6.1 69.2 5.4 68.6 5.3 C 67.9 5.2 68.0 5.8 67.6 6.0 C 67.3 6.1 67.4 5.7 67.1 5.7 C 66.8 5.6 66.3 5.4 65.7 5.6 C 65.1 5.7 65.3 5.9 65.0 6.0 C 64.7 6.0 64.2 6.0 64.2 6.0 C 64.1 5.8 64.1 5.6 64.1 5.3 C 64.1 5.3 62.9 5.3 62.6 5.2 C 62.2 5.2 61.5 5.5 61.7 5.6 C 61.9 5.8 61.1 6.2 60.9 6.1 C 60.8 6.0 60.2 5.7 59.8 5.5 C 59.4 5.4 59.5 7.1 59.5 7.3 C 59.5 7.6 59.3 8.5 59.6 8.6 C 60.0 8.7 60.3 8.4 60.2 8.6 C 60.1 8.9 61.2 8.6 61.4 8.6 C 61.7 8.6 62.1 8.0 62.1 8.0 C 62.1 8.0 62.4 7.4 62.8 7.4 C 63.3 7.4 63.4 8.5 63.4 8.5 C 63.4 8.5 64.0 8.7 64.6 8.7 C 65.1 8.6 65.8 7.7 65.9 7.5 C 66.0 7.3 66.0 8.2 66.4 8.3 C 66.8 8.4 67.4 8.6 67.5 8.6 C 67.7 8.5 68.0 8.0 68.0 8.0 C 68.0 8.0 68.7 7.6 68.9 7.6 C 69.1 7.6 68.8 8.4 68.8 8.4 C 68.8 8.4 70.3 8.7 70.6 8.7 C 71.0 8.8 71.5 8.6 71.7 8.5 C 71.9 8.5 72.3 7.5 72.6 7.6 C 72.9 7.7 72.3 8.2 72.6 8.3 C 72.9 8.4 73.6 8.6 73.7 8.6 C 73.9 8.6 74.1 8.3 74.4 8.2 C 74.7 8.2 75.1 7.4 75.6 7.4 C 76.0 7.4 76.2 7.9 76.4 8.0 C 76.6 8.1 76.7 8.7 77.0 8.7 C 77.4 8.8 77.1 8.3 77.5 8.3 C 77.8 8.3 77.8 7.8 78.2 7.9 C 78.5 8.0 78.3 8.8 78.7 8.7 C 78.8 8.7 78.7 8.7 79.7 8.7 C 79.7 8.7 79.7 8.7 79.7 8.7 Z M 57.4 7.9 C 57.6 7.8 57.8 8.2 58.4 8.4 C 59.0 8.6 59.6 8.6 59.5 8.3 C 59.4 8.0 59.2 7.8 59.5 7.4 C 59.8 7.0 60.1 6.2 59.7 6.0 C 59.3 5.7 57.8 5.0 57.3 5.4 C 56.8 5.8 56.6 5.9 56.2 6.1 C 55.9 6.4 56.1 5.6 56.1 5.6 C 56.1 5.6 55.3 5.5 54.7 5.4 C 54.0 5.4 53.3 5.4 53.2 5.5 C 53.2 5.6 52.9 5.9 52.9 5.9 C 52.9 5.9 52.6 5.5 52.1 5.5 C 51.7 5.4 51.8 5.6 51.9 5.8 C 52.0 6.0 52.5 6.5 52.3 6.5 C 52.1 6.5 51.5 5.7 51.2 5.6 C 50.9 5.5 50.2 5.6 50.2 5.6 C 50.2 5.6 50.2 6.0 50.2 6.1 C 50.1 6.2 49.4 6.3 49.3 6.1 C 49.3 6.0 49.4 5.5 49.0 5.5 C 47.9 5.4 48.0 6.3 47.9 6.3 C 47.8 6.3 47.8 5.6 47.5 5.5 C 47.3 5.4 45.0 5.5 44.9 5.7 C 44.8 5.9 44.1 5.2 43.7 5.7 C 43.4 6.1 43.3 6.2 43.3 6.3 C 43.2 6.4 42.8 7.1 42.5 6.9 C 42.4 6.6 43.2 5.8 43.0 5.6 C 42.7 5.4 41.3 5.4 41.1 5.6 C 40.7 5.9 40.6 6.5 40.4 6.5 C 40.2 6.5 39.4 5.7 39.4 5.8 C 39.3 5.9 39.2 6.6 39.2 6.8 C 39.2 6.9 38.9 8.2 39.1 8.3 C 39.3 8.5 40.1 9.0 40.0 8.6 C 39.9 8.2 39.7 7.8 40.0 7.6 C 40.3 7.5 40.5 7.5 40.5 7.6 C 40.6 7.7 40.4 7.9 40.9 8.1 C 41.4 8.4 41.2 8.6 41.6 8.6 C 42.1 8.6 42.5 8.5 42.5 8.2 C 42.4 8.0 42.9 7.6 43.2 7.6 C 43.6 7.6 43.0 8.2 44.1 8.5 C 45.1 8.7 45.8 8.8 46.1 8.5 C 46.4 8.3 46.4 7.6 46.9 7.9 C 47.4 8.2 47.1 8.4 47.8 8.4 C 48.5 8.4 48.7 7.8 49.2 7.7 C 49.6 7.7 49.7 7.8 49.7 7.8 C 49.7 7.8 49.5 8.6 50.4 8.6 C 51.4 8.7 51.6 8.7 51.4 8.1 C 51.2 7.5 51.9 7.5 52.0 7.9 C 52.0 8.3 52.6 8.6 52.9 8.6 C 53.2 8.7 53.3 7.6 53.5 7.6 C 53.6 7.6 54.0 7.7 53.8 8.0 C 53.7 8.3 54.1 8.4 54.4 8.5 C 54.7 8.6 55.5 8.5 55.5 8.3 C 55.5 8.2 55.1 7.5 55.7 7.8 C 56.3 8.2 56.4 8.7 57.0 8.6 C 57.6 8.6 57.1 8.0 57.4 7.9 C 57.4 7.9 57.4 7.9 57.4 7.9 Z M 38.3 8.5 C 38.8 8.9 39.2 8.4 39.2 8.1 C 39.1 7.7 38.9 6.7 39.1 6.4 C 39.3 6.2 39.9 5.5 39.0 5.3 C 38.1 5.2 38.0 5.5 38.0 5.7 C 38.0 5.9 37.8 7.0 37.6 6.9 C 37.3 6.8 37.1 6.5 37.0 6.4 C 37.0 6.2 36.7 5.2 36.2 5.4 C 35.8 5.5 35.4 5.8 35.4 5.8 C 35.2 5.8 35.0 5.8 34.8 5.8 C 34.8 5.8 34.2 5.2 33.8 5.4 C 33.3 5.5 32.8 5.5 32.4 5.5 C 32.1 5.4 31.7 5.5 31.7 5.7 C 31.6 6.0 31.2 6.8 31.2 6.8 C 31.2 6.8 30.7 7.0 30.4 6.9 C 30.2 6.8 30.1 6.3 30.2 6.1 C 30.2 5.9 30.2 5.5 29.8 5.4 C 29.5 5.3 28.0 4.8 27.8 5.1 C 27.5 5.4 27.6 5.7 27.4 5.8 C 27.3 5.9 26.3 6.0 26.2 5.7 C 26.1 5.5 26.2 5.0 25.9 5.1 C 25.6 5.1 25.0 5.0 25.0 5.1 C 25.0 5.2 24.8 5.4 24.8 5.7 C 24.8 5.9 24.2 6.2 24.1 6.3 C 24.0 6.4 23.5 6.5 23.5 6.5 C 23.3 6.3 23.1 6.2 22.9 6.0 C 22.9 6.0 23.3 5.5 23.4 5.4 C 23.6 5.3 23.3 5.0 23.2 5.0 C 23.0 4.9 21.9 5.0 21.9 5.0 C 21.9 5.4 21.9 5.8 21.8 6.2 C 21.6 6.2 21.3 6.3 21.0 6.4 C 21.0 6.4 21.1 5.0 20.6 5.0 C 20.1 5.0 19.5 5.0 19.5 5.0 C 19.5 5.0 18.9 5.6 18.8 5.6 C 18.6 5.7 18.6 6.9 18.6 6.9 C 18.6 7.3 18.7 7.8 18.7 8.3 C 18.7 8.3 19.4 8.7 19.7 8.5 C 20.0 8.3 19.8 7.8 19.8 7.6 C 19.9 7.4 20.4 7.1 20.4 7.1 C 20.6 7.4 20.9 7.7 21.1 7.9 C 21.1 7.9 21.3 8.2 21.5 8.4 C 21.8 8.6 22.6 8.8 22.8 8.7 C 23.0 8.6 23.3 8.2 23.6 8.0 C 23.9 7.8 23.8 7.4 24.1 7.7 C 24.5 8.0 24.7 8.4 24.8 8.4 C 25.0 8.4 25.8 7.9 25.8 7.9 C 26.0 7.8 26.2 7.7 26.4 7.6 C 26.4 7.6 26.9 7.4 27.0 7.6 C 27.1 7.9 28.2 7.6 28.2 7.6 C 28.2 7.6 28.1 8.4 28.4 8.6 C 28.7 8.7 29.2 8.9 29.6 8.8 C 30.1 8.6 30.4 7.8 30.4 7.8 C 30.6 8.0 30.7 8.2 30.9 8.4 C 31.3 8.5 31.7 8.6 32.1 8.6 C 32.1 8.6 33.1 8.6 33.1 8.4 C 33.1 8.3 33.0 7.6 33.1 7.4 C 33.1 7.2 33.6 7.0 33.7 7.2 C 33.8 7.5 34.2 8.1 34.2 8.1 C 34.2 8.1 34.6 8.5 34.9 8.6 C 35.2 8.6 35.7 8.4 35.8 8.2 C 35.9 8.1 36.4 7.6 36.4 7.6 C 36.5 7.8 36.6 8.0 36.7 8.2 C 36.7 8.2 37.5 7.9 38.3 8.5 C 38.3 8.5 38.3 8.5 38.3 8.5 Z M 18.4 8.7 C 19.3 8.6 18.6 6.0 18.1 5.5 C 17.6 4.9 16.9 5.4 16.1 5.4 C 15.3 5.5 15.7 6.3 15.4 6.6 C 15.0 7.0 15.0 6.4 14.7 6.1 C 14.4 5.8 13.5 6.5 12.8 6.7 C 12.2 7.0 12.0 8.1 11.6 8.4 C 11.2 8.8 12.2 8.6 11.4 9.1 C 10.6 9.5 10.7 8.9 11.5 8.0 C 12.2 7.2 10.8 7.8 10.2 8.1 C 9.7 8.4 9.1 9.4 8.8 9.7 C 8.4 10.0 9.3 10.1 8.8 10.6 C 8.3 11.1 8.0 10.3 7.5 10.8 C 7.0 11.3 7.5 11.7 7.5 12.0 C 7.4 12.4 7.1 12.1 6.9 12.4 C 6.7 12.6 6.3 12.9 6.1 13.6 C 5.9 14.3 6.2 14.2 6.1 14.5 C 6.0 14.8 5.8 15.3 5.8 15.3 C 5.6 15.2 5.4 15.2 5.2 15.2 C 5.2 15.2 4.7 16.4 4.6 16.7 C 4.5 17.1 4.6 18.0 4.8 17.8 C 5.0 17.6 5.3 18.5 5.2 18.7 C 5.1 18.9 4.7 19.5 4.5 19.9 C 4.4 20.4 6.1 20.2 6.3 20.2 C 6.6 20.2 7.5 20.5 7.6 20.1 C 7.7 19.8 7.4 19.5 7.6 19.6 C 7.8 19.7 7.7 18.7 7.7 18.5 C 7.7 18.2 7.2 17.8 7.2 17.8 C 7.2 17.8 6.7 17.4 6.8 17.0 C 6.9 16.6 8.0 16.7 8.0 16.7 C 8.0 16.7 8.3 16.3 8.4 15.9 C 8.6 15.4 8.0 14.5 7.9 14.3 C 7.8 14.1 8.5 14.5 8.8 14.3 C 9.0 14.0 9.5 13.7 9.5 13.6 C 9.6 13.4 9.3 12.9 9.3 12.9 C 9.3 12.9 9.4 12.2 9.5 12.1 C 9.6 12.0 10.1 12.7 10.1 12.7 C 10.1 12.7 11.1 11.8 11.4 11.7 C 11.6 11.6 11.8 11.1 11.9 11.0 C 12.1 10.8 11.7 9.9 12.0 9.8 C 12.3 9.7 12.1 10.4 12.4 10.4 C 12.7 10.3 13.3 10.2 13.4 10.1 C 13.5 10.0 13.6 9.6 13.8 9.5 C 14.0 9.3 14.0 8.5 14.4 8.3 C 14.8 8.2 15.1 8.5 15.3 8.6 C 15.5 8.6 15.8 9.2 16.1 9.1 C 16.4 9.1 16.1 8.7 16.4 8.6 C 16.7 8.6 16.6 8.1 16.9 8.1 C 17.2 8.2 17.2 9.0 17.5 8.8 C 17.6 8.8 17.5 8.8 18.4 8.7 C 18.4 8.7 18.4 8.7 18.4 8.7 Z M 18.4 8.7 " fill="#794525"></path></g></svg>