<?xml version="1.0" encoding="UTF-8" standalone="no"?><svg xmlns="http://www.w3.org/2000/svg" xmlns:xlink="http://www.w3.org/1999/xlink" clip-rule="evenodd" stroke-miterlimit="10" viewBox="0 0 253 79"><desc>SVG generated by Keynote</desc><defs></defs><g transform="matrix(1.00, 0.00, -0.00, -1.00, 0.0, 79.0)"><image xlink:href="904E49CEB9547E9C1621BE4BC4532D64.png" width="250.00" height="74.00" transform="matrix(1.00, 0.00, -0.00, -1.00, 2.1, 75.3)" opacity="0.50"></image><path d="M 6.8 21.5 C 6.7 21.3 7.2 21.1 7.4 20.6 C 7.5 20.0 7.6 19.3 7.3 19.4 C 6.9 19.6 6.7 19.8 6.3 19.5 C 5.9 19.2 5.2 18.8 5.0 19.2 C 4.7 19.6 4.0 21.2 4.4 21.7 C 4.7 22.2 4.9 22.3 5.1 22.7 C 5.4 23.1 4.6 22.8 4.6 22.8 C 4.6 22.8 4.5 23.7 4.4 24.3 C 4.4 24.9 4.3 25.6 4.5 25.7 C 4.6 25.8 4.9 26.0 4.9 26.0 C 4.9 26.0 4.5 26.3 4.4 26.8 C 4.4 27.3 4.6 27.1 4.8 27.0 C 5.0 27.0 5.5 26.4 5.5 26.6 C 5.5 26.8 4.7 27.4 4.6 27.7 C 4.5 28.1 4.6 28.8 4.6 28.8 C 4.6 28.8 5.0 28.7 5.1 28.8 C 5.2 28.9 5.3 29.6 5.1 29.6 C 5.0 29.6 4.5 29.6 4.5 29.9 C 4.4 31.1 5.3 30.9 5.3 31.0 C 5.3 31.1 4.6 31.1 4.5 31.4 C 4.4 31.7 4.5 33.9 4.7 34.0 C 4.8 34.1 4.2 34.9 4.7 35.2 C 5.1 35.5 5.2 35.6 5.3 35.7 C 5.4 35.8 6.1 36.2 5.8 36.4 C 5.6 36.6 4.8 35.7 4.6 36.0 C 4.4 36.3 4.3 37.6 4.5 37.9 C 4.8 38.2 5.5 38.3 5.5 38.5 C 5.5 38.7 4.6 39.5 4.8 39.6 C 4.9 39.6 5.6 39.7 5.8 39.7 C 5.9 39.7 7.1 40.0 7.3 39.8 C 7.5 39.7 7.9 38.8 7.6 38.9 C 7.2 39.0 6.8 39.2 6.6 38.9 C 6.5 38.6 6.4 38.5 6.6 38.4 C 6.7 38.3 6.9 38.5 7.1 38.0 C 7.3 37.5 7.6 37.8 7.6 37.3 C 7.6 36.9 7.5 36.4 7.2 36.5 C 6.9 36.5 6.5 36.0 6.6 35.7 C 6.6 35.4 7.2 35.9 7.4 34.9 C 7.7 33.8 7.7 33.2 7.5 32.9 C 7.3 32.6 6.5 32.5 6.9 32.0 C 7.2 31.5 7.4 31.8 7.4 31.1 C 7.3 30.5 6.8 30.2 6.7 29.8 C 6.7 29.4 6.7 29.2 6.7 29.2 C 6.7 29.2 7.6 29.5 7.6 28.5 C 7.7 27.5 7.7 27.3 7.1 27.5 C 6.5 27.7 6.5 27.0 6.9 27.0 C 7.3 26.9 7.5 26.4 7.6 26.0 C 7.6 25.7 6.6 25.6 6.6 25.5 C 6.6 25.3 6.6 25.0 7.0 25.1 C 7.3 25.3 7.3 24.9 7.5 24.6 C 7.6 24.3 7.5 23.4 7.3 23.4 C 7.1 23.4 6.5 23.9 6.8 23.3 C 7.1 22.7 7.7 22.5 7.6 21.9 C 7.6 21.4 7.0 21.9 6.8 21.5 C 6.8 21.5 6.8 21.5 6.8 21.5 Z M 7.6 40.2 C 7.6 39.2 5.0 39.8 4.4 40.2 C 3.9 40.6 4.2 41.3 4.1 42.0 C 4.0 42.7 4.9 42.5 5.1 42.8 C 5.3 43.2 4.8 43.1 4.4 43.3 C 4.0 43.4 4.4 44.5 4.3 45.1 C 4.3 45.8 5.2 46.4 5.2 46.9 C 5.3 47.4 5.7 46.5 5.6 47.4 C 5.6 48.3 5.1 47.8 4.8 46.8 C 4.6 45.8 4.3 47.2 4.2 47.8 C 4.1 48.4 4.5 49.3 4.5 49.8 C 4.4 50.2 5.1 49.7 5.1 50.3 C 5.1 51.0 4.4 50.7 4.3 51.3 C 4.2 52.0 4.8 51.9 5.0 52.2 C 5.1 52.6 4.7 52.5 4.7 52.8 C 4.6 53.1 4.4 53.5 4.6 54.2 C 4.7 54.8 4.9 54.6 5.0 54.9 C 5.0 55.2 5.0 55.7 5.0 55.7 C 4.8 55.7 4.6 55.8 4.3 55.8 C 4.3 55.8 4.3 57.0 4.2 57.3 C 4.2 57.6 4.5 58.4 4.6 58.2 C 4.8 58.0 5.2 58.8 5.1 58.9 C 5.0 59.1 4.7 59.7 4.6 60.2 C 4.4 60.7 6.1 60.4 6.4 60.4 C 6.6 60.3 7.6 60.5 7.6 60.1 C 7.7 59.8 7.4 59.6 7.6 59.6 C 7.9 59.7 7.6 58.7 7.6 58.4 C 7.6 58.1 7.0 57.8 7.0 57.8 C 7.0 57.8 6.4 57.5 6.4 57.1 C 6.4 56.6 7.5 56.4 7.5 56.4 C 7.5 56.4 7.7 55.9 7.6 55.3 C 7.6 54.7 6.7 54.1 6.5 54.0 C 6.3 53.9 7.1 53.9 7.2 53.5 C 7.3 53.1 7.6 52.5 7.5 52.3 C 7.5 52.2 7.0 51.9 7.0 51.9 C 7.0 51.9 6.6 51.1 6.6 51.0 C 6.6 50.8 7.4 51.1 7.4 51.1 C 7.4 51.1 7.6 49.6 7.7 49.2 C 7.8 48.9 7.6 48.4 7.5 48.2 C 7.5 48.0 6.5 47.6 6.6 47.3 C 6.7 46.9 7.2 47.6 7.3 47.3 C 7.4 46.9 7.6 46.3 7.6 46.1 C 7.6 46.0 7.3 45.7 7.2 45.5 C 7.2 45.2 6.4 44.8 6.4 44.3 C 6.4 43.9 6.9 43.6 7.0 43.5 C 7.1 43.3 7.7 43.2 7.7 42.8 C 7.7 42.5 7.3 42.7 7.3 42.4 C 7.3 42.1 6.8 42.1 6.9 41.7 C 7.0 41.4 7.8 41.6 7.7 41.2 C 7.6 41.0 7.7 41.2 7.6 40.2 C 7.6 40.2 7.6 40.2 7.6 40.2 Z M 7.6 60.9 C 7.9 60.4 7.5 60.1 7.1 60.2 C 6.7 60.3 5.8 60.5 5.5 60.4 C 5.2 60.2 4.4 59.6 4.4 60.6 C 4.3 61.6 4.7 61.8 4.9 61.7 C 5.1 61.7 6.2 61.7 6.1 61.9 C 6.1 62.2 5.9 62.5 5.8 62.5 C 5.6 62.6 4.8 63.3 5.1 63.7 C 5.3 64.1 5.7 64.3 5.7 64.3 C 5.8 64.5 5.9 64.7 6.1 65.0 C 6.1 65.0 5.8 65.8 6.1 66.2 C 6.5 66.5 6.8 67.0 7.0 67.3 C 7.1 67.7 7.4 67.9 7.6 67.8 C 7.9 67.7 8.8 67.6 8.8 67.6 C 8.8 67.6 9.3 67.8 9.4 68.1 C 9.4 68.3 9.1 68.7 8.9 68.8 C 8.8 68.9 8.5 69.2 8.7 69.6 C 8.9 69.9 9.8 71.3 10.2 71.3 C 10.6 71.2 10.7 70.8 11.0 70.9 C 11.2 70.9 12.1 71.4 12.0 71.6 C 12.0 71.9 11.7 72.3 12.0 72.4 C 12.3 72.5 12.8 72.9 12.9 72.8 C 12.9 72.7 13.2 72.6 13.3 72.4 C 13.4 72.1 14.1 72.2 14.2 72.1 C 14.4 72.0 14.9 72.1 14.9 72.1 C 15.0 72.3 15.2 72.5 15.3 72.7 C 15.3 72.7 14.8 73.1 14.6 73.1 C 14.4 73.2 14.6 73.6 14.8 73.7 C 15.0 73.8 16.2 74.0 16.2 74.0 C 16.3 73.6 16.4 73.2 16.5 72.8 C 16.8 72.8 17.1 72.8 17.4 72.7 C 17.4 72.7 17.1 74.1 17.7 74.1 C 18.3 74.2 19.0 74.2 19.0 74.2 C 19.0 74.2 19.6 73.7 19.7 73.6 C 19.9 73.6 19.9 72.4 19.9 72.4 C 19.9 71.9 19.8 71.5 19.8 71.0 C 19.8 71.0 19.2 70.5 18.8 70.7 C 18.5 70.9 18.8 71.4 18.7 71.6 C 18.6 71.9 18.1 72.1 18.1 72.1 C 17.9 71.8 17.7 71.5 17.5 71.2 C 17.5 71.2 17.3 71.0 17.2 70.7 C 17.0 70.4 16.3 70.2 16.1 70.2 C 15.9 70.2 15.6 70.5 15.3 70.6 C 15.0 70.8 14.9 71.2 14.7 70.8 C 14.5 70.3 14.5 69.9 14.4 69.9 C 14.2 69.8 13.4 69.9 13.4 69.9 C 13.2 69.9 13.0 69.9 12.8 69.9 C 12.8 69.9 12.2 69.9 12.3 69.6 C 12.4 69.3 11.4 69.0 11.4 69.0 C 11.4 69.0 11.9 68.4 11.8 68.1 C 11.7 67.9 11.6 67.5 11.2 67.3 C 10.8 67.1 10.0 67.5 10.0 67.5 C 10.1 67.2 10.2 67.0 10.2 66.8 C 10.0 66.4 9.9 66.1 9.7 65.8 C 9.7 65.8 9.2 65.1 9.1 65.2 C 9.0 65.3 8.4 65.7 8.2 65.8 C 8.1 65.8 7.6 65.5 7.8 65.3 C 8.0 65.2 8.3 64.5 8.3 64.5 C 8.3 64.5 8.6 64.0 8.5 63.7 C 8.4 63.5 8.1 63.2 7.9 63.2 C 7.8 63.1 7.1 62.9 7.1 62.9 C 7.3 62.7 7.5 62.5 7.7 62.4 C 7.7 62.4 7.2 61.7 7.6 60.9 C 7.6 60.9 7.6 60.9 7.6 60.9 Z M 20.2 70.6 C 19.2 70.6 19.9 73.3 20.3 73.8 C 20.7 74.3 21.4 74.0 22.0 74.1 C 22.7 74.2 22.5 73.4 22.9 73.1 C 23.3 72.9 23.2 73.4 23.3 73.8 C 23.5 74.2 24.5 73.9 25.2 73.9 C 25.8 73.9 26.5 73.0 27.0 73.0 C 27.5 72.9 26.5 72.5 27.4 72.6 C 28.4 72.6 27.9 73.1 26.9 73.4 C 25.8 73.7 27.3 73.9 27.8 74.0 C 28.4 74.1 29.4 73.7 29.8 73.8 C 30.3 73.8 29.7 73.1 30.4 73.1 C 31.0 73.2 30.7 73.8 31.4 73.9 C 32.0 74.1 31.9 73.4 32.3 73.3 C 32.6 73.1 32.6 73.5 32.8 73.6 C 33.1 73.6 33.6 73.8 34.2 73.7 C 34.8 73.5 34.7 73.3 35.0 73.3 C 35.2 73.2 35.7 73.2 35.7 73.2 C 35.8 73.4 35.8 73.7 35.9 73.9 C 35.9 73.9 37.0 73.9 37.3 74.0 C 37.7 74.1 38.4 73.8 38.2 73.6 C 38.0 73.5 38.8 73.0 39.0 73.1 C 39.1 73.2 39.7 73.6 40.1 73.7 C 40.5 73.9 40.4 72.1 40.4 71.9 C 40.4 71.7 40.6 70.7 40.3 70.6 C 39.9 70.5 39.7 70.9 39.7 70.6 C 39.8 70.4 38.7 70.6 38.5 70.6 C 38.2 70.6 37.8 71.3 37.8 71.3 C 37.8 71.3 37.6 71.8 37.1 71.8 C 36.6 71.8 36.5 70.7 36.5 70.7 C 36.5 70.7 35.9 70.5 35.3 70.6 C 34.8 70.6 34.1 71.5 34.0 71.7 C 33.9 71.9 33.9 71.1 33.5 71.0 C 33.1 70.9 32.6 70.6 32.4 70.7 C 32.2 70.7 31.9 71.3 31.9 71.3 C 31.9 71.3 31.2 71.6 31.0 71.6 C 30.9 71.6 31.1 70.8 31.1 70.8 C 31.1 70.8 29.6 70.6 29.3 70.5 C 29.0 70.4 28.5 70.7 28.2 70.7 C 28.0 70.8 27.7 71.7 27.3 71.7 C 27.0 71.6 27.7 71.0 27.3 70.9 C 27.0 70.8 26.4 70.6 26.2 70.6 C 26.0 70.6 25.8 71.0 25.5 71.0 C 25.2 71.1 24.8 71.8 24.4 71.8 C 23.9 71.8 23.7 71.4 23.5 71.3 C 23.4 71.2 23.2 70.5 22.9 70.5 C 22.5 70.5 22.8 70.9 22.4 70.9 C 22.1 70.9 22.1 71.4 21.8 71.3 C 21.4 71.2 21.6 70.4 21.2 70.5 C 21.1 70.6 21.2 70.5 20.2 70.6 C 20.2 70.6 20.2 70.6 20.2 70.6 Z M 41.1 70.7 C 40.7 70.4 40.2 70.8 40.3 71.2 C 40.3 71.5 40.5 72.5 40.3 72.8 C 40.2 73.1 39.6 73.8 40.4 73.9 C 41.3 74.0 41.5 73.8 41.5 73.5 C 41.5 73.3 41.7 72.3 41.9 72.4 C 42.1 72.5 42.3 72.8 42.4 72.9 C 42.5 73.0 42.8 74.0 43.2 73.9 C 43.6 73.7 44.0 73.4 44.0 73.4 C 44.2 73.4 44.4 73.4 44.7 73.4 C 44.7 73.4 45.2 74.0 45.7 73.9 C 46.2 73.7 46.7 73.7 47.0 73.8 C 47.4 73.8 47.7 73.7 47.8 73.5 C 47.8 73.3 48.3 72.4 48.3 72.4 C 48.3 72.4 48.8 72.2 49.0 72.3 C 49.3 72.5 49.3 72.9 49.3 73.1 C 49.2 73.3 49.3 73.8 49.6 73.9 C 50.0 74.0 51.5 74.4 51.7 74.1 C 51.9 73.9 51.9 73.5 52.0 73.4 C 52.2 73.3 53.2 73.3 53.3 73.5 C 53.4 73.7 53.3 74.2 53.6 74.2 C 53.9 74.1 54.4 74.3 54.4 74.1 C 54.4 74.0 54.6 73.9 54.7 73.6 C 54.7 73.3 55.3 73.1 55.4 72.9 C 55.5 72.8 55.9 72.8 55.9 72.8 C 56.1 72.9 56.3 73.1 56.5 73.2 C 56.5 73.2 56.2 73.7 56.0 73.8 C 55.8 73.9 56.1 74.2 56.3 74.3 C 56.5 74.3 57.6 74.2 57.6 74.2 C 57.6 73.9 57.6 73.5 57.6 73.1 C 57.9 73.0 58.2 72.9 58.4 72.8 C 58.4 72.8 58.3 74.2 58.8 74.2 C 59.3 74.2 60.0 74.2 60.0 74.2 C 60.0 74.2 60.5 73.7 60.7 73.6 C 60.8 73.6 60.8 72.4 60.8 72.4 C 60.8 71.9 60.8 71.5 60.7 71.0 C 60.7 71.0 60.1 70.5 59.7 70.7 C 59.4 70.9 59.7 71.4 59.6 71.6 C 59.6 71.9 59.1 72.1 59.1 72.1 C 58.8 71.8 58.6 71.6 58.3 71.3 C 58.3 71.3 58.1 71.1 57.9 70.9 C 57.7 70.6 56.9 70.5 56.6 70.6 C 56.4 70.7 56.2 71.0 55.9 71.2 C 55.6 71.5 55.7 71.9 55.3 71.5 C 55.0 71.2 54.8 70.9 54.6 70.9 C 54.4 70.9 53.7 71.3 53.7 71.3 C 53.5 71.4 53.3 71.5 53.1 71.6 C 53.1 71.6 52.5 71.9 52.4 71.6 C 52.4 71.3 51.2 71.6 51.2 71.6 C 51.2 71.6 51.3 70.8 51.0 70.7 C 50.8 70.5 50.3 70.3 49.8 70.5 C 49.4 70.6 49.0 71.4 49.0 71.4 C 48.9 71.2 48.7 71.0 48.6 70.8 C 48.2 70.7 47.7 70.7 47.3 70.6 C 47.3 70.6 46.3 70.7 46.3 70.8 C 46.3 70.9 46.4 71.6 46.4 71.8 C 46.3 72.0 45.8 72.2 45.7 72.0 C 45.7 71.8 45.2 71.1 45.2 71.1 C 45.2 71.1 44.8 70.7 44.5 70.7 C 44.2 70.6 43.8 70.9 43.7 71.0 C 43.6 71.1 43.1 71.6 43.1 71.6 C 43.0 71.4 42.9 71.2 42.7 71.0 C 42.7 71.0 41.9 71.3 41.1 70.7 C 41.1 70.7 41.1 70.7 41.1 70.7 Z M 61.2 70.6 C 60.1 70.6 60.8 73.3 61.2 73.8 C 61.6 74.3 62.3 74.0 63.0 74.1 C 63.7 74.2 63.4 73.4 63.8 73.1 C 64.2 72.9 64.1 73.4 64.3 73.8 C 64.4 74.2 65.5 73.9 66.1 73.9 C 66.7 73.9 67.4 73.0 67.9 73.0 C 68.4 72.9 67.5 72.5 68.4 72.6 C 69.3 72.6 68.8 73.1 67.8 73.4 C 66.7 73.7 68.2 73.9 68.8 74.0 C 69.3 74.1 70.3 73.7 70.8 73.8 C 71.2 73.8 70.6 73.1 71.3 73.1 C 72.0 73.2 71.6 73.8 72.3 73.9 C 73.0 74.1 72.9 73.4 73.2 73.3 C 73.6 73.1 73.5 73.5 73.8 73.6 C 74.1 73.6 74.5 73.8 75.1 73.7 C 75.8 73.5 75.6 73.3 75.9 73.3 C 76.2 73.2 76.7 73.2 76.7 73.2 C 76.7 73.4 76.7 73.7 76.8 73.9 C 76.8 73.9 77.9 73.9 78.3 74.0 C 78.6 74.1 79.4 73.8 79.2 73.6 C 79.0 73.5 79.7 73.0 79.9 73.1 C 80.1 73.2 80.7 73.6 81.1 73.7 C 81.4 73.9 81.3 72.1 81.3 71.9 C 81.3 71.7 81.6 70.7 81.2 70.6 C 80.9 70.5 80.6 70.9 80.7 70.6 C 80.7 70.4 79.7 70.6 79.4 70.6 C 79.1 70.6 78.8 71.3 78.8 71.3 C 78.8 71.3 78.5 71.8 78.0 71.8 C 77.6 71.8 77.4 70.7 77.4 70.7 C 77.4 70.7 76.8 70.5 76.3 70.6 C 75.7 70.6 75.1 71.5 75.0 71.7 C 74.9 71.9 74.9 71.1 74.5 71.0 C 74.1 70.9 73.5 70.6 73.3 70.7 C 73.1 70.7 72.9 71.3 72.9 71.3 C 72.9 71.3 72.1 71.6 72.0 71.6 C 71.8 71.6 72.1 70.8 72.1 70.8 C 72.1 70.8 70.5 70.6 70.2 70.5 C 69.9 70.4 69.4 70.7 69.2 70.7 C 68.9 70.8 68.6 71.7 68.3 71.7 C 67.9 71.6 68.6 71.0 68.3 70.9 C 67.9 70.8 67.3 70.6 67.1 70.6 C 67.0 70.6 66.7 71.0 66.4 71.0 C 66.2 71.1 65.8 71.8 65.3 71.8 C 64.9 71.8 64.6 71.4 64.5 71.3 C 64.3 71.2 64.2 70.5 63.8 70.5 C 63.4 70.5 63.7 70.9 63.4 70.9 C 63.0 70.9 63.0 71.4 62.7 71.3 C 62.3 71.2 62.6 70.4 62.2 70.5 C 62.0 70.6 62.2 70.5 61.2 70.6 C 61.2 70.6 61.2 70.6 61.2 70.6 Z M 83.4 71.4 C 83.2 71.5 83.0 71.0 82.5 70.8 C 81.9 70.7 81.2 70.6 81.3 71.0 C 81.5 71.3 81.7 71.5 81.4 71.9 C 81.1 72.3 80.7 73.0 81.1 73.2 C 81.5 73.5 83.1 74.2 83.6 73.9 C 84.1 73.5 84.2 73.3 84.6 73.1 C 85.0 72.9 84.7 73.7 84.7 73.7 C 84.7 73.7 85.6 73.8 86.2 73.8 C 86.8 73.9 87.5 73.9 87.6 73.8 C 87.7 73.6 87.9 73.3 87.9 73.3 C 87.9 73.3 88.2 73.7 88.7 73.8 C 89.2 73.9 89.0 73.6 88.9 73.5 C 88.9 73.3 88.3 72.8 88.5 72.8 C 88.7 72.8 89.3 73.5 89.6 73.6 C 90.0 73.7 90.7 73.6 90.7 73.6 C 90.7 73.6 90.6 73.2 90.7 73.1 C 90.8 73.0 91.5 72.9 91.5 73.1 C 91.6 73.3 91.5 73.7 91.9 73.8 C 93.0 73.8 92.8 73.0 92.9 72.9 C 93.0 72.9 93.0 73.6 93.3 73.7 C 93.6 73.8 95.8 73.7 95.9 73.5 C 96.0 73.4 96.8 74.0 97.1 73.6 C 97.4 73.2 97.5 73.0 97.6 72.9 C 97.7 72.8 98.1 72.1 98.3 72.4 C 98.5 72.6 97.6 73.4 97.9 73.6 C 98.2 73.8 99.6 73.9 99.8 73.7 C 100.1 73.4 100.2 72.7 100.4 72.7 C 100.6 72.7 101.4 73.6 101.5 73.4 C 101.5 73.3 101.6 72.6 101.6 72.5 C 101.6 72.3 101.9 71.1 101.7 70.9 C 101.6 70.8 100.7 70.3 100.8 70.6 C 100.9 71.0 101.1 71.4 100.8 71.6 C 100.6 71.8 100.4 71.8 100.3 71.6 C 100.2 71.5 100.4 71.4 99.9 71.1 C 99.4 70.9 99.7 70.6 99.2 70.6 C 98.8 70.6 98.3 70.7 98.4 71.0 C 98.4 71.3 97.9 71.7 97.6 71.6 C 97.3 71.6 97.8 71.0 96.8 70.8 C 95.8 70.5 95.1 70.5 94.8 70.7 C 94.5 71.0 94.4 71.7 93.9 71.4 C 93.4 71.0 93.7 70.8 93.0 70.9 C 92.4 70.9 92.1 71.5 91.7 71.5 C 91.3 71.5 91.1 71.5 91.1 71.5 C 91.1 71.5 91.4 70.6 90.4 70.6 C 89.4 70.6 89.2 70.5 89.4 71.1 C 89.6 71.7 88.9 71.7 88.9 71.3 C 88.8 70.9 88.3 70.7 87.9 70.6 C 87.6 70.6 87.5 71.6 87.4 71.6 C 87.3 71.6 86.9 71.6 87.0 71.3 C 87.2 70.9 86.8 70.9 86.5 70.8 C 86.2 70.6 85.3 70.7 85.3 70.9 C 85.3 71.1 85.8 71.8 85.2 71.4 C 84.6 71.1 84.4 70.6 83.9 70.6 C 83.3 70.6 83.8 71.2 83.4 71.4 C 83.4 71.4 83.4 71.4 83.4 71.4 Z M 102.5 70.7 C 102.1 70.4 101.6 70.8 101.7 71.2 C 101.7 71.5 101.9 72.5 101.7 72.8 C 101.6 73.1 101.0 73.8 101.8 73.9 C 102.7 74.0 102.9 73.8 102.9 73.5 C 102.9 73.3 103.1 72.3 103.3 72.4 C 103.5 72.5 103.7 72.8 103.8 72.9 C 103.9 73.0 104.2 74.0 104.6 73.9 C 105.0 73.7 105.4 73.4 105.4 73.4 C 105.6 73.4 105.8 73.4 106.1 73.4 C 106.1 73.4 106.6 74.0 107.1 73.9 C 107.6 73.7 108.1 73.7 108.4 73.8 C 108.8 73.8 109.1 73.7 109.2 73.5 C 109.2 73.3 109.7 72.4 109.7 72.4 C 109.7 72.4 110.2 72.2 110.4 72.3 C 110.7 72.5 110.7 72.9 110.7 73.1 C 110.6 73.3 110.7 73.8 111.0 73.9 C 111.4 74.0 112.9 74.4 113.1 74.1 C 113.3 73.9 113.3 73.5 113.4 73.4 C 113.6 73.3 114.6 73.3 114.7 73.5 C 114.8 73.7 114.7 74.2 115.0 74.2 C 115.3 74.1 115.8 74.3 115.8 74.1 C 115.8 74.0 116.0 73.9 116.1 73.6 C 116.1 73.3 116.7 73.1 116.8 72.9 C 116.9 72.8 117.3 72.8 117.3 72.8 C 117.5 72.9 117.7 73.1 117.9 73.2 C 117.9 73.2 117.6 73.7 117.4 73.8 C 117.2 73.9 117.5 74.2 117.7 74.3 C 117.9 74.3 119.0 74.2 119.0 74.2 C 119.0 73.9 119.0 73.5 119.0 73.1 C 119.3 73.0 119.6 72.9 119.8 72.8 C 119.8 72.8 119.7 74.2 120.2 74.2 C 120.7 74.2 121.4 74.2 121.4 74.2 C 121.4 74.2 121.9 73.7 122.1 73.6 C 122.2 73.6 122.2 72.4 122.2 72.4 C 122.2 71.9 122.2 71.5 122.1 71.0 C 122.1 71.0 121.5 70.5 121.1 70.7 C 120.8 70.9 121.1 71.4 121.0 71.6 C 121.0 71.9 120.5 72.1 120.5 72.1 C 120.2 71.8 120.0 71.6 119.7 71.3 C 119.7 71.3 119.5 71.1 119.3 70.9 C 119.1 70.6 118.3 70.5 118.0 70.6 C 117.8 70.7 117.6 71.0 117.3 71.2 C 117.0 71.5 117.1 71.9 116.7 71.5 C 116.4 71.2 116.2 70.9 116.0 70.9 C 115.8 70.9 115.1 71.3 115.1 71.3 C 114.9 71.4 114.7 71.5 114.5 71.6 C 114.5 71.6 113.9 71.9 113.8 71.6 C 113.8 71.3 112.6 71.6 112.6 71.6 C 112.6 71.6 112.7 70.8 112.4 70.7 C 112.2 70.5 111.7 70.3 111.2 70.5 C 110.8 70.6 110.4 71.4 110.4 71.4 C 110.3 71.2 110.1 71.0 110.0 70.8 C 109.6 70.7 109.1 70.7 108.7 70.6 C 108.7 70.6 107.7 70.7 107.7 70.8 C 107.7 70.9 107.8 71.6 107.8 71.8 C 107.7 72.0 107.2 72.2 107.1 72.0 C 107.1 71.8 106.6 71.1 106.6 71.1 C 106.6 71.1 106.2 70.7 105.9 70.7 C 105.6 70.6 105.2 70.9 105.1 71.0 C 105.0 71.1 104.5 71.6 104.5 71.6 C 104.4 71.4 104.3 71.2 104.1 71.0 C 104.1 71.0 103.3 71.3 102.5 70.7 C 102.5 70.7 102.5 70.7 102.5 70.7 Z M 122.6 70.6 C 121.5 70.6 122.2 73.3 122.6 73.8 C 123.0 74.3 123.7 74.0 124.4 74.1 C 125.1 74.2 124.8 73.4 125.2 73.1 C 125.6 72.9 125.5 73.4 125.7 73.8 C 125.8 74.2 126.9 73.9 127.5 73.9 C 128.1 73.9 128.8 73.0 129.3 73.0 C 129.8 72.9 128.9 72.5 129.8 72.6 C 130.7 72.6 130.2 73.1 129.2 73.4 C 128.1 73.7 129.6 73.9 130.2 74.0 C 130.7 74.1 131.7 73.7 132.2 73.8 C 132.6 73.8 132.0 73.1 132.7 73.1 C 133.4 73.2 133.0 73.8 133.7 73.9 C 134.4 74.1 134.3 73.4 134.6 73.3 C 135.0 73.1 134.9 73.5 135.2 73.6 C 135.5 73.6 135.9 73.8 136.5 73.7 C 137.2 73.5 137.0 73.3 137.3 73.3 C 137.6 73.2 138.1 73.2 138.1 73.2 C 138.1 73.4 138.1 73.7 138.2 73.9 C 138.2 73.9 139.3 73.9 139.7 74.0 C 140.0 74.1 140.8 73.8 140.6 73.6 C 140.4 73.5 141.1 73.0 141.3 73.1 C 141.5 73.2 142.1 73.6 142.5 73.7 C 142.8 73.9 142.7 72.1 142.7 71.9 C 142.7 71.7 143.0 70.7 142.6 70.6 C 142.3 70.5 142.0 70.9 142.1 70.6 C 142.1 70.4 141.1 70.6 140.8 70.6 C 140.5 70.6 140.2 71.3 140.2 71.3 C 140.2 71.3 139.9 71.8 139.4 71.8 C 139.0 71.8 138.8 70.7 138.8 70.7 C 138.8 70.7 138.2 70.5 137.7 70.6 C 137.1 70.6 136.5 71.5 136.4 71.7 C 136.3 71.9 136.3 71.1 135.9 71.0 C 135.5 70.9 134.9 70.6 134.7 70.7 C 134.5 70.7 134.3 71.3 134.3 71.3 C 134.3 71.3 133.5 71.6 133.4 71.6 C 133.2 71.6 133.5 70.8 133.5 70.8 C 133.5 70.8 131.9 70.6 131.6 70.5 C 131.3 70.4 130.8 70.7 130.6 70.7 C 130.3 70.8 130.0 71.7 129.7 71.7 C 129.3 71.6 130.0 71.0 129.7 70.9 C 129.3 70.8 128.7 70.6 128.5 70.6 C 128.4 70.6 128.1 71.0 127.8 71.0 C 127.6 71.1 127.2 71.8 126.7 71.8 C 126.2 71.8 126.0 71.4 125.9 71.3 C 125.7 71.2 125.6 70.5 125.2 70.5 C 124.8 70.5 125.1 70.9 124.8 70.9 C 124.4 70.9 124.4 71.4 124.1 71.3 C 123.7 71.2 124.0 70.4 123.6 70.5 C 123.4 70.6 123.6 70.5 122.6 70.6 C 122.6 70.6 122.6 70.6 122.6 70.6 Z M 143.5 70.7 C 143.0 70.4 142.5 70.8 142.6 71.2 C 142.7 71.5 142.8 72.5 142.7 72.8 C 142.5 73.1 141.9 73.8 142.8 73.9 C 143.6 74.0 143.8 73.8 143.8 73.5 C 143.8 73.3 144.0 72.3 144.2 72.4 C 144.4 72.5 144.7 72.8 144.7 72.9 C 144.8 73.0 145.1 74.0 145.5 73.9 C 146.0 73.7 146.4 73.4 146.4 73.4 C 146.6 73.4 146.8 73.4 147.0 73.4 C 147.0 73.4 147.6 74.0 148.0 73.9 C 148.5 73.7 149.0 73.7 149.4 73.8 C 149.7 73.8 150.0 73.7 150.1 73.5 C 150.2 73.3 150.6 72.4 150.6 72.4 C 150.6 72.4 151.1 72.2 151.4 72.3 C 151.6 72.5 151.7 72.9 151.6 73.1 C 151.5 73.3 151.6 73.8 151.9 73.9 C 152.3 74.0 153.8 74.4 154.0 74.1 C 154.2 73.9 154.2 73.5 154.4 73.4 C 154.5 73.3 155.5 73.3 155.6 73.5 C 155.7 73.7 155.6 74.2 155.9 74.2 C 156.2 74.1 156.8 74.3 156.8 74.1 C 156.8 74.0 157.0 73.9 157.0 73.6 C 157.0 73.3 157.6 73.1 157.7 72.9 C 157.8 72.8 158.3 72.8 158.3 72.8 C 158.5 72.9 158.7 73.1 158.9 73.2 C 158.9 73.2 158.5 73.7 158.3 73.8 C 158.2 73.9 158.4 74.2 158.6 74.3 C 158.8 74.3 159.9 74.2 159.9 74.2 C 159.9 73.9 159.9 73.5 160.0 73.1 C 160.2 73.0 160.5 72.9 160.8 72.8 C 160.8 72.8 160.6 74.2 161.2 74.2 C 161.7 74.2 162.3 74.2 162.3 74.2 C 162.3 74.2 162.9 73.7 163.0 73.6 C 163.1 73.6 163.2 72.4 163.2 72.4 C 163.1 71.9 163.1 71.5 163.1 71.0 C 163.1 71.0 162.4 70.5 162.1 70.7 C 161.7 70.9 162.0 71.4 162.0 71.6 C 161.9 71.9 161.4 72.1 161.4 72.1 C 161.2 71.8 160.9 71.6 160.7 71.3 C 160.7 71.3 160.5 71.1 160.2 70.9 C 160.0 70.6 159.2 70.5 159.0 70.6 C 158.7 70.7 158.5 71.0 158.2 71.2 C 157.9 71.5 158.0 71.9 157.6 71.5 C 157.3 71.2 157.1 70.9 157.0 70.9 C 156.8 70.9 156.0 71.3 156.0 71.3 C 155.8 71.4 155.6 71.5 155.4 71.6 C 155.4 71.6 154.8 71.9 154.8 71.6 C 154.7 71.3 153.6 71.6 153.6 71.6 C 153.6 71.6 153.7 70.8 153.4 70.7 C 153.1 70.5 152.6 70.3 152.2 70.5 C 151.7 70.6 151.4 71.4 151.4 71.4 C 151.2 71.2 151.1 71.0 150.9 70.8 C 150.5 70.7 150.1 70.7 149.6 70.6 C 149.6 70.6 148.7 70.7 148.7 70.8 C 148.7 70.9 148.8 71.6 148.7 71.8 C 148.7 72.0 148.1 72.2 148.1 72.0 C 148.0 71.8 147.6 71.1 147.6 71.1 C 147.6 71.1 147.2 70.7 146.9 70.7 C 146.6 70.6 146.1 70.9 146.0 71.0 C 145.9 71.1 145.4 71.6 145.4 71.6 C 145.3 71.4 145.2 71.2 145.1 71.0 C 145.1 71.0 144.3 71.3 143.5 70.7 C 143.5 70.7 143.5 70.7 143.5 70.7 Z M 163.5 70.6 C 162.5 70.6 163.1 73.3 163.5 73.8 C 163.9 74.3 164.6 74.0 165.3 74.1 C 166.0 74.2 165.8 73.4 166.2 73.1 C 166.6 72.9 166.4 73.4 166.6 73.8 C 166.8 74.2 167.8 73.9 168.4 73.9 C 169.1 73.9 169.7 73.0 170.2 73.0 C 170.7 72.9 169.8 72.5 170.7 72.6 C 171.6 72.6 171.2 73.1 170.1 73.4 C 169.1 73.7 170.5 73.9 171.1 74.0 C 171.7 74.1 172.6 73.7 173.1 73.8 C 173.5 73.8 173.0 73.1 173.6 73.1 C 174.3 73.2 174.0 73.8 174.6 73.9 C 175.3 74.1 175.2 73.4 175.6 73.3 C 175.9 73.1 175.8 73.5 176.1 73.6 C 176.4 73.6 176.8 73.8 177.5 73.7 C 178.1 73.5 177.9 73.3 178.2 73.3 C 178.5 73.2 179.0 73.2 179.0 73.2 C 179.0 73.4 179.1 73.7 179.1 73.9 C 179.1 73.9 180.3 73.9 180.6 74.0 C 180.9 74.1 181.7 73.8 181.5 73.6 C 181.3 73.5 182.1 73.0 182.2 73.1 C 182.4 73.2 183.0 73.6 183.4 73.7 C 183.8 73.9 183.7 72.1 183.7 71.9 C 183.7 71.7 183.9 70.7 183.6 70.6 C 183.2 70.5 182.9 70.9 183.0 70.6 C 183.0 70.4 182.0 70.6 181.7 70.6 C 181.4 70.6 181.1 71.3 181.1 71.3 C 181.1 71.3 180.8 71.8 180.4 71.8 C 179.9 71.8 179.7 70.7 179.7 70.7 C 179.7 70.7 179.2 70.5 178.6 70.6 C 178.0 70.6 177.4 71.5 177.3 71.7 C 177.2 71.9 177.2 71.1 176.8 71.0 C 176.4 70.9 175.8 70.6 175.6 70.7 C 175.5 70.7 175.2 71.3 175.2 71.3 C 175.2 71.3 174.5 71.6 174.3 71.6 C 174.1 71.6 174.4 70.8 174.4 70.8 C 174.4 70.8 172.9 70.6 172.5 70.5 C 172.2 70.4 171.7 70.7 171.5 70.7 C 171.3 70.8 170.9 71.7 170.6 71.7 C 170.3 71.6 170.9 71.0 170.6 70.9 C 170.3 70.8 169.6 70.6 169.5 70.6 C 169.3 70.6 169.1 71.0 168.8 71.0 C 168.5 71.1 168.1 71.8 167.6 71.8 C 167.2 71.8 167.0 71.4 166.8 71.3 C 166.6 71.2 166.5 70.5 166.1 70.5 C 165.8 70.5 166.0 70.9 165.7 70.9 C 165.4 70.9 165.4 71.4 165.0 71.3 C 164.7 71.2 164.9 70.4 164.5 70.5 C 164.3 70.6 164.5 70.5 163.5 70.6 C 163.5 70.6 163.5 70.6 163.5 70.6 Z M 184.4 70.7 C 183.9 70.4 183.5 70.8 183.5 71.2 C 183.6 71.5 183.8 72.5 183.6 72.8 C 183.4 73.1 182.8 73.8 183.7 73.9 C 184.6 74.0 184.8 73.8 184.8 73.5 C 184.8 73.3 184.9 72.3 185.2 72.4 C 185.4 72.5 185.6 72.8 185.7 72.9 C 185.7 73.0 186.1 74.0 186.5 73.9 C 186.9 73.7 187.3 73.4 187.3 73.4 C 187.5 73.4 187.7 73.4 187.9 73.4 C 187.9 73.4 188.5 74.0 189.0 73.9 C 189.4 73.7 189.9 73.7 190.3 73.8 C 190.6 73.8 191.0 73.7 191.0 73.5 C 191.1 73.3 191.5 72.4 191.5 72.4 C 191.5 72.4 192.1 72.2 192.3 72.3 C 192.5 72.5 192.6 72.9 192.5 73.1 C 192.5 73.3 192.5 73.8 192.9 73.9 C 193.2 74.0 194.7 74.4 194.9 74.1 C 195.2 73.9 195.1 73.5 195.3 73.4 C 195.5 73.3 196.5 73.3 196.5 73.5 C 196.6 73.7 196.6 74.2 196.8 74.2 C 197.1 74.1 197.7 74.3 197.7 74.1 C 197.7 74.0 197.9 73.9 197.9 73.6 C 197.9 73.3 198.5 73.1 198.6 72.9 C 198.8 72.8 199.2 72.8 199.2 72.8 C 199.4 72.9 199.6 73.1 199.8 73.2 C 199.8 73.2 199.4 73.7 199.3 73.8 C 199.1 73.9 199.4 74.2 199.6 74.3 C 199.7 74.3 200.8 74.2 200.8 74.2 C 200.8 73.9 200.9 73.5 200.9 73.1 C 201.1 73.0 201.4 72.9 201.7 72.8 C 201.7 72.8 201.6 74.2 202.1 74.2 C 202.6 74.2 203.2 74.2 203.2 74.2 C 203.2 74.2 203.8 73.7 203.9 73.6 C 204.1 73.6 204.1 72.4 204.1 72.4 C 204.1 71.9 204.0 71.5 204.0 71.0 C 204.0 71.0 203.4 70.5 203.0 70.7 C 202.7 70.9 203.0 71.4 202.9 71.6 C 202.8 71.9 202.3 72.1 202.3 72.1 C 202.1 71.8 201.9 71.6 201.6 71.3 C 201.6 71.3 201.4 71.1 201.2 70.9 C 200.9 70.6 200.1 70.5 199.9 70.6 C 199.7 70.7 199.4 71.0 199.2 71.2 C 198.9 71.5 198.9 71.9 198.6 71.5 C 198.2 71.2 198.1 70.9 197.9 70.9 C 197.7 70.9 197.0 71.3 197.0 71.3 C 196.8 71.4 196.5 71.5 196.3 71.6 C 196.3 71.6 195.8 71.9 195.7 71.6 C 195.6 71.3 194.5 71.6 194.5 71.6 C 194.5 71.6 194.6 70.8 194.3 70.7 C 194.0 70.5 193.6 70.3 193.1 70.5 C 192.6 70.6 192.3 71.4 192.3 71.4 C 192.2 71.2 192.0 71.0 191.9 70.8 C 191.4 70.7 191.0 70.7 190.6 70.6 C 190.6 70.6 189.6 70.7 189.6 70.8 C 189.6 70.9 189.7 71.6 189.6 71.8 C 189.6 72.0 189.1 72.2 189.0 72.0 C 189.0 71.8 188.5 71.1 188.5 71.1 C 188.5 71.1 188.1 70.7 187.8 70.7 C 187.5 70.6 187.1 70.9 186.9 71.0 C 186.8 71.1 186.4 71.6 186.4 71.6 C 186.2 71.4 186.1 71.2 186.0 71.0 C 186.0 71.0 185.2 71.3 184.4 70.7 C 184.4 70.7 184.4 70.7 184.4 70.7 Z M 204.4 70.6 C 203.4 70.6 204.1 73.3 204.5 73.8 C 204.9 74.3 205.6 74.0 206.2 74.1 C 206.9 74.2 206.7 73.4 207.1 73.1 C 207.5 72.9 207.3 73.4 207.5 73.8 C 207.7 74.2 208.7 73.9 209.4 73.9 C 210.0 73.9 210.7 73.0 211.2 73.0 C 211.7 72.9 210.7 72.5 211.6 72.6 C 212.5 72.6 212.1 73.1 211.1 73.4 C 210.0 73.7 211.5 73.9 212.0 74.0 C 212.6 74.1 213.6 73.7 214.0 73.8 C 214.5 73.8 213.9 73.1 214.6 73.1 C 215.2 73.2 214.9 73.8 215.6 73.9 C 216.2 74.1 216.1 73.4 216.5 73.3 C 216.8 73.1 216.8 73.5 217.0 73.6 C 217.3 73.6 217.8 73.8 218.4 73.7 C 219.0 73.5 218.9 73.3 219.1 73.3 C 219.4 73.2 219.9 73.2 219.9 73.2 C 220.0 73.4 220.0 73.7 220.0 73.9 C 220.0 73.9 221.2 73.9 221.5 74.0 C 221.9 74.1 222.6 73.8 222.4 73.6 C 222.2 73.5 223.0 73.0 223.2 73.1 C 223.3 73.2 223.9 73.6 224.3 73.7 C 224.7 73.9 224.6 72.1 224.6 71.9 C 224.6 71.7 224.8 70.7 224.5 70.6 C 224.1 70.5 223.9 70.9 223.9 70.6 C 224.0 70.4 222.9 70.6 222.7 70.6 C 222.4 70.6 222.0 71.3 222.0 71.3 C 222.0 71.3 221.8 71.8 221.3 71.8 C 220.8 71.8 220.7 70.7 220.7 70.7 C 220.7 70.7 220.1 70.5 219.5 70.6 C 219.0 70.6 218.3 71.5 218.2 71.7 C 218.1 71.9 218.1 71.1 217.7 71.0 C 217.3 70.9 216.8 70.6 216.6 70.7 C 216.4 70.7 216.1 71.3 216.1 71.3 C 216.1 71.3 215.4 71.6 215.2 71.6 C 215.0 71.6 215.3 70.8 215.3 70.8 C 215.3 70.8 213.8 70.6 213.5 70.5 C 213.2 70.4 212.7 70.7 212.4 70.7 C 212.2 70.8 211.9 71.7 211.5 71.7 C 211.2 71.6 211.9 71.0 211.5 70.9 C 211.2 70.8 210.6 70.6 210.4 70.6 C 210.2 70.6 210.0 71.0 209.7 71.0 C 209.4 71.1 209.0 71.8 208.6 71.8 C 208.1 71.8 207.9 71.4 207.7 71.3 C 207.5 71.2 207.4 70.5 207.1 70.5 C 206.7 70.5 207.0 70.9 206.6 70.9 C 206.3 70.9 206.3 71.4 206.0 71.3 C 205.6 71.2 205.8 70.4 205.4 70.5 C 205.3 70.6 205.4 70.5 204.4 70.6 C 204.4 70.6 204.4 70.6 204.4 70.6 Z M 226.7 71.4 C 226.5 71.5 226.3 71.0 225.7 70.8 C 225.2 70.7 224.5 70.6 224.6 71.0 C 224.7 71.3 224.9 71.5 224.6 71.9 C 224.3 72.3 224.0 73.0 224.4 73.2 C 224.8 73.5 226.4 74.2 226.9 73.9 C 227.3 73.5 227.5 73.3 227.9 73.1 C 228.2 72.9 228.0 73.7 228.0 73.7 C 228.0 73.7 228.8 73.8 229.5 73.8 C 230.1 73.9 230.8 73.9 230.9 73.8 C 230.9 73.6 231.2 73.3 231.2 73.3 C 231.2 73.3 231.5 73.7 232.0 73.8 C 232.4 73.9 232.3 73.6 232.2 73.5 C 232.1 73.3 231.6 72.8 231.8 72.8 C 232.0 72.8 232.6 73.5 232.9 73.6 C 233.2 73.7 234.0 73.6 234.0 73.6 C 234.0 73.6 233.9 73.2 234.0 73.1 C 234.0 73.0 234.8 72.9 234.8 73.1 C 234.9 73.2 234.8 73.7 235.2 73.7 C 236.6 73.7 236.2 72.8 236.4 72.8 C 236.5 72.8 236.5 73.4 236.9 73.5 C 237.2 73.5 239.5 72.8 239.6 72.6 C 239.6 72.4 240.6 72.6 240.8 72.1 C 240.9 71.5 240.9 71.4 240.9 71.2 C 240.9 71.1 241.0 70.3 241.3 70.4 C 241.6 70.6 241.2 71.7 241.5 71.7 C 241.9 71.8 243.2 70.9 243.3 70.6 C 243.4 70.2 243.0 69.6 243.2 69.5 C 243.3 69.4 244.5 69.4 244.4 69.3 C 244.4 69.1 244.0 68.6 243.9 68.5 C 243.8 68.4 243.0 67.3 242.8 67.3 C 242.6 67.3 241.8 67.4 242.1 67.7 C 242.4 67.9 242.8 68.1 242.7 68.4 C 242.6 68.7 242.5 68.8 242.4 68.7 C 242.3 68.7 242.3 68.5 241.8 68.5 C 241.3 68.6 241.3 68.3 241.0 68.5 C 240.7 68.8 240.4 69.0 240.6 69.2 C 240.8 69.4 240.6 70.0 240.3 70.1 C 240.0 70.3 240.2 69.5 239.3 69.7 C 238.4 69.8 237.8 69.9 237.6 70.2 C 237.4 70.5 237.6 71.3 237.0 71.1 C 236.5 70.9 236.7 70.6 236.1 70.7 C 235.6 70.8 235.4 71.4 234.9 71.5 C 234.5 71.5 234.4 71.5 234.4 71.5 C 234.4 71.5 234.6 70.6 233.7 70.6 C 232.7 70.6 232.5 70.5 232.7 71.1 C 232.9 71.7 232.2 71.7 232.1 71.3 C 232.1 70.9 231.5 70.7 231.2 70.6 C 230.9 70.6 230.8 71.6 230.7 71.6 C 230.5 71.6 230.1 71.6 230.3 71.3 C 230.4 70.9 230.1 70.9 229.8 70.8 C 229.5 70.6 228.6 70.7 228.6 70.9 C 228.6 71.1 229.0 71.8 228.4 71.4 C 227.8 71.1 227.7 70.6 227.1 70.6 C 226.5 70.6 227.0 71.2 226.7 71.4 C 226.7 71.4 226.7 71.4 226.7 71.4 Z M 243.1 66.7 C 242.6 66.7 242.7 67.3 243.0 67.5 C 243.3 67.8 244.1 68.3 244.2 68.6 C 244.2 68.9 244.3 69.9 245.1 69.3 C 245.8 68.7 245.7 68.4 245.5 68.2 C 245.3 68.1 244.7 67.3 244.9 67.2 C 245.1 67.1 245.4 67.0 245.6 67.1 C 245.7 67.1 246.7 67.4 246.9 66.9 C 247.0 66.4 246.9 65.9 246.9 65.9 C 247.0 65.7 247.1 65.5 247.2 65.3 C 247.2 65.3 248.0 65.0 248.1 64.5 C 248.1 63.9 248.3 63.4 248.4 63.0 C 248.6 62.7 248.6 62.3 248.4 62.2 C 248.2 62.1 247.4 61.4 247.4 61.4 C 247.4 61.4 247.3 60.9 247.4 60.7 C 247.6 60.4 248.1 60.4 248.3 60.5 C 248.4 60.6 248.9 60.6 249.0 60.2 C 249.1 59.8 249.6 58.2 249.3 58.0 C 249.1 57.7 248.7 57.8 248.6 57.6 C 248.5 57.4 248.5 56.4 248.7 56.4 C 248.9 56.3 249.4 56.3 249.4 56.1 C 249.3 55.8 249.5 55.2 249.3 55.2 C 249.2 55.2 249.1 55.0 248.8 55.0 C 248.5 55.0 248.3 54.4 248.1 54.3 C 248.0 54.2 247.9 53.7 247.9 53.7 C 248.1 53.5 248.3 53.3 248.4 53.1 C 248.4 53.1 248.9 53.5 249.0 53.6 C 249.1 53.8 249.4 53.5 249.5 53.3 C 249.5 53.2 249.4 52.1 249.4 52.1 C 249.0 52.1 248.7 52.0 248.3 52.0 C 248.2 51.8 248.1 51.5 248.0 51.2 C 248.0 51.2 249.4 51.3 249.4 50.8 C 249.4 50.3 249.4 49.7 249.4 49.7 C 249.4 49.7 248.9 49.1 248.8 49.0 C 248.8 48.9 247.6 48.8 247.6 48.8 C 247.1 48.8 246.7 48.9 246.2 48.9 C 246.2 48.9 245.7 49.5 245.9 49.9 C 246.1 50.2 246.6 50.0 246.8 50.0 C 247.1 50.1 247.3 50.6 247.3 50.6 C 247.0 50.8 246.8 51.1 246.5 51.3 C 246.5 51.3 246.3 51.5 246.1 51.7 C 245.8 52.0 245.7 52.8 245.8 53.0 C 245.9 53.2 246.2 53.5 246.4 53.8 C 246.7 54.0 247.1 54.0 246.7 54.3 C 246.4 54.7 246.1 54.8 246.1 55.0 C 246.1 55.2 246.5 55.9 246.5 55.9 C 246.6 56.1 246.7 56.4 246.8 56.6 C 246.8 56.6 247.1 57.1 246.8 57.2 C 246.5 57.3 246.8 58.4 246.8 58.4 C 246.8 58.4 246.0 58.3 245.9 58.6 C 245.7 58.9 245.5 59.3 245.7 59.7 C 245.8 60.2 246.5 60.6 246.5 60.6 C 246.3 60.7 246.1 60.8 245.9 60.9 C 245.8 61.2 245.6 61.6 245.5 62.0 C 245.5 62.0 245.3 62.8 245.4 62.8 C 245.5 62.9 246.2 63.0 246.4 63.1 C 246.6 63.2 246.6 63.8 246.4 63.7 C 246.1 63.7 245.4 63.9 245.4 63.9 C 245.4 63.9 244.8 64.0 244.7 64.2 C 244.5 64.4 244.6 64.9 244.6 65.0 C 244.7 65.2 244.9 65.8 244.9 65.8 C 244.7 65.8 244.4 65.8 244.2 65.7 C 244.2 65.7 244.0 66.5 243.1 66.7 C 243.1 66.7 243.1 66.7 243.1 66.7 Z M 245.8 48.5 C 245.8 49.5 248.5 48.8 249.0 48.4 C 249.5 48.0 249.2 47.4 249.3 46.7 C 249.4 46.0 248.6 46.2 248.3 45.8 C 248.1 45.4 248.6 45.6 249.0 45.4 C 249.4 45.2 249.0 44.2 249.1 43.5 C 249.1 42.9 248.2 42.2 248.2 41.7 C 248.1 41.2 247.7 42.2 247.8 41.3 C 247.8 40.4 248.3 40.8 248.6 41.9 C 248.9 42.9 249.1 41.4 249.2 40.9 C 249.3 40.3 248.9 39.3 248.9 38.9 C 249.0 38.4 248.3 39.0 248.3 38.3 C 248.4 37.7 249.0 38.0 249.1 37.3 C 249.3 36.7 248.6 36.8 248.5 36.4 C 248.3 36.1 248.7 36.2 248.8 35.9 C 248.8 35.6 249.0 35.1 248.9 34.5 C 248.7 33.9 248.5 34.0 248.5 33.8 C 248.4 33.5 248.4 33.0 248.4 33.0 C 248.6 32.9 248.9 32.9 249.1 32.9 C 249.1 32.9 249.1 31.7 249.2 31.4 C 249.2 31.0 248.9 30.3 248.8 30.5 C 248.7 30.7 248.2 29.9 248.3 29.7 C 248.4 29.6 248.8 29.0 248.9 28.6 C 249.0 28.2 247.3 28.3 247.1 28.3 C 246.8 28.3 245.9 28.1 245.8 28.4 C 245.7 28.8 246.1 29.0 245.8 29.0 C 245.6 28.9 245.8 30.0 245.8 30.2 C 245.8 30.5 246.5 30.9 246.5 30.9 C 246.5 30.9 247.0 31.1 247.0 31.6 C 247.0 32.1 245.9 32.2 245.9 32.2 C 245.9 32.2 245.7 32.8 245.8 33.4 C 245.8 33.9 246.7 34.6 246.9 34.7 C 247.1 34.8 246.3 34.8 246.2 35.2 C 246.1 35.6 245.8 36.2 245.9 36.3 C 245.9 36.5 246.5 36.8 246.5 36.8 C 246.5 36.8 246.8 37.5 246.8 37.7 C 246.8 37.9 246.0 37.6 246.0 37.6 C 246.0 37.6 245.8 39.1 245.7 39.4 C 245.6 39.8 245.9 40.3 245.9 40.5 C 246.0 40.7 246.9 41.0 246.8 41.4 C 246.7 41.7 246.2 41.0 246.1 41.4 C 246.0 41.7 245.8 42.4 245.8 42.5 C 245.8 42.7 246.2 42.9 246.2 43.2 C 246.3 43.5 247.0 43.9 247.0 44.3 C 247.0 44.8 246.6 45.0 246.5 45.2 C 246.4 45.4 245.7 45.5 245.7 45.8 C 245.7 46.2 246.1 45.9 246.1 46.3 C 246.1 46.6 246.6 46.6 246.5 47.0 C 246.4 47.3 245.6 47.1 245.7 47.5 C 245.8 47.6 245.7 47.5 245.8 48.5 C 245.8 48.5 245.8 48.5 245.8 48.5 Z M 245.9 27.6 C 245.5 28.1 246.0 28.5 246.4 28.4 C 246.7 28.4 247.7 28.2 248.0 28.4 C 248.3 28.6 249.0 29.1 249.1 28.3 C 249.2 27.4 249.0 27.2 248.7 27.2 C 248.5 27.2 247.5 27.0 247.6 26.8 C 247.7 26.6 247.9 26.4 248.1 26.3 C 248.2 26.2 249.2 25.9 249.1 25.5 C 248.9 25.1 248.6 24.7 248.6 24.7 C 248.6 24.5 248.6 24.3 248.6 24.1 C 248.6 24.1 249.2 23.5 249.1 23.0 C 248.9 22.6 248.9 22.0 249.0 21.7 C 249.0 21.3 248.9 21.0 248.7 20.9 C 248.5 20.9 247.6 20.4 247.6 20.4 C 247.6 20.4 247.4 19.9 247.5 19.7 C 247.7 19.4 248.1 19.4 248.3 19.4 C 248.5 19.5 249.0 19.5 249.1 19.1 C 249.1 18.7 249.4 16.9 249.1 16.7 C 248.8 16.4 248.4 16.6 248.3 16.4 C 248.2 16.2 247.9 15.2 248.1 15.1 C 248.3 14.9 248.8 14.8 248.6 14.5 C 248.5 14.2 248.4 13.6 248.2 13.6 C 248.1 13.7 247.9 13.5 247.6 13.6 C 247.4 13.7 246.9 13.3 246.7 13.2 C 246.6 13.2 246.3 12.8 246.3 12.8 C 246.3 12.5 246.4 12.3 246.4 12.0 C 246.4 12.0 247.0 12.1 247.2 12.2 C 247.4 12.3 247.5 11.9 247.4 11.7 C 247.4 11.5 246.6 10.5 246.6 10.5 C 246.3 10.7 246.0 11.0 245.7 11.2 C 245.4 11.0 245.2 10.8 245.0 10.7 C 245.0 10.7 246.1 9.9 245.7 9.5 C 245.4 9.0 244.9 8.5 244.9 8.5 C 244.9 8.5 244.1 8.5 244.0 8.4 C 243.8 8.4 243.0 9.2 243.0 9.2 C 242.7 9.6 242.4 10.0 242.1 10.4 C 242.1 10.4 242.2 11.1 242.6 11.2 C 242.9 11.2 243.1 10.7 243.3 10.6 C 243.5 10.5 244.0 10.7 244.0 10.7 C 244.0 11.0 243.9 11.3 243.8 11.7 C 243.8 11.7 243.8 12.0 243.7 12.3 C 243.6 12.6 243.9 13.2 244.1 13.3 C 244.3 13.4 244.7 13.4 245.0 13.6 C 245.3 13.7 245.7 13.4 245.5 13.9 C 245.4 14.3 245.1 14.6 245.1 14.7 C 245.2 14.9 245.9 15.3 245.9 15.3 C 246.0 15.5 246.2 15.6 246.3 15.8 C 246.3 15.8 246.7 16.3 246.5 16.4 C 246.2 16.5 246.7 17.5 246.7 17.5 C 246.7 17.5 245.9 17.5 245.8 17.8 C 245.7 18.1 245.5 18.5 245.7 18.9 C 245.8 19.3 246.6 19.7 246.6 19.7 C 246.4 19.8 246.2 20.0 246.0 20.1 C 245.9 20.5 245.9 21.0 245.8 21.4 C 245.8 21.4 245.9 22.4 246.0 22.4 C 246.1 22.4 246.8 22.3 247.0 22.3 C 247.2 22.4 247.4 22.9 247.2 23.0 C 247.0 23.0 246.3 23.5 246.3 23.5 C 246.3 23.5 245.9 23.9 245.9 24.2 C 245.8 24.5 246.1 24.9 246.2 25.0 C 246.3 25.2 246.8 25.6 246.8 25.6 C 246.6 25.7 246.4 25.9 246.2 26.0 C 246.2 26.0 246.5 26.8 245.9 27.6 C 245.9 27.6 245.9 27.6 245.9 27.6 Z M 240.8 8.9 C 241.0 8.9 240.9 9.4 241.2 9.8 C 241.5 10.2 241.9 10.6 242.0 10.3 C 242.2 10.0 242.1 9.7 242.6 9.6 C 243.1 9.5 243.8 9.2 243.7 8.7 C 243.5 8.2 242.6 6.6 241.9 6.7 C 241.3 6.7 241.1 6.8 240.6 6.8 C 240.2 6.9 240.8 6.3 240.8 6.3 C 240.8 6.3 240.0 5.8 239.3 5.5 C 238.7 5.2 237.9 5.0 237.8 5.1 C 237.7 5.2 237.4 5.4 237.4 5.4 C 237.4 5.4 237.1 5.0 236.6 4.8 C 236.1 4.7 236.3 4.9 236.3 5.1 C 236.4 5.3 236.9 5.9 236.7 5.9 C 236.5 5.8 235.9 5.0 235.6 4.9 C 235.2 4.8 234.4 4.8 234.4 4.8 C 234.4 4.8 234.4 5.2 234.4 5.3 C 234.3 5.4 233.6 5.5 233.5 5.3 C 233.5 5.2 233.6 4.7 233.2 4.7 C 232.1 4.6 232.2 5.5 232.1 5.5 C 232.0 5.5 232.0 4.8 231.7 4.7 C 231.5 4.6 229.2 4.7 229.1 4.9 C 229.0 5.1 228.3 4.4 227.9 4.9 C 227.6 5.3 227.5 5.4 227.4 5.5 C 227.4 5.6 226.9 6.3 226.7 6.1 C 226.5 5.8 227.4 5.0 227.2 4.8 C 226.9 4.6 225.5 4.6 225.3 4.8 C 224.9 5.1 224.8 5.7 224.6 5.7 C 224.4 5.7 223.6 4.9 223.6 5.0 C 223.5 5.1 223.4 5.8 223.4 6.0 C 223.4 6.1 223.1 7.4 223.3 7.5 C 223.5 7.7 224.3 8.2 224.2 7.8 C 224.1 7.4 223.9 7.0 224.2 6.8 C 224.5 6.7 224.7 6.7 224.7 6.8 C 224.8 6.9 224.6 7.1 225.1 7.3 C 225.6 7.5 225.4 7.8 225.8 7.8 C 226.3 7.8 226.7 7.7 226.7 7.4 C 226.6 7.2 227.1 6.8 227.4 6.8 C 227.8 6.8 227.2 7.4 228.3 7.7 C 229.3 7.9 230.0 8.0 230.3 7.7 C 230.6 7.5 230.6 6.8 231.1 7.1 C 231.6 7.4 231.3 7.6 232.0 7.6 C 232.7 7.6 232.9 7.0 233.4 6.9 C 233.8 6.9 233.9 6.9 233.9 6.9 C 233.9 6.9 233.7 7.8 234.6 7.8 C 235.5 7.9 235.7 8.0 235.5 7.4 C 235.4 6.8 236.1 6.8 236.1 7.2 C 236.1 7.6 236.5 8.0 236.8 8.1 C 237.1 8.2 237.4 7.2 237.5 7.2 C 237.7 7.2 238.0 7.4 237.8 7.7 C 237.5 7.9 237.8 8.1 238.0 8.3 C 238.3 8.5 239.0 8.7 239.1 8.5 C 239.1 8.4 239.0 7.6 239.4 8.1 C 239.7 8.6 239.6 9.1 240.1 9.4 C 240.5 9.6 240.4 8.8 240.8 8.9 C 240.8 8.9 240.8 8.9 240.8 8.9 Z M 222.5 7.7 C 223.0 8.1 223.4 7.6 223.4 7.3 C 223.3 6.9 223.1 5.9 223.3 5.6 C 223.5 5.4 224.1 4.7 223.2 4.5 C 222.3 4.4 222.2 4.7 222.2 4.9 C 222.2 5.1 222.0 6.1 221.8 6.1 C 221.5 6.0 221.3 5.7 221.2 5.5 C 221.2 5.4 220.9 4.4 220.4 4.6 C 220.0 4.7 219.6 5.0 219.6 5.0 C 219.4 5.0 219.2 5.0 219.0 5.0 C 219.0 5.0 218.4 4.4 218.0 4.6 C 217.5 4.7 217.0 4.7 216.6 4.7 C 216.3 4.6 215.9 4.7 215.9 4.9 C 215.8 5.2 215.4 6.0 215.4 6.0 C 215.4 6.0 214.9 6.2 214.6 6.1 C 214.4 6.0 214.3 5.5 214.4 5.3 C 214.4 5.1 214.4 4.7 214.0 4.6 C 213.7 4.5 212.2 4.0 212.0 4.3 C 211.7 4.6 211.8 4.9 211.6 5.0 C 211.4 5.1 210.5 5.2 210.4 4.9 C 210.3 4.7 210.4 4.2 210.1 4.3 C 209.8 4.3 209.2 4.2 209.2 4.3 C 209.2 4.4 209.0 4.6 209.0 4.9 C 209.0 5.1 208.4 5.4 208.3 5.5 C 208.2 5.6 207.7 5.7 207.7 5.7 C 207.5 5.5 207.3 5.4 207.1 5.2 C 207.1 5.2 207.5 4.7 207.6 4.6 C 207.8 4.5 207.5 4.2 207.4 4.2 C 207.2 4.1 206.1 4.2 206.1 4.2 C 206.1 4.6 206.1 5.0 206.0 5.4 C 205.8 5.4 205.5 5.5 205.2 5.6 C 205.2 5.6 205.3 4.2 204.8 4.2 C 204.3 4.2 203.7 4.2 203.7 4.2 C 203.7 4.2 203.1 4.8 203.0 4.8 C 202.9 4.9 202.8 6.1 202.8 6.1 C 202.8 6.5 202.9 7.0 202.9 7.4 C 202.9 7.4 203.6 7.9 203.9 7.7 C 204.2 7.5 204.0 7.0 204.0 6.8 C 204.1 6.6 204.6 6.3 204.6 6.3 C 204.8 6.6 205.1 6.8 205.3 7.1 C 205.3 7.1 205.5 7.3 205.7 7.6 C 206.0 7.8 206.8 7.9 207.0 7.9 C 207.2 7.8 207.5 7.4 207.8 7.2 C 208.0 7.0 208.0 6.6 208.3 6.9 C 208.7 7.2 208.9 7.6 209.0 7.6 C 209.2 7.6 209.9 7.1 209.9 7.1 C 210.2 7.0 210.4 6.9 210.6 6.8 C 210.6 6.8 211.1 6.6 211.2 6.8 C 211.3 7.1 212.4 6.8 212.4 6.8 C 212.4 6.8 212.3 7.6 212.6 7.8 C 212.9 7.9 213.3 8.1 213.8 7.9 C 214.3 7.8 214.6 7.0 214.6 7.0 C 214.8 7.2 214.9 7.4 215.1 7.6 C 215.5 7.7 215.9 7.8 216.3 7.8 C 216.3 7.8 217.3 7.8 217.3 7.6 C 217.3 7.5 217.2 6.8 217.3 6.6 C 217.3 6.4 217.8 6.2 217.9 6.4 C 218.0 6.7 218.4 7.3 218.4 7.3 C 218.4 7.3 218.8 7.7 219.1 7.8 C 219.4 7.8 219.9 7.6 220.0 7.4 C 220.1 7.3 220.6 6.8 220.6 6.8 C 220.7 7.0 220.8 7.2 220.9 7.4 C 220.9 7.4 221.7 7.1 222.5 7.7 C 222.5 7.7 222.5 7.7 222.5 7.7 Z M 200.7 7.1 C 200.9 7.0 201.1 7.4 201.7 7.6 C 202.2 7.8 202.9 7.8 202.8 7.5 C 202.6 7.2 202.4 6.9 202.7 6.5 C 203.0 6.2 203.4 5.4 203.0 5.2 C 202.6 4.9 201.0 4.2 200.5 4.6 C 200.0 4.9 199.9 5.1 199.5 5.3 C 199.1 5.6 199.4 4.8 199.4 4.8 C 199.4 4.8 198.5 4.7 197.9 4.6 C 197.3 4.6 196.6 4.6 196.5 4.7 C 196.4 4.8 196.2 5.1 196.2 5.1 C 196.2 5.1 195.9 4.7 195.4 4.7 C 194.9 4.6 195.1 4.8 195.2 5.0 C 195.2 5.2 195.8 5.7 195.6 5.7 C 195.4 5.7 194.8 4.9 194.5 4.8 C 194.2 4.7 193.4 4.8 193.4 4.8 C 193.4 4.8 193.5 5.2 193.4 5.3 C 193.4 5.4 192.6 5.5 192.6 5.3 C 192.6 5.2 192.6 4.7 192.3 4.7 C 191.1 4.6 191.3 5.5 191.2 5.5 C 191.1 5.5 191.1 4.8 190.8 4.7 C 190.5 4.6 188.3 4.7 188.2 4.9 C 188.1 5.1 187.3 4.4 187.0 4.9 C 186.7 5.3 186.6 5.4 186.5 5.5 C 186.4 5.6 186.0 6.3 185.8 6.1 C 185.6 5.8 186.5 5.0 186.2 4.8 C 186.0 4.6 184.6 4.6 184.3 4.8 C 184.0 5.1 183.9 5.7 183.7 5.7 C 183.5 5.7 182.7 4.9 182.6 5.0 C 182.6 5.1 182.5 5.8 182.5 6.0 C 182.5 6.1 182.2 7.4 182.4 7.5 C 182.5 7.7 183.4 8.2 183.3 7.8 C 183.2 7.4 183.0 7.0 183.3 6.8 C 183.6 6.7 183.7 6.7 183.8 6.8 C 183.9 6.9 183.7 7.1 184.2 7.3 C 184.7 7.5 184.4 7.8 184.9 7.8 C 185.4 7.8 185.8 7.7 185.7 7.4 C 185.7 7.2 186.2 6.8 186.5 6.8 C 186.8 6.8 186.3 7.4 187.3 7.7 C 188.4 7.9 189.0 8.0 189.3 7.7 C 189.6 7.5 189.7 6.8 190.2 7.1 C 190.7 7.4 190.4 7.6 191.1 7.6 C 191.7 7.6 192.0 7.0 192.4 6.9 C 192.9 6.9 193.0 6.9 193.0 6.9 C 193.0 6.9 192.7 7.8 193.7 7.8 C 194.7 7.9 194.9 7.9 194.7 7.3 C 194.5 6.7 195.2 6.7 195.2 7.1 C 195.3 7.5 195.8 7.8 196.2 7.8 C 196.5 7.9 196.6 6.8 196.7 6.8 C 196.9 6.8 197.2 6.9 197.1 7.2 C 196.9 7.5 197.3 7.5 197.6 7.7 C 197.9 7.8 198.8 7.7 198.8 7.5 C 198.8 7.4 198.3 6.7 198.9 7.0 C 199.5 7.4 199.7 7.9 200.3 7.8 C 200.8 7.8 200.3 7.2 200.7 7.1 C 200.7 7.1 200.7 7.1 200.7 7.1 Z M 181.6 7.7 C 182.1 8.1 182.5 7.6 182.4 7.3 C 182.4 6.9 182.2 5.9 182.4 5.6 C 182.6 5.4 183.1 4.7 182.3 4.5 C 181.4 4.4 181.2 4.7 181.2 4.9 C 181.2 5.1 181.1 6.1 180.8 6.1 C 180.6 6.0 180.4 5.7 180.3 5.5 C 180.2 5.4 179.9 4.4 179.5 4.6 C 179.1 4.7 178.7 5.0 178.7 5.0 C 178.5 5.0 178.3 5.0 178.1 5.0 C 178.1 5.0 177.5 4.4 177.0 4.6 C 176.6 4.7 176.0 4.7 175.7 4.7 C 175.4 4.6 175.0 4.7 174.9 4.9 C 174.9 5.2 174.4 6.0 174.4 6.0 C 174.4 6.0 173.9 6.2 173.7 6.1 C 173.5 6.0 173.4 5.5 173.5 5.3 C 173.5 5.1 173.5 4.7 173.1 4.6 C 172.8 4.5 171.3 4.0 171.0 4.3 C 170.8 4.6 170.9 4.9 170.7 5.0 C 170.5 5.1 169.5 5.2 169.4 4.9 C 169.4 4.7 169.4 4.2 169.1 4.3 C 168.8 4.3 168.3 4.2 168.3 4.3 C 168.3 4.4 168.1 4.6 168.1 4.9 C 168.0 5.1 167.5 5.4 167.3 5.5 C 167.2 5.6 166.8 5.7 166.8 5.7 C 166.6 5.5 166.4 5.4 166.2 5.2 C 166.2 5.2 166.5 4.7 166.7 4.6 C 166.9 4.5 166.6 4.2 166.4 4.2 C 166.2 4.1 165.2 4.2 165.2 4.2 C 165.1 4.6 165.1 5.0 165.1 5.4 C 164.8 5.4 164.6 5.5 164.3 5.6 C 164.3 5.6 164.4 4.2 163.9 4.2 C 163.4 4.2 162.7 4.2 162.7 4.2 C 162.7 4.2 162.2 4.8 162.1 4.8 C 161.9 4.9 161.9 6.1 161.9 6.1 C 161.9 6.5 161.9 7.0 162.0 7.4 C 162.0 7.4 162.6 7.9 163.0 7.7 C 163.3 7.5 163.0 7.0 163.1 6.8 C 163.1 6.6 163.7 6.3 163.7 6.3 C 163.9 6.6 164.1 6.8 164.4 7.1 C 164.4 7.1 164.6 7.3 164.8 7.6 C 165.0 7.8 165.8 7.9 166.1 7.9 C 166.3 7.8 166.5 7.4 166.8 7.2 C 167.1 7.0 167.1 6.6 167.4 6.9 C 167.8 7.2 167.9 7.6 168.1 7.6 C 168.3 7.6 169.0 7.1 169.0 7.1 C 169.2 7.0 169.4 6.9 169.7 6.8 C 169.7 6.8 170.2 6.6 170.3 6.8 C 170.4 7.1 171.5 6.8 171.5 6.8 C 171.5 6.8 171.4 7.6 171.7 7.8 C 172.0 7.9 172.4 8.1 172.9 7.9 C 173.3 7.8 173.7 7.0 173.7 7.0 C 173.8 7.2 174.0 7.4 174.1 7.6 C 174.5 7.7 175.0 7.8 175.4 7.8 C 175.4 7.8 176.4 7.8 176.4 7.6 C 176.4 7.5 176.3 6.8 176.3 6.6 C 176.4 6.4 176.9 6.2 177.0 6.4 C 177.0 6.7 177.5 7.3 177.5 7.3 C 177.5 7.3 177.9 7.7 178.2 7.8 C 178.5 7.8 178.9 7.6 179.0 7.4 C 179.2 7.3 179.6 6.8 179.6 6.8 C 179.7 7.0 179.9 7.2 180.0 7.4 C 180.0 7.4 180.8 7.1 181.6 7.7 C 181.6 7.7 181.6 7.7 181.6 7.7 Z M 159.8 7.1 C 160.0 7.0 160.2 7.4 160.7 7.6 C 161.3 7.8 162.0 7.8 161.8 7.5 C 161.7 7.2 161.5 6.9 161.8 6.5 C 162.1 6.2 162.4 5.4 162.0 5.2 C 161.6 4.9 160.1 4.2 159.6 4.6 C 159.1 4.9 158.9 5.1 158.6 5.3 C 158.2 5.6 158.5 4.8 158.5 4.8 C 158.5 4.8 157.6 4.7 157.0 4.6 C 156.4 4.6 155.6 4.6 155.6 4.7 C 155.5 4.8 155.3 5.1 155.3 5.1 C 155.3 5.1 154.9 4.7 154.5 4.7 C 154.0 4.6 154.2 4.8 154.2 5.0 C 154.3 5.2 154.9 5.7 154.7 5.7 C 154.5 5.7 153.9 4.9 153.5 4.8 C 153.2 4.7 152.5 4.8 152.5 4.8 C 152.5 4.8 152.6 5.2 152.5 5.3 C 152.4 5.4 151.7 5.5 151.7 5.3 C 151.6 5.2 151.7 4.7 151.3 4.7 C 150.2 4.6 150.3 5.5 150.2 5.5 C 150.1 5.5 150.1 4.8 149.9 4.7 C 149.6 4.6 147.4 4.7 147.3 4.9 C 147.2 5.1 146.4 4.4 146.1 4.9 C 145.7 5.3 145.6 5.4 145.6 5.5 C 145.5 5.6 145.1 6.3 144.9 6.1 C 144.7 5.8 145.6 5.0 145.3 4.8 C 145.0 4.6 143.6 4.6 143.4 4.8 C 143.1 5.1 143.0 5.7 142.8 5.7 C 142.6 5.7 141.8 4.9 141.7 5.0 C 141.6 5.1 141.5 5.8 141.5 6.0 C 141.5 6.1 141.3 7.4 141.4 7.5 C 141.6 7.7 142.5 8.2 142.3 7.8 C 142.2 7.4 142.0 7.0 142.3 6.8 C 142.6 6.7 142.8 6.7 142.9 6.8 C 142.9 6.9 142.8 7.1 143.3 7.3 C 143.8 7.5 143.5 7.8 144.0 7.8 C 144.4 7.8 144.8 7.7 144.8 7.4 C 144.8 7.2 145.2 6.8 145.6 6.8 C 145.9 6.8 145.3 7.4 146.4 7.7 C 147.4 7.9 148.1 8.0 148.4 7.7 C 148.7 7.5 148.8 6.8 149.2 7.1 C 149.7 7.4 149.5 7.6 150.1 7.6 C 150.8 7.6 151.1 7.0 151.5 6.9 C 151.9 6.9 152.0 6.9 152.0 6.9 C 152.0 6.9 151.8 7.8 152.8 7.8 C 153.7 7.9 153.9 7.9 153.7 7.3 C 153.5 6.7 154.3 6.7 154.3 7.1 C 154.3 7.5 154.9 7.8 155.2 7.8 C 155.6 7.9 155.7 6.8 155.8 6.8 C 155.9 6.8 156.3 6.9 156.2 7.2 C 156.0 7.5 156.4 7.5 156.7 7.7 C 157.0 7.8 157.9 7.7 157.9 7.5 C 157.8 7.4 157.4 6.7 158.0 7.0 C 158.6 7.4 158.8 7.9 159.3 7.8 C 159.9 7.8 159.4 7.2 159.8 7.1 C 159.8 7.1 159.8 7.1 159.8 7.1 Z M 141.1 7.9 C 142.1 7.8 141.4 5.2 141.0 4.6 C 140.6 4.1 140.0 4.4 139.3 4.3 C 138.6 4.2 138.8 5.1 138.4 5.3 C 138.0 5.6 138.2 5.0 138.0 4.6 C 137.8 4.2 136.8 4.6 136.1 4.5 C 135.5 4.5 134.9 5.4 134.3 5.4 C 133.8 5.5 134.8 5.9 133.9 5.9 C 133.0 5.8 133.4 5.3 134.5 5.0 C 135.5 4.8 134.1 4.5 133.5 4.4 C 132.9 4.3 131.9 4.7 131.5 4.7 C 131.0 4.6 131.6 5.3 130.9 5.3 C 130.3 5.3 130.6 4.6 130.0 4.5 C 129.3 4.4 129.4 5.0 129.0 5.2 C 128.7 5.3 128.8 4.9 128.5 4.9 C 128.2 4.8 127.7 4.6 127.1 4.8 C 126.5 4.9 126.7 5.1 126.4 5.2 C 126.1 5.2 125.6 5.2 125.6 5.2 C 125.5 5.0 125.5 4.8 125.5 4.5 C 125.5 4.5 124.3 4.5 124.0 4.4 C 123.6 4.4 122.9 4.7 123.1 4.8 C 123.3 5.0 122.5 5.4 122.3 5.3 C 122.2 5.2 121.6 4.9 121.2 4.7 C 120.8 4.6 120.9 6.3 120.9 6.5 C 120.9 6.8 120.7 7.7 121.0 7.8 C 121.4 7.9 121.7 7.6 121.6 7.8 C 121.5 8.1 122.6 7.8 122.8 7.8 C 123.1 7.8 123.5 7.2 123.5 7.2 C 123.5 7.2 123.8 6.6 124.2 6.6 C 124.7 6.6 124.8 7.7 124.8 7.7 C 124.8 7.7 125.4 7.9 126.0 7.9 C 126.5 7.8 127.2 6.9 127.3 6.7 C 127.4 6.5 127.4 7.4 127.8 7.5 C 128.2 7.6 128.8 7.8 128.9 7.8 C 129.1 7.7 129.4 7.2 129.4 7.2 C 129.4 7.2 130.1 6.8 130.3 6.8 C 130.5 6.8 130.2 7.6 130.2 7.6 C 130.2 7.6 131.7 7.9 132.0 7.9 C 132.4 8.0 132.9 7.8 133.1 7.7 C 133.3 7.7 133.7 6.7 134.0 6.8 C 134.3 6.9 133.7 7.4 134.0 7.5 C 134.3 7.6 135.0 7.8 135.1 7.8 C 135.3 7.8 135.5 7.5 135.8 7.4 C 136.1 7.4 136.5 6.6 136.9 6.6 C 137.4 6.6 137.6 7.1 137.8 7.2 C 138.0 7.3 138.1 7.9 138.4 7.9 C 138.8 8.0 138.5 7.5 138.9 7.5 C 139.2 7.5 139.2 7.0 139.6 7.1 C 139.9 7.2 139.7 8.0 140.1 7.9 C 140.2 7.9 140.1 7.9 141.1 7.9 C 141.1 7.9 141.1 7.9 141.1 7.9 Z M 120.2 7.7 C 120.7 8.1 121.1 7.6 121.0 7.3 C 121.0 6.9 120.8 5.9 121.0 5.6 C 121.2 5.4 121.7 4.7 120.9 4.5 C 120.0 4.4 119.8 4.7 119.8 4.9 C 119.8 5.1 119.7 6.1 119.4 6.1 C 119.2 6.0 119.0 5.7 118.9 5.5 C 118.9 5.4 118.5 4.4 118.1 4.6 C 117.7 4.7 117.3 5.0 117.3 5.0 C 117.1 5.0 116.9 5.0 116.7 5.0 C 116.7 5.0 116.1 4.4 115.6 4.6 C 115.2 4.7 114.6 4.7 114.3 4.7 C 114.0 4.6 113.6 4.7 113.6 4.9 C 113.5 5.2 113.0 6.0 113.0 6.0 C 113.0 6.0 112.5 6.2 112.3 6.1 C 112.1 6.0 112.0 5.5 112.1 5.3 C 112.1 5.1 112.1 4.7 111.7 4.6 C 111.4 4.5 109.9 4.0 109.6 4.3 C 109.4 4.6 109.5 4.9 109.3 5.0 C 109.1 5.1 108.1 5.2 108.0 4.9 C 108.0 4.7 108.0 4.2 107.7 4.3 C 107.4 4.3 106.9 4.2 106.9 4.3 C 106.9 4.4 106.7 4.6 106.7 4.9 C 106.6 5.1 106.1 5.4 105.9 5.5 C 105.8 5.6 105.4 5.7 105.4 5.7 C 105.2 5.5 105.0 5.4 104.8 5.2 C 104.8 5.2 105.1 4.7 105.3 4.6 C 105.5 4.5 105.2 4.2 105.0 4.2 C 104.8 4.1 103.8 4.2 103.8 4.2 C 103.7 4.6 103.7 5.0 103.7 5.4 C 103.4 5.4 103.2 5.5 102.9 5.6 C 102.9 5.6 103.0 4.2 102.5 4.2 C 102.0 4.2 101.3 4.2 101.3 4.2 C 101.3 4.2 100.8 4.8 100.7 4.8 C 100.5 4.9 100.5 6.1 100.5 6.1 C 100.5 6.5 100.5 7.0 100.6 7.4 C 100.6 7.4 101.2 7.9 101.6 7.7 C 101.9 7.5 101.6 7.0 101.7 6.8 C 101.7 6.6 102.3 6.3 102.3 6.3 C 102.5 6.6 102.7 6.8 103.0 7.1 C 103.0 7.1 103.2 7.3 103.4 7.6 C 103.6 7.8 104.4 7.9 104.7 7.9 C 104.9 7.8 105.1 7.4 105.4 7.2 C 105.7 7.0 105.7 6.6 106.0 6.9 C 106.4 7.2 106.5 7.6 106.7 7.6 C 106.9 7.6 107.6 7.1 107.6 7.1 C 107.8 7.0 108.0 6.9 108.3 6.8 C 108.3 6.8 108.8 6.6 108.9 6.8 C 109.0 7.1 110.1 6.8 110.1 6.8 C 110.1 6.8 110.0 7.6 110.3 7.8 C 110.6 7.9 111.0 8.1 111.5 7.9 C 111.9 7.8 112.3 7.0 112.3 7.0 C 112.4 7.2 112.6 7.4 112.7 7.6 C 113.1 7.7 113.6 7.8 114.0 7.8 C 114.0 7.8 115.0 7.8 115.0 7.6 C 115.0 7.5 114.9 6.8 114.9 6.6 C 115.0 6.4 115.5 6.2 115.6 6.4 C 115.6 6.7 116.1 7.3 116.1 7.3 C 116.1 7.3 116.5 7.7 116.8 7.8 C 117.1 7.8 117.5 7.6 117.6 7.4 C 117.8 7.3 118.2 6.8 118.2 6.8 C 118.3 7.0 118.5 7.2 118.6 7.4 C 118.6 7.4 119.4 7.1 120.2 7.7 C 120.2 7.7 120.2 7.7 120.2 7.7 Z M 98.4 7.1 C 98.6 7.0 98.8 7.4 99.3 7.6 C 99.9 7.8 100.6 7.8 100.4 7.5 C 100.3 7.2 100.1 6.9 100.4 6.5 C 100.7 6.2 101.0 5.4 100.6 5.2 C 100.2 4.9 98.7 4.2 98.2 4.6 C 97.7 4.9 97.5 5.1 97.2 5.3 C 96.8 5.6 97.1 4.8 97.1 4.8 C 97.1 4.8 96.2 4.7 95.6 4.6 C 95.0 4.6 94.2 4.6 94.2 4.7 C 94.1 4.8 93.9 5.1 93.9 5.1 C 93.9 5.1 93.5 4.7 93.1 4.7 C 92.6 4.6 92.8 4.8 92.8 5.0 C 92.9 5.2 93.5 5.7 93.3 5.7 C 93.1 5.7 92.5 4.9 92.1 4.8 C 91.8 4.7 91.1 4.8 91.1 4.8 C 91.1 4.8 91.2 5.2 91.1 5.3 C 91.0 5.4 90.3 5.5 90.3 5.3 C 90.2 5.2 90.3 4.7 89.9 4.7 C 88.8 4.6 88.9 5.5 88.8 5.5 C 88.7 5.5 88.7 4.8 88.5 4.7 C 88.2 4.6 86.0 4.7 85.9 4.9 C 85.8 5.1 85.0 4.4 84.7 4.9 C 84.3 5.3 84.2 5.4 84.2 5.5 C 84.1 5.6 83.7 6.3 83.5 6.1 C 83.3 5.8 84.2 5.0 83.9 4.8 C 83.6 4.6 82.2 4.6 82.0 4.8 C 81.7 5.1 81.6 5.7 81.4 5.7 C 81.2 5.7 80.4 4.9 80.3 5.0 C 80.2 5.1 80.1 5.8 80.1 6.0 C 80.1 6.1 79.9 7.4 80.0 7.5 C 80.2 7.7 81.1 8.2 80.9 7.8 C 80.8 7.4 80.6 7.0 80.9 6.8 C 81.2 6.7 81.4 6.7 81.5 6.8 C 81.5 6.9 81.4 7.1 81.9 7.3 C 82.4 7.5 82.1 7.8 82.6 7.8 C 83.0 7.8 83.4 7.7 83.4 7.4 C 83.4 7.2 83.9 6.8 84.2 6.8 C 84.5 6.8 83.9 7.4 85.0 7.7 C 86.0 7.9 86.7 8.0 87.0 7.7 C 87.3 7.5 87.4 6.8 87.9 7.1 C 88.3 7.4 88.1 7.6 88.7 7.6 C 89.4 7.6 89.7 7.0 90.1 6.9 C 90.5 6.9 90.7 6.9 90.7 6.9 C 90.7 6.9 90.4 7.8 91.4 7.8 C 92.3 7.9 92.5 7.9 92.3 7.3 C 92.1 6.7 92.9 6.7 92.9 7.1 C 92.9 7.5 93.5 7.8 93.8 7.8 C 94.2 7.9 94.3 6.8 94.4 6.8 C 94.5 6.8 94.9 6.9 94.8 7.2 C 94.6 7.5 95.0 7.5 95.3 7.7 C 95.6 7.8 96.5 7.7 96.5 7.5 C 96.4 7.4 96.0 6.7 96.6 7.0 C 97.2 7.4 97.4 7.9 97.9 7.8 C 98.5 7.8 98.0 7.2 98.4 7.1 C 98.4 7.1 98.4 7.1 98.4 7.1 Z M 79.7 7.9 C 80.7 7.8 80.0 5.2 79.6 4.6 C 79.2 4.1 78.6 4.4 77.9 4.3 C 77.2 4.2 77.4 5.1 77.0 5.3 C 76.6 5.6 76.8 5.0 76.6 4.6 C 76.4 4.2 75.4 4.6 74.7 4.5 C 74.1 4.5 73.5 5.4 72.9 5.4 C 72.4 5.5 73.4 5.9 72.5 5.9 C 71.6 5.8 72.0 5.3 73.1 5.0 C 74.1 4.8 72.7 4.5 72.1 4.4 C 71.5 4.3 70.5 4.7 70.1 4.7 C 69.6 4.6 70.2 5.3 69.5 5.3 C 68.9 5.3 69.2 4.6 68.6 4.5 C 67.9 4.4 68.0 5.0 67.6 5.2 C 67.3 5.3 67.4 4.9 67.1 4.9 C 66.8 4.8 66.3 4.6 65.7 4.8 C 65.1 4.9 65.3 5.1 65.0 5.2 C 64.7 5.2 64.2 5.2 64.2 5.2 C 64.1 5.0 64.1 4.8 64.1 4.5 C 64.1 4.5 62.9 4.5 62.6 4.4 C 62.2 4.4 61.5 4.7 61.7 4.8 C 61.9 5.0 61.1 5.4 60.9 5.3 C 60.8 5.2 60.2 4.9 59.8 4.7 C 59.4 4.6 59.5 6.3 59.5 6.5 C 59.5 6.8 59.3 7.7 59.6 7.8 C 60.0 7.9 60.3 7.6 60.2 7.8 C 60.1 8.1 61.2 7.8 61.4 7.8 C 61.7 7.8 62.1 7.2 62.1 7.2 C 62.1 7.2 62.4 6.6 62.8 6.6 C 63.3 6.6 63.4 7.7 63.4 7.7 C 63.4 7.7 64.0 7.9 64.6 7.9 C 65.1 7.8 65.8 6.9 65.9 6.7 C 66.0 6.5 66.0 7.4 66.4 7.5 C 66.8 7.6 67.4 7.8 67.5 7.8 C 67.7 7.7 68.0 7.2 68.0 7.2 C 68.0 7.2 68.7 6.8 68.9 6.8 C 69.1 6.8 68.8 7.6 68.8 7.6 C 68.8 7.6 70.3 7.9 70.6 7.9 C 71.0 8.0 71.5 7.8 71.7 7.7 C 71.9 7.7 72.3 6.7 72.6 6.8 C 72.9 6.9 72.3 7.4 72.6 7.5 C 72.9 7.6 73.6 7.8 73.7 7.8 C 73.9 7.8 74.1 7.5 74.4 7.4 C 74.7 7.4 75.1 6.6 75.6 6.6 C 76.0 6.6 76.2 7.1 76.4 7.2 C 76.6 7.3 76.7 7.9 77.0 7.9 C 77.4 8.0 77.1 7.5 77.5 7.5 C 77.8 7.5 77.8 7.0 78.2 7.1 C 78.5 7.2 78.3 8.0 78.7 7.9 C 78.8 7.9 78.7 7.9 79.7 7.9 C 79.7 7.9 79.7 7.9 79.7 7.9 Z M 57.4 7.1 C 57.6 7.0 57.8 7.4 58.4 7.6 C 59.0 7.8 59.6 7.8 59.5 7.5 C 59.4 7.2 59.2 6.9 59.5 6.5 C 59.8 6.2 60.1 5.4 59.7 5.2 C 59.3 4.9 57.8 4.2 57.3 4.6 C 56.8 4.9 56.6 5.1 56.2 5.3 C 55.9 5.6 56.1 4.8 56.1 4.8 C 56.1 4.8 55.3 4.7 54.7 4.6 C 54.0 4.6 53.3 4.6 53.2 4.7 C 53.2 4.8 52.9 5.1 52.9 5.1 C 52.9 5.1 52.6 4.7 52.1 4.7 C 51.7 4.6 51.8 4.8 51.9 5.0 C 52.0 5.2 52.5 5.7 52.3 5.7 C 52.1 5.7 51.5 4.9 51.2 4.8 C 50.9 4.7 50.2 4.8 50.2 4.8 C 50.2 4.8 50.2 5.2 50.2 5.3 C 50.1 5.4 49.4 5.5 49.3 5.3 C 49.3 5.2 49.4 4.7 49.0 4.7 C 47.9 4.6 48.0 5.5 47.9 5.5 C 47.8 5.5 47.8 4.8 47.5 4.7 C 47.3 4.6 45.0 4.7 44.9 4.9 C 44.8 5.1 44.1 4.4 43.7 4.9 C 43.4 5.3 43.3 5.4 43.3 5.5 C 43.2 5.6 42.8 6.3 42.5 6.1 C 42.4 5.8 43.2 5.0 43.0 4.8 C 42.7 4.6 41.3 4.6 41.1 4.8 C 40.7 5.1 40.6 5.7 40.4 5.7 C 40.2 5.7 39.4 4.9 39.4 5.0 C 39.3 5.1 39.2 5.8 39.2 6.0 C 39.2 6.1 38.9 7.4 39.1 7.5 C 39.3 7.7 40.1 8.2 40.0 7.8 C 39.9 7.4 39.7 7.0 40.0 6.8 C 40.3 6.7 40.5 6.7 40.5 6.8 C 40.6 6.9 40.4 7.1 40.9 7.3 C 41.4 7.5 41.2 7.8 41.6 7.8 C 42.1 7.8 42.5 7.7 42.5 7.4 C 42.4 7.2 42.9 6.8 43.2 6.8 C 43.6 6.8 43.0 7.4 44.1 7.7 C 45.1 7.9 45.8 8.0 46.1 7.7 C 46.4 7.5 46.4 6.8 46.9 7.1 C 47.4 7.4 47.1 7.6 47.8 7.6 C 48.5 7.6 48.7 7.0 49.2 6.9 C 49.6 6.9 49.7 6.9 49.7 6.9 C 49.7 6.9 49.5 7.8 50.4 7.8 C 51.4 7.9 51.6 7.9 51.4 7.3 C 51.2 6.7 51.9 6.7 52.0 7.1 C 52.0 7.5 52.6 7.8 52.9 7.8 C 53.2 7.9 53.3 6.8 53.5 6.8 C 53.6 6.8 54.0 6.9 53.8 7.2 C 53.7 7.5 54.1 7.5 54.4 7.7 C 54.7 7.8 55.5 7.7 55.5 7.5 C 55.5 7.4 55.1 6.7 55.7 7.0 C 56.3 7.4 56.4 7.9 57.0 7.8 C 57.6 7.8 57.1 7.2 57.4 7.1 C 57.4 7.1 57.4 7.1 57.4 7.1 Z M 38.3 7.7 C 38.8 8.1 39.2 7.6 39.2 7.3 C 39.1 6.9 38.9 5.9 39.1 5.6 C 39.3 5.4 39.9 4.7 39.0 4.5 C 38.1 4.4 38.0 4.7 38.0 4.9 C 38.0 5.1 37.8 6.1 37.6 6.1 C 37.3 6.0 37.1 5.7 37.0 5.5 C 37.0 5.4 36.7 4.4 36.2 4.6 C 35.8 4.7 35.4 5.0 35.4 5.0 C 35.2 5.0 35.0 5.0 34.8 5.0 C 34.8 5.0 34.2 4.4 33.8 4.6 C 33.3 4.7 32.8 4.7 32.4 4.7 C 32.1 4.6 31.7 4.7 31.7 4.9 C 31.6 5.2 31.2 6.0 31.2 6.0 C 31.2 6.0 30.7 6.2 30.4 6.1 C 30.2 6.0 30.1 5.5 30.2 5.3 C 30.2 5.1 30.2 4.7 29.8 4.6 C 29.5 4.5 28.0 4.0 27.8 4.3 C 27.5 4.6 27.6 4.9 27.4 5.0 C 27.3 5.1 26.3 5.2 26.2 4.9 C 26.1 4.7 26.2 4.2 25.9 4.3 C 25.6 4.3 25.0 4.2 25.0 4.3 C 25.0 4.4 24.8 4.6 24.8 4.9 C 24.8 5.1 24.2 5.4 24.1 5.5 C 24.0 5.6 23.5 5.7 23.5 5.7 C 23.3 5.5 23.1 5.4 22.9 5.2 C 22.9 5.2 23.3 4.7 23.4 4.6 C 23.6 4.5 23.3 4.2 23.2 4.2 C 23.0 4.1 21.9 4.2 21.9 4.2 C 21.9 4.6 21.9 5.0 21.8 5.4 C 21.6 5.4 21.3 5.5 21.0 5.6 C 21.0 5.6 21.1 4.2 20.6 4.2 C 20.1 4.2 19.5 4.2 19.5 4.2 C 19.5 4.2 18.9 4.8 18.8 4.8 C 18.6 4.9 18.6 6.1 18.6 6.1 C 18.6 6.5 18.7 7.0 18.7 7.4 C 18.7 7.4 19.4 7.9 19.7 7.7 C 20.0 7.5 19.8 7.0 19.8 6.8 C 19.9 6.6 20.4 6.3 20.4 6.3 C 20.6 6.6 20.9 6.8 21.1 7.1 C 21.1 7.1 21.3 7.3 21.5 7.6 C 21.8 7.8 22.6 7.9 22.8 7.9 C 23.0 7.8 23.3 7.4 23.6 7.2 C 23.9 7.0 23.8 6.6 24.1 6.9 C 24.5 7.2 24.7 7.6 24.8 7.6 C 25.0 7.6 25.8 7.1 25.8 7.1 C 26.0 7.0 26.2 6.9 26.4 6.8 C 26.4 6.8 26.9 6.6 27.0 6.8 C 27.1 7.1 28.2 6.8 28.2 6.8 C 28.2 6.8 28.1 7.6 28.4 7.8 C 28.7 7.9 29.2 8.1 29.6 7.9 C 30.1 7.8 30.4 7.0 30.4 7.0 C 30.6 7.2 30.7 7.4 30.9 7.6 C 31.3 7.7 31.7 7.8 32.1 7.8 C 32.1 7.8 33.1 7.8 33.1 7.6 C 33.1 7.5 33.0 6.8 33.1 6.6 C 33.1 6.4 33.6 6.2 33.7 6.4 C 33.8 6.7 34.2 7.3 34.2 7.3 C 34.2 7.3 34.6 7.7 34.9 7.8 C 35.2 7.8 35.7 7.6 35.8 7.4 C 35.9 7.3 36.4 6.8 36.4 6.8 C 36.5 7.0 36.6 7.2 36.7 7.4 C 36.7 7.4 37.5 7.1 38.3 7.7 C 38.3 7.7 38.3 7.7 38.3 7.7 Z M 18.4 7.9 C 19.3 7.8 18.6 5.2 18.1 4.7 C 17.6 4.1 16.9 4.6 16.1 4.6 C 15.3 4.7 15.7 5.5 15.4 5.8 C 15.0 6.1 15.0 5.6 14.7 5.3 C 14.4 5.0 13.5 5.7 12.8 5.9 C 12.2 6.2 12.0 7.3 11.6 7.6 C 11.2 8.0 12.2 7.8 11.4 8.2 C 10.6 8.7 10.7 8.1 11.5 7.2 C 12.2 6.4 10.8 7.0 10.2 7.3 C 9.7 7.6 9.1 8.6 8.8 8.9 C 8.4 9.2 9.3 9.3 8.8 9.8 C 8.3 10.3 8.0 9.5 7.5 10.0 C 7.0 10.5 7.5 10.9 7.5 11.2 C 7.4 11.6 7.1 11.3 6.9 11.6 C 6.7 11.8 6.3 12.1 6.1 12.8 C 5.9 13.5 6.2 13.4 6.1 13.7 C 6.0 14.0 5.8 14.5 5.8 14.5 C 5.6 14.4 5.4 14.4 5.2 14.4 C 5.2 14.4 4.7 15.6 4.6 15.9 C 4.5 16.3 4.6 17.2 4.8 17.0 C 5.0 16.8 5.3 17.7 5.2 17.9 C 5.1 18.1 4.7 18.7 4.5 19.1 C 4.4 19.6 6.1 19.4 6.3 19.4 C 6.6 19.4 7.5 19.7 7.6 19.3 C 7.7 19.0 7.4 18.7 7.6 18.8 C 7.8 18.9 7.7 17.9 7.7 17.7 C 7.7 17.4 7.2 17.0 7.2 17.0 C 7.2 17.0 6.7 16.6 6.8 16.2 C 6.9 15.8 8.0 15.9 8.0 15.9 C 8.0 15.9 8.3 15.5 8.4 15.1 C 8.6 14.6 8.0 13.7 7.9 13.5 C 7.8 13.3 8.5 13.7 8.8 13.5 C 9.0 13.2 9.5 12.9 9.5 12.8 C 9.6 12.6 9.3 12.1 9.3 12.1 C 9.3 12.1 9.4 11.4 9.5 11.3 C 9.6 11.1 10.1 11.9 10.1 11.9 C 10.1 11.9 11.1 11.0 11.4 10.9 C 11.6 10.8 11.8 10.3 11.9 10.2 C 12.1 10.0 11.7 9.0 12.0 8.9 C 12.3 8.9 12.1 9.6 12.4 9.6 C 12.7 9.5 13.3 9.4 13.4 9.3 C 13.5 9.2 13.6 8.8 13.8 8.7 C 14.0 8.5 14.0 7.7 14.4 7.5 C 14.8 7.4 15.1 7.7 15.3 7.8 C 15.5 7.8 15.8 8.4 16.1 8.3 C 16.4 8.3 16.1 7.9 16.4 7.8 C 16.7 7.8 16.6 7.3 16.9 7.3 C 17.2 7.4 17.2 8.2 17.5 8.0 C 17.6 7.9 17.5 8.0 18.4 7.9 C 18.4 7.9 18.4 7.9 18.4 7.9 Z M 18.4 7.9 " fill="#794525"></path></g></svg>