<?xml version="1.0" encoding="UTF-8" standalone="no"?><svg xmlns="http://www.w3.org/2000/svg" xmlns:xlink="http://www.w3.org/1999/xlink" clip-rule="evenodd" stroke-miterlimit="10" viewBox="0 0 245 113"><desc>SVG generated by Keynote</desc><defs></defs><g transform="matrix(1.00, 0.00, -0.00, -1.00, 0.0, 113.0)"><path d="M 15.5 95.4 C 15.3 95.7 14.7 95.7 14.6 95.9 M 15.5 95.4 C 14.6 94.8 13.6 95.1 12.1 95.5 C 10.6 96.0 12.5 96.3 12.4 96.7 C 10.6 97.7 10.4 97.1 10.3 96.1 C 9.8 97.0 7.2 96.7 8.1 97.7 C 11.2 96.5 6.0 98.8 8.9 98.5 C 9.2 98.6 8.6 99.2 8.3 99.3 C 9.3 99.4 8.0 100.5 9.6 100.4 C 10.0 101.0 9.7 100.8 10.8 101.0 C 11.2 101.0 10.9 100.8 10.8 100.6 C 10.6 99.7 12.1 100.7 12.6 99.9 C 13.7 100.8 13.9 99.2 13.1 98.9 C 13.8 98.8 15.0 99.7 15.4 98.6 C 16.0 99.0 17.6 98.0 16.3 97.7 C 15.4 97.6 16.1 96.9 16.1 96.6 C 15.8 96.4 14.8 97.2 14.6 97.1 C 14.8 96.8 16.1 95.8 14.6 96.4 C 14.9 95.9 14.1 95.9 15.5 95.4 C 15.5 95.4 15.5 95.4 15.5 95.4 Z M 10.0 96.8 C 9.8 96.5 10.5 96.6 10.0 96.8 C 10.0 96.8 10.0 96.8 10.0 96.8 Z M 15.1 99.4 C 14.9 99.1 15.6 99.2 15.1 99.4 C 15.1 99.4 15.1 99.4 15.1 99.4 Z M 11.1 100.6 C 11.0 100.3 11.6 100.4 11.1 100.6 C 11.1 100.6 11.1 100.6 11.1 100.6 Z M 11.4 96.5 C 12.3 96.4 10.9 97.2 10.7 96.9 C 10.8 96.9 11.1 96.3 11.4 96.5 C 11.4 96.5 11.4 96.5 11.4 96.5 Z M 12.2 98.1 C 12.2 98.0 12.5 97.8 12.6 98.2 C 12.4 98.3 12.2 98.3 12.2 98.1 C 12.2 98.1 12.2 98.1 12.2 98.1 Z M 7.6 98.5 C 7.6 98.4 7.9 98.2 8.0 98.5 C 7.8 98.7 7.6 98.6 7.6 98.5 C 7.6 98.5 7.6 98.5 7.6 98.5 Z M 12.7 96.9 C 12.9 96.9 13.1 97.1 12.8 97.2 C 12.7 97.2 12.1 97.3 12.7 96.9 C 12.7 96.9 12.7 96.9 12.7 96.9 Z M 13.6 95.4 C 14.3 95.3 13.1 96.3 13.1 96.1 C 12.8 96.0 13.1 95.3 13.6 95.4 C 13.6 95.4 13.6 95.4 13.6 95.4 Z M 13.2 97.2 C 13.8 97.1 13.1 97.5 13.2 97.2 C 13.2 97.2 13.2 97.2 13.2 97.2 Z M 9.0 100.5 C 9.6 100.4 8.8 100.8 9.0 100.5 C 9.0 100.5 9.0 100.5 9.0 100.5 Z M 12.4 100.2 C 13.0 100.2 12.2 100.5 12.4 100.2 C 12.4 100.2 12.4 100.2 12.4 100.2 Z M 10.1 97.6 C 9.1 98.0 9.7 96.9 10.1 97.6 C 10.1 97.6 10.1 97.6 10.1 97.6 Z M 15.2 94.7 C 14.2 95.1 14.8 94.0 15.2 94.7 C 15.2 94.7 15.2 94.7 15.2 94.7 Z M 220.5 17.7 C 221.4 17.2 217.4 17.6 219.2 18.2 C 220.0 19.1 217.5 19.9 217.8 18.8 C 217.0 18.9 217.0 18.9 216.8 19.5 C 216.4 18.8 214.6 19.1 214.1 19.7 C 214.0 20.4 215.3 19.3 214.6 20.4 C 212.5 21.3 214.9 21.0 214.4 22.1 C 214.4 22.1 214.2 21.7 214.1 22.0 C 214.3 22.8 215.7 22.8 215.3 23.6 C 215.6 23.4 217.4 23.6 216.6 23.2 C 216.1 22.6 218.6 23.4 218.0 22.3 C 218.7 22.6 218.9 21.7 219.7 22.2 C 220.1 22.2 219.9 21.6 219.8 21.4 C 219.5 20.9 220.7 22.5 220.9 21.3 C 221.1 21.6 222.7 20.8 221.3 20.9 C 221.7 20.8 223.8 20.3 222.3 19.7 C 220.8 19.7 223.3 18.1 221.7 18.6 C 220.4 19.0 220.3 19.3 221.0 18.4 C 221.3 18.4 222.7 17.7 221.3 17.7 C 221.1 17.9 220.5 18.1 220.5 17.7 C 220.5 17.7 220.5 17.7 220.5 17.7 Z M 221.3 19.1 C 220.7 19.5 221.1 18.8 221.3 19.1 C 221.3 19.1 221.3 19.1 221.3 19.1 Z M 219.7 22.5 C 219.0 22.8 219.4 22.1 219.7 22.5 C 219.7 22.5 219.7 22.5 219.7 22.5 Z M 218.2 18.3 C 218.0 18.8 217.5 17.7 218.2 18.3 C 218.2 18.3 218.2 18.3 218.2 18.3 Z M 220.5 21.1 C 220.5 21.2 220.6 21.0 220.7 20.8 C 220.7 20.9 220.6 21.1 220.5 21.1 C 220.5 21.1 220.5 21.1 220.5 21.1 Z M 217.0 18.8 C 216.1 19.7 216.5 18.0 217.0 18.8 C 217.0 18.8 217.0 18.8 217.0 18.8 Z M 215.2 20.6 C 215.5 21.7 214.0 20.8 215.2 20.6 C 215.2 20.6 215.2 20.6 215.2 20.6 Z M 217.6 22.4 C 217.7 22.1 217.8 22.4 217.6 22.4 C 217.6 22.4 217.6 22.4 217.6 22.4 Z M 222.3 20.8 C 222.4 20.5 222.5 20.8 222.3 20.8 C 222.3 20.8 222.3 20.8 222.3 20.8 Z M 216.2 22.8 C 216.2 22.3 216.7 22.8 216.2 22.8 C 216.2 22.8 216.2 22.8 216.2 22.8 Z M 218.2 18.8 C 218.8 17.6 219.8 19.6 218.2 18.8 C 218.2 18.8 218.2 18.8 218.2 18.8 Z M 219.9 18.1 C 220.5 17.6 220.0 18.6 219.6 18.6 C 219.6 18.5 219.8 18.2 219.9 18.1 C 219.9 18.1 219.9 18.1 219.9 18.1 Z M 217.2 19.3 C 217.7 18.6 217.9 19.3 217.2 19.3 C 217.2 19.3 217.2 19.3 217.2 19.3 Z M 218.7 18.2 C 219.1 18.2 218.5 18.4 218.7 18.2 C 218.7 18.2 218.7 18.2 218.7 18.2 Z M 215.5 18.9 C 215.9 18.9 215.3 19.1 215.5 18.9 C 215.5 18.9 215.5 18.9 215.5 18.9 Z M 220.5 17.3 C 220.9 17.3 220.3 17.5 220.5 17.3 C 220.5 17.3 220.5 17.3 220.5 17.3 Z M 216.0 19.4 C 216.1 19.8 217.3 20.3 215.4 20.2 C 215.0 20.0 215.5 19.2 216.0 19.4 C 216.0 19.4 216.0 19.4 216.0 19.4 Z M 18.7 94.3 C 13.7 94.8 15.6 96.5 15.5 96.9 C 15.1 97.7 15.9 97.9 16.9 97.9 C 18.4 98.9 17.8 96.0 19.0 97.1 C 20.9 98.4 19.8 95.0 21.0 96.7 C 21.0 97.3 22.6 96.2 22.4 96.1 C 23.6 96.7 24.3 94.6 24.2 94.5 C 24.9 94.5 25.6 96.1 27.0 94.2 C 28.2 93.2 29.4 94.7 28.6 93.7 C 30.1 94.6 29.2 93.0 30.4 93.1 C 31.3 93.5 30.0 92.0 31.8 92.8 C 31.9 91.6 31.4 93.8 34.6 91.7 C 32.9 92.2 35.9 90.2 35.5 91.2 C 34.7 92.4 37.1 90.3 38.8 90.2 C 39.1 89.6 40.6 87.9 40.7 89.1 C 42.8 89.7 42.1 87.7 43.2 88.5 C 43.9 88.7 43.7 87.7 44.1 87.6 C 45.0 88.2 45.3 87.5 47.4 86.9 C 52.0 85.6 47.4 84.7 49.0 83.8 C 49.1 83.4 45.7 81.8 47.4 83.3 C 46.9 82.9 44.0 86.2 45.0 83.5 C 43.9 84.8 45.0 82.5 42.6 84.6 C 46.9 84.6 38.5 86.8 41.9 84.7 C 41.1 84.5 39.6 85.1 40.8 85.1 C 41.7 86.2 38.0 85.5 40.1 86.5 C 37.6 86.9 38.8 88.1 37.7 87.4 C 36.5 85.9 38.0 87.8 36.6 87.7 C 33.9 88.8 35.3 86.0 34.1 87.9 C 31.1 88.1 33.8 88.9 32.9 89.5 C 33.1 90.7 29.8 89.6 31.8 88.6 C 31.0 89.7 31.4 88.1 30.5 89.4 C 31.8 90.1 28.4 88.8 29.1 89.5 C 28.1 90.2 28.9 90.7 28.6 90.8 C 27.0 91.5 27.1 90.2 27.0 91.1 C 26.8 91.7 25.5 90.6 25.4 91.0 C 27.2 90.4 24.5 92.7 24.1 92.2 C 25.1 91.7 23.0 90.9 22.7 92.0 C 24.4 94.2 21.0 92.0 20.5 93.1 C 21.7 94.2 16.9 94.7 18.3 93.4 C 18.3 93.6 18.7 94.3 18.7 94.3 M 25.0 91.4 C 26.4 91.0 23.6 92.2 25.0 91.4 M 24.8 91.1 C 25.6 91.3 23.4 91.2 24.8 90.9 C 24.9 90.9 24.7 91.1 24.8 91.1 M 30.6 88.8 C 30.5 89.3 29.7 88.9 30.6 88.8 M 32.0 89.3 C 33.0 89.3 30.8 89.8 32.0 89.3 M 44.6 84.2 C 44.1 86.7 42.8 83.6 44.6 84.2 M 36.0 87.0 C 34.6 87.8 36.3 85.9 36.0 87.0 M 35.8 87.6 C 35.2 88.2 35.4 87.2 35.8 87.6 M 42.2 85.1 C 42.3 85.1 42.3 85.1 42.2 85.1 C 42.2 85.1 42.2 85.1 42.2 85.1 Z M 46.0 83.7 C 46.0 83.7 46.0 83.7 46.0 83.7 C 46.0 83.7 46.0 83.7 46.0 83.7 Z M 38.6 86.7 C 37.3 86.7 40.4 85.8 38.6 86.7 C 38.6 86.7 38.6 86.7 38.6 86.7 Z M 45.3 87.5 C 45.3 87.5 45.3 87.5 45.3 87.5 C 45.3 87.5 45.3 87.5 45.3 87.5 Z M 24.3 92.7 C 24.2 92.8 24.2 92.8 24.3 92.7 C 24.3 92.7 24.3 92.7 24.3 92.7 Z M 19.7 93.6 C 19.8 93.8 18.8 93.7 19.7 93.6 C 19.7 93.6 19.7 93.6 19.7 93.6 Z M 17.1 97.2 C 17.0 97.2 17.0 97.2 17.1 97.2 C 17.1 97.2 17.1 97.2 17.1 97.2 Z M 23.2 94.3 C 23.2 94.4 23.2 94.4 23.2 94.3 C 23.2 94.3 23.2 94.3 23.2 94.3 Z M 23.3 92.6 C 22.2 91.8 25.0 92.3 23.3 92.6 C 23.3 92.6 23.3 92.6 23.3 92.6 Z M 38.2 90.0 C 38.1 89.5 39.3 89.8 38.2 90.0 C 38.2 90.0 38.2 90.0 38.2 90.0 Z M 32.3 89.6 C 32.4 89.3 33.0 89.5 32.3 89.6 C 32.3 89.6 32.3 89.6 32.3 89.6 Z M 29.4 89.0 C 29.5 88.7 30.1 88.9 29.4 89.0 C 29.4 89.0 29.4 89.0 29.4 89.0 Z M 19.6 93.2 C 19.7 93.1 19.7 93.1 19.6 93.2 C 19.6 93.2 19.6 93.2 19.6 93.2 Z M 21.5 93.5 C 20.0 92.9 23.3 93.4 21.5 93.5 C 21.5 93.5 21.5 93.5 21.5 93.5 Z M 19.8 94.5 C 20.5 94.7 18.3 94.8 19.8 94.5 M 21.4 95.7 C 22.6 94.8 20.9 98.0 21.4 95.7 C 21.4 95.7 21.4 95.7 21.4 95.7 Z M 28.2 93.6 C 28.3 93.6 28.3 93.6 28.2 93.6 C 28.2 93.6 28.2 93.6 28.2 93.6 Z M 26.4 90.8 C 27.5 90.4 25.7 91.4 26.4 90.8 C 26.4 90.8 26.4 90.8 26.4 90.8 Z M 16.3 94.4 C 17.5 94.0 15.7 94.9 16.3 94.4 C 16.3 94.4 16.3 94.4 16.3 94.4 Z M 31.7 91.1 C 33.5 90.3 30.7 92.1 31.7 91.1 C 31.7 91.1 31.7 91.1 31.7 91.1 Z M 38.1 87.3 C 38.2 87.4 38.2 87.4 38.1 87.3 C 38.1 87.3 38.1 87.3 38.1 87.3 Z M 39.2 86.4 C 39.3 86.4 39.3 86.4 39.2 86.4 C 39.2 86.4 39.2 86.4 39.2 86.4 Z M 45.0 85.5 C 45.1 85.5 45.1 85.5 45.0 85.5 C 45.0 85.5 45.0 85.5 45.0 85.5 Z M 40.2 85.5 C 40.3 85.5 40.3 85.5 40.2 85.5 C 40.2 85.5 40.2 85.5 40.2 85.5 Z M 44.0 84.4 C 44.1 84.4 44.1 84.4 44.0 84.4 C 44.0 84.4 44.0 84.4 44.0 84.4 Z M 43.2 83.7 C 43.2 83.7 43.2 83.7 43.2 83.7 C 43.2 83.7 43.2 83.7 43.2 83.7 Z M 36.6 91.3 C 36.7 91.3 36.7 91.3 36.6 91.3 C 36.6 91.3 36.6 91.3 36.6 91.3 Z M 21.5 92.1 C 21.7 92.2 21.7 92.2 21.5 92.1 C 21.5 92.1 21.5 92.1 21.5 92.1 Z M 43.9 84.9 C 43.9 84.9 43.9 84.9 43.9 84.9 C 43.9 84.9 43.9 84.9 43.9 84.9 Z M 35.1 89.1 C 35.5 90.0 33.9 88.2 35.3 89.0 C 35.3 89.0 35.0 89.0 35.1 89.1 M 36.9 90.1 C 36.9 90.2 36.9 90.2 36.9 90.1 C 36.9 90.1 36.9 90.1 36.9 90.1 Z M 33.0 92.2 C 33.0 92.3 33.0 92.3 33.0 92.2 C 33.0 92.2 33.0 92.2 33.0 92.2 Z M 39.5 85.6 C 39.1 85.1 40.6 85.6 39.3 85.7 M 45.6 87.0 C 45.2 86.6 46.8 87.0 45.5 87.1 M 15.1 95.2 C 15.1 95.6 14.3 95.3 15.1 95.2 M 32.3 93.0 C 32.3 93.5 31.4 93.1 32.3 93.0 M 33.8 91.2 C 33.4 90.7 34.9 91.2 33.6 91.3 M 42.8 88.0 C 42.8 88.0 42.8 88.0 42.8 88.0 C 42.8 88.0 42.8 88.0 42.8 88.0 Z M 28.1 90.3 C 28.2 90.3 28.2 90.3 28.1 90.3 C 28.1 90.3 28.1 90.3 28.1 90.3 Z M 33.5 89.4 C 32.6 89.0 34.6 89.5 33.5 89.4 M 27.1 92.0 C 25.8 91.5 28.8 91.7 27.1 92.0 M 47.8 86.4 C 46.3 85.8 48.8 86.7 47.8 86.4 M 41.3 86.0 C 39.9 85.4 42.4 86.2 41.3 86.0 M 29.3 90.3 C 29.1 89.8 30.5 90.2 29.3 90.3 M 17.7 94.1 C 16.6 94.4 18.9 93.2 17.7 94.1 M 40.1 89.1 C 40.1 89.1 40.1 89.1 40.1 89.1 C 40.1 89.1 40.1 89.1 40.1 89.1 Z M 22.6 96.7 C 22.7 96.7 22.7 96.7 22.6 96.7 C 22.6 96.7 22.6 96.7 22.6 96.7 Z M 48.0 82.6 C 48.0 82.6 48.0 82.6 48.0 82.6 C 48.0 82.6 48.0 82.6 48.0 82.6 Z M 40.8 86.7 C 40.9 86.7 40.9 86.7 40.8 86.7 C 40.8 86.7 40.8 86.7 40.8 86.7 Z M 45.8 83.2 C 45.9 83.3 45.9 83.3 45.8 83.2 C 45.8 83.2 45.8 83.2 45.8 83.2 Z M 37.7 88.8 C 37.7 88.8 37.7 88.8 37.7 88.8 C 37.7 88.8 37.7 88.8 37.7 88.8 Z M 36.0 86.5 C 36.0 86.5 36.0 86.5 36.0 86.5 C 36.0 86.5 36.0 86.5 36.0 86.5 Z M 32.6 89.0 C 32.7 89.0 32.7 89.0 32.6 89.0 C 32.6 89.0 32.6 89.0 32.6 89.0 Z M 37.8 86.0 C 40.0 85.0 37.0 87.3 37.8 86.0 C 37.8 86.0 37.8 86.0 37.8 86.0 Z M 34.9 90.1 C 34.9 90.1 34.9 90.1 34.9 90.1 C 34.9 90.1 34.9 90.1 34.9 90.1 Z M 33.9 88.4 C 35.0 87.1 35.1 89.3 33.9 88.4 M 27.3 90.1 C 27.6 89.6 27.8 90.7 27.3 90.1 M 26.1 94.4 C 26.1 94.5 26.1 94.5 26.1 94.4 C 26.1 94.4 26.1 94.4 26.1 94.4 Z M 26.7 93.9 C 26.7 93.9 26.7 93.9 26.7 93.9 C 26.7 93.9 26.7 93.9 26.7 93.9 Z M 25.7 90.6 C 25.8 90.6 25.8 90.6 25.7 90.6 C 25.7 90.6 25.7 90.6 25.7 90.6 Z M 27.1 94.9 C 27.2 94.9 27.2 94.9 27.1 94.9 C 27.1 94.9 27.1 94.9 27.1 94.9 Z M 35.2 86.9 C 35.2 86.9 35.2 86.9 35.2 86.9 C 35.2 86.9 35.2 86.9 35.2 86.9 Z M 46.8 82.5 C 46.8 82.5 46.8 82.5 46.8 82.5 C 46.8 82.5 46.8 82.5 46.8 82.5 Z M 19.0 96.7 C 19.1 96.7 19.1 96.7 19.0 96.7 C 19.0 96.7 19.0 96.7 19.0 96.7 Z M 36.8 87.4 C 36.8 87.4 36.8 87.4 36.8 87.4 C 36.8 87.4 36.8 87.4 36.8 87.4 Z M 24.4 94.9 C 24.4 94.9 24.4 94.9 24.4 94.9 C 24.4 94.9 24.4 94.9 24.4 94.9 Z M 35.9 87.5 C 36.0 87.5 36.0 87.5 35.9 87.5 C 35.9 87.5 35.9 87.5 35.9 87.5 Z M 39.8 89.4 C 39.8 89.4 39.8 89.4 39.8 89.4 C 39.8 89.4 39.8 89.4 39.8 89.4 Z M 42.5 89.1 C 42.5 89.1 42.5 89.1 42.5 89.1 C 42.5 89.1 42.5 89.1 42.5 89.1 Z M 38.9 87.7 C 39.0 87.7 39.0 87.7 38.9 87.7 C 38.9 87.7 38.9 87.7 38.9 87.7 Z M 23.2 94.1 C 18.3 95.0 26.6 92.4 23.2 94.1 M 39.8 87.6 C 36.5 88.6 42.0 85.7 39.8 87.6 C 40.0 87.2 39.8 87.6 39.8 87.6 M 48.9 81.7 C 48.0 83.2 48.3 84.1 49.3 84.8 C 50.1 85.1 49.4 83.2 50.0 84.8 C 48.6 85.7 51.6 86.9 50.7 84.9 C 52.6 83.9 51.6 86.1 52.4 84.8 C 54.5 83.8 53.6 84.9 55.2 84.1 C 55.7 82.6 56.3 84.3 56.3 83.1 C 56.0 84.6 58.0 82.1 58.2 82.6 C 57.0 83.9 63.8 80.5 59.8 81.6 C 61.2 80.5 61.3 81.6 61.9 81.5 C 62.3 80.6 64.7 81.1 65.4 80.0 C 65.1 80.0 64.6 80.1 64.4 79.9 C 63.9 79.6 65.5 79.6 65.4 79.6 C 65.9 79.1 68.2 77.5 65.9 79.7 C 66.0 80.3 68.0 78.6 68.2 79.2 C 70.5 78.3 68.3 77.8 69.7 78.3 C 71.4 77.7 72.6 77.2 72.5 77.1 C 73.6 76.8 74.0 77.4 74.7 76.4 C 77.2 76.9 75.3 73.5 77.0 75.6 C 77.3 74.8 78.5 76.2 77.9 74.7 C 77.4 75.7 81.8 74.6 79.6 74.2 C 79.9 73.6 83.3 74.5 82.3 73.1 C 82.9 71.7 82.3 70.6 79.8 70.4 C 80.4 71.1 77.3 70.3 79.4 71.2 C 81.4 71.0 76.3 72.9 77.2 72.0 C 76.8 70.1 75.2 74.0 73.7 73.2 C 74.8 73.5 70.8 75.4 71.5 73.7 C 70.7 73.8 70.8 74.5 69.7 74.1 C 72.2 73.3 69.2 75.8 69.1 74.9 C 69.3 74.3 65.5 75.3 66.2 75.9 C 68.1 77.2 65.1 75.9 64.7 76.8 C 62.9 78.0 64.5 75.1 63.5 77.0 C 63.0 77.0 60.3 78.0 61.8 77.0 C 62.5 76.9 61.0 79.6 60.1 78.1 C 62.7 76.2 56.7 78.9 57.8 79.0 C 62.5 78.2 53.5 81.7 56.6 79.6 C 54.3 79.4 57.1 79.0 54.8 80.3 C 55.3 80.6 53.6 81.8 53.7 80.7 C 52.7 79.4 53.7 82.9 51.5 81.5 C 50.9 80.7 48.8 83.2 49.5 81.8 C 49.5 81.7 49.0 81.7 48.9 81.7 M 49.9 81.6 C 49.7 82.0 49.2 81.4 49.9 81.6 M 49.7 82.0 C 49.6 82.0 49.6 82.0 49.7 82.0 C 49.7 82.0 49.7 82.0 49.7 82.0 Z M 54.4 80.5 C 54.4 80.4 54.4 80.4 54.4 80.5 C 54.4 80.5 54.4 80.5 54.4 80.5 Z M 59.6 82.8 C 59.5 82.7 59.5 82.7 59.6 82.8 C 59.6 82.8 59.6 82.8 59.6 82.8 Z M 57.6 79.4 C 57.6 79.4 57.6 79.4 57.6 79.4 C 57.6 79.4 57.6 79.4 57.6 79.4 Z M 52.9 81.3 C 52.8 81.4 52.8 81.4 52.9 81.3 C 52.9 81.3 52.9 81.3 52.9 81.3 Z M 57.1 78.9 C 57.6 79.4 55.9 79.0 57.1 78.8 C 57.2 78.9 57.0 78.9 57.1 78.9 M 61.1 77.2 C 61.2 77.2 61.2 77.2 61.1 77.2 M 71.8 78.1 C 71.8 78.2 71.8 78.2 71.8 78.1 M 70.9 73.5 C 71.0 73.5 71.0 73.5 70.9 73.5 M 65.4 76.2 C 66.6 75.7 65.8 76.4 65.4 76.2 M 74.3 72.5 C 72.6 72.8 75.9 71.6 74.3 72.5 M 75.7 71.6 C 75.9 71.6 75.9 71.6 75.7 71.6 M 68.7 74.5 C 68.7 74.6 68.7 74.6 68.7 74.5 C 68.7 74.5 68.7 74.5 68.7 74.5 Z M 64.8 76.2 C 63.1 76.5 66.3 75.0 64.8 76.2 M 54.8 79.7 C 55.6 79.1 55.1 80.4 54.8 79.7 M 53.1 80.7 C 53.1 80.8 53.1 80.8 53.1 80.7 C 53.1 80.7 53.1 80.7 53.1 80.7 Z M 71.8 73.5 C 71.7 73.5 71.7 73.5 71.8 73.5 C 71.8 73.5 71.8 73.5 71.8 73.5 Z M 73.5 72.7 C 73.5 72.7 73.5 72.7 73.5 72.7 C 73.5 72.7 73.5 72.7 73.5 72.7 Z M 78.1 75.6 C 78.0 75.6 78.0 75.6 78.1 75.6 C 78.1 75.6 78.1 75.6 78.1 75.6 Z M 55.1 81.9 C 53.8 82.1 55.8 80.1 55.9 81.2 C 56.2 81.6 55.2 81.8 55.1 81.9 M 64.1 77.9 C 64.9 79.1 62.2 76.4 64.1 77.9 M 76.3 72.5 C 78.1 73.6 74.3 71.9 76.3 72.5 M 78.6 71.2 C 79.5 71.3 74.1 73.2 77.7 71.3 C 77.9 70.9 78.3 71.2 78.6 71.2 M 61.4 77.8 C 62.1 78.5 59.4 78.2 61.4 77.8 M 69.8 77.3 C 70.2 76.6 71.6 75.6 71.3 76.7 C 71.7 77.7 69.3 78.0 69.8 77.3 M 50.6 82.2 C 51.1 80.6 50.9 83.3 50.6 82.2 M 55.4 80.5 C 55.4 80.5 55.4 80.5 55.4 80.5 C 55.4 80.5 55.4 80.5 55.4 80.5 Z M 57.2 79.6 C 57.3 79.7 57.3 79.7 57.2 79.6 M 50.9 80.8 C 51.0 80.9 51.0 80.9 50.9 80.8 M 69.3 76.0 C 69.5 76.1 69.5 76.1 69.3 76.0 M 65.2 76.7 C 67.5 77.2 64.3 77.3 65.2 76.7 M 61.6 80.7 C 62.3 81.1 60.4 81.2 61.6 80.7 M 68.0 75.1 C 69.7 75.7 66.6 76.8 68.0 75.1 M 64.2 76.9 C 64.3 76.9 64.3 76.9 64.2 76.9 C 64.2 76.9 64.2 76.9 64.2 76.9 Z M 70.4 77.2 C 70.3 77.3 70.3 77.3 70.4 77.2 C 70.4 77.2 70.4 77.2 70.4 77.2 Z M 70.9 77.0 C 70.9 77.0 70.9 77.0 70.9 77.0 C 70.9 77.0 70.9 77.0 70.9 77.0 Z M 69.6 74.3 C 69.5 74.4 69.5 74.4 69.6 74.3 C 69.6 74.3 69.6 74.3 69.6 74.3 Z M 54.1 84.0 C 55.5 83.6 53.2 84.5 54.1 84.0 C 54.1 84.0 54.1 84.0 54.1 84.0 Z M 58.6 78.4 C 61.1 78.5 57.4 79.8 58.6 78.4 C 58.6 78.4 58.6 78.4 58.6 78.4 Z M 61.6 79.0 C 61.6 79.0 61.6 79.0 61.6 79.0 C 61.6 79.0 61.6 79.0 61.6 79.0 Z M 66.9 74.7 C 66.9 74.7 66.9 74.7 66.9 74.7 C 66.9 74.7 66.9 74.7 66.9 74.7 Z M 54.8 83.9 C 54.9 83.9 54.9 83.9 54.8 83.9 C 54.8 83.9 54.8 83.9 54.8 83.9 Z M 73.5 73.6 C 73.5 73.6 73.5 73.6 73.5 73.6 C 73.5 73.6 73.5 73.6 73.5 73.6 Z M 66.9 78.7 C 67.2 78.1 67.1 79.1 66.9 78.7 C 66.9 78.7 66.9 78.7 66.9 78.7 Z M 68.9 78.0 C 68.9 78.0 68.9 78.0 68.9 78.0 C 68.9 78.0 68.9 78.0 68.9 78.0 Z M 76.2 71.4 C 76.2 71.3 76.2 71.3 76.2 71.4 C 76.2 71.4 76.2 71.4 76.2 71.4 Z M 74.2 77.2 C 74.3 77.2 74.3 77.2 74.2 77.2 C 74.2 77.2 74.2 77.2 74.2 77.2 Z M 75.3 75.3 C 75.3 75.3 75.3 75.3 75.3 75.3 C 75.3 75.3 75.3 75.3 75.3 75.3 Z M 69.3 74.8 C 71.2 73.8 69.1 75.4 69.3 74.8 C 69.3 74.8 69.3 74.8 69.3 74.8 Z M 80.0 73.1 C 80.1 73.2 80.1 73.2 80.0 73.1 C 80.0 73.1 80.0 73.1 80.0 73.1 Z M 80.4 71.2 C 80.5 71.2 80.5 71.2 80.4 71.2 C 80.4 71.2 80.4 71.2 80.4 71.2 Z M 80.6 70.1 C 80.7 70.2 80.7 70.2 80.6 70.1 C 80.6 70.1 80.6 70.1 80.6 70.1 Z M 57.8 81.3 C 57.7 81.3 57.7 81.3 57.8 81.3 C 57.8 81.3 57.8 81.3 57.8 81.3 Z M 56.0 79.1 C 56.0 79.0 56.0 79.0 56.0 79.1 C 56.0 79.1 56.0 79.1 56.0 79.1 Z M 58.6 77.9 C 58.6 77.9 58.6 77.9 58.6 77.9 C 58.6 77.9 58.6 77.9 58.6 77.9 Z M 57.9 83.0 C 57.8 83.0 57.8 83.0 57.9 83.0 C 57.9 83.0 57.9 83.0 57.9 83.0 Z M 66.9 77.2 C 66.9 77.1 66.9 77.1 66.9 77.2 C 66.9 77.2 66.9 77.2 66.9 77.2 Z M 68.2 77.8 C 68.2 77.8 68.2 77.8 68.2 77.8 C 68.2 77.8 68.2 77.8 68.2 77.8 Z M 66.5 80.1 C 66.5 80.1 66.5 80.1 66.5 80.1 C 66.5 80.1 66.5 80.1 66.5 80.1 Z M 69.3 78.5 C 69.3 78.5 69.3 78.5 69.3 78.5 C 69.3 78.5 69.3 78.5 69.3 78.5 Z M 51.1 85.1 C 51.1 85.1 51.1 85.1 51.1 85.1 C 51.1 85.1 51.1 85.1 51.1 85.1 Z M 50.1 83.2 C 50.1 83.3 50.1 83.3 50.1 83.2 C 50.1 83.2 50.1 83.2 50.1 83.2 Z M 66.7 75.6 C 67.0 75.0 67.8 75.8 66.7 75.6 M 63.0 77.3 C 63.0 77.3 63.0 77.3 63.0 77.3 C 63.0 77.3 63.0 77.3 63.0 77.3 Z M 73.0 73.3 C 73.8 73.9 71.1 73.6 73.0 73.3 C 73.0 73.3 73.0 73.3 73.0 73.3 Z M 72.3 77.3 C 72.3 77.3 72.3 77.3 72.3 77.3 C 72.3 77.3 72.3 77.3 72.3 77.3 Z M 73.1 76.6 C 73.2 76.7 73.2 76.7 73.1 76.6 C 73.1 76.6 73.1 76.6 73.1 76.6 Z M 77.8 72.5 C 77.9 72.5 77.9 72.5 77.8 72.5 M 62.3 76.8 C 63.0 76.9 62.8 76.9 62.3 76.8 M 74.3 72.9 C 74.3 72.9 74.3 72.9 74.3 72.9 C 74.3 72.9 74.3 72.9 74.3 72.9 Z M 78.8 71.6 C 78.8 71.6 78.8 71.6 78.8 71.6 C 78.8 71.6 78.8 71.6 78.8 71.6 Z M 59.8 78.3 C 60.3 79.2 59.7 79.2 59.8 78.3 M 52.4 81.4 C 52.5 81.5 52.5 81.5 52.4 81.4 C 52.4 81.4 52.4 81.4 52.4 81.4 Z M 84.5 68.7 C 82.1 68.4 82.6 69.9 82.7 69.9 C 82.1 67.8 81.1 71.4 81.7 71.6 C 81.7 71.9 84.6 74.8 85.2 72.1 C 85.5 71.7 86.0 72.3 86.3 72.2 C 88.7 71.2 84.2 71.8 87.2 70.6 C 87.8 70.7 87.8 72.6 89.2 70.8 C 89.3 70.9 91.6 70.7 90.6 70.3 C 91.8 70.7 92.1 69.5 92.9 69.0 C 93.9 69.1 92.7 70.5 95.3 68.4 C 97.1 69.3 96.6 66.8 98.3 67.9 C 99.1 67.6 99.3 64.7 98.1 66.8 C 98.3 66.5 96.7 65.7 99.2 65.3 C 99.0 65.7 98.7 68.7 101.9 66.2 C 102.5 66.0 103.6 64.8 104.1 65.0 C 102.3 66.0 107.0 65.1 106.3 64.5 C 109.4 64.0 107.3 63.5 109.7 63.5 C 111.4 62.9 108.7 62.6 111.1 62.4 C 112.7 61.7 111.8 62.7 111.6 62.8 C 113.1 62.4 113.4 61.7 113.9 61.6 C 114.3 61.6 115.1 61.9 115.2 61.1 C 116.2 59.4 114.5 58.8 114.7 57.4 C 113.4 57.2 114.6 58.4 113.5 57.9 C 113.2 58.8 113.4 57.8 110.5 59.1 C 110.6 59.2 111.5 59.5 110.8 59.8 C 109.7 60.2 109.7 57.9 108.4 60.0 C 110.8 59.6 105.5 61.8 107.7 61.4 C 105.2 62.6 106.9 61.5 104.8 61.8 C 105.4 63.0 104.2 60.4 103.9 61.8 C 103.5 61.3 100.6 62.6 103.0 62.6 C 100.1 64.1 101.8 62.6 100.4 62.4 C 99.0 62.8 101.1 64.5 99.6 63.3 C 97.5 63.2 99.8 64.1 98.0 63.3 C 99.1 64.2 96.7 63.8 97.6 64.9 C 94.5 66.1 97.5 63.4 95.7 65.1 C 96.4 64.9 95.5 63.4 94.5 64.9 C 95.8 66.6 92.1 63.9 94.0 66.1 C 89.9 68.4 92.9 65.3 90.5 66.2 C 89.9 66.4 91.5 66.8 90.9 67.0 C 87.7 67.8 90.0 66.2 88.9 68.0 C 85.9 69.5 87.6 67.3 86.0 67.8 C 86.2 68.4 85.3 69.9 84.5 68.7 M 87.5 68.2 C 88.0 67.6 88.0 68.5 87.5 68.2 M 81.1 70.0 C 81.6 69.3 81.6 70.2 81.1 70.0 M 89.9 66.9 C 90.6 66.2 90.4 67.5 89.9 66.9 M 106.6 61.3 C 105.5 61.7 107.0 60.8 106.6 61.3 M 83.5 69.0 C 84.2 68.1 84.0 69.6 83.5 69.0 M 82.8 70.4 C 82.8 70.4 82.8 70.4 82.8 70.4 M 107.9 59.7 C 107.9 59.7 107.9 59.7 107.9 59.7 M 103.4 61.3 C 104.4 61.0 103.0 61.8 103.4 61.3 M 104.9 65.6 C 105.8 65.2 104.4 66.0 104.9 65.6 M 110.3 58.7 C 111.1 58.0 110.7 59.1 110.3 58.7 M 113.1 58.7 C 113.8 58.0 113.8 58.9 113.1 58.7 M 87.5 69.9 C 87.5 70.0 87.5 70.0 87.5 69.9 C 87.5 69.9 87.5 69.9 87.5 69.9 Z M 96.0 67.9 C 94.9 67.8 97.4 68.0 96.0 67.9 M 93.5 65.7 C 94.4 66.3 92.2 66.1 93.5 65.7 C 93.5 65.7 93.5 65.7 93.5 65.7 Z M 92.2 66.6 C 92.2 66.7 92.2 66.7 92.2 66.6 C 92.2 66.6 92.2 66.6 92.2 66.6 Z M 96.8 65.0 C 96.7 65.0 96.7 65.0 96.8 65.0 C 96.8 65.0 96.8 65.0 96.8 65.0 Z M 95.9 65.4 C 95.6 65.7 95.3 65.4 95.9 65.4 C 95.9 65.4 95.9 65.4 95.9 65.4 Z M 103.5 65.6 C 103.2 65.9 103.0 65.6 103.5 65.6 C 103.5 65.6 103.5 65.6 103.5 65.6 Z M 94.5 66.2 C 94.7 67.1 93.7 65.9 94.5 66.2 C 94.5 66.2 94.5 66.2 94.5 66.2 Z M 100.2 66.4 C 100.5 66.0 101.4 66.9 100.2 66.4 M 108.9 59.5 C 109.2 59.1 110.0 60.0 108.9 59.5 M 99.1 62.9 C 99.4 62.5 100.2 63.4 99.1 62.9 M 87.9 67.7 C 88.0 67.7 88.0 67.7 87.9 67.7 M 94.6 69.3 C 95.1 68.8 95.1 69.6 94.6 69.3 M 85.4 72.5 C 85.9 71.9 85.9 72.8 85.4 72.5 M 109.0 63.9 C 108.9 63.7 110.0 63.7 109.0 63.9 M 100.7 63.8 C 101.6 63.6 102.7 63.7 100.9 64.3 C 100.7 64.2 101.2 63.9 100.7 63.8 C 100.7 63.8 100.7 63.8 100.7 63.8 Z M 104.5 64.6 C 104.7 64.6 104.7 64.6 104.5 64.6 M 101.9 62.5 C 102.1 62.5 102.1 62.5 101.9 62.5 M 106.9 60.7 C 107.1 60.8 107.1 60.8 106.9 60.7 M 107.5 60.2 C 107.5 60.2 107.5 60.2 107.5 60.2 C 107.5 60.2 107.5 60.2 107.5 60.2 Z M 112.8 57.8 C 112.8 57.8 112.8 57.8 112.8 57.8 C 112.8 57.8 112.8 57.8 112.8 57.8 Z M 105.4 61.4 C 105.4 61.4 105.4 61.4 105.4 61.4 C 105.4 61.4 105.4 61.4 105.4 61.4 Z M 111.1 62.9 C 111.1 63.0 111.1 63.0 111.1 62.9 C 111.1 62.9 111.1 62.9 111.1 62.9 Z M 110.3 62.6 C 110.4 62.7 110.4 62.7 110.3 62.6 C 110.3 62.6 110.3 62.6 110.3 62.6 Z M 85.0 68.5 C 85.5 67.6 85.9 69.8 85.0 68.5 M 112.8 61.7 C 113.7 62.0 111.5 62.3 112.8 61.7 C 112.8 61.7 112.8 61.7 112.8 61.7 Z M 105.1 62.3 C 105.2 62.4 105.2 62.4 105.1 62.3 M 107.8 60.2 C 107.9 60.2 107.9 60.2 107.8 60.2 M 93.1 65.0 C 93.2 65.0 93.2 65.0 93.1 65.0 M 111.7 58.9 C 114.1 58.2 111.1 60.5 111.7 58.9 M 92.4 66.2 C 92.3 66.1 92.3 66.1 92.4 66.2 M 98.2 65.8 C 99.7 65.2 97.8 66.5 98.2 65.8 M 101.7 63.2 C 101.7 63.3 101.7 63.3 101.7 63.2 C 101.7 63.2 101.7 63.2 101.7 63.2 Z M 99.4 64.1 C 98.3 64.6 99.0 64.0 99.4 64.1 C 99.4 64.1 99.4 64.1 99.4 64.1 Z M 86.3 68.9 C 87.9 68.4 84.9 69.7 86.3 68.9 C 86.3 68.9 86.3 68.9 86.3 68.9 Z M 111.4 61.3 C 111.3 61.3 111.3 61.3 111.4 61.3 C 111.4 61.3 111.4 61.3 111.4 61.3 Z M 104.9 60.9 C 104.3 61.4 104.5 60.8 104.9 60.9 C 104.9 60.9 104.9 60.9 104.9 60.9 Z M 113.6 57.5 C 113.0 58.0 113.2 57.4 113.6 57.5 C 113.6 57.5 113.6 57.5 113.6 57.5 Z M 84.5 69.4 C 90.4 68.8 77.2 71.7 84.5 69.4 C 84.5 69.4 84.5 69.4 84.5 69.4 Z M 100.1 63.2 C 100.1 63.2 100.1 63.2 100.1 63.2 C 100.1 63.2 100.1 63.2 100.1 63.2 Z M 90.0 66.3 C 90.0 66.4 90.0 66.4 90.0 66.3 C 90.0 66.3 90.0 66.3 90.0 66.3 Z M 88.6 67.7 C 88.6 67.8 88.6 67.8 88.6 67.7 C 88.6 67.7 88.6 67.7 88.6 67.7 Z M 90.3 70.9 C 90.3 70.9 90.3 70.9 90.3 70.9 C 90.3 70.9 90.3 70.9 90.3 70.9 Z M 90.3 69.1 C 90.3 69.3 90.3 69.3 90.3 69.1 C 90.3 69.1 90.3 69.1 90.3 69.1 Z M 87.1 71.0 C 87.1 71.1 87.1 71.1 87.1 71.0 C 87.1 71.0 87.1 71.0 87.1 71.0 Z M 87.3 71.4 C 87.3 71.5 87.3 71.5 87.3 71.4 C 87.3 71.4 87.3 71.4 87.3 71.4 Z M 108.2 61.1 C 108.1 61.2 108.1 61.2 108.2 61.1 C 108.2 61.1 108.2 61.1 108.2 61.1 Z M 106.8 63.2 C 107.9 62.2 106.7 64.0 106.8 63.2 C 106.8 63.2 106.8 63.2 106.8 63.2 Z M 95.5 66.7 C 96.6 66.1 94.9 67.4 95.5 66.7 C 95.5 66.7 95.5 66.7 95.5 66.7 Z M 97.4 68.0 C 97.4 68.0 97.4 68.0 97.4 68.0 C 97.4 68.0 97.4 68.0 97.4 68.0 Z M 88.3 66.9 C 88.3 67.0 88.3 67.0 88.3 66.9 C 88.3 66.9 88.3 66.9 88.3 66.9 Z M 86.4 68.3 C 86.6 69.0 85.6 68.2 86.4 68.3 M 96.9 63.9 C 96.9 64.0 96.9 64.0 96.9 63.9 C 96.9 63.9 96.9 63.9 96.9 63.9 Z M 104.0 62.4 C 104.0 62.5 104.0 62.5 104.0 62.4 C 104.0 62.4 104.0 62.4 104.0 62.4 Z M 110.5 59.5 C 110.5 59.6 110.5 59.6 110.5 59.5 C 110.5 59.5 110.5 59.5 110.5 59.5 Z M 101.1 62.4 C 101.1 62.5 101.1 62.5 101.1 62.4 C 101.1 62.4 101.1 62.4 101.1 62.4 Z M 98.2 64.2 C 98.2 64.3 98.2 64.3 98.2 64.2 C 98.2 64.2 98.2 64.2 98.2 64.2 Z M 112.4 59.9 C 112.3 60.0 112.3 60.0 112.4 59.9 C 112.4 59.9 112.4 59.9 112.4 59.9 Z M 101.8 62.0 C 101.8 62.0 101.8 62.0 101.8 62.0 C 101.8 62.0 101.8 62.0 101.8 62.0 Z M 104.6 63.5 C 104.5 63.6 104.5 63.6 104.6 63.5 C 104.6 63.5 104.6 63.5 104.6 63.5 Z M 86.3 67.2 C 86.3 67.2 86.3 67.2 86.3 67.2 C 86.3 67.2 86.3 67.2 86.3 67.2 Z M 112.1 59.0 C 112.1 59.0 112.1 59.0 112.1 59.0 C 112.1 59.0 112.1 59.0 112.1 59.0 Z M 112.3 58.2 C 112.2 58.2 112.2 58.2 112.3 58.2 C 112.3 58.2 112.3 58.2 112.3 58.2 Z M 108.8 63.3 C 106.3 63.8 110.8 62.3 108.8 62.2 C 112.2 60.8 109.3 63.1 108.8 63.3 C 108.8 63.3 108.8 63.3 108.8 63.3 Z M 115.3 56.7 C 114.4 58.2 114.7 59.1 115.7 59.8 C 116.5 60.1 115.7 58.2 116.4 59.8 C 115.0 60.7 117.9 62.0 117.1 59.9 C 119.0 58.9 117.9 61.1 118.8 59.8 C 120.8 58.8 120.0 59.9 121.6 59.1 C 122.1 57.6 122.7 59.3 122.7 58.1 C 122.4 59.6 124.3 57.1 124.6 57.6 C 123.4 58.9 130.2 55.5 126.2 56.6 C 127.6 55.5 127.7 56.6 128.2 56.5 C 128.7 55.6 131.0 56.1 131.7 55.0 C 131.5 55.0 131.0 55.1 130.8 54.9 C 130.3 54.6 131.9 54.6 131.7 54.6 C 132.3 54.1 134.6 52.5 132.3 54.7 C 132.4 55.3 134.4 53.6 134.5 54.2 C 136.9 53.3 134.7 52.8 136.1 53.3 C 137.7 52.7 139.0 52.2 138.9 52.1 C 140.0 51.8 140.4 52.4 141.1 51.4 C 143.6 51.9 141.7 48.5 143.3 50.6 C 143.7 49.8 144.9 51.2 144.2 49.7 C 143.8 50.7 148.2 49.6 146.0 49.2 C 146.3 48.6 149.7 49.5 148.7 48.1 C 149.2 46.7 148.7 45.6 146.2 45.4 C 146.8 46.1 143.7 45.3 145.8 46.2 C 147.7 46.0 142.7 47.9 143.6 47.0 C 143.2 45.2 141.6 49.0 140.0 48.2 C 141.2 48.5 137.2 50.4 137.9 48.7 C 137.1 48.8 137.2 49.5 136.0 49.1 C 138.5 48.3 135.6 50.8 135.5 50.0 C 135.7 49.3 131.9 50.3 132.5 50.9 C 134.5 52.2 131.4 50.9 131.1 51.8 C 129.2 53.0 130.8 50.1 129.8 52.0 C 129.3 52.0 126.7 53.0 128.2 52.0 C 128.9 51.9 127.4 54.6 126.5 53.1 C 129.0 51.2 123.0 53.9 124.2 54.0 C 128.9 53.2 119.9 56.7 123.0 54.6 C 120.7 54.4 123.5 54.0 121.2 55.3 C 121.7 55.7 119.9 56.8 120.0 55.7 C 119.1 54.4 120.1 57.9 117.8 56.5 C 117.3 55.7 115.1 58.2 115.8 56.8 C 115.9 56.7 115.4 56.7 115.3 56.7 M 116.3 56.6 C 116.1 57.0 115.6 56.4 116.3 56.6 M 116.0 57.0 C 116.0 57.0 116.0 57.0 116.0 57.0 C 116.0 57.0 116.0 57.0 116.0 57.0 Z M 120.8 55.5 C 120.8 55.4 120.8 55.4 120.8 55.5 C 120.8 55.5 120.8 55.5 120.8 55.5 Z M 125.9 57.8 C 125.9 57.7 125.9 57.7 125.9 57.8 C 125.9 57.8 125.9 57.8 125.9 57.8 Z M 124.0 54.4 C 124.0 54.4 124.0 54.4 124.0 54.4 C 124.0 54.4 124.0 54.4 124.0 54.4 Z M 119.2 56.3 C 119.2 56.4 119.2 56.4 119.2 56.3 C 119.2 56.3 119.2 56.3 119.2 56.3 Z M 123.5 54.0 C 123.9 54.4 122.3 54.0 123.5 53.8 C 123.6 53.9 123.4 53.9 123.5 54.0 M 127.5 52.2 C 127.6 52.2 127.6 52.2 127.5 52.2 M 138.2 53.1 C 138.2 53.2 138.2 53.2 138.2 53.1 M 137.3 48.5 C 137.4 48.5 137.4 48.5 137.3 48.5 M 131.8 51.2 C 133.0 50.7 132.2 51.4 131.8 51.2 M 140.7 47.5 C 139.0 47.8 142.3 46.6 140.7 47.5 M 142.1 46.6 C 142.2 46.6 142.2 46.6 142.1 46.6 M 135.1 49.5 C 135.0 49.6 135.0 49.6 135.1 49.5 C 135.1 49.5 135.1 49.5 135.1 49.5 Z M 131.2 51.2 C 129.4 51.5 132.7 50.0 131.2 51.2 M 121.2 54.7 C 122.0 54.1 121.4 55.5 121.2 54.7 M 119.4 55.7 C 119.4 55.8 119.4 55.8 119.4 55.7 C 119.4 55.7 119.4 55.7 119.4 55.7 Z M 138.1 48.5 C 138.1 48.5 138.1 48.5 138.1 48.5 C 138.1 48.5 138.1 48.5 138.1 48.5 Z M 139.9 47.7 C 139.9 47.7 139.9 47.7 139.9 47.7 C 139.9 47.7 139.9 47.7 139.9 47.7 Z M 144.5 50.6 C 144.4 50.6 144.4 50.6 144.5 50.6 C 144.5 50.6 144.5 50.6 144.5 50.6 Z M 121.4 56.9 C 120.1 57.1 122.2 55.1 122.3 56.2 C 122.6 56.6 121.6 56.8 121.4 56.9 M 130.5 52.9 C 131.3 54.1 128.5 51.4 130.5 52.9 M 142.7 47.5 C 144.5 48.6 140.7 46.9 142.7 47.5 M 145.0 46.2 C 145.9 46.3 140.5 48.2 144.1 46.3 C 144.3 45.9 144.7 46.2 145.0 46.2 M 127.8 52.8 C 128.5 53.5 125.8 53.2 127.8 52.8 M 136.2 52.3 C 136.6 51.6 138.0 50.6 137.7 51.7 C 138.0 52.7 135.6 53.0 136.2 52.3 M 116.9 57.2 C 117.5 55.6 117.3 58.3 116.9 57.2 M 121.7 55.5 C 121.7 55.5 121.7 55.5 121.7 55.5 C 121.7 55.5 121.7 55.5 121.7 55.5 Z M 123.5 54.6 C 123.7 54.7 123.7 54.7 123.5 54.6 M 117.3 55.8 C 117.4 55.9 117.4 55.9 117.3 55.8 M 135.7 51.0 C 135.8 51.1 135.8 51.1 135.7 51.0 M 131.6 51.7 C 133.8 52.2 130.7 52.3 131.6 51.7 M 127.9 55.7 C 128.7 56.1 126.8 56.2 127.9 55.7 M 134.4 50.1 C 136.1 50.7 133.0 51.8 134.4 50.1 M 130.6 51.9 C 130.7 51.9 130.7 51.9 130.6 51.9 C 130.6 51.9 130.6 51.9 130.6 51.9 Z M 136.7 52.2 C 136.7 52.3 136.7 52.3 136.7 52.2 C 136.7 52.2 136.7 52.2 136.7 52.2 Z M 137.3 52.0 C 137.2 52.0 137.2 52.0 137.3 52.0 C 137.3 52.0 137.3 52.0 137.3 52.0 Z M 135.9 49.3 C 135.9 49.4 135.9 49.4 135.9 49.3 C 135.9 49.3 135.9 49.3 135.9 49.3 Z M 120.5 59.0 C 121.8 58.6 119.6 59.5 120.5 59.0 C 120.5 59.0 120.5 59.0 120.5 59.0 Z M 125.0 53.4 C 127.5 53.5 123.8 54.8 125.0 53.4 C 125.0 53.4 125.0 53.4 125.0 53.4 Z M 128.0 54.0 C 128.0 54.0 128.0 54.0 128.0 54.0 C 128.0 54.0 128.0 54.0 128.0 54.0 Z M 133.3 49.7 C 133.3 49.7 133.3 49.7 133.3 49.7 C 133.3 49.7 133.3 49.7 133.3 49.7 Z M 121.2 58.9 C 121.2 58.9 121.2 58.9 121.2 58.9 C 121.2 58.9 121.2 58.9 121.2 58.9 Z M 139.9 48.6 C 139.9 48.6 139.9 48.6 139.9 48.6 C 139.9 48.6 139.9 48.6 139.9 48.6 Z M 133.3 53.7 C 133.6 53.1 133.5 54.1 133.3 53.7 C 133.3 53.7 133.3 53.7 133.3 53.7 Z M 135.2 53.0 C 135.3 53.0 135.3 53.0 135.2 53.0 C 135.2 53.0 135.2 53.0 135.2 53.0 Z M 142.5 46.4 C 142.6 46.3 142.6 46.3 142.5 46.4 C 142.5 46.4 142.5 46.4 142.5 46.4 Z M 140.6 52.2 C 140.6 52.2 140.6 52.2 140.6 52.2 C 140.6 52.2 140.6 52.2 140.6 52.2 Z M 141.7 50.3 C 141.7 50.3 141.7 50.3 141.7 50.3 C 141.7 50.3 141.7 50.3 141.7 50.3 Z M 135.7 49.8 C 137.6 48.8 135.5 50.4 135.7 49.8 C 135.7 49.8 135.7 49.8 135.7 49.8 Z M 146.4 48.1 C 146.5 48.2 146.5 48.2 146.4 48.1 C 146.4 48.1 146.4 48.1 146.4 48.1 Z M 146.8 46.2 C 146.9 46.2 146.9 46.2 146.8 46.2 C 146.8 46.2 146.8 46.2 146.8 46.2 Z M 147.0 45.1 C 147.0 45.2 147.0 45.2 147.0 45.1 C 147.0 45.1 147.0 45.1 147.0 45.1 Z M 124.1 56.3 C 124.1 56.3 124.1 56.3 124.1 56.3 C 124.1 56.3 124.1 56.3 124.1 56.3 Z M 122.4 54.1 C 122.4 54.0 122.4 54.0 122.4 54.1 C 122.4 54.1 122.4 54.1 122.4 54.1 Z M 125.0 52.9 C 125.0 52.9 125.0 52.9 125.0 52.9 C 125.0 52.9 125.0 52.9 125.0 52.9 Z M 124.3 58.1 C 124.2 58.0 124.2 58.0 124.3 58.1 C 124.3 58.1 124.3 58.1 124.3 58.1 Z M 133.3 52.2 C 133.2 52.1 133.2 52.1 133.3 52.2 C 133.3 52.2 133.3 52.2 133.3 52.2 Z M 134.6 52.8 C 134.5 52.8 134.5 52.8 134.6 52.8 C 134.6 52.8 134.6 52.8 134.6 52.8 Z M 132.9 55.1 C 132.8 55.1 132.8 55.1 132.9 55.1 C 132.9 55.1 132.9 55.1 132.9 55.1 Z M 135.7 53.5 C 135.6 53.5 135.6 53.5 135.7 53.5 C 135.7 53.5 135.7 53.5 135.7 53.5 Z M 117.5 60.1 C 117.5 60.1 117.5 60.1 117.5 60.1 C 117.5 60.1 117.5 60.1 117.5 60.1 Z M 116.5 58.2 C 116.5 58.3 116.5 58.3 116.5 58.2 C 116.5 58.2 116.5 58.2 116.5 58.2 Z M 133.1 50.6 C 133.3 50.0 134.2 50.8 133.1 50.6 M 129.4 52.3 C 129.4 52.3 129.4 52.3 129.4 52.3 C 129.4 52.3 129.4 52.3 129.4 52.3 Z M 139.4 48.3 C 140.2 48.9 137.5 48.6 139.4 48.3 C 139.4 48.3 139.4 48.3 139.4 48.3 Z M 138.7 52.3 C 138.7 52.3 138.7 52.3 138.7 52.3 C 138.7 52.3 138.7 52.3 138.7 52.3 Z M 139.5 51.6 C 139.6 51.7 139.6 51.7 139.5 51.6 C 139.5 51.6 139.5 51.6 139.5 51.6 Z M 144.2 47.5 C 144.3 47.5 144.3 47.5 144.2 47.5 M 128.7 51.8 C 129.4 51.9 129.2 51.9 128.7 51.8 M 140.7 47.9 C 140.6 47.9 140.6 47.9 140.7 47.9 C 140.7 47.9 140.7 47.9 140.7 47.9 Z M 145.2 46.6 C 145.1 46.6 145.1 46.6 145.2 46.6 C 145.2 46.6 145.2 46.6 145.2 46.6 Z M 126.2 53.3 C 126.6 54.2 126.0 54.2 126.2 53.3 M 118.8 56.4 C 118.9 56.5 118.9 56.5 118.8 56.4 C 118.8 56.4 118.8 56.4 118.8 56.4 Z M 150.9 43.7 C 148.5 43.4 149.0 44.9 149.0 44.9 C 148.5 42.8 147.5 46.4 148.1 46.6 C 148.1 46.9 151.0 49.8 151.6 47.1 C 151.9 46.7 152.4 47.3 152.7 47.2 C 155.1 46.2 150.5 46.8 153.6 45.6 C 154.2 45.7 154.2 47.6 155.6 45.8 C 155.7 45.9 158.0 45.8 156.9 45.3 C 158.2 45.7 158.5 44.5 159.3 44.0 C 160.3 44.1 159.1 45.5 161.7 43.4 C 163.4 44.3 163.0 41.8 164.7 42.9 C 165.4 42.6 165.6 39.7 164.4 41.8 C 164.6 41.5 163.1 40.8 165.6 40.3 C 165.4 40.7 165.1 43.7 168.2 41.2 C 168.9 41.0 170.0 39.8 170.4 40.0 C 168.7 41.0 173.4 40.1 172.7 39.5 C 175.8 39.0 173.7 38.5 176.1 38.5 C 177.8 37.9 175.1 37.6 177.5 37.5 C 179.1 36.7 178.2 37.8 178.0 37.8 C 179.5 37.4 179.8 36.7 180.3 36.6 C 180.7 36.6 181.5 36.9 181.6 36.1 C 182.6 34.4 180.8 33.8 181.1 32.4 C 179.8 32.2 180.9 33.4 179.9 32.9 C 179.6 33.8 179.8 32.8 176.9 34.1 C 177.0 34.2 177.9 34.5 177.2 34.8 C 176.0 35.2 176.1 32.9 174.7 35.0 C 177.1 34.6 171.8 36.8 174.1 36.4 C 171.6 37.6 173.3 36.5 171.2 36.8 C 171.8 38.0 170.6 35.4 170.2 36.8 C 169.9 36.3 167.0 37.6 169.4 37.6 C 166.5 39.1 168.1 37.7 166.8 37.4 C 165.3 37.8 167.5 39.5 166.0 38.3 C 163.9 38.2 166.2 39.1 164.4 38.3 C 165.4 39.2 163.1 38.8 164.0 39.9 C 160.9 41.1 163.9 38.4 162.0 40.1 C 162.7 39.9 161.9 38.4 160.9 39.9 C 162.2 41.6 158.5 38.9 160.4 41.1 C 156.3 43.4 159.3 40.3 156.9 41.2 C 156.3 41.4 157.9 41.8 157.3 42.0 C 154.1 42.8 156.4 41.2 155.2 43.0 C 152.3 44.5 154.0 42.3 152.4 42.8 C 152.5 43.4 151.7 44.9 150.9 43.7 M 153.9 43.2 C 154.3 42.6 154.4 43.5 153.9 43.2 M 147.5 45.0 C 148.0 44.3 148.0 45.2 147.5 45.0 M 156.3 41.9 C 156.9 41.2 156.8 42.5 156.3 41.9 M 173.0 36.3 C 171.9 36.7 173.4 35.8 173.0 36.3 M 149.9 44.0 C 150.6 43.1 150.4 44.6 149.9 44.0 M 149.1 45.4 C 149.2 45.4 149.2 45.4 149.1 45.4 M 174.3 34.7 C 174.3 34.7 174.3 34.7 174.3 34.7 M 169.8 36.3 C 170.8 36.0 169.4 36.8 169.8 36.3 M 171.2 40.6 C 172.2 40.2 170.8 41.0 171.2 40.6 M 176.7 33.7 C 177.5 33.0 177.1 34.1 176.7 33.7 M 179.5 33.7 C 180.2 33.0 180.2 33.9 179.5 33.7 M 153.9 44.9 C 153.9 45.0 153.9 45.0 153.9 44.9 C 153.9 44.9 153.9 44.9 153.9 44.9 Z M 162.4 42.9 C 161.2 42.8 163.7 43.0 162.4 42.9 M 159.8 40.7 C 160.8 41.3 158.6 41.1 159.8 40.7 C 159.8 40.7 159.8 40.7 159.8 40.7 Z M 158.6 41.6 C 158.6 41.7 158.6 41.7 158.6 41.6 C 158.6 41.6 158.6 41.6 158.6 41.6 Z M 163.2 40.0 C 163.1 40.0 163.1 40.0 163.2 40.0 C 163.2 40.0 163.2 40.0 163.2 40.0 Z M 162.2 40.4 C 161.9 40.7 161.6 40.4 162.2 40.4 C 162.2 40.4 162.2 40.4 162.2 40.4 Z M 169.9 40.6 C 169.6 40.9 169.4 40.6 169.9 40.6 C 169.9 40.6 169.9 40.6 169.9 40.6 Z M 160.9 41.2 C 161.1 42.1 160.0 40.9 160.9 41.2 C 160.9 41.2 160.9 41.2 160.9 41.2 Z M 166.6 41.4 C 166.9 41.0 167.7 41.9 166.6 41.4 M 175.2 34.5 C 175.6 34.1 176.4 35.0 175.2 34.5 M 165.5 37.9 C 165.8 37.5 166.6 38.4 165.5 37.9 M 154.2 42.7 C 154.4 42.7 154.4 42.7 154.2 42.7 M 161.0 44.3 C 161.5 43.8 161.5 44.6 161.0 44.3 M 151.8 47.5 C 152.3 46.9 152.2 47.8 151.8 47.5 M 175.3 38.9 C 175.2 38.7 176.4 38.7 175.3 38.9 M 167.1 38.8 C 168.0 38.6 169.0 38.7 167.2 39.3 C 167.1 39.2 167.6 38.9 167.1 38.8 C 167.1 38.8 167.1 38.8 167.1 38.8 Z M 170.9 39.6 C 171.0 39.6 171.0 39.6 170.9 39.6 M 168.3 37.5 C 168.5 37.5 168.5 37.5 168.3 37.5 M 173.3 35.7 C 173.5 35.8 173.5 35.8 173.3 35.7 M 173.8 35.2 C 173.8 35.2 173.8 35.2 173.8 35.2 C 173.8 35.2 173.8 35.2 173.8 35.2 Z M 179.2 32.8 C 179.2 32.8 179.2 32.8 179.2 32.8 C 179.2 32.8 179.2 32.8 179.2 32.8 Z M 171.8 36.4 C 171.8 36.4 171.8 36.4 171.8 36.4 C 171.8 36.4 171.8 36.4 171.8 36.4 Z M 177.5 37.9 C 177.5 38.0 177.5 38.0 177.5 37.9 C 177.5 37.9 177.5 37.9 177.5 37.9 Z M 176.7 37.6 C 176.7 37.7 176.7 37.7 176.7 37.6 C 176.7 37.6 176.7 37.6 176.7 37.6 Z M 151.3 43.5 C 151.9 42.6 152.3 44.8 151.3 43.5 M 179.1 36.7 C 180.1 37.0 177.9 37.3 179.1 36.7 C 179.1 36.7 179.1 36.7 179.1 36.7 Z M 171.4 37.3 C 171.6 37.4 171.6 37.4 171.4 37.3 M 174.2 35.2 C 174.3 35.2 174.3 35.2 174.2 35.2 M 159.5 40.0 C 159.6 40.0 159.6 40.0 159.5 40.0 M 178.1 33.9 C 180.5 33.2 177.5 35.5 178.1 33.9 M 158.7 41.2 C 158.7 41.1 158.7 41.1 158.7 41.2 M 164.6 40.8 C 166.1 40.2 164.2 41.5 164.6 40.8 M 168.1 38.2 C 168.1 38.3 168.1 38.3 168.1 38.2 C 168.1 38.2 168.1 38.2 168.1 38.2 Z M 165.8 39.1 C 164.7 39.6 165.4 39.0 165.8 39.1 C 165.8 39.1 165.8 39.1 165.8 39.1 Z M 152.7 43.9 C 154.2 43.4 151.3 44.7 152.7 43.9 C 152.7 43.9 152.7 43.9 152.7 43.9 Z M 177.8 36.3 C 177.7 36.3 177.7 36.3 177.8 36.3 C 177.8 36.3 177.8 36.3 177.8 36.3 Z M 171.3 35.9 C 170.7 36.4 170.9 35.8 171.3 35.9 C 171.3 35.9 171.3 35.9 171.3 35.9 Z M 180.0 32.5 C 179.4 33.0 179.6 32.4 180.0 32.5 C 180.0 32.5 180.0 32.5 180.0 32.5 Z M 150.9 44.4 C 156.8 43.8 143.6 46.7 150.9 44.4 C 150.9 44.4 150.9 44.4 150.9 44.4 Z M 166.5 38.2 C 166.5 38.2 166.5 38.2 166.5 38.2 C 166.5 38.2 166.5 38.2 166.5 38.2 Z M 156.4 41.3 C 156.4 41.4 156.4 41.4 156.4 41.3 C 156.4 41.3 156.4 41.3 156.4 41.3 Z M 155.0 42.7 C 155.0 42.8 155.0 42.8 155.0 42.7 C 155.0 42.7 155.0 42.7 155.0 42.7 Z M 156.7 45.9 C 156.7 45.9 156.7 45.9 156.7 45.9 C 156.7 45.9 156.7 45.9 156.7 45.9 Z M 156.7 44.1 C 156.7 44.3 156.7 44.3 156.7 44.1 C 156.7 44.1 156.7 44.1 156.7 44.1 Z M 153.5 46.0 C 153.4 46.1 153.4 46.1 153.5 46.0 C 153.5 46.0 153.5 46.0 153.5 46.0 Z M 153.7 46.4 C 153.7 46.5 153.7 46.5 153.7 46.4 C 153.7 46.4 153.7 46.4 153.7 46.4 Z M 174.5 36.1 C 174.5 36.2 174.5 36.2 174.5 36.1 C 174.5 36.1 174.5 36.1 174.5 36.1 Z M 173.2 38.2 C 174.3 37.2 173.1 39.0 173.2 38.2 C 173.2 38.2 173.2 38.2 173.2 38.2 Z M 161.9 41.7 C 163.0 41.1 161.3 42.4 161.9 41.7 C 161.9 41.7 161.9 41.7 161.9 41.7 Z M 163.8 43.0 C 163.8 43.0 163.8 43.0 163.8 43.0 C 163.8 43.0 163.8 43.0 163.8 43.0 Z M 154.7 41.9 C 154.7 42.0 154.7 42.0 154.7 41.9 C 154.7 41.9 154.7 41.9 154.7 41.9 Z M 152.8 43.3 C 153.0 44.0 152.0 43.2 152.8 43.3 M 163.3 38.9 C 163.3 39.0 163.3 39.0 163.3 38.9 C 163.3 38.9 163.3 38.9 163.3 38.9 Z M 170.4 37.4 C 170.4 37.5 170.4 37.5 170.4 37.4 C 170.4 37.4 170.4 37.4 170.4 37.4 Z M 176.9 34.5 C 176.9 34.6 176.9 34.6 176.9 34.5 C 176.9 34.5 176.9 34.5 176.9 34.5 Z M 167.5 37.4 C 167.5 37.5 167.5 37.5 167.5 37.4 C 167.5 37.4 167.5 37.4 167.5 37.4 Z M 164.5 39.2 C 164.5 39.3 164.5 39.3 164.5 39.2 C 164.5 39.2 164.5 39.2 164.5 39.2 Z M 178.8 34.9 C 178.7 35.0 178.7 35.0 178.8 34.9 C 178.8 34.9 178.8 34.9 178.8 34.9 Z M 168.2 37.0 C 168.2 37.0 168.2 37.0 168.2 37.0 C 168.2 37.0 168.2 37.0 168.2 37.0 Z M 171.0 38.5 C 170.9 38.6 170.9 38.6 171.0 38.5 C 171.0 38.5 171.0 38.5 171.0 38.5 Z M 152.7 42.2 C 152.7 42.2 152.7 42.2 152.7 42.2 C 152.7 42.2 152.7 42.2 152.7 42.2 Z M 178.5 34.0 C 178.5 34.0 178.5 34.0 178.5 34.0 C 178.5 34.0 178.5 34.0 178.5 34.0 Z M 178.6 33.2 C 178.6 33.2 178.6 33.2 178.6 33.2 C 178.6 33.2 178.6 33.2 178.6 33.2 Z M 175.2 38.3 C 172.7 38.8 177.2 37.3 175.2 37.2 C 178.5 35.8 175.7 38.1 175.2 38.3 C 175.2 38.3 175.2 38.3 175.2 38.3 Z M 181.7 31.7 C 180.7 33.2 181.1 34.1 182.0 34.8 C 182.9 35.1 182.1 33.2 182.8 34.8 C 181.4 35.7 184.3 37.0 183.5 34.9 C 185.4 33.9 184.3 36.1 185.2 34.8 C 187.2 33.8 186.4 34.9 187.9 34.1 C 188.5 32.6 189.1 34.3 189.1 33.1 C 188.7 34.6 190.7 32.1 191.0 32.6 C 189.8 33.9 196.6 30.5 192.6 31.6 C 194.0 30.5 194.0 31.6 194.6 31.5 C 195.0 30.6 197.4 31.1 198.1 30.0 C 197.9 30.0 197.4 30.1 197.2 29.9 C 196.7 29.6 198.3 29.6 198.1 29.6 C 198.7 29.1 200.9 27.5 198.7 29.7 C 198.8 30.3 200.8 28.6 200.9 29.2 C 203.3 28.3 201.1 27.8 202.4 28.3 C 204.1 27.7 205.3 27.2 205.3 27.1 C 206.3 26.8 206.8 27.4 207.5 26.4 C 210.0 26.9 208.0 23.5 209.7 25.6 C 210.1 24.8 211.3 26.2 210.6 24.7 C 210.2 25.7 214.6 24.6 212.3 24.2 C 212.7 23.6 216.0 24.5 215.1 23.1 C 215.6 21.7 215.0 20.7 212.6 20.4 C 213.1 21.1 210.1 20.3 212.2 21.2 C 214.1 21.0 209.1 22.9 210.0 22.0 C 209.6 20.2 207.9 24.0 206.4 23.2 C 207.5 23.5 203.6 25.4 204.3 23.7 C 203.5 23.8 203.5 24.5 202.4 24.1 C 204.9 23.3 202.0 25.8 201.8 25.0 C 202.1 24.3 198.3 25.3 198.9 25.9 C 200.9 27.2 197.8 25.9 197.5 26.8 C 195.6 28.0 197.2 25.1 196.2 27.0 C 195.7 27.0 193.0 28.0 194.6 27.0 C 195.3 26.9 193.8 29.6 192.9 28.1 C 195.4 26.2 189.4 28.9 190.6 29.0 C 195.3 28.2 186.2 31.7 189.4 29.6 C 187.1 29.5 189.8 29.0 187.5 30.3 C 188.0 30.7 186.3 31.8 186.4 30.7 C 185.5 29.4 186.5 32.9 184.2 31.5 C 183.7 30.7 181.5 33.2 182.2 31.8 C 182.2 31.7 181.8 31.7 181.7 31.7 M 182.6 31.6 C 182.4 32.0 182.0 31.4 182.6 31.6 M 182.4 32.0 C 182.4 32.0 182.4 32.0 182.4 32.0 C 182.4 32.0 182.4 32.0 182.4 32.0 Z M 187.2 30.5 C 187.2 30.5 187.2 30.5 187.2 30.5 C 187.2 30.5 187.2 30.5 187.2 30.5 Z M 192.3 32.8 C 192.3 32.8 192.3 32.8 192.3 32.8 C 192.3 32.8 192.3 32.8 192.3 32.8 Z M 190.4 29.4 C 190.3 29.4 190.3 29.4 190.4 29.4 C 190.4 29.4 190.4 29.4 190.4 29.4 Z M 185.6 31.3 C 185.6 31.4 185.6 31.4 185.6 31.3 C 185.6 31.3 185.6 31.3 185.6 31.3 Z M 189.9 29.0 C 190.3 29.4 188.6 29.0 189.9 28.8 C 190.0 28.9 189.7 28.9 189.9 29.0 M 193.9 27.2 C 193.9 27.2 193.9 27.2 193.9 27.2 M 204.6 28.1 C 204.6 28.2 204.6 28.2 204.6 28.1 M 203.6 23.5 C 203.8 23.5 203.8 23.5 203.6 23.5 M 198.2 26.2 C 199.4 25.7 198.6 26.4 198.2 26.2 M 207.1 22.5 C 205.4 22.8 208.6 21.6 207.1 22.5 M 208.5 21.6 C 208.6 21.6 208.6 21.6 208.5 21.6 M 201.4 24.5 C 201.4 24.6 201.4 24.6 201.4 24.5 C 201.4 24.5 201.4 24.5 201.4 24.5 Z M 197.6 26.2 C 195.8 26.5 199.0 25.1 197.6 26.2 M 187.6 29.7 C 188.4 29.1 187.8 30.5 187.6 29.7 M 185.8 30.8 C 185.8 30.8 185.8 30.8 185.8 30.8 C 185.8 30.8 185.8 30.8 185.8 30.8 Z M 204.5 23.5 C 204.5 23.5 204.5 23.5 204.5 23.5 C 204.5 23.5 204.5 23.5 204.5 23.5 Z M 206.3 22.7 C 206.2 22.7 206.2 22.7 206.3 22.7 C 206.3 22.7 206.3 22.7 206.3 22.7 Z M 210.8 25.6 C 210.8 25.6 210.8 25.6 210.8 25.6 C 210.8 25.6 210.8 25.6 210.8 25.6 Z M 187.8 31.9 C 186.5 32.1 188.6 30.1 188.7 31.2 C 189.0 31.6 187.9 31.8 187.8 31.9 M 196.8 27.9 C 197.7 29.1 194.9 26.4 196.8 27.9 M 209.0 22.5 C 210.9 23.7 207.1 21.9 209.0 22.5 M 211.4 21.2 C 212.3 21.3 206.9 23.2 210.4 21.3 C 210.7 20.9 211.1 21.2 211.4 21.2 M 194.2 27.8 C 194.8 28.5 192.1 28.2 194.2 27.8 M 202.6 27.3 C 203.0 26.6 204.4 25.6 204.0 26.7 C 204.4 27.7 202.0 28.0 202.6 27.3 M 183.3 32.2 C 183.8 30.6 183.7 33.3 183.3 32.2 M 188.1 30.5 C 188.1 30.5 188.1 30.5 188.1 30.5 C 188.1 30.5 188.1 30.5 188.1 30.5 Z M 189.9 29.6 C 190.0 29.7 190.0 29.7 189.9 29.6 M 183.7 30.9 C 183.8 30.9 183.8 30.9 183.7 30.9 M 202.1 26.0 C 202.2 26.1 202.2 26.1 202.1 26.0 M 197.9 26.7 C 200.2 27.2 197.0 27.3 197.9 26.7 M 194.3 30.7 C 195.1 31.1 193.2 31.2 194.3 30.7 M 200.8 25.1 C 202.5 25.7 199.4 26.8 200.8 25.1 M 197.0 26.9 C 197.1 26.9 197.1 26.9 197.0 26.9 C 197.0 26.9 197.0 26.9 197.0 26.9 Z M 203.1 27.3 C 203.1 27.3 203.1 27.3 203.1 27.3 C 203.1 27.3 203.1 27.3 203.1 27.3 Z M 203.7 27.0 C 203.6 27.0 203.6 27.0 203.7 27.0 C 203.7 27.0 203.7 27.0 203.7 27.0 Z M 202.3 24.3 C 202.3 24.4 202.3 24.4 202.3 24.3 C 202.3 24.3 202.3 24.3 202.3 24.3 Z M 186.9 34.0 C 188.2 33.6 185.9 34.5 186.9 34.0 C 186.9 34.0 186.9 34.0 186.9 34.0 Z M 191.4 28.4 C 193.9 28.5 190.2 29.8 191.4 28.4 C 191.4 28.4 191.4 28.4 191.4 28.4 Z M 194.4 29.0 C 194.4 29.1 194.4 29.1 194.4 29.0 C 194.4 29.0 194.4 29.0 194.4 29.0 Z M 199.7 24.7 C 199.7 24.7 199.7 24.7 199.7 24.7 C 199.7 24.7 199.7 24.7 199.7 24.7 Z M 187.6 33.9 C 187.6 33.9 187.6 33.9 187.6 33.9 C 187.6 33.9 187.6 33.9 187.6 33.9 Z M 206.3 23.6 C 206.3 23.6 206.3 23.6 206.3 23.6 C 206.3 23.6 206.3 23.6 206.3 23.6 Z M 199.7 28.8 C 200.0 28.1 199.9 29.1 199.7 28.8 C 199.7 28.8 199.7 28.8 199.7 28.8 Z M 201.6 28.0 C 201.7 28.0 201.7 28.0 201.6 28.0 C 201.6 28.0 201.6 28.0 201.6 28.0 Z M 208.9 21.4 C 209.0 21.3 209.0 21.3 208.9 21.4 C 208.9 21.4 208.9 21.4 208.9 21.4 Z M 207.0 27.3 C 207.0 27.2 207.0 27.2 207.0 27.3 C 207.0 27.3 207.0 27.3 207.0 27.3 Z M 208.1 25.3 C 208.1 25.3 208.1 25.3 208.1 25.3 C 208.1 25.3 208.1 25.3 208.1 25.3 Z M 202.1 24.8 C 203.9 23.8 201.8 25.4 202.1 24.8 C 202.1 24.8 202.1 24.8 202.1 24.8 Z M 212.8 23.1 C 212.8 23.2 212.8 23.2 212.8 23.1 C 212.8 23.1 212.8 23.1 212.8 23.1 Z M 213.2 21.2 C 213.2 21.2 213.2 21.2 213.2 21.2 C 213.2 21.2 213.2 21.2 213.2 21.2 Z M 213.3 20.1 C 213.4 20.2 213.4 20.2 213.3 20.1 C 213.3 20.1 213.3 20.1 213.3 20.1 Z M 190.5 31.3 C 190.5 31.3 190.5 31.3 190.5 31.3 C 190.5 31.3 190.5 31.3 190.5 31.3 Z M 188.8 29.1 C 188.8 29.0 188.8 29.0 188.8 29.1 C 188.8 29.1 188.8 29.1 188.8 29.1 Z M 191.4 27.9 C 191.4 27.9 191.4 27.9 191.4 27.9 C 191.4 27.9 191.4 27.9 191.4 27.9 Z M 190.6 33.1 C 190.6 33.0 190.6 33.0 190.6 33.1 C 190.6 33.1 190.6 33.1 190.6 33.1 Z M 199.7 27.2 C 199.6 27.1 199.6 27.1 199.7 27.2 C 199.7 27.2 199.7 27.2 199.7 27.2 Z M 201.0 27.9 C 200.9 27.8 200.9 27.8 201.0 27.9 C 201.0 27.9 201.0 27.9 201.0 27.9 Z M 199.2 30.1 C 199.2 30.1 199.2 30.1 199.2 30.1 C 199.2 30.1 199.2 30.1 199.2 30.1 Z M 202.0 28.5 C 202.0 28.5 202.0 28.5 202.0 28.5 C 202.0 28.5 202.0 28.5 202.0 28.5 Z M 183.8 35.1 C 183.8 35.1 183.8 35.1 183.8 35.1 C 183.8 35.1 183.8 35.1 183.8 35.1 Z M 182.9 33.2 C 182.9 33.3 182.9 33.3 182.9 33.2 C 182.9 33.2 182.9 33.2 182.9 33.2 Z M 199.4 25.6 C 199.7 25.0 200.6 25.8 199.4 25.6 M 195.8 27.3 C 195.8 27.3 195.8 27.3 195.8 27.3 C 195.8 27.3 195.8 27.3 195.8 27.3 Z M 205.8 23.3 C 206.6 23.9 203.9 23.6 205.8 23.3 C 205.8 23.3 205.8 23.3 205.8 23.3 Z M 205.0 27.3 C 205.1 27.3 205.1 27.3 205.0 27.3 C 205.0 27.3 205.0 27.3 205.0 27.3 Z M 205.9 26.6 C 206.0 26.7 206.0 26.7 205.9 26.6 C 205.9 26.6 205.9 26.6 205.9 26.6 Z M 210.5 22.5 C 210.7 22.5 210.7 22.5 210.5 22.5 M 195.0 26.8 C 195.7 26.9 195.6 26.9 195.0 26.8 M 207.1 22.9 C 207.0 22.9 207.0 22.9 207.1 22.9 C 207.1 22.9 207.1 22.9 207.1 22.9 Z M 211.6 21.6 C 211.5 21.6 211.5 21.6 211.6 21.6 C 211.6 21.6 211.6 21.6 211.6 21.6 Z M 192.6 28.3 C 193.0 29.2 192.4 29.2 192.6 28.3 M 185.2 31.4 C 185.2 31.5 185.2 31.5 185.2 31.4 C 185.2 31.4 185.2 31.4 185.2 31.4 Z M 185.2 31.4 " fill="#96443B"></path><path d="M 225.4 29.8 C 225.4 30.3 224.4 31.1 224.9 30.0 C 224.9 29.9 225.4 29.6 225.4 29.8 Z M 226.9 27.9 C 226.8 28.1 226.7 28.2 226.5 28.2 C 226.0 28.1 227.3 27.5 226.9 27.9 Z M 224.3 30.3 C 224.3 30.4 223.9 31.0 223.8 30.8 C 223.8 30.6 224.3 30.3 224.3 30.3 Z M 227.5 25.7 C 227.6 25.8 227.1 26.4 227.0 26.5 C 226.5 26.6 227.2 25.4 227.5 25.7 Z M 221.1 24.4 C 221.0 24.4 221.0 24.3 221.0 24.3 C 221.0 24.3 221.0 24.4 221.1 24.4 Z M 234.8 17.4 C 234.7 17.5 234.4 17.6 234.3 17.5 C 234.2 17.3 235.0 17.0 234.8 17.4 Z M 216.0 12.0 C 216.0 12.0 215.9 12.4 215.8 12.3 C 215.6 12.2 215.8 12.0 216.0 12.0 Z M 215.7 12.1 C 215.6 12.2 215.4 12.0 215.6 12.0 C 215.8 12.0 215.9 12.0 215.7 12.1 Z M 226.9 10.9 C 227.0 10.9 227.1 10.9 227.0 11.0 C 226.9 11.1 226.7 10.9 226.9 10.9 Z M 226.5 11.1 C 226.4 11.3 226.2 11.0 226.4 11.0 C 226.6 11.0 226.7 11.0 226.5 11.1 Z M 224.4 9.7 C 224.5 9.7 224.6 9.7 224.5 9.7 C 224.4 9.8 224.2 9.7 224.4 9.7 Z M 217.4 17.4 C 217.3 17.3 217.2 16.9 217.4 16.9 C 217.6 16.8 217.5 17.5 217.4 17.4 Z M 217.1 16.9 C 217.0 17.0 216.8 16.7 217.0 16.8 C 217.1 16.8 217.2 16.8 217.1 16.9 Z M 218.0 18.4 C 218.2 18.3 218.4 18.8 218.4 18.8 C 218.3 19.0 218.4 19.2 218.3 19.4 C 218.3 19.4 217.7 18.5 218.0 18.4 Z M 219.5 21.7 C 219.4 21.7 219.3 21.7 219.3 21.5 C 219.4 21.3 219.5 21.6 219.5 21.7 Z M 218.6 19.8 C 218.5 19.8 218.5 19.8 218.5 19.6 C 218.5 19.5 218.7 19.8 218.6 19.8 Z M 230.6 22.5 C 230.8 22.5 230.3 23.0 230.3 23.0 C 230.2 23.0 230.4 22.8 230.2 22.9 C 230.1 23.0 230.0 22.4 230.6 22.5 Z M 227.7 26.9 C 227.6 27.0 227.5 26.9 227.4 26.8 C 227.4 26.8 227.8 26.5 227.7 26.9 Z M 229.6 22.7 C 229.7 22.7 229.6 22.8 229.5 22.8 C 229.5 22.8 229.5 22.7 229.6 22.7 Z M 229.8 22.3 C 229.7 22.4 229.4 22.5 229.3 22.4 C 229.2 22.2 230.0 21.9 229.8 22.3 Z M 231.3 22.1 C 231.2 22.2 231.2 22.2 231.2 22.1 C 231.2 22.0 231.3 22.1 231.3 22.1 Z M 229.6 24.7 C 229.5 24.8 229.5 24.8 229.5 24.7 C 229.5 24.5 229.6 24.7 229.6 24.7 Z M 231.9 20.7 C 231.9 20.7 231.8 21.2 231.5 21.1 C 231.0 20.9 231.8 20.7 231.9 20.7 Z M 232.8 18.8 C 232.7 18.9 232.7 18.8 232.8 18.7 C 232.9 18.6 232.9 18.7 232.8 18.8 Z M 232.8 17.7 C 233.0 17.6 233.2 17.6 233.0 17.8 C 232.7 18.1 232.5 17.9 232.8 17.7 Z M 232.6 18.2 C 232.6 18.1 232.7 18.0 232.7 18.1 C 232.8 18.1 232.7 18.2 232.6 18.2 Z M 231.9 19.9 C 231.9 20.1 231.6 20.1 231.7 19.9 C 231.9 19.6 231.9 19.7 231.9 19.9 Z M 220.8 26.5 C 220.9 26.6 220.7 26.6 220.6 26.6 C 220.5 26.5 220.7 26.4 220.8 26.5 Z M 218.9 19.0 C 218.8 19.1 218.7 19.0 218.7 18.8 C 218.7 18.6 218.9 18.8 218.9 19.0 Z M 217.5 14.2 C 217.4 14.4 217.4 14.3 217.4 14.1 C 217.4 13.9 217.6 14.1 217.5 14.2 Z M 219.6 20.8 C 219.5 20.9 219.0 20.5 219.2 20.2 C 219.4 19.8 219.8 20.6 219.6 20.8 Z M 224.9 23.9 C 225.0 24.0 224.9 24.0 224.9 24.0 C 224.8 23.9 224.8 23.9 224.9 23.9 Z M 219.7 19.6 C 219.8 19.7 219.6 19.7 219.5 19.7 C 219.4 19.6 219.6 19.5 219.7 19.6 Z M 217.6 15.2 C 217.5 15.4 217.2 15.4 217.1 15.3 C 216.6 15.0 216.9 14.6 217.0 14.3 C 217.1 14.0 217.6 15.0 217.6 15.2 Z M 222.0 27.3 C 222.0 27.2 221.9 27.1 221.9 27.0 C 221.8 27.0 221.8 26.9 221.9 26.8 C 221.6 26.4 221.1 26.2 220.9 26.0 C 220.4 25.4 221.2 24.9 221.1 24.4 C 221.1 24.5 221.1 24.6 221.2 24.7 C 221.6 24.7 220.8 23.2 220.8 23.1 C 220.1 21.8 220.5 23.5 220.0 23.7 C 219.8 23.8 220.0 22.7 220.0 22.6 C 220.0 22.1 219.5 22.2 219.6 21.7 C 219.6 21.5 220.4 20.6 220.2 20.5 C 220.1 20.4 220.0 20.0 220.0 19.8 C 219.9 19.5 219.7 19.1 219.4 19.5 C 219.2 19.8 218.9 20.0 219.0 19.5 C 219.1 19.2 219.2 17.4 218.4 17.7 C 218.4 17.7 218.3 18.2 218.3 18.2 C 217.9 17.8 217.7 16.3 217.2 16.1 C 216.3 15.7 217.7 16.2 217.8 15.8 C 217.9 15.0 218.0 14.6 217.6 13.9 C 217.5 13.7 217.2 13.0 216.9 13.5 C 216.7 13.8 216.5 13.7 216.6 14.2 C 216.0 13.8 216.6 13.2 216.4 13.2 C 216.1 13.1 216.1 13.4 216.0 13.1 C 215.9 12.6 215.8 12.8 216.2 12.6 C 216.3 12.5 216.3 12.1 216.3 12.1 C 216.3 12.1 216.3 12.1 216.4 12.0 C 216.2 11.7 215.2 11.4 215.4 11.2 C 215.5 11.1 216.0 11.1 216.2 11.0 C 216.2 11.0 216.2 11.0 216.2 10.9 C 216.1 10.8 215.6 10.5 215.7 10.4 C 215.7 10.4 216.5 10.4 216.3 10.3 C 216.0 10.2 215.9 9.3 216.1 9.2 C 216.3 9.0 217.2 8.5 217.2 8.3 C 217.2 8.1 217.7 8.3 217.9 8.3 C 218.0 8.3 218.3 8.6 218.3 8.7 C 218.4 8.7 218.8 8.7 218.8 8.7 C 218.8 8.7 219.0 8.7 219.3 8.7 C 219.6 8.7 219.9 9.0 220.2 9.2 C 220.6 9.4 220.9 9.2 221.2 9.2 C 221.6 9.2 221.9 9.9 222.2 10.0 C 222.5 10.2 222.6 9.7 223.0 9.7 C 223.4 9.7 223.6 9.9 223.5 9.9 C 223.3 10.0 223.4 10.1 223.6 10.2 C 223.7 10.2 224.1 10.4 224.3 10.4 C 224.5 10.3 223.4 9.7 224.9 10.0 C 225.7 10.2 226.1 10.8 225.9 10.8 C 225.4 10.7 226.4 11.7 226.5 11.5 C 226.5 11.2 227.9 11.5 227.6 11.0 C 227.5 10.9 228.9 11.0 229.1 11.1 C 229.2 11.2 229.9 11.2 230.0 11.6 C 230.0 11.8 230.9 11.4 231.1 11.5 C 231.2 11.5 232.3 11.8 232.5 11.9 C 232.7 12.1 232.2 12.0 231.9 11.9 C 231.7 11.9 231.4 11.6 231.2 11.6 C 231.0 11.6 231.4 11.9 231.7 12.0 C 231.9 12.1 231.9 12.3 232.1 12.4 C 232.3 12.4 232.4 12.4 232.6 12.5 C 232.7 12.5 232.8 12.5 232.8 12.4 C 232.8 12.2 232.7 12.1 232.8 12.1 C 232.8 12.0 233.0 11.9 233.3 12.0 C 233.7 12.1 233.9 12.2 234.3 12.4 C 234.7 12.6 234.9 12.5 235.2 12.5 C 235.5 12.5 235.7 12.6 235.7 12.7 C 235.7 12.8 235.3 12.8 235.3 12.8 C 235.2 12.9 235.6 13.2 235.8 13.3 C 236.5 13.5 235.8 14.1 236.6 14.3 C 237.0 14.4 236.5 14.6 236.2 14.8 C 236.2 14.9 236.3 14.9 236.1 15.3 C 236.2 15.3 235.8 15.7 235.6 15.9 C 235.5 16.0 235.1 16.9 235.2 16.3 C 235.2 16.2 235.3 16.2 235.3 16.1 C 235.3 16.1 235.3 16.1 235.2 16.1 C 235.2 16.1 235.1 15.7 235.1 15.7 C 235.1 15.7 235.2 16.1 235.2 16.1 C 235.0 16.1 234.9 16.1 234.7 16.1 C 234.7 16.2 234.7 16.2 234.7 16.3 C 234.7 16.3 234.7 16.3 234.7 16.4 C 234.7 16.4 234.7 16.4 234.7 16.4 C 234.9 16.5 234.8 16.5 234.7 16.6 C 234.6 17.0 233.9 17.4 233.6 17.6 C 233.5 16.4 232.5 17.6 232.3 18.1 C 232.0 18.6 232.9 19.3 233.0 19.1 C 232.8 19.4 232.6 19.3 232.3 19.2 C 232.4 19.2 231.6 19.2 231.6 19.1 C 230.8 19.6 231.6 20.0 231.5 20.3 C 231.5 20.5 231.3 20.8 231.2 21.0 C 231.1 21.3 231.4 21.2 231.4 21.3 C 231.5 21.9 230.5 21.9 230.3 22.0 C 230.4 21.8 230.5 21.5 230.5 21.3 C 230.5 21.7 230.0 21.5 229.8 21.6 C 229.6 21.7 229.4 22.1 229.2 22.3 C 228.9 22.7 228.7 23.2 228.5 23.6 C 228.6 23.5 229.5 23.3 229.6 23.3 C 229.5 23.4 229.1 23.7 229.5 23.8 C 230.2 23.9 229.1 24.7 229.0 24.9 C 228.5 25.4 228.6 26.3 227.6 26.4 C 227.6 26.4 228.1 25.5 228.0 25.4 C 227.4 25.3 227.0 25.3 226.7 25.9 C 226.6 26.0 226.4 27.1 226.4 27.1 C 226.3 27.0 228.0 27.1 227.1 27.5 C 227.0 27.6 227.0 27.2 226.8 27.3 C 226.5 27.4 226.3 27.8 226.1 28.0 C 226.0 28.1 225.6 28.4 225.6 28.4 C 225.6 28.6 225.9 28.8 225.8 29.0 C 225.8 29.2 225.5 29.3 225.3 29.2 C 225.3 29.2 225.3 29.2 225.3 29.1 C 225.2 29.2 225.2 29.2 225.1 29.1 C 225.1 29.2 225.0 29.3 224.8 29.3 C 224.7 29.3 224.8 29.1 225.0 29.0 C 225.0 29.0 224.9 28.9 224.9 28.9 C 224.7 29.1 224.6 29.4 224.6 29.4 C 224.6 29.9 224.7 30.0 223.9 30.2 C 223.2 30.4 222.2 29.0 222.1 28.1 C 222.0 27.9 221.9 27.7 222.0 27.3 Z M 233.1 12.9 C 233.1 12.9 233.0 12.9 233.0 12.9 C 233.0 12.9 233.0 13.0 233.0 13.1 C 233.2 13.2 232.9 12.9 233.2 13.0 C 233.4 13.1 233.4 13.0 233.1 12.9 Z M 233.7 15.0 C 233.9 15.0 233.9 14.9 233.8 14.8 C 233.7 14.9 233.7 14.9 233.7 15.0 Z M 234.5 15.7 C 234.6 15.4 234.0 15.5 233.7 16.0 C 234.1 15.9 234.4 15.8 234.5 15.7 Z M 234.3 16.6 C 234.3 16.5 234.3 16.5 234.2 16.4 C 234.2 16.3 234.1 16.7 234.0 16.6 C 233.9 16.5 234.0 16.1 233.8 16.2 C 233.8 16.3 233.7 16.3 233.7 16.3 C 233.7 16.4 233.7 16.4 233.7 16.5 C 233.7 16.7 234.2 16.7 234.3 16.6 Z M 231.5 13.3 C 231.7 13.3 231.6 13.2 231.5 13.2 C 231.3 13.3 231.4 13.4 231.5 13.3 Z M 229.9 12.1 C 230.0 12.2 230.2 12.2 230.1 12.0 C 229.9 11.9 229.7 12.0 229.9 12.1 Z M 228.5 15.3 C 228.6 15.3 228.5 15.3 228.4 15.3 C 228.3 15.3 228.4 15.4 228.5 15.3 Z M 229.0 17.1 C 229.0 17.2 229.2 17.3 229.2 17.2 C 229.2 17.1 229.1 16.9 229.0 17.1 Z M 227.8 13.1 C 227.6 13.1 227.7 13.3 227.8 13.2 C 228.0 13.2 227.9 13.1 227.8 13.1 Z M 229.0 15.3 C 228.8 15.2 228.8 15.2 228.7 15.3 C 228.7 15.4 228.8 15.5 229.0 15.5 C 229.2 15.5 229.2 15.4 229.0 15.3 Z M 229.7 16.7 C 229.4 17.0 229.5 17.2 229.8 16.7 C 230.1 16.1 229.9 16.4 229.7 16.7 Z M 228.5 11.3 C 228.6 11.3 228.9 11.3 228.9 11.3 C 228.9 11.3 228.2 11.1 228.5 11.3 Z M 231.0 20.6 C 231.1 20.4 231.1 20.2 230.9 20.4 C 230.6 20.6 230.9 20.7 231.0 20.6 Z M 229.9 20.2 C 230.3 20.3 230.6 20.1 230.6 20.1 C 230.6 20.1 230.4 19.8 230.4 19.7 C 230.5 19.4 231.1 19.3 231.1 18.9 C 231.1 18.4 230.6 19.0 230.5 19.1 C 230.6 19.0 230.6 18.9 230.5 18.8 C 230.3 18.8 230.3 18.9 230.2 19.0 C 230.2 19.2 229.4 20.0 229.9 20.2 Z M 228.4 16.1 C 228.6 16.1 228.7 15.9 228.5 15.8 C 228.3 15.7 228.1 15.6 228.1 15.7 C 228.0 15.8 228.2 16.1 228.4 16.1 Z M 227.8 14.9 C 227.9 14.8 227.8 14.8 227.7 14.8 C 227.4 14.8 227.6 15.0 227.8 14.9 Z M 223.4 10.4 C 223.3 10.5 223.6 10.6 223.6 10.5 C 223.6 10.4 223.5 10.3 223.4 10.4 Z M 224.3 12.5 C 223.9 12.6 224.3 12.8 224.4 12.7 C 224.4 12.7 224.5 12.5 224.3 12.5 Z M 226.0 13.3 C 225.8 13.3 226.0 13.5 226.1 13.4 C 226.2 13.3 226.1 13.3 226.0 13.3 Z M 226.4 14.1 C 226.3 14.0 226.4 14.3 226.6 14.2 C 226.7 14.2 226.6 14.1 226.4 14.1 Z M 228.4 21.2 C 228.4 21.2 228.2 20.9 228.1 21.2 C 228.1 21.5 228.1 21.5 228.4 21.2 Z M 228.0 18.5 C 228.2 18.3 228.3 18.0 227.8 17.4 C 227.3 16.8 227.3 17.1 227.4 17.6 C 227.4 18.0 226.7 17.0 226.8 17.9 C 226.8 18.3 227.9 18.7 228.0 18.5 Z M 225.2 14.6 C 225.6 14.9 226.2 14.6 225.7 14.5 C 225.2 14.3 224.9 14.3 225.2 14.6 Z M 225.1 14.3 C 225.2 14.3 225.1 14.2 225.0 14.2 C 224.8 14.2 224.9 14.3 225.1 14.3 Z M 229.2 24.3 C 229.6 23.4 228.6 23.8 228.6 23.8 C 227.8 24.4 228.8 25.1 229.2 24.3 Z M 216.9 12.3 C 216.9 12.3 216.9 12.4 216.9 12.4 C 216.9 12.4 216.9 12.4 216.9 12.4 C 217.1 12.5 217.1 12.2 217.1 12.2 C 217.0 12.1 216.9 12.2 216.9 12.3 Z M 218.3 16.7 C 218.3 16.6 218.2 16.4 218.0 16.4 C 217.7 16.6 218.2 17.9 218.6 17.1 C 218.7 17.0 219.0 16.0 218.6 16.0 C 218.4 16.0 218.5 17.2 218.3 16.7 Z M 218.4 15.2 C 218.5 15.7 218.7 14.5 218.5 14.8 C 218.3 14.9 218.3 15.0 218.4 15.2 Z M 218.1 10.8 C 217.6 10.2 216.6 10.8 217.5 11.7 C 218.5 12.5 218.9 12.4 218.6 11.9 C 218.2 11.4 218.9 11.7 218.1 10.8 Z M 220.2 16.5 C 219.4 16.7 219.8 16.9 220.4 16.9 C 220.6 16.9 220.7 16.4 220.2 16.5 Z M 221.0 18.1 C 221.0 18.3 221.0 18.3 221.0 18.1 C 221.2 17.9 220.9 17.8 221.0 18.1 Z M 218.7 9.3 C 218.5 9.1 218.1 9.0 218.3 8.9 C 218.5 8.9 218.4 8.9 218.2 8.7 C 217.9 8.6 218.1 9.0 218.2 9.1 C 218.3 9.3 218.9 9.5 218.7 9.3 Z M 223.5 14.4 C 223.4 14.4 223.5 14.6 223.6 14.5 C 223.7 14.5 223.7 14.5 223.5 14.4 Z M 226.6 20.2 C 226.6 20.2 226.5 20.0 226.5 20.2 C 226.4 20.4 226.4 20.4 226.6 20.2 Z M 228.2 25.1 C 228.2 24.9 227.9 25.0 227.8 24.7 C 227.8 24.6 228.0 24.7 228.1 24.8 C 228.0 24.7 227.7 24.2 227.6 24.6 C 227.6 24.8 228.0 25.5 228.2 25.1 Z M 224.0 16.2 C 224.3 16.4 224.1 15.3 224.4 15.4 C 224.6 15.5 224.6 15.3 224.3 15.2 C 224.0 15.1 223.6 16.0 224.0 16.2 Z M 222.8 13.7 C 222.9 13.8 223.6 14.1 223.4 13.9 C 223.2 13.6 222.8 13.6 223.0 13.5 C 223.1 13.4 223.0 13.4 222.9 13.3 C 222.6 13.2 222.8 13.5 222.8 13.7 Z M 221.1 9.5 C 221.1 9.5 221.5 9.6 221.3 9.4 C 221.2 9.3 221.0 9.4 221.1 9.5 Z M 225.3 21.5 C 225.3 21.3 225.2 21.2 225.1 21.5 C 224.9 21.7 225.3 21.7 225.3 21.5 Z M 220.5 10.1 C 220.8 10.3 220.5 9.9 220.7 10.0 C 221.0 10.1 221.0 10.0 220.7 9.9 C 220.4 9.8 220.2 9.9 220.5 10.1 Z M 226.1 25.6 C 226.1 25.5 225.9 25.4 225.9 25.5 C 225.8 25.6 226.1 25.7 226.1 25.6 Z M 224.9 24.2 C 224.9 24.2 225.0 24.1 225.0 24.1 C 225.8 23.0 224.1 24.3 224.9 24.2 Z M 224.1 21.7 C 224.3 22.0 224.3 21.6 224.3 21.6 C 224.1 21.5 224.1 21.6 224.1 21.7 Z M 223.0 19.0 C 222.9 19.0 223.0 19.3 223.1 19.2 C 223.3 19.1 223.2 19.0 223.0 19.0 Z M 225.8 27.9 C 226.0 27.8 225.9 27.8 225.8 27.8 C 225.7 27.9 225.7 28.0 225.8 27.9 Z M 223.2 21.2 C 223.3 21.3 223.3 21.2 223.2 21.1 C 223.1 21.0 223.1 21.2 223.2 21.2 Z M 220.1 13.0 C 220.2 13.1 220.3 13.1 220.3 13.2 C 220.5 13.0 220.3 12.5 220.5 12.4 C 220.5 12.4 220.5 12.4 220.5 12.4 C 220.5 12.4 220.5 12.4 220.6 12.4 C 220.7 12.4 220.8 12.4 220.7 12.5 C 220.8 12.5 220.8 12.6 220.9 12.7 C 221.0 12.5 221.0 12.3 220.8 12.2 C 220.6 12.1 220.3 12.2 220.0 12.3 C 219.9 12.4 219.9 12.6 220.0 12.7 C 220.0 12.7 220.0 12.7 220.0 12.7 C 220.2 12.7 220.4 12.8 220.2 12.9 C 220.1 12.9 220.0 12.9 220.0 12.9 C 220.0 12.9 220.0 13.0 220.1 13.0 Z M 222.4 20.3 C 222.6 20.5 222.6 20.3 222.6 20.0 C 222.6 19.8 222.2 20.2 222.4 20.3 Z M 225.5 27.7 C 225.4 27.6 225.3 27.6 225.3 27.6 C 225.3 27.6 225.3 27.7 225.3 27.7 C 225.3 27.9 225.3 28.0 225.4 28.2 C 225.5 28.1 225.6 28.0 225.5 27.7 Z M 223.8 25.7 C 223.9 25.7 224.2 26.7 224.3 26.5 C 224.6 26.1 225.1 26.3 224.7 25.7 C 224.5 25.4 223.9 25.3 223.7 25.0 C 222.6 23.4 223.4 25.6 223.4 26.1 C 223.4 26.2 223.7 25.6 223.8 25.7 Z M 222.4 23.6 C 222.2 23.6 222.1 23.9 222.2 24.0 C 222.4 24.4 222.6 23.6 222.4 23.6 Z M 224.0 28.5 C 224.0 28.5 224.0 28.5 224.1 28.5 C 224.0 28.5 224.0 28.5 223.9 28.5 C 224.0 28.5 224.0 28.5 224.0 28.5 Z M 224.3 29.8 C 224.6 29.2 223.7 29.6 223.5 29.8 C 223.2 30.0 224.1 30.1 224.3 29.8 Z M 222.1 25.2 C 222.0 24.8 220.8 24.8 221.1 25.4 C 221.3 26.0 222.3 26.0 222.1 25.2 Z M 219.4 22.0 C 219.6 22.1 219.5 22.6 219.3 22.4 C 219.2 22.3 219.4 22.0 219.4 22.0 Z M 220.9 27.6 C 220.9 27.5 221.0 27.6 221.0 27.6 C 220.9 27.8 220.9 27.8 220.9 27.6 Z M 221.5 26.9 C 221.4 27.1 221.5 27.3 221.5 27.4 C 221.5 27.6 221.3 27.3 221.3 27.2 C 221.2 27.1 221.5 26.9 221.5 26.9 Z M 220.5 23.9 C 220.4 24.2 220.3 23.9 220.3 23.8 C 220.3 23.7 220.5 23.8 220.5 23.9 Z M 220.5 24.7 C 220.5 24.6 220.6 24.6 220.7 24.8 C 220.7 25.0 220.5 24.8 220.5 24.7 Z M 220.6 23.3 C 220.8 23.6 221.0 24.0 220.7 24.0 C 220.6 24.1 220.2 22.8 220.6 23.3 Z M 220.6 23.3 " fill="#96443B"></path></g></svg>