<?xml version="1.0" encoding="UTF-8" standalone="no"?><svg xmlns="http://www.w3.org/2000/svg" xmlns:xlink="http://www.w3.org/1999/xlink" clip-rule="evenodd" stroke-miterlimit="10" viewBox="0 0 253 79"><desc>SVG generated by Keynote</desc><defs></defs><g transform="matrix(1.00, 0.00, -0.00, -1.00, 0.0, 79.0)"><image xlink:href="../../1E6779FB-9B16-4F0C-8AFF-8D3428667565/assets/904E49CEB9547E9C1621BE4BC4532D64.png" width="250.00" height="74.00" transform="matrix(1.00, 0.00, -0.00, -1.00, 2.1, 75.9)" opacity="0.50"></image><path d="M 6.8 22.1 C 6.7 21.9 7.2 21.7 7.4 21.2 C 7.5 20.6 7.6 19.9 7.3 20.0 C 6.9 20.2 6.7 20.4 6.3 20.1 C 5.9 19.8 5.2 19.4 5.0 19.8 C 4.7 20.2 4.0 21.8 4.4 22.3 C 4.7 22.8 4.9 22.9 5.1 23.3 C 5.4 23.7 4.6 23.4 4.6 23.4 C 4.6 23.4 4.5 24.3 4.4 24.9 C 4.4 25.5 4.3 26.2 4.5 26.3 C 4.6 26.4 4.9 26.6 4.9 26.6 C 4.9 26.6 4.5 26.9 4.4 27.4 C 4.4 27.9 4.6 27.7 4.8 27.6 C 5.0 27.6 5.5 27.0 5.5 27.2 C 5.5 27.4 4.7 28.0 4.6 28.3 C 4.5 28.7 4.6 29.4 4.6 29.4 C 4.6 29.4 5.0 29.3 5.1 29.4 C 5.2 29.5 5.3 30.2 5.1 30.2 C 5.0 30.3 4.5 30.2 4.5 30.5 C 4.4 31.7 5.3 31.5 5.3 31.6 C 5.3 31.7 4.6 31.7 4.5 32.0 C 4.4 32.3 4.5 34.5 4.7 34.6 C 4.8 34.7 4.2 35.5 4.7 35.8 C 5.1 36.1 5.2 36.2 5.3 36.3 C 5.4 36.4 6.1 36.8 5.8 37.0 C 5.6 37.2 4.8 36.3 4.6 36.6 C 4.4 36.9 4.3 38.3 4.5 38.5 C 4.8 38.8 5.5 38.9 5.5 39.1 C 5.5 39.3 4.6 40.1 4.8 40.2 C 4.9 40.2 5.6 40.3 5.8 40.3 C 5.9 40.3 7.1 40.6 7.3 40.4 C 7.5 40.3 7.9 39.4 7.6 39.5 C 7.2 39.6 6.8 39.8 6.6 39.5 C 6.5 39.3 6.4 39.1 6.6 39.0 C 6.7 38.9 6.9 39.1 7.1 38.6 C 7.3 38.1 7.6 38.4 7.6 37.9 C 7.6 37.5 7.5 37.0 7.2 37.1 C 6.9 37.1 6.5 36.6 6.6 36.3 C 6.6 36.0 7.2 36.5 7.4 35.5 C 7.7 34.5 7.7 33.8 7.5 33.5 C 7.3 33.2 6.5 33.1 6.9 32.6 C 7.2 32.1 7.4 32.4 7.4 31.7 C 7.3 31.1 6.8 30.8 6.7 30.4 C 6.7 30.0 6.7 29.8 6.7 29.8 C 6.7 29.8 7.6 30.1 7.6 29.1 C 7.7 28.1 7.7 27.9 7.1 28.1 C 6.5 28.3 6.5 27.6 6.9 27.6 C 7.3 27.5 7.5 27.0 7.6 26.6 C 7.6 26.3 6.6 26.2 6.6 26.1 C 6.6 26.0 6.6 25.6 7.0 25.7 C 7.3 25.9 7.3 25.5 7.5 25.2 C 7.6 24.9 7.5 24.0 7.3 24.0 C 7.1 24.0 6.5 24.5 6.8 23.9 C 7.1 23.3 7.7 23.1 7.6 22.5 C 7.6 22.0 7.0 22.5 6.8 22.1 C 6.8 22.1 6.8 22.1 6.8 22.1 Z M 7.6 40.8 C 7.6 39.8 5.0 40.4 4.4 40.8 C 3.9 41.2 4.2 41.9 4.1 42.6 C 4.0 43.3 4.9 43.1 5.1 43.5 C 5.3 43.9 4.8 43.7 4.4 43.9 C 4.0 44.1 4.4 45.1 4.3 45.7 C 4.3 46.4 5.2 47.0 5.2 47.5 C 5.3 48.0 5.7 47.1 5.6 48.0 C 5.6 48.9 5.1 48.5 4.8 47.4 C 4.6 46.4 4.3 47.8 4.2 48.4 C 4.1 49.0 4.5 49.9 4.5 50.4 C 4.4 50.8 5.1 50.3 5.1 50.9 C 5.1 51.6 4.4 51.3 4.3 51.9 C 4.2 52.6 4.8 52.5 5.0 52.9 C 5.1 53.2 4.7 53.1 4.7 53.4 C 4.6 53.7 4.4 54.1 4.6 54.8 C 4.7 55.4 4.9 55.2 5.0 55.5 C 5.0 55.8 5.0 56.3 5.0 56.3 C 4.8 56.3 4.6 56.4 4.3 56.4 C 4.3 56.4 4.3 57.6 4.2 57.9 C 4.2 58.2 4.5 59.0 4.6 58.8 C 4.8 58.6 5.2 59.4 5.1 59.5 C 5.0 59.7 4.7 60.4 4.6 60.8 C 4.4 61.3 6.1 61.0 6.4 61.0 C 6.6 60.9 7.6 61.1 7.6 60.8 C 7.7 60.4 7.4 60.2 7.6 60.2 C 7.9 60.3 7.6 59.3 7.6 59.0 C 7.6 58.7 7.0 58.4 7.0 58.4 C 7.0 58.4 6.4 58.1 6.4 57.7 C 6.4 57.2 7.5 57.0 7.5 57.0 C 7.5 57.0 7.7 56.5 7.6 55.9 C 7.6 55.3 6.7 54.7 6.5 54.6 C 6.3 54.5 7.1 54.5 7.2 54.1 C 7.3 53.7 7.6 53.1 7.5 52.9 C 7.5 52.8 7.0 52.5 7.0 52.5 C 7.0 52.5 6.6 51.8 6.6 51.6 C 6.6 51.4 7.4 51.7 7.4 51.7 C 7.4 51.7 7.6 50.2 7.7 49.8 C 7.8 49.5 7.6 49.0 7.5 48.8 C 7.5 48.6 6.5 48.2 6.6 47.9 C 6.7 47.5 7.2 48.2 7.3 47.9 C 7.4 47.5 7.6 46.9 7.6 46.8 C 7.6 46.6 7.3 46.4 7.2 46.1 C 7.2 45.8 6.4 45.4 6.4 44.9 C 6.4 44.5 6.9 44.3 7.0 44.1 C 7.1 43.9 7.7 43.8 7.7 43.4 C 7.7 43.1 7.3 43.3 7.3 43.0 C 7.3 42.7 6.8 42.7 6.9 42.3 C 7.0 42.0 7.8 42.2 7.7 41.8 C 7.6 41.6 7.7 41.8 7.6 40.8 C 7.6 40.8 7.6 40.8 7.6 40.8 Z M 7.6 61.5 C 7.9 61.0 7.5 60.7 7.1 60.8 C 6.7 60.9 5.8 61.1 5.5 61.0 C 5.2 60.8 4.4 60.2 4.4 61.2 C 4.3 62.2 4.7 62.4 4.9 62.3 C 5.1 62.3 6.2 62.3 6.1 62.5 C 6.1 62.8 5.9 63.1 5.8 63.2 C 5.6 63.2 4.8 63.9 5.1 64.3 C 5.3 64.7 5.7 64.9 5.7 64.9 C 5.8 65.2 5.9 65.4 6.1 65.6 C 6.1 65.6 5.8 66.4 6.1 66.8 C 6.5 67.1 6.8 67.6 7.0 68.0 C 7.1 68.3 7.4 68.5 7.6 68.4 C 7.9 68.4 8.8 68.2 8.8 68.2 C 8.8 68.2 9.3 68.4 9.4 68.7 C 9.4 68.9 9.1 69.3 8.9 69.4 C 8.8 69.5 8.5 69.8 8.7 70.2 C 8.9 70.5 9.8 71.9 10.2 71.9 C 10.6 71.8 10.7 71.4 11.0 71.5 C 11.2 71.5 12.1 72.0 12.0 72.3 C 12.0 72.5 11.7 72.9 12.0 73.0 C 12.3 73.1 12.8 73.5 12.9 73.4 C 12.9 73.3 13.2 73.2 13.3 73.0 C 13.4 72.8 14.1 72.8 14.2 72.7 C 14.4 72.6 14.9 72.7 14.9 72.7 C 15.0 72.9 15.2 73.1 15.3 73.3 C 15.3 73.3 14.8 73.7 14.6 73.7 C 14.4 73.8 14.6 74.2 14.8 74.3 C 15.0 74.4 16.2 74.6 16.2 74.6 C 16.3 74.2 16.4 73.8 16.5 73.4 C 16.8 73.4 17.1 73.4 17.4 73.3 C 17.4 73.3 17.1 74.7 17.7 74.7 C 18.3 74.8 19.0 74.8 19.0 74.8 C 19.0 74.8 19.6 74.3 19.7 74.2 C 19.9 74.2 19.9 73.0 19.9 73.0 C 19.9 72.5 19.8 72.1 19.8 71.6 C 19.8 71.6 19.2 71.1 18.8 71.3 C 18.5 71.5 18.8 72.0 18.7 72.2 C 18.6 72.5 18.1 72.7 18.1 72.7 C 17.9 72.4 17.7 72.1 17.5 71.8 C 17.5 71.8 17.3 71.6 17.2 71.3 C 17.0 71.0 16.3 70.8 16.1 70.8 C 15.9 70.8 15.6 71.1 15.3 71.2 C 15.0 71.4 14.9 71.8 14.7 71.4 C 14.5 70.9 14.5 70.5 14.4 70.5 C 14.2 70.4 13.4 70.5 13.4 70.5 C 13.2 70.6 13.0 70.6 12.8 70.5 C 12.8 70.5 12.2 70.5 12.3 70.2 C 12.4 69.9 11.4 69.6 11.4 69.6 C 11.4 69.6 11.9 69.0 11.8 68.7 C 11.7 68.5 11.6 68.1 11.2 67.9 C 10.8 67.7 10.0 68.1 10.0 68.1 C 10.1 67.8 10.2 67.6 10.2 67.4 C 10.0 67.0 9.9 66.7 9.7 66.4 C 9.7 66.4 9.2 65.7 9.1 65.8 C 9.0 65.9 8.4 66.3 8.2 66.4 C 8.1 66.4 7.6 66.1 7.8 65.9 C 8.0 65.8 8.3 65.1 8.3 65.1 C 8.3 65.1 8.6 64.6 8.5 64.4 C 8.4 64.1 8.1 63.8 7.9 63.8 C 7.8 63.7 7.1 63.5 7.1 63.5 C 7.3 63.3 7.5 63.1 7.7 63.0 C 7.7 63.0 7.2 62.3 7.6 61.5 C 7.6 61.5 7.6 61.5 7.6 61.5 Z M 20.2 71.2 C 19.2 71.2 19.9 73.9 20.3 74.4 C 20.7 75.0 21.4 74.6 22.0 74.7 C 22.7 74.8 22.5 74.0 22.9 73.7 C 23.3 73.5 23.2 74.0 23.3 74.4 C 23.5 74.8 24.5 74.5 25.2 74.5 C 25.8 74.5 26.5 73.7 27.0 73.6 C 27.5 73.6 26.5 73.1 27.4 73.2 C 28.4 73.2 27.9 73.7 26.9 74.0 C 25.8 74.3 27.3 74.5 27.8 74.6 C 28.4 74.7 29.4 74.3 29.8 74.4 C 30.3 74.4 29.7 73.7 30.4 73.7 C 31.0 73.8 30.7 74.5 31.4 74.6 C 32.0 74.7 31.9 74.0 32.3 73.9 C 32.6 73.7 32.6 74.1 32.8 74.2 C 33.1 74.2 33.6 74.4 34.2 74.3 C 34.8 74.1 34.7 73.9 35.0 73.9 C 35.2 73.8 35.7 73.8 35.7 73.8 C 35.8 74.1 35.8 74.3 35.9 74.5 C 35.9 74.5 37.0 74.6 37.3 74.6 C 37.7 74.7 38.4 74.4 38.2 74.2 C 38.0 74.1 38.8 73.6 39.0 73.7 C 39.1 73.8 39.7 74.2 40.1 74.3 C 40.5 74.5 40.4 72.7 40.4 72.5 C 40.4 72.3 40.6 71.3 40.3 71.2 C 39.9 71.1 39.7 71.5 39.7 71.2 C 39.8 71.0 38.7 71.2 38.5 71.2 C 38.2 71.2 37.8 71.9 37.8 71.9 C 37.8 71.9 37.6 72.4 37.1 72.4 C 36.6 72.4 36.5 71.3 36.5 71.3 C 36.5 71.3 35.9 71.1 35.3 71.2 C 34.8 71.2 34.1 72.1 34.0 72.3 C 33.9 72.5 33.9 71.7 33.5 71.6 C 33.1 71.5 32.6 71.2 32.4 71.3 C 32.2 71.3 31.9 71.9 31.9 71.9 C 31.9 71.9 31.2 72.2 31.0 72.2 C 30.9 72.2 31.1 71.4 31.1 71.4 C 31.1 71.4 29.6 71.2 29.3 71.1 C 29.0 71.1 28.5 71.3 28.2 71.3 C 28.0 71.4 27.7 72.4 27.3 72.3 C 27.0 72.2 27.7 71.6 27.3 71.5 C 27.0 71.4 26.4 71.2 26.2 71.2 C 26.0 71.2 25.8 71.6 25.5 71.6 C 25.2 71.7 24.8 72.4 24.4 72.4 C 23.9 72.4 23.7 72.0 23.5 71.9 C 23.4 71.8 23.2 71.1 22.9 71.1 C 22.5 71.1 22.8 71.5 22.4 71.5 C 22.1 71.5 22.1 72.0 21.8 71.9 C 21.4 71.8 21.6 71.0 21.2 71.1 C 21.1 71.2 21.2 71.1 20.2 71.2 C 20.2 71.2 20.2 71.2 20.2 71.2 Z M 41.1 71.3 C 40.7 71.0 40.2 71.4 40.3 71.8 C 40.3 72.2 40.5 73.1 40.3 73.4 C 40.2 73.7 39.6 74.4 40.4 74.5 C 41.3 74.7 41.5 74.4 41.5 74.1 C 41.5 73.9 41.7 72.9 41.9 73.0 C 42.1 73.1 42.3 73.4 42.4 73.5 C 42.5 73.6 42.8 74.6 43.2 74.5 C 43.6 74.3 44.0 74.0 44.0 74.0 C 44.2 74.0 44.4 74.0 44.7 74.0 C 44.7 74.0 45.2 74.6 45.7 74.5 C 46.2 74.3 46.7 74.3 47.0 74.4 C 47.4 74.4 47.7 74.3 47.8 74.1 C 47.8 73.9 48.3 73.0 48.3 73.0 C 48.3 73.0 48.8 72.8 49.0 72.9 C 49.3 73.1 49.3 73.5 49.3 73.7 C 49.2 73.9 49.3 74.4 49.6 74.5 C 50.0 74.6 51.5 75.0 51.7 74.7 C 51.9 74.5 51.9 74.1 52.0 74.0 C 52.2 73.9 53.2 73.9 53.3 74.1 C 53.4 74.3 53.3 74.8 53.6 74.8 C 53.9 74.7 54.4 74.9 54.4 74.7 C 54.4 74.6 54.6 74.5 54.7 74.2 C 54.7 73.9 55.3 73.7 55.4 73.5 C 55.5 73.4 55.9 73.4 55.9 73.4 C 56.1 73.5 56.3 73.7 56.5 73.8 C 56.5 73.8 56.2 74.3 56.0 74.4 C 55.8 74.5 56.1 74.8 56.3 74.9 C 56.5 74.9 57.6 74.8 57.6 74.8 C 57.6 74.5 57.6 74.1 57.6 73.7 C 57.9 73.6 58.2 73.5 58.4 73.4 C 58.4 73.4 58.3 74.8 58.8 74.8 C 59.3 74.8 60.0 74.8 60.0 74.8 C 60.0 74.8 60.5 74.3 60.7 74.2 C 60.8 74.2 60.8 73.0 60.8 73.0 C 60.8 72.5 60.8 72.1 60.7 71.6 C 60.7 71.6 60.1 71.1 59.7 71.3 C 59.4 71.5 59.7 72.0 59.6 72.2 C 59.6 72.5 59.1 72.7 59.1 72.7 C 58.8 72.4 58.6 72.2 58.3 71.9 C 58.3 71.9 58.1 71.7 57.9 71.5 C 57.7 71.2 56.9 71.1 56.6 71.2 C 56.4 71.3 56.2 71.6 55.9 71.8 C 55.6 72.1 55.7 72.5 55.3 72.2 C 55.0 71.8 54.8 71.5 54.6 71.5 C 54.4 71.5 53.7 71.9 53.7 71.9 C 53.5 72.0 53.3 72.1 53.1 72.2 C 53.1 72.2 52.5 72.5 52.4 72.2 C 52.4 71.9 51.2 72.2 51.2 72.2 C 51.2 72.2 51.3 71.4 51.0 71.3 C 50.8 71.1 50.3 71.0 49.8 71.1 C 49.4 71.2 49.0 72.0 49.0 72.0 C 48.9 71.8 48.7 71.6 48.6 71.4 C 48.2 71.3 47.7 71.3 47.3 71.2 C 47.3 71.2 46.3 71.3 46.3 71.4 C 46.3 71.6 46.4 72.2 46.4 72.4 C 46.3 72.6 45.8 72.8 45.7 72.6 C 45.7 72.4 45.2 71.7 45.2 71.7 C 45.2 71.7 44.8 71.3 44.5 71.3 C 44.2 71.2 43.8 71.5 43.7 71.6 C 43.6 71.7 43.1 72.2 43.1 72.2 C 43.0 72.0 42.9 71.8 42.7 71.6 C 42.7 71.6 41.9 71.9 41.1 71.3 C 41.1 71.3 41.1 71.3 41.1 71.3 Z M 61.2 71.2 C 60.1 71.2 60.8 73.9 61.2 74.4 C 61.6 75.0 62.3 74.6 63.0 74.7 C 63.7 74.8 63.4 74.0 63.8 73.7 C 64.2 73.5 64.1 74.0 64.3 74.4 C 64.4 74.8 65.5 74.5 66.1 74.5 C 66.7 74.5 67.4 73.7 67.9 73.6 C 68.4 73.6 67.5 73.1 68.4 73.2 C 69.3 73.2 68.8 73.7 67.8 74.0 C 66.7 74.3 68.2 74.5 68.8 74.6 C 69.3 74.7 70.3 74.3 70.8 74.4 C 71.2 74.4 70.6 73.7 71.3 73.7 C 72.0 73.8 71.6 74.5 72.3 74.6 C 73.0 74.7 72.9 74.0 73.2 73.9 C 73.6 73.7 73.5 74.1 73.8 74.2 C 74.1 74.2 74.5 74.4 75.1 74.3 C 75.8 74.1 75.6 73.9 75.9 73.9 C 76.2 73.8 76.7 73.8 76.7 73.8 C 76.7 74.1 76.7 74.3 76.8 74.5 C 76.8 74.5 77.9 74.6 78.3 74.6 C 78.6 74.7 79.4 74.4 79.2 74.2 C 79.0 74.1 79.7 73.6 79.9 73.7 C 80.1 73.8 80.7 74.2 81.1 74.3 C 81.4 74.5 81.3 72.7 81.3 72.5 C 81.3 72.3 81.6 71.3 81.2 71.2 C 80.9 71.1 80.6 71.5 80.7 71.2 C 80.7 71.0 79.7 71.2 79.4 71.2 C 79.1 71.2 78.8 71.9 78.8 71.9 C 78.8 71.9 78.5 72.4 78.0 72.4 C 77.6 72.4 77.4 71.3 77.4 71.3 C 77.4 71.3 76.8 71.1 76.3 71.2 C 75.7 71.2 75.1 72.1 75.0 72.3 C 74.9 72.5 74.9 71.7 74.5 71.6 C 74.1 71.5 73.5 71.2 73.3 71.3 C 73.1 71.3 72.9 71.9 72.9 71.9 C 72.9 71.9 72.1 72.2 72.0 72.2 C 71.8 72.2 72.1 71.4 72.1 71.4 C 72.1 71.4 70.5 71.2 70.2 71.1 C 69.9 71.1 69.4 71.3 69.2 71.3 C 68.9 71.4 68.6 72.4 68.3 72.3 C 67.9 72.2 68.6 71.6 68.3 71.5 C 67.9 71.4 67.3 71.2 67.1 71.2 C 67.0 71.2 66.7 71.6 66.4 71.6 C 66.2 71.7 65.8 72.4 65.3 72.4 C 64.9 72.4 64.6 72.0 64.5 71.9 C 64.3 71.8 64.2 71.1 63.8 71.1 C 63.4 71.1 63.7 71.5 63.4 71.5 C 63.0 71.5 63.0 72.0 62.7 71.9 C 62.3 71.8 62.6 71.0 62.2 71.1 C 62.0 71.2 62.2 71.1 61.2 71.2 C 61.2 71.2 61.2 71.2 61.2 71.2 Z M 83.4 72.0 C 83.2 72.1 83.0 71.6 82.5 71.4 C 81.9 71.3 81.2 71.3 81.3 71.6 C 81.5 71.9 81.7 72.1 81.4 72.5 C 81.1 72.9 80.7 73.6 81.1 73.9 C 81.5 74.1 83.1 74.8 83.6 74.5 C 84.1 74.1 84.2 73.9 84.6 73.7 C 85.0 73.5 84.7 74.3 84.7 74.3 C 84.7 74.3 85.6 74.4 86.2 74.4 C 86.8 74.5 87.5 74.5 87.6 74.4 C 87.7 74.2 87.9 73.9 87.9 73.9 C 87.9 73.9 88.2 74.3 88.7 74.4 C 89.2 74.5 89.0 74.2 88.9 74.1 C 88.9 73.9 88.3 73.4 88.5 73.4 C 88.7 73.4 89.3 74.2 89.6 74.2 C 90.0 74.3 90.7 74.3 90.7 74.3 C 90.7 74.3 90.6 73.8 90.7 73.7 C 90.8 73.6 91.5 73.5 91.5 73.7 C 91.6 73.9 91.5 74.3 91.9 74.4 C 93.0 74.5 92.8 73.6 92.9 73.5 C 93.0 73.5 93.0 74.2 93.3 74.3 C 93.6 74.4 95.8 74.3 95.9 74.2 C 96.0 74.0 96.8 74.6 97.1 74.2 C 97.4 73.8 97.5 73.6 97.6 73.5 C 97.7 73.4 98.1 72.7 98.3 73.0 C 98.5 73.3 97.6 74.0 97.9 74.2 C 98.2 74.4 99.6 74.5 99.8 74.3 C 100.1 74.0 100.2 73.3 100.4 73.3 C 100.6 73.3 101.4 74.2 101.5 74.0 C 101.5 73.9 101.6 73.2 101.6 73.1 C 101.6 72.9 101.9 71.7 101.7 71.5 C 101.6 71.4 100.7 70.9 100.8 71.2 C 100.9 71.6 101.1 72.0 100.8 72.2 C 100.6 72.4 100.4 72.4 100.3 72.3 C 100.2 72.1 100.4 72.0 99.9 71.7 C 99.4 71.5 99.7 71.2 99.2 71.2 C 98.8 71.3 98.3 71.3 98.4 71.6 C 98.4 71.9 97.9 72.3 97.6 72.3 C 97.3 72.2 97.8 71.6 96.8 71.4 C 95.8 71.1 95.1 71.1 94.8 71.3 C 94.5 71.6 94.4 72.3 93.9 72.0 C 93.4 71.6 93.7 71.5 93.0 71.5 C 92.4 71.5 92.1 72.1 91.7 72.1 C 91.3 72.1 91.1 72.1 91.1 72.1 C 91.1 72.1 91.4 71.3 90.4 71.2 C 89.4 71.2 89.2 71.1 89.4 71.7 C 89.6 72.3 88.9 72.3 88.9 72.0 C 88.8 71.6 88.3 71.3 87.9 71.2 C 87.6 71.2 87.5 72.2 87.4 72.2 C 87.3 72.3 86.9 72.2 87.0 71.9 C 87.2 71.5 86.8 71.5 86.5 71.4 C 86.2 71.2 85.3 71.3 85.3 71.5 C 85.3 71.7 85.8 72.4 85.2 72.0 C 84.6 71.7 84.4 71.2 83.9 71.2 C 83.3 71.2 83.8 71.8 83.4 72.0 C 83.4 72.0 83.4 72.0 83.4 72.0 Z M 102.5 71.3 C 102.1 71.0 101.6 71.4 101.7 71.8 C 101.7 72.2 101.9 73.1 101.7 73.4 C 101.6 73.7 101.0 74.4 101.8 74.5 C 102.7 74.7 102.9 74.4 102.9 74.1 C 102.9 73.9 103.1 72.9 103.3 73.0 C 103.5 73.1 103.7 73.4 103.8 73.5 C 103.9 73.6 104.2 74.6 104.6 74.5 C 105.0 74.3 105.4 74.0 105.4 74.0 C 105.6 74.0 105.8 74.0 106.1 74.0 C 106.1 74.0 106.6 74.6 107.1 74.5 C 107.6 74.3 108.1 74.3 108.4 74.4 C 108.8 74.4 109.1 74.3 109.2 74.1 C 109.2 73.9 109.7 73.0 109.7 73.0 C 109.7 73.0 110.2 72.8 110.4 72.9 C 110.7 73.1 110.7 73.5 110.7 73.7 C 110.6 73.9 110.7 74.4 111.0 74.5 C 111.4 74.6 112.9 75.0 113.1 74.7 C 113.3 74.5 113.3 74.1 113.4 74.0 C 113.6 73.9 114.6 73.9 114.7 74.1 C 114.8 74.3 114.7 74.8 115.0 74.8 C 115.3 74.7 115.8 74.9 115.8 74.7 C 115.8 74.6 116.0 74.5 116.1 74.2 C 116.1 73.9 116.7 73.7 116.8 73.5 C 116.9 73.4 117.3 73.4 117.3 73.4 C 117.5 73.5 117.7 73.7 117.9 73.8 C 117.9 73.8 117.6 74.3 117.4 74.4 C 117.2 74.5 117.5 74.8 117.7 74.9 C 117.9 74.9 119.0 74.8 119.0 74.8 C 119.0 74.5 119.0 74.1 119.0 73.7 C 119.3 73.6 119.6 73.5 119.8 73.4 C 119.8 73.4 119.7 74.8 120.2 74.8 C 120.7 74.8 121.4 74.8 121.4 74.8 C 121.4 74.8 121.9 74.3 122.1 74.2 C 122.2 74.2 122.2 73.0 122.2 73.0 C 122.2 72.5 122.2 72.1 122.1 71.6 C 122.1 71.6 121.5 71.1 121.1 71.3 C 120.8 71.5 121.1 72.0 121.0 72.2 C 121.0 72.5 120.5 72.7 120.5 72.7 C 120.2 72.4 120.0 72.2 119.7 71.9 C 119.7 71.9 119.5 71.7 119.3 71.5 C 119.1 71.2 118.3 71.1 118.0 71.2 C 117.8 71.3 117.6 71.6 117.3 71.8 C 117.0 72.1 117.1 72.5 116.7 72.2 C 116.4 71.8 116.2 71.5 116.0 71.5 C 115.8 71.5 115.1 71.9 115.1 71.9 C 114.9 72.0 114.7 72.1 114.5 72.2 C 114.5 72.2 113.9 72.5 113.8 72.2 C 113.8 71.9 112.6 72.2 112.6 72.2 C 112.6 72.2 112.7 71.4 112.4 71.3 C 112.2 71.1 111.7 71.0 111.2 71.1 C 110.8 71.2 110.4 72.0 110.4 72.0 C 110.3 71.8 110.1 71.6 110.0 71.4 C 109.6 71.3 109.1 71.3 108.7 71.2 C 108.7 71.2 107.7 71.3 107.7 71.4 C 107.7 71.6 107.8 72.2 107.8 72.4 C 107.7 72.6 107.2 72.8 107.1 72.6 C 107.1 72.4 106.6 71.7 106.6 71.7 C 106.6 71.7 106.2 71.3 105.9 71.3 C 105.6 71.2 105.2 71.5 105.1 71.6 C 105.0 71.7 104.5 72.2 104.5 72.2 C 104.4 72.0 104.3 71.8 104.1 71.6 C 104.1 71.6 103.3 71.9 102.5 71.3 C 102.5 71.3 102.5 71.3 102.5 71.3 Z M 122.6 71.2 C 121.5 71.2 122.2 73.9 122.6 74.4 C 123.0 75.0 123.7 74.6 124.4 74.7 C 125.1 74.8 124.8 74.0 125.2 73.7 C 125.6 73.5 125.5 74.0 125.7 74.4 C 125.8 74.8 126.9 74.5 127.5 74.5 C 128.1 74.5 128.8 73.7 129.3 73.6 C 129.8 73.6 128.9 73.1 129.8 73.2 C 130.7 73.2 130.2 73.7 129.2 74.0 C 128.1 74.3 129.6 74.5 130.2 74.6 C 130.7 74.7 131.7 74.3 132.2 74.4 C 132.6 74.4 132.0 73.7 132.7 73.7 C 133.4 73.8 133.0 74.5 133.7 74.6 C 134.4 74.7 134.3 74.0 134.6 73.9 C 135.0 73.7 134.9 74.1 135.2 74.2 C 135.5 74.2 135.9 74.4 136.5 74.3 C 137.2 74.1 137.0 73.9 137.3 73.9 C 137.6 73.8 138.1 73.8 138.1 73.8 C 138.1 74.1 138.1 74.3 138.2 74.5 C 138.2 74.5 139.3 74.6 139.7 74.6 C 140.0 74.7 140.8 74.4 140.6 74.2 C 140.4 74.1 141.1 73.6 141.3 73.7 C 141.5 73.8 142.1 74.2 142.5 74.3 C 142.8 74.5 142.7 72.7 142.7 72.5 C 142.7 72.3 143.0 71.3 142.6 71.2 C 142.3 71.1 142.0 71.5 142.1 71.2 C 142.1 71.0 141.1 71.2 140.8 71.2 C 140.5 71.2 140.2 71.9 140.2 71.9 C 140.2 71.9 139.9 72.4 139.4 72.4 C 139.0 72.4 138.8 71.3 138.8 71.3 C 138.8 71.3 138.2 71.1 137.7 71.2 C 137.1 71.2 136.5 72.1 136.4 72.3 C 136.3 72.5 136.3 71.7 135.9 71.6 C 135.5 71.5 134.9 71.2 134.7 71.3 C 134.5 71.3 134.3 71.9 134.3 71.9 C 134.3 71.9 133.5 72.2 133.4 72.2 C 133.2 72.2 133.5 71.4 133.5 71.4 C 133.5 71.4 131.9 71.2 131.6 71.1 C 131.3 71.1 130.8 71.3 130.6 71.3 C 130.3 71.4 130.0 72.4 129.7 72.3 C 129.3 72.2 130.0 71.6 129.7 71.5 C 129.3 71.4 128.7 71.2 128.5 71.2 C 128.4 71.2 128.1 71.6 127.8 71.6 C 127.6 71.7 127.2 72.4 126.7 72.4 C 126.2 72.4 126.0 72.0 125.9 71.9 C 125.7 71.8 125.6 71.1 125.2 71.1 C 124.8 71.1 125.1 71.5 124.8 71.5 C 124.4 71.5 124.4 72.0 124.1 71.9 C 123.7 71.8 124.0 71.0 123.6 71.1 C 123.4 71.2 123.6 71.1 122.6 71.2 C 122.6 71.2 122.6 71.2 122.6 71.2 Z M 143.5 71.3 C 143.0 71.0 142.5 71.4 142.6 71.8 C 142.7 72.2 142.8 73.1 142.7 73.4 C 142.5 73.7 141.9 74.4 142.8 74.5 C 143.6 74.7 143.8 74.4 143.8 74.1 C 143.8 73.9 144.0 72.9 144.2 73.0 C 144.4 73.1 144.7 73.4 144.7 73.5 C 144.8 73.6 145.1 74.6 145.5 74.5 C 146.0 74.3 146.4 74.0 146.4 74.0 C 146.6 74.0 146.8 74.0 147.0 74.0 C 147.0 74.0 147.6 74.6 148.0 74.5 C 148.5 74.3 149.0 74.3 149.4 74.4 C 149.7 74.4 150.0 74.3 150.1 74.1 C 150.2 73.9 150.6 73.0 150.6 73.0 C 150.6 73.0 151.1 72.8 151.4 72.9 C 151.6 73.1 151.7 73.5 151.6 73.7 C 151.5 73.9 151.6 74.4 151.9 74.5 C 152.3 74.6 153.8 75.0 154.0 74.7 C 154.2 74.5 154.2 74.1 154.4 74.0 C 154.5 73.9 155.5 73.9 155.6 74.1 C 155.7 74.3 155.6 74.8 155.9 74.8 C 156.2 74.7 156.8 74.9 156.8 74.7 C 156.8 74.6 157.0 74.5 157.0 74.2 C 157.0 73.9 157.6 73.7 157.7 73.5 C 157.8 73.4 158.3 73.4 158.3 73.4 C 158.5 73.5 158.7 73.7 158.9 73.8 C 158.9 73.8 158.5 74.3 158.3 74.4 C 158.2 74.5 158.4 74.8 158.6 74.9 C 158.8 74.9 159.9 74.8 159.9 74.8 C 159.9 74.5 159.9 74.1 160.0 73.7 C 160.2 73.6 160.5 73.5 160.8 73.4 C 160.8 73.4 160.6 74.8 161.2 74.8 C 161.7 74.8 162.3 74.8 162.3 74.8 C 162.3 74.8 162.9 74.3 163.0 74.2 C 163.1 74.2 163.2 73.0 163.2 73.0 C 163.1 72.5 163.1 72.1 163.1 71.6 C 163.1 71.6 162.4 71.1 162.1 71.3 C 161.7 71.5 162.0 72.0 162.0 72.2 C 161.9 72.5 161.4 72.7 161.4 72.7 C 161.2 72.4 160.9 72.2 160.7 71.9 C 160.7 71.9 160.5 71.7 160.2 71.5 C 160.0 71.2 159.2 71.1 159.0 71.2 C 158.7 71.3 158.5 71.6 158.2 71.8 C 157.9 72.1 158.0 72.5 157.6 72.2 C 157.3 71.8 157.1 71.5 157.0 71.5 C 156.8 71.5 156.0 71.9 156.0 71.9 C 155.8 72.0 155.6 72.1 155.4 72.2 C 155.4 72.2 154.8 72.5 154.8 72.2 C 154.7 71.9 153.6 72.2 153.6 72.2 C 153.6 72.2 153.7 71.4 153.4 71.3 C 153.1 71.1 152.6 71.0 152.2 71.1 C 151.7 71.2 151.4 72.0 151.4 72.0 C 151.2 71.8 151.1 71.6 150.9 71.4 C 150.5 71.3 150.1 71.3 149.6 71.2 C 149.6 71.2 148.7 71.3 148.7 71.4 C 148.7 71.6 148.8 72.2 148.7 72.4 C 148.7 72.6 148.1 72.8 148.1 72.6 C 148.0 72.4 147.6 71.7 147.6 71.7 C 147.6 71.7 147.2 71.3 146.9 71.3 C 146.6 71.2 146.1 71.5 146.0 71.6 C 145.9 71.7 145.4 72.2 145.4 72.2 C 145.3 72.0 145.2 71.8 145.1 71.6 C 145.1 71.6 144.3 71.9 143.5 71.3 C 143.5 71.3 143.5 71.3 143.5 71.3 Z M 163.5 71.2 C 162.5 71.2 163.1 73.9 163.5 74.4 C 163.9 75.0 164.6 74.6 165.3 74.7 C 166.0 74.8 165.8 74.0 166.2 73.7 C 166.6 73.5 166.4 74.0 166.6 74.4 C 166.8 74.8 167.8 74.5 168.4 74.5 C 169.1 74.5 169.7 73.7 170.2 73.6 C 170.7 73.6 169.8 73.1 170.7 73.2 C 171.6 73.2 171.2 73.7 170.1 74.0 C 169.1 74.3 170.5 74.5 171.1 74.6 C 171.7 74.7 172.6 74.3 173.1 74.4 C 173.5 74.4 173.0 73.7 173.6 73.7 C 174.3 73.8 174.0 74.5 174.6 74.6 C 175.3 74.7 175.2 74.0 175.6 73.9 C 175.9 73.7 175.8 74.1 176.1 74.2 C 176.4 74.2 176.8 74.4 177.5 74.3 C 178.1 74.1 177.9 73.9 178.2 73.9 C 178.5 73.8 179.0 73.8 179.0 73.8 C 179.0 74.1 179.1 74.3 179.1 74.5 C 179.1 74.5 180.3 74.6 180.6 74.6 C 180.9 74.7 181.7 74.4 181.5 74.2 C 181.3 74.1 182.1 73.6 182.2 73.7 C 182.4 73.8 183.0 74.2 183.4 74.3 C 183.8 74.5 183.7 72.7 183.7 72.5 C 183.7 72.3 183.9 71.3 183.6 71.2 C 183.2 71.1 182.9 71.5 183.0 71.2 C 183.0 71.0 182.0 71.2 181.7 71.2 C 181.4 71.2 181.1 71.9 181.1 71.9 C 181.1 71.9 180.8 72.4 180.4 72.4 C 179.9 72.4 179.7 71.3 179.7 71.3 C 179.7 71.3 179.2 71.1 178.6 71.2 C 178.0 71.2 177.4 72.1 177.3 72.3 C 177.2 72.5 177.2 71.7 176.8 71.6 C 176.4 71.5 175.8 71.2 175.6 71.3 C 175.5 71.3 175.2 71.9 175.2 71.9 C 175.2 71.9 174.5 72.2 174.3 72.2 C 174.1 72.2 174.4 71.4 174.4 71.4 C 174.4 71.4 172.9 71.2 172.5 71.1 C 172.2 71.1 171.7 71.3 171.5 71.3 C 171.3 71.4 170.9 72.4 170.6 72.3 C 170.3 72.2 170.9 71.6 170.6 71.5 C 170.3 71.4 169.6 71.2 169.5 71.2 C 169.3 71.2 169.1 71.6 168.8 71.6 C 168.5 71.7 168.1 72.4 167.6 72.4 C 167.2 72.4 167.0 72.0 166.8 71.9 C 166.6 71.8 166.5 71.1 166.1 71.1 C 165.8 71.1 166.0 71.5 165.7 71.5 C 165.4 71.5 165.4 72.0 165.0 71.9 C 164.7 71.8 164.9 71.0 164.5 71.1 C 164.3 71.2 164.5 71.1 163.5 71.2 C 163.5 71.2 163.5 71.2 163.5 71.2 Z M 184.4 71.3 C 183.9 71.0 183.5 71.4 183.5 71.8 C 183.6 72.2 183.8 73.1 183.6 73.4 C 183.4 73.7 182.8 74.4 183.7 74.5 C 184.6 74.7 184.8 74.4 184.8 74.1 C 184.8 73.9 184.9 72.9 185.2 73.0 C 185.4 73.1 185.6 73.4 185.7 73.5 C 185.7 73.6 186.1 74.6 186.5 74.5 C 186.9 74.3 187.3 74.0 187.3 74.0 C 187.5 74.0 187.7 74.0 187.9 74.0 C 187.9 74.0 188.5 74.6 189.0 74.5 C 189.4 74.3 189.9 74.3 190.3 74.4 C 190.6 74.4 191.0 74.3 191.0 74.1 C 191.1 73.9 191.5 73.0 191.5 73.0 C 191.5 73.0 192.1 72.8 192.3 72.9 C 192.5 73.1 192.6 73.5 192.5 73.7 C 192.5 73.9 192.5 74.4 192.9 74.5 C 193.2 74.6 194.7 75.0 194.9 74.7 C 195.2 74.5 195.1 74.1 195.3 74.0 C 195.5 73.9 196.5 73.9 196.5 74.1 C 196.6 74.3 196.6 74.8 196.8 74.8 C 197.1 74.7 197.7 74.9 197.7 74.7 C 197.7 74.6 197.9 74.5 197.9 74.2 C 197.9 73.9 198.5 73.7 198.6 73.5 C 198.8 73.4 199.2 73.4 199.2 73.4 C 199.4 73.5 199.6 73.7 199.8 73.8 C 199.8 73.8 199.4 74.3 199.3 74.4 C 199.1 74.5 199.4 74.8 199.6 74.9 C 199.7 74.9 200.8 74.8 200.8 74.8 C 200.8 74.5 200.9 74.1 200.9 73.7 C 201.1 73.6 201.4 73.5 201.7 73.4 C 201.7 73.4 201.6 74.8 202.1 74.8 C 202.6 74.8 203.2 74.8 203.2 74.8 C 203.2 74.8 203.8 74.3 203.9 74.2 C 204.1 74.2 204.1 73.0 204.1 73.0 C 204.1 72.5 204.0 72.1 204.0 71.6 C 204.0 71.6 203.4 71.1 203.0 71.3 C 202.7 71.5 203.0 72.0 202.9 72.2 C 202.8 72.5 202.3 72.7 202.3 72.7 C 202.1 72.4 201.9 72.2 201.6 71.9 C 201.6 71.9 201.4 71.7 201.2 71.5 C 200.9 71.2 200.1 71.1 199.9 71.2 C 199.7 71.3 199.4 71.6 199.2 71.8 C 198.9 72.1 198.9 72.5 198.6 72.2 C 198.2 71.8 198.1 71.5 197.9 71.5 C 197.7 71.5 197.0 71.9 197.0 71.9 C 196.8 72.0 196.5 72.1 196.3 72.2 C 196.3 72.2 195.8 72.5 195.7 72.2 C 195.6 71.9 194.5 72.2 194.5 72.2 C 194.5 72.2 194.6 71.4 194.3 71.3 C 194.0 71.1 193.6 71.0 193.1 71.1 C 192.6 71.2 192.3 72.0 192.3 72.0 C 192.2 71.8 192.0 71.6 191.9 71.4 C 191.4 71.3 191.0 71.3 190.6 71.2 C 190.6 71.2 189.6 71.3 189.6 71.4 C 189.6 71.6 189.7 72.2 189.6 72.4 C 189.6 72.6 189.1 72.8 189.0 72.6 C 189.0 72.4 188.5 71.7 188.5 71.7 C 188.5 71.7 188.1 71.3 187.8 71.3 C 187.5 71.2 187.1 71.5 186.9 71.6 C 186.8 71.7 186.4 72.2 186.4 72.2 C 186.2 72.0 186.1 71.8 186.0 71.6 C 186.0 71.6 185.2 71.9 184.4 71.3 C 184.4 71.3 184.4 71.3 184.4 71.3 Z M 204.4 71.2 C 203.4 71.2 204.1 73.9 204.5 74.4 C 204.9 75.0 205.6 74.6 206.2 74.7 C 206.9 74.8 206.7 74.0 207.1 73.7 C 207.5 73.5 207.3 74.0 207.5 74.4 C 207.7 74.8 208.7 74.5 209.4 74.5 C 210.0 74.5 210.7 73.7 211.2 73.6 C 211.7 73.6 210.7 73.1 211.6 73.2 C 212.5 73.2 212.1 73.7 211.1 74.0 C 210.0 74.3 211.5 74.5 212.0 74.6 C 212.6 74.7 213.6 74.3 214.0 74.4 C 214.5 74.4 213.9 73.7 214.6 73.7 C 215.2 73.8 214.9 74.5 215.6 74.6 C 216.2 74.7 216.1 74.0 216.5 73.9 C 216.8 73.7 216.8 74.1 217.0 74.2 C 217.3 74.2 217.8 74.4 218.4 74.3 C 219.0 74.1 218.9 73.9 219.1 73.9 C 219.4 73.8 219.9 73.8 219.9 73.8 C 220.0 74.1 220.0 74.3 220.0 74.5 C 220.0 74.5 221.2 74.6 221.5 74.6 C 221.9 74.7 222.6 74.4 222.4 74.2 C 222.2 74.1 223.0 73.6 223.2 73.7 C 223.3 73.8 223.9 74.2 224.3 74.3 C 224.7 74.5 224.6 72.7 224.6 72.5 C 224.6 72.3 224.8 71.3 224.5 71.2 C 224.1 71.1 223.9 71.5 223.9 71.2 C 224.0 71.0 222.9 71.2 222.7 71.2 C 222.4 71.2 222.0 71.9 222.0 71.9 C 222.0 71.9 221.8 72.4 221.3 72.4 C 220.8 72.4 220.7 71.3 220.7 71.3 C 220.7 71.3 220.1 71.1 219.5 71.2 C 219.0 71.2 218.3 72.1 218.2 72.3 C 218.1 72.5 218.1 71.7 217.7 71.6 C 217.3 71.5 216.8 71.2 216.6 71.3 C 216.4 71.3 216.1 71.9 216.1 71.9 C 216.1 71.9 215.4 72.2 215.2 72.2 C 215.0 72.2 215.3 71.4 215.3 71.4 C 215.3 71.4 213.8 71.2 213.5 71.1 C 213.2 71.1 212.7 71.3 212.4 71.3 C 212.2 71.4 211.9 72.4 211.5 72.3 C 211.2 72.2 211.9 71.6 211.5 71.5 C 211.2 71.4 210.6 71.2 210.4 71.2 C 210.2 71.2 210.0 71.6 209.7 71.6 C 209.4 71.7 209.0 72.4 208.6 72.4 C 208.1 72.4 207.9 72.0 207.7 71.9 C 207.5 71.8 207.4 71.1 207.1 71.1 C 206.7 71.1 207.0 71.5 206.6 71.5 C 206.3 71.5 206.3 72.0 206.0 71.9 C 205.6 71.8 205.8 71.0 205.4 71.1 C 205.3 71.2 205.4 71.1 204.4 71.2 C 204.4 71.2 204.4 71.2 204.4 71.2 Z M 226.7 72.0 C 226.5 72.1 226.3 71.6 225.7 71.4 C 225.2 71.3 224.5 71.3 224.6 71.6 C 224.7 71.9 224.9 72.1 224.6 72.5 C 224.3 72.9 224.0 73.6 224.4 73.9 C 224.8 74.1 226.4 74.8 226.9 74.5 C 227.3 74.1 227.5 73.9 227.9 73.7 C 228.2 73.5 228.0 74.3 228.0 74.3 C 228.0 74.3 228.8 74.4 229.5 74.4 C 230.1 74.5 230.8 74.5 230.9 74.4 C 230.9 74.2 231.2 73.9 231.2 73.9 C 231.2 73.9 231.5 74.3 232.0 74.4 C 232.4 74.5 232.3 74.2 232.2 74.1 C 232.1 73.9 231.6 73.4 231.8 73.4 C 232.0 73.4 232.6 74.2 232.9 74.2 C 233.2 74.3 234.0 74.3 234.0 74.3 C 234.0 74.3 233.9 73.8 234.0 73.7 C 234.0 73.6 234.8 73.5 234.8 73.7 C 234.9 73.9 234.8 74.3 235.2 74.3 C 236.6 74.4 236.2 73.4 236.4 73.4 C 236.5 73.4 236.5 74.0 236.9 74.1 C 237.2 74.2 239.5 73.4 239.6 73.2 C 239.6 73.0 240.6 73.2 240.8 72.7 C 240.9 72.1 240.9 72.0 240.9 71.8 C 240.9 71.7 241.0 70.9 241.3 71.0 C 241.6 71.2 241.2 72.3 241.5 72.3 C 241.9 72.4 243.2 71.5 243.3 71.2 C 243.4 70.8 243.0 70.2 243.2 70.1 C 243.3 70.0 244.5 70.0 244.4 69.9 C 244.4 69.7 244.0 69.2 243.9 69.1 C 243.8 69.0 243.0 67.9 242.8 67.9 C 242.6 67.9 241.8 68.1 242.1 68.3 C 242.4 68.5 242.8 68.7 242.7 69.0 C 242.6 69.3 242.5 69.4 242.4 69.3 C 242.3 69.3 242.3 69.1 241.8 69.1 C 241.3 69.2 241.3 68.9 241.0 69.1 C 240.7 69.4 240.4 69.6 240.6 69.8 C 240.8 70.0 240.6 70.6 240.3 70.7 C 240.0 70.9 240.2 70.1 239.3 70.3 C 238.4 70.5 237.8 70.6 237.6 70.9 C 237.4 71.2 237.6 71.9 237.0 71.7 C 236.5 71.5 236.7 71.2 236.1 71.3 C 235.6 71.4 235.4 72.0 234.9 72.1 C 234.5 72.1 234.4 72.1 234.4 72.1 C 234.4 72.1 234.6 71.3 233.7 71.2 C 232.7 71.2 232.5 71.1 232.7 71.7 C 232.9 72.3 232.2 72.3 232.1 72.0 C 232.1 71.6 231.5 71.3 231.2 71.2 C 230.9 71.2 230.8 72.2 230.7 72.2 C 230.5 72.3 230.1 72.2 230.3 71.9 C 230.4 71.5 230.1 71.5 229.8 71.4 C 229.5 71.2 228.6 71.3 228.6 71.5 C 228.6 71.7 229.0 72.4 228.4 72.0 C 227.8 71.7 227.7 71.2 227.1 71.2 C 226.5 71.2 227.0 71.8 226.7 72.0 C 226.7 72.0 226.7 72.0 226.7 72.0 Z M 243.1 67.3 C 242.6 67.4 242.7 67.9 243.0 68.1 C 243.3 68.4 244.1 68.9 244.2 69.2 C 244.2 69.6 244.3 70.5 245.1 69.9 C 245.8 69.3 245.7 69.0 245.5 68.8 C 245.3 68.7 244.7 67.9 244.9 67.8 C 245.1 67.7 245.4 67.6 245.6 67.7 C 245.7 67.7 246.7 68.0 246.9 67.5 C 247.0 67.0 246.9 66.5 246.9 66.5 C 247.0 66.3 247.1 66.1 247.2 65.9 C 247.2 65.9 248.0 65.6 248.1 65.1 C 248.1 64.5 248.3 64.0 248.4 63.6 C 248.6 63.3 248.6 62.9 248.4 62.8 C 248.2 62.7 247.4 62.0 247.4 62.0 C 247.4 62.0 247.3 61.5 247.4 61.3 C 247.6 61.0 248.1 61.0 248.3 61.1 C 248.4 61.2 248.9 61.2 249.0 60.8 C 249.1 60.4 249.6 58.8 249.3 58.6 C 249.1 58.3 248.7 58.4 248.6 58.2 C 248.5 58.0 248.5 57.1 248.7 57.0 C 248.9 56.9 249.4 57.0 249.4 56.7 C 249.3 56.4 249.5 55.8 249.3 55.8 C 249.2 55.8 249.1 55.6 248.8 55.6 C 248.5 55.6 248.3 55.0 248.1 54.9 C 248.0 54.8 247.9 54.3 247.9 54.3 C 248.1 54.1 248.3 53.9 248.4 53.7 C 248.4 53.7 248.9 54.1 249.0 54.2 C 249.1 54.4 249.4 54.1 249.5 54.0 C 249.5 53.8 249.4 52.7 249.4 52.7 C 249.0 52.7 248.7 52.7 248.3 52.6 C 248.2 52.4 248.1 52.1 248.0 51.8 C 248.0 51.8 249.4 51.9 249.4 51.4 C 249.4 50.9 249.4 50.3 249.4 50.3 C 249.4 50.3 248.9 49.7 248.8 49.6 C 248.8 49.5 247.6 49.4 247.6 49.4 C 247.1 49.4 246.7 49.5 246.2 49.5 C 246.2 49.5 245.7 50.2 245.9 50.5 C 246.1 50.8 246.6 50.6 246.8 50.6 C 247.1 50.7 247.3 51.2 247.3 51.2 C 247.0 51.4 246.8 51.7 246.5 51.9 C 246.5 51.9 246.3 52.1 246.1 52.3 C 245.8 52.6 245.7 53.4 245.8 53.6 C 245.9 53.8 246.2 54.1 246.4 54.4 C 246.7 54.6 247.1 54.6 246.7 54.9 C 246.4 55.3 246.1 55.5 246.1 55.6 C 246.1 55.8 246.5 56.5 246.5 56.5 C 246.6 56.8 246.7 57.0 246.8 57.2 C 246.8 57.2 247.1 57.7 246.8 57.8 C 246.5 57.9 246.8 59.0 246.8 59.0 C 246.8 59.0 246.0 58.9 245.9 59.2 C 245.7 59.5 245.5 59.9 245.7 60.3 C 245.8 60.8 246.5 61.2 246.5 61.2 C 246.3 61.3 246.1 61.4 245.9 61.5 C 245.8 61.9 245.6 62.2 245.5 62.6 C 245.5 62.6 245.3 63.4 245.4 63.4 C 245.5 63.5 246.2 63.6 246.4 63.7 C 246.6 63.8 246.6 64.4 246.4 64.4 C 246.1 64.3 245.4 64.5 245.4 64.5 C 245.4 64.5 244.8 64.6 244.7 64.8 C 244.5 65.0 244.6 65.5 244.6 65.6 C 244.7 65.8 244.9 66.4 244.9 66.4 C 244.7 66.4 244.4 66.4 244.2 66.3 C 244.2 66.3 244.0 67.1 243.1 67.3 C 243.1 67.3 243.1 67.3 243.1 67.3 Z M 245.8 49.1 C 245.8 50.1 248.5 49.4 249.0 49.0 C 249.5 48.6 249.2 48.0 249.3 47.3 C 249.4 46.6 248.6 46.8 248.3 46.4 C 248.1 46.0 248.6 46.2 249.0 46.0 C 249.4 45.8 249.0 44.8 249.1 44.1 C 249.1 43.5 248.2 42.9 248.2 42.3 C 248.1 41.8 247.7 42.8 247.8 41.9 C 247.8 41.0 248.3 41.4 248.6 42.5 C 248.9 43.5 249.1 42.1 249.2 41.5 C 249.3 40.9 248.9 39.9 248.9 39.5 C 249.0 39.0 248.3 39.6 248.3 38.9 C 248.4 38.3 249.0 38.6 249.1 38.0 C 249.3 37.3 248.6 37.4 248.5 37.0 C 248.3 36.7 248.7 36.8 248.8 36.5 C 248.8 36.2 249.0 35.7 248.9 35.1 C 248.7 34.5 248.5 34.7 248.5 34.4 C 248.4 34.1 248.4 33.6 248.4 33.6 C 248.6 33.5 248.9 33.5 249.1 33.5 C 249.1 33.5 249.1 32.3 249.2 32.0 C 249.2 31.6 248.9 30.9 248.8 31.1 C 248.7 31.3 248.2 30.5 248.3 30.3 C 248.4 30.2 248.8 29.6 248.9 29.2 C 249.0 28.8 247.3 28.9 247.1 28.9 C 246.8 28.9 245.9 28.7 245.8 29.0 C 245.7 29.4 246.1 29.7 245.8 29.6 C 245.6 29.5 245.8 30.6 245.8 30.8 C 245.8 31.1 246.5 31.5 246.5 31.5 C 246.5 31.5 247.0 31.8 247.0 32.2 C 247.0 32.7 245.9 32.8 245.9 32.8 C 245.9 32.8 245.7 33.4 245.8 34.0 C 245.8 34.5 246.7 35.2 246.9 35.3 C 247.1 35.4 246.3 35.4 246.2 35.8 C 246.1 36.2 245.8 36.8 245.9 36.9 C 245.9 37.1 246.5 37.4 246.5 37.4 C 246.5 37.4 246.8 38.1 246.8 38.3 C 246.8 38.5 246.0 38.2 246.0 38.2 C 246.0 38.2 245.8 39.7 245.7 40.0 C 245.6 40.4 245.9 40.9 245.9 41.1 C 246.0 41.3 246.9 41.7 246.8 42.0 C 246.7 42.3 246.2 41.7 246.1 42.0 C 246.0 42.3 245.8 43.0 245.8 43.1 C 245.8 43.3 246.2 43.5 246.2 43.8 C 246.3 44.1 247.0 44.5 247.0 44.9 C 247.0 45.4 246.6 45.6 246.5 45.8 C 246.4 46.0 245.7 46.1 245.7 46.4 C 245.7 46.8 246.1 46.5 246.1 46.9 C 246.1 47.2 246.6 47.2 246.5 47.6 C 246.4 47.9 245.6 47.7 245.7 48.1 C 245.8 48.2 245.7 48.1 245.8 49.1 C 245.8 49.1 245.8 49.1 245.8 49.1 Z M 245.9 28.2 C 245.5 28.7 246.0 29.1 246.4 29.0 C 246.7 29.0 247.7 28.8 248.0 29.0 C 248.3 29.2 249.0 29.7 249.1 28.9 C 249.2 28.0 249.0 27.8 248.7 27.8 C 248.5 27.8 247.5 27.7 247.6 27.4 C 247.7 27.2 247.9 27.0 248.1 26.9 C 248.2 26.8 249.2 26.5 249.1 26.1 C 248.9 25.7 248.6 25.3 248.6 25.3 C 248.6 25.1 248.6 24.9 248.6 24.7 C 248.6 24.7 249.2 24.1 249.1 23.6 C 248.9 23.2 248.9 22.6 249.0 22.3 C 249.0 22.0 248.9 21.6 248.7 21.5 C 248.5 21.5 247.6 21.0 247.6 21.0 C 247.6 21.0 247.4 20.5 247.5 20.3 C 247.7 20.1 248.1 20.0 248.3 20.1 C 248.5 20.1 249.0 20.1 249.1 19.7 C 249.1 19.3 249.4 17.5 249.1 17.3 C 248.8 17.0 248.4 17.2 248.3 17.0 C 248.2 16.9 247.9 15.8 248.1 15.7 C 248.3 15.5 248.8 15.4 248.6 15.1 C 248.5 14.8 248.4 14.2 248.2 14.2 C 248.1 14.3 247.9 14.2 247.6 14.2 C 247.4 14.3 246.9 13.9 246.7 13.8 C 246.6 13.8 246.3 13.4 246.3 13.4 C 246.3 13.1 246.4 12.9 246.4 12.6 C 246.4 12.6 247.0 12.7 247.2 12.8 C 247.4 12.9 247.5 12.5 247.4 12.3 C 247.4 12.1 246.6 11.2 246.6 11.2 C 246.3 11.4 246.0 11.6 245.7 11.8 C 245.4 11.6 245.2 11.4 245.0 11.3 C 245.0 11.3 246.1 10.5 245.7 10.1 C 245.4 9.6 244.9 9.1 244.9 9.1 C 244.9 9.1 244.1 9.1 244.0 9.0 C 243.8 9.0 243.0 9.9 243.0 9.9 C 242.7 10.2 242.4 10.6 242.1 11.0 C 242.1 11.0 242.2 11.7 242.6 11.8 C 242.9 11.8 243.1 11.3 243.3 11.2 C 243.5 11.1 244.0 11.3 244.0 11.3 C 244.0 11.6 243.9 11.9 243.8 12.3 C 243.8 12.3 243.8 12.6 243.7 12.9 C 243.6 13.2 243.9 13.8 244.1 13.9 C 244.3 14.0 244.7 14.0 245.0 14.2 C 245.3 14.3 245.7 14.1 245.5 14.5 C 245.4 14.9 245.1 15.2 245.1 15.3 C 245.2 15.5 245.9 15.9 245.9 15.9 C 246.0 16.1 246.2 16.2 246.3 16.4 C 246.3 16.4 246.7 16.9 246.5 17.0 C 246.2 17.1 246.7 18.1 246.7 18.1 C 246.7 18.1 245.9 18.1 245.8 18.4 C 245.7 18.7 245.5 19.1 245.7 19.5 C 245.8 19.9 246.6 20.3 246.6 20.3 C 246.4 20.4 246.2 20.6 246.0 20.7 C 245.9 21.1 245.9 21.6 245.8 22.0 C 245.8 22.0 245.9 23.0 246.0 23.0 C 246.1 23.0 246.8 22.9 247.0 22.9 C 247.2 23.0 247.4 23.5 247.2 23.6 C 247.0 23.6 246.3 24.1 246.3 24.1 C 246.3 24.1 245.9 24.5 245.9 24.8 C 245.8 25.1 246.1 25.5 246.2 25.6 C 246.3 25.8 246.8 26.2 246.8 26.2 C 246.6 26.3 246.4 26.5 246.2 26.6 C 246.2 26.6 246.5 27.4 245.9 28.2 C 245.9 28.2 245.9 28.2 245.9 28.2 Z M 240.8 9.5 C 241.0 9.5 240.9 10.0 241.2 10.4 C 241.5 10.8 241.9 11.2 242.0 10.9 C 242.2 10.6 242.1 10.3 242.6 10.2 C 243.1 10.1 243.8 9.8 243.7 9.3 C 243.5 8.8 242.6 7.3 241.9 7.3 C 241.3 7.3 241.1 7.4 240.6 7.4 C 240.2 7.5 240.8 6.9 240.8 6.9 C 240.8 6.9 240.0 6.4 239.3 6.1 C 238.7 5.8 237.9 5.6 237.8 5.7 C 237.7 5.8 237.4 6.0 237.4 6.0 C 237.4 6.0 237.1 5.6 236.6 5.4 C 236.1 5.3 236.3 5.5 236.3 5.7 C 236.4 5.9 236.9 6.5 236.7 6.5 C 236.5 6.4 235.9 5.6 235.6 5.5 C 235.2 5.4 234.4 5.4 234.4 5.4 C 234.4 5.4 234.4 5.8 234.4 5.9 C 234.3 6.0 233.6 6.1 233.5 5.9 C 233.5 5.8 233.6 5.3 233.2 5.3 C 232.1 5.2 232.2 6.1 232.1 6.1 C 232.0 6.1 232.0 5.4 231.7 5.3 C 231.5 5.2 229.2 5.3 229.1 5.5 C 229.0 5.7 228.3 5.0 227.9 5.5 C 227.6 5.9 227.5 6.0 227.4 6.1 C 227.4 6.2 226.9 6.9 226.7 6.7 C 226.5 6.4 227.4 5.6 227.2 5.4 C 226.9 5.2 225.5 5.2 225.3 5.4 C 224.9 5.7 224.8 6.3 224.6 6.3 C 224.4 6.3 223.6 5.5 223.6 5.6 C 223.5 5.7 223.4 6.4 223.4 6.6 C 223.4 6.7 223.1 8.0 223.3 8.1 C 223.5 8.3 224.3 8.8 224.2 8.4 C 224.1 8.0 223.9 7.6 224.2 7.4 C 224.5 7.3 224.7 7.3 224.7 7.4 C 224.8 7.5 224.6 7.7 225.1 7.9 C 225.6 8.2 225.4 8.4 225.8 8.4 C 226.3 8.4 226.7 8.3 226.7 8.0 C 226.6 7.8 227.1 7.4 227.4 7.4 C 227.8 7.4 227.2 8.0 228.3 8.3 C 229.3 8.5 230.0 8.6 230.3 8.3 C 230.6 8.1 230.6 7.4 231.1 7.7 C 231.6 8.0 231.3 8.2 232.0 8.2 C 232.7 8.2 232.9 7.6 233.4 7.5 C 233.8 7.5 233.9 7.6 233.9 7.6 C 233.9 7.6 233.7 8.4 234.6 8.4 C 235.5 8.5 235.7 8.6 235.5 8.0 C 235.4 7.4 236.1 7.4 236.1 7.8 C 236.1 8.2 236.5 8.6 236.8 8.7 C 237.1 8.8 237.4 7.8 237.5 7.8 C 237.7 7.8 238.0 8.0 237.8 8.3 C 237.5 8.5 237.8 8.7 238.0 8.9 C 238.3 9.1 239.0 9.3 239.1 9.1 C 239.1 9.0 239.0 8.2 239.4 8.7 C 239.7 9.2 239.6 9.8 240.1 10.0 C 240.5 10.2 240.4 9.4 240.8 9.5 C 240.8 9.5 240.8 9.5 240.8 9.5 Z M 222.5 8.3 C 223.0 8.7 223.4 8.2 223.4 7.9 C 223.3 7.5 223.1 6.5 223.3 6.2 C 223.5 6.0 224.1 5.3 223.2 5.1 C 222.3 5.0 222.2 5.3 222.2 5.5 C 222.2 5.7 222.0 6.8 221.8 6.7 C 221.5 6.6 221.3 6.3 221.2 6.2 C 221.2 6.0 220.9 5.0 220.4 5.2 C 220.0 5.3 219.6 5.6 219.6 5.6 C 219.4 5.6 219.2 5.6 219.0 5.6 C 219.0 5.6 218.4 5.0 218.0 5.2 C 217.5 5.3 217.0 5.3 216.6 5.3 C 216.3 5.2 215.9 5.3 215.9 5.5 C 215.8 5.8 215.4 6.6 215.4 6.6 C 215.4 6.6 214.9 6.8 214.6 6.7 C 214.4 6.6 214.3 6.1 214.4 5.9 C 214.4 5.7 214.4 5.3 214.0 5.2 C 213.7 5.1 212.2 4.6 212.0 4.9 C 211.7 5.2 211.8 5.5 211.6 5.6 C 211.4 5.7 210.5 5.8 210.4 5.5 C 210.3 5.3 210.4 4.8 210.1 4.9 C 209.8 4.9 209.2 4.8 209.2 4.9 C 209.2 5.0 209.0 5.2 209.0 5.5 C 209.0 5.7 208.4 6.0 208.3 6.1 C 208.2 6.2 207.7 6.3 207.7 6.3 C 207.5 6.1 207.3 6.0 207.1 5.8 C 207.1 5.8 207.5 5.3 207.6 5.2 C 207.8 5.1 207.5 4.8 207.4 4.8 C 207.2 4.7 206.1 4.8 206.1 4.8 C 206.1 5.2 206.1 5.6 206.0 6.0 C 205.8 6.0 205.5 6.1 205.2 6.2 C 205.2 6.2 205.3 4.8 204.8 4.8 C 204.3 4.8 203.7 4.8 203.7 4.8 C 203.7 4.8 203.1 5.4 203.0 5.4 C 202.9 5.5 202.8 6.7 202.8 6.7 C 202.8 7.1 202.9 7.6 202.9 8.0 C 202.9 8.0 203.6 8.5 203.9 8.3 C 204.2 8.1 204.0 7.6 204.0 7.4 C 204.1 7.2 204.6 6.9 204.6 6.9 C 204.8 7.2 205.1 7.5 205.3 7.7 C 205.3 7.7 205.5 8.0 205.7 8.2 C 206.0 8.4 206.8 8.6 207.0 8.5 C 207.2 8.4 207.5 8.0 207.8 7.8 C 208.0 7.6 208.0 7.2 208.3 7.5 C 208.7 7.8 208.9 8.2 209.0 8.2 C 209.2 8.2 209.9 7.7 209.9 7.7 C 210.2 7.6 210.4 7.5 210.6 7.4 C 210.6 7.4 211.1 7.2 211.2 7.4 C 211.3 7.7 212.4 7.4 212.4 7.4 C 212.4 7.4 212.3 8.2 212.6 8.4 C 212.9 8.5 213.3 8.7 213.8 8.6 C 214.3 8.4 214.6 7.6 214.6 7.6 C 214.8 7.8 214.9 8.0 215.1 8.2 C 215.5 8.3 215.9 8.4 216.3 8.4 C 216.3 8.4 217.3 8.4 217.3 8.2 C 217.3 8.1 217.2 7.4 217.3 7.2 C 217.3 7.0 217.8 6.8 217.9 7.0 C 218.0 7.3 218.4 7.9 218.4 7.9 C 218.4 7.9 218.8 8.3 219.1 8.4 C 219.4 8.4 219.9 8.2 220.0 8.0 C 220.1 7.9 220.6 7.4 220.6 7.4 C 220.7 7.6 220.8 7.8 220.9 8.0 C 220.9 8.0 221.7 7.7 222.5 8.3 C 222.5 8.3 222.5 8.3 222.5 8.3 Z M 200.7 7.7 C 200.9 7.6 201.1 8.0 201.7 8.2 C 202.2 8.4 202.9 8.4 202.8 8.1 C 202.6 7.8 202.4 7.6 202.7 7.2 C 203.0 6.8 203.4 6.0 203.0 5.8 C 202.6 5.5 201.0 4.8 200.5 5.2 C 200.0 5.6 199.9 5.7 199.5 5.9 C 199.1 6.2 199.4 5.4 199.4 5.4 C 199.4 5.4 198.5 5.3 197.9 5.2 C 197.3 5.2 196.6 5.2 196.5 5.3 C 196.4 5.4 196.2 5.7 196.2 5.7 C 196.2 5.7 195.9 5.3 195.4 5.3 C 194.9 5.2 195.1 5.4 195.2 5.6 C 195.2 5.8 195.8 6.3 195.6 6.3 C 195.4 6.3 194.8 5.5 194.5 5.4 C 194.2 5.3 193.4 5.4 193.4 5.4 C 193.4 5.4 193.5 5.8 193.4 5.9 C 193.4 6.0 192.6 6.1 192.6 5.9 C 192.6 5.8 192.6 5.3 192.3 5.3 C 191.1 5.2 191.3 6.1 191.2 6.1 C 191.1 6.1 191.1 5.4 190.8 5.3 C 190.5 5.2 188.3 5.3 188.2 5.5 C 188.1 5.7 187.3 5.0 187.0 5.5 C 186.7 5.9 186.6 6.0 186.5 6.1 C 186.4 6.2 186.0 6.9 185.8 6.7 C 185.6 6.4 186.5 5.6 186.2 5.4 C 186.0 5.2 184.6 5.2 184.3 5.4 C 184.0 5.7 183.9 6.3 183.7 6.3 C 183.5 6.3 182.7 5.5 182.6 5.6 C 182.6 5.7 182.5 6.4 182.5 6.6 C 182.5 6.7 182.2 8.0 182.4 8.1 C 182.5 8.3 183.4 8.8 183.3 8.4 C 183.2 8.0 183.0 7.6 183.3 7.4 C 183.6 7.3 183.7 7.3 183.8 7.4 C 183.9 7.5 183.7 7.7 184.2 7.9 C 184.7 8.2 184.4 8.4 184.9 8.4 C 185.4 8.4 185.8 8.3 185.7 8.0 C 185.7 7.8 186.2 7.4 186.5 7.4 C 186.8 7.4 186.3 8.0 187.3 8.3 C 188.4 8.5 189.0 8.6 189.3 8.3 C 189.6 8.1 189.7 7.4 190.2 7.7 C 190.7 8.0 190.4 8.2 191.1 8.2 C 191.7 8.2 192.0 7.6 192.4 7.5 C 192.9 7.5 193.0 7.6 193.0 7.6 C 193.0 7.6 192.7 8.4 193.7 8.4 C 194.7 8.5 194.9 8.5 194.7 7.9 C 194.5 7.3 195.2 7.3 195.2 7.7 C 195.3 8.1 195.8 8.4 196.2 8.4 C 196.5 8.5 196.6 7.4 196.7 7.4 C 196.9 7.4 197.2 7.5 197.1 7.8 C 196.9 8.1 197.3 8.2 197.6 8.3 C 197.9 8.4 198.8 8.3 198.8 8.1 C 198.8 8.0 198.3 7.3 198.9 7.6 C 199.5 8.0 199.7 8.5 200.3 8.4 C 200.8 8.4 200.3 7.8 200.7 7.7 C 200.7 7.7 200.7 7.7 200.7 7.7 Z M 181.6 8.3 C 182.1 8.7 182.5 8.2 182.4 7.9 C 182.4 7.5 182.2 6.5 182.4 6.2 C 182.6 6.0 183.1 5.3 182.3 5.1 C 181.4 5.0 181.2 5.3 181.2 5.5 C 181.2 5.7 181.1 6.8 180.8 6.7 C 180.6 6.6 180.4 6.3 180.3 6.2 C 180.2 6.0 179.9 5.0 179.5 5.2 C 179.1 5.3 178.7 5.6 178.7 5.6 C 178.5 5.6 178.3 5.6 178.1 5.6 C 178.1 5.6 177.5 5.0 177.0 5.2 C 176.6 5.3 176.0 5.3 175.7 5.3 C 175.4 5.2 175.0 5.3 174.9 5.5 C 174.9 5.8 174.4 6.6 174.4 6.6 C 174.4 6.6 173.9 6.8 173.7 6.7 C 173.5 6.6 173.4 6.1 173.5 5.9 C 173.5 5.7 173.5 5.3 173.1 5.2 C 172.8 5.1 171.3 4.6 171.0 4.9 C 170.8 5.2 170.9 5.5 170.7 5.6 C 170.5 5.7 169.5 5.8 169.4 5.5 C 169.4 5.3 169.4 4.8 169.1 4.9 C 168.8 4.9 168.3 4.8 168.3 4.9 C 168.3 5.0 168.1 5.2 168.1 5.5 C 168.0 5.7 167.5 6.0 167.3 6.1 C 167.2 6.2 166.8 6.3 166.8 6.3 C 166.6 6.1 166.4 6.0 166.2 5.8 C 166.2 5.8 166.5 5.3 166.7 5.2 C 166.9 5.1 166.6 4.8 166.4 4.8 C 166.2 4.7 165.2 4.8 165.2 4.8 C 165.1 5.2 165.1 5.6 165.1 6.0 C 164.8 6.0 164.6 6.1 164.3 6.2 C 164.3 6.2 164.4 4.8 163.9 4.8 C 163.4 4.8 162.7 4.8 162.7 4.8 C 162.7 4.8 162.2 5.4 162.1 5.4 C 161.9 5.5 161.9 6.7 161.9 6.7 C 161.9 7.1 161.9 7.6 162.0 8.0 C 162.0 8.0 162.6 8.5 163.0 8.3 C 163.3 8.1 163.0 7.6 163.1 7.4 C 163.1 7.2 163.7 6.9 163.7 6.9 C 163.9 7.2 164.1 7.5 164.4 7.7 C 164.4 7.7 164.6 8.0 164.8 8.2 C 165.0 8.4 165.8 8.6 166.1 8.5 C 166.3 8.4 166.5 8.0 166.8 7.8 C 167.1 7.6 167.1 7.2 167.4 7.5 C 167.8 7.8 167.9 8.2 168.1 8.2 C 168.3 8.2 169.0 7.7 169.0 7.7 C 169.2 7.6 169.4 7.5 169.7 7.4 C 169.7 7.4 170.2 7.2 170.3 7.4 C 170.4 7.7 171.5 7.4 171.5 7.4 C 171.5 7.4 171.4 8.2 171.7 8.4 C 172.0 8.5 172.4 8.7 172.9 8.6 C 173.3 8.4 173.7 7.6 173.7 7.6 C 173.8 7.8 174.0 8.0 174.1 8.2 C 174.5 8.3 175.0 8.4 175.4 8.4 C 175.4 8.4 176.4 8.4 176.4 8.2 C 176.4 8.1 176.3 7.4 176.3 7.2 C 176.4 7.0 176.9 6.8 177.0 7.0 C 177.0 7.3 177.5 7.9 177.5 7.9 C 177.5 7.9 177.9 8.3 178.2 8.4 C 178.5 8.4 178.9 8.2 179.0 8.0 C 179.2 7.9 179.6 7.4 179.6 7.4 C 179.7 7.6 179.9 7.8 180.0 8.0 C 180.0 8.0 180.8 7.7 181.6 8.3 C 181.6 8.3 181.6 8.3 181.6 8.3 Z M 159.8 7.7 C 160.0 7.6 160.2 8.0 160.7 8.2 C 161.3 8.4 162.0 8.4 161.8 8.1 C 161.7 7.8 161.5 7.6 161.8 7.2 C 162.1 6.8 162.4 6.0 162.0 5.8 C 161.6 5.5 160.1 4.8 159.6 5.2 C 159.1 5.6 158.9 5.7 158.6 5.9 C 158.2 6.2 158.5 5.4 158.5 5.4 C 158.5 5.4 157.6 5.3 157.0 5.2 C 156.4 5.2 155.6 5.2 155.6 5.3 C 155.5 5.4 155.3 5.7 155.3 5.7 C 155.3 5.7 154.9 5.3 154.5 5.3 C 154.0 5.2 154.2 5.4 154.2 5.6 C 154.3 5.8 154.9 6.3 154.7 6.3 C 154.5 6.3 153.9 5.5 153.5 5.4 C 153.2 5.3 152.5 5.4 152.5 5.4 C 152.5 5.4 152.6 5.8 152.5 5.9 C 152.4 6.0 151.7 6.1 151.7 5.9 C 151.6 5.8 151.7 5.3 151.3 5.3 C 150.2 5.2 150.3 6.1 150.2 6.1 C 150.1 6.1 150.1 5.4 149.9 5.3 C 149.6 5.2 147.4 5.3 147.3 5.5 C 147.2 5.7 146.4 5.0 146.1 5.5 C 145.7 5.9 145.6 6.0 145.6 6.1 C 145.5 6.2 145.1 6.9 144.9 6.7 C 144.7 6.4 145.6 5.6 145.3 5.4 C 145.0 5.2 143.6 5.2 143.4 5.4 C 143.1 5.7 143.0 6.3 142.8 6.3 C 142.6 6.3 141.8 5.5 141.7 5.6 C 141.6 5.7 141.5 6.4 141.5 6.6 C 141.5 6.7 141.3 8.0 141.4 8.1 C 141.6 8.3 142.5 8.8 142.3 8.4 C 142.2 8.0 142.0 7.6 142.3 7.4 C 142.6 7.3 142.8 7.3 142.9 7.4 C 142.9 7.5 142.8 7.7 143.3 7.9 C 143.8 8.2 143.5 8.4 144.0 8.4 C 144.4 8.4 144.8 8.3 144.8 8.0 C 144.8 7.8 145.2 7.4 145.6 7.4 C 145.9 7.4 145.3 8.0 146.4 8.3 C 147.4 8.5 148.1 8.6 148.4 8.3 C 148.7 8.1 148.8 7.4 149.2 7.7 C 149.7 8.0 149.5 8.2 150.1 8.2 C 150.8 8.2 151.1 7.6 151.5 7.5 C 151.9 7.5 152.0 7.6 152.0 7.6 C 152.0 7.6 151.8 8.4 152.8 8.4 C 153.7 8.5 153.9 8.5 153.7 7.9 C 153.5 7.3 154.3 7.3 154.3 7.7 C 154.3 8.1 154.9 8.4 155.2 8.4 C 155.6 8.5 155.7 7.4 155.8 7.4 C 155.9 7.4 156.3 7.5 156.2 7.8 C 156.0 8.1 156.4 8.2 156.7 8.3 C 157.0 8.4 157.9 8.3 157.9 8.1 C 157.8 8.0 157.4 7.3 158.0 7.6 C 158.6 8.0 158.8 8.5 159.3 8.4 C 159.9 8.4 159.4 7.8 159.8 7.7 C 159.8 7.7 159.8 7.7 159.8 7.7 Z M 141.1 8.5 C 142.1 8.4 141.4 5.8 141.0 5.2 C 140.6 4.7 140.0 5.0 139.3 4.9 C 138.6 4.8 138.8 5.7 138.4 5.9 C 138.0 6.2 138.2 5.6 138.0 5.2 C 137.8 4.8 136.8 5.2 136.1 5.1 C 135.5 5.1 134.9 6.0 134.3 6.0 C 133.8 6.1 134.8 6.5 133.9 6.5 C 133.0 6.4 133.4 5.9 134.5 5.6 C 135.5 5.4 134.1 5.1 133.5 5.0 C 132.9 4.9 131.9 5.3 131.5 5.3 C 131.0 5.2 131.6 5.9 130.9 5.9 C 130.3 5.9 130.6 5.2 130.0 5.1 C 129.3 5.0 129.4 5.6 129.0 5.8 C 128.7 5.9 128.8 5.5 128.5 5.5 C 128.2 5.4 127.7 5.2 127.1 5.4 C 126.5 5.5 126.7 5.7 126.4 5.8 C 126.1 5.8 125.6 5.8 125.6 5.8 C 125.5 5.6 125.5 5.4 125.5 5.1 C 125.5 5.1 124.3 5.1 124.0 5.0 C 123.6 5.0 122.9 5.3 123.1 5.4 C 123.3 5.6 122.5 6.0 122.3 5.9 C 122.2 5.8 121.6 5.5 121.2 5.3 C 120.8 5.2 120.9 6.9 120.9 7.1 C 120.9 7.4 120.7 8.3 121.0 8.4 C 121.4 8.5 121.7 8.2 121.6 8.4 C 121.5 8.7 122.6 8.4 122.8 8.4 C 123.1 8.4 123.5 7.8 123.5 7.8 C 123.5 7.8 123.8 7.2 124.2 7.2 C 124.7 7.2 124.8 8.3 124.8 8.3 C 124.8 8.3 125.4 8.5 126.0 8.5 C 126.5 8.4 127.2 7.5 127.3 7.3 C 127.4 7.1 127.4 8.0 127.8 8.1 C 128.2 8.2 128.8 8.4 128.9 8.4 C 129.1 8.3 129.4 7.8 129.4 7.8 C 129.4 7.8 130.1 7.4 130.3 7.4 C 130.5 7.4 130.2 8.2 130.2 8.2 C 130.2 8.2 131.7 8.5 132.0 8.5 C 132.4 8.6 132.9 8.4 133.1 8.3 C 133.3 8.3 133.7 7.3 134.0 7.4 C 134.3 7.5 133.7 8.0 134.0 8.1 C 134.3 8.2 135.0 8.4 135.1 8.4 C 135.3 8.4 135.5 8.1 135.8 8.0 C 136.1 8.0 136.5 7.2 136.9 7.2 C 137.4 7.2 137.6 7.7 137.8 7.8 C 138.0 7.9 138.1 8.5 138.4 8.5 C 138.8 8.6 138.5 8.1 138.9 8.1 C 139.2 8.1 139.2 7.6 139.6 7.7 C 139.9 7.8 139.7 8.6 140.1 8.5 C 140.2 8.5 140.1 8.5 141.1 8.5 C 141.1 8.5 141.1 8.5 141.1 8.5 Z M 120.2 8.3 C 120.7 8.7 121.1 8.2 121.0 7.9 C 121.0 7.5 120.8 6.5 121.0 6.2 C 121.2 6.0 121.7 5.3 120.9 5.1 C 120.0 5.0 119.8 5.3 119.8 5.5 C 119.8 5.7 119.7 6.8 119.4 6.7 C 119.2 6.6 119.0 6.3 118.9 6.2 C 118.9 6.0 118.5 5.0 118.1 5.2 C 117.7 5.3 117.3 5.6 117.3 5.6 C 117.1 5.6 116.9 5.6 116.7 5.6 C 116.7 5.6 116.1 5.0 115.6 5.2 C 115.2 5.3 114.6 5.3 114.3 5.3 C 114.0 5.2 113.6 5.3 113.6 5.5 C 113.5 5.8 113.0 6.6 113.0 6.6 C 113.0 6.6 112.5 6.8 112.3 6.7 C 112.1 6.6 112.0 6.1 112.1 5.9 C 112.1 5.7 112.1 5.3 111.7 5.2 C 111.4 5.1 109.9 4.6 109.6 4.9 C 109.4 5.2 109.5 5.5 109.3 5.6 C 109.1 5.7 108.1 5.8 108.0 5.5 C 108.0 5.3 108.0 4.8 107.7 4.9 C 107.4 4.9 106.9 4.8 106.9 4.9 C 106.9 5.0 106.7 5.2 106.7 5.5 C 106.6 5.7 106.1 6.0 105.9 6.1 C 105.8 6.2 105.4 6.3 105.4 6.3 C 105.2 6.1 105.0 6.0 104.8 5.8 C 104.8 5.8 105.1 5.3 105.3 5.2 C 105.5 5.1 105.2 4.8 105.0 4.8 C 104.8 4.7 103.8 4.8 103.8 4.8 C 103.7 5.2 103.7 5.6 103.7 6.0 C 103.4 6.0 103.2 6.1 102.9 6.2 C 102.9 6.2 103.0 4.8 102.5 4.8 C 102.0 4.8 101.3 4.8 101.3 4.8 C 101.3 4.8 100.8 5.4 100.7 5.4 C 100.5 5.5 100.5 6.7 100.5 6.7 C 100.5 7.1 100.5 7.6 100.6 8.0 C 100.6 8.0 101.2 8.5 101.6 8.3 C 101.9 8.1 101.6 7.6 101.7 7.4 C 101.7 7.2 102.3 6.9 102.3 6.9 C 102.5 7.2 102.7 7.5 103.0 7.7 C 103.0 7.7 103.2 8.0 103.4 8.2 C 103.6 8.4 104.4 8.6 104.7 8.5 C 104.9 8.4 105.1 8.0 105.4 7.8 C 105.7 7.6 105.7 7.2 106.0 7.5 C 106.4 7.8 106.5 8.2 106.7 8.2 C 106.9 8.2 107.6 7.7 107.6 7.7 C 107.8 7.6 108.0 7.5 108.3 7.4 C 108.3 7.4 108.8 7.2 108.9 7.4 C 109.0 7.7 110.1 7.4 110.1 7.4 C 110.1 7.4 110.0 8.2 110.3 8.4 C 110.6 8.5 111.0 8.7 111.5 8.6 C 111.9 8.4 112.3 7.6 112.3 7.6 C 112.4 7.8 112.6 8.0 112.7 8.2 C 113.1 8.3 113.6 8.4 114.0 8.4 C 114.0 8.4 115.0 8.4 115.0 8.2 C 115.0 8.1 114.9 7.4 114.9 7.2 C 115.0 7.0 115.5 6.8 115.6 7.0 C 115.6 7.3 116.1 7.9 116.1 7.9 C 116.1 7.9 116.5 8.3 116.8 8.4 C 117.1 8.4 117.5 8.2 117.6 8.0 C 117.8 7.9 118.2 7.4 118.2 7.4 C 118.3 7.6 118.5 7.8 118.6 8.0 C 118.6 8.0 119.4 7.7 120.2 8.3 C 120.2 8.3 120.2 8.3 120.2 8.3 Z M 98.4 7.7 C 98.6 7.6 98.8 8.0 99.3 8.2 C 99.9 8.4 100.6 8.4 100.4 8.1 C 100.3 7.8 100.1 7.6 100.4 7.2 C 100.7 6.8 101.0 6.0 100.6 5.8 C 100.2 5.5 98.7 4.8 98.2 5.2 C 97.7 5.6 97.5 5.7 97.2 5.9 C 96.8 6.2 97.1 5.4 97.1 5.4 C 97.1 5.4 96.2 5.3 95.6 5.2 C 95.0 5.2 94.2 5.2 94.2 5.3 C 94.1 5.4 93.9 5.7 93.9 5.7 C 93.9 5.7 93.5 5.3 93.1 5.3 C 92.6 5.2 92.8 5.4 92.8 5.6 C 92.9 5.8 93.5 6.3 93.3 6.3 C 93.1 6.3 92.5 5.5 92.1 5.4 C 91.8 5.3 91.1 5.4 91.1 5.4 C 91.1 5.4 91.2 5.8 91.1 5.9 C 91.0 6.0 90.3 6.1 90.3 5.9 C 90.2 5.8 90.3 5.3 89.9 5.3 C 88.8 5.2 88.9 6.1 88.8 6.1 C 88.7 6.1 88.7 5.4 88.5 5.3 C 88.2 5.2 86.0 5.3 85.9 5.5 C 85.8 5.7 85.0 5.0 84.7 5.5 C 84.3 5.9 84.2 6.0 84.2 6.1 C 84.1 6.2 83.7 6.9 83.5 6.7 C 83.3 6.4 84.2 5.6 83.9 5.4 C 83.6 5.2 82.2 5.2 82.0 5.4 C 81.7 5.7 81.6 6.3 81.4 6.3 C 81.2 6.3 80.4 5.5 80.3 5.6 C 80.2 5.7 80.1 6.4 80.1 6.6 C 80.1 6.7 79.9 8.0 80.0 8.1 C 80.2 8.3 81.1 8.8 80.9 8.4 C 80.8 8.0 80.6 7.6 80.9 7.4 C 81.2 7.3 81.4 7.3 81.5 7.4 C 81.5 7.5 81.4 7.7 81.9 7.9 C 82.4 8.2 82.1 8.4 82.6 8.4 C 83.0 8.4 83.4 8.3 83.4 8.0 C 83.4 7.8 83.9 7.4 84.2 7.4 C 84.5 7.4 83.9 8.0 85.0 8.3 C 86.0 8.5 86.7 8.6 87.0 8.3 C 87.3 8.1 87.4 7.4 87.9 7.7 C 88.3 8.0 88.1 8.2 88.7 8.2 C 89.4 8.2 89.7 7.6 90.1 7.5 C 90.5 7.5 90.7 7.6 90.7 7.6 C 90.7 7.6 90.4 8.4 91.4 8.4 C 92.3 8.5 92.5 8.5 92.3 7.9 C 92.1 7.3 92.9 7.3 92.9 7.7 C 92.9 8.1 93.5 8.4 93.8 8.4 C 94.2 8.5 94.3 7.4 94.4 7.4 C 94.5 7.4 94.9 7.5 94.8 7.8 C 94.6 8.1 95.0 8.2 95.3 8.3 C 95.6 8.4 96.5 8.3 96.5 8.1 C 96.4 8.0 96.0 7.3 96.6 7.6 C 97.2 8.0 97.4 8.5 97.9 8.4 C 98.5 8.4 98.0 7.8 98.4 7.7 C 98.4 7.7 98.4 7.7 98.4 7.7 Z M 79.7 8.5 C 80.7 8.4 80.0 5.8 79.6 5.2 C 79.2 4.7 78.6 5.0 77.9 4.9 C 77.2 4.8 77.4 5.7 77.0 5.9 C 76.6 6.2 76.8 5.6 76.6 5.2 C 76.4 4.8 75.4 5.2 74.7 5.1 C 74.1 5.1 73.5 6.0 72.9 6.0 C 72.4 6.1 73.4 6.5 72.5 6.5 C 71.6 6.4 72.0 5.9 73.1 5.6 C 74.1 5.4 72.7 5.1 72.1 5.0 C 71.5 4.9 70.5 5.3 70.1 5.3 C 69.6 5.2 70.2 5.9 69.5 5.9 C 68.9 5.9 69.2 5.2 68.6 5.1 C 67.9 5.0 68.0 5.6 67.6 5.8 C 67.3 5.9 67.4 5.5 67.1 5.5 C 66.8 5.4 66.3 5.2 65.7 5.4 C 65.1 5.5 65.3 5.7 65.0 5.8 C 64.7 5.8 64.2 5.8 64.2 5.8 C 64.1 5.6 64.1 5.4 64.1 5.1 C 64.1 5.1 62.9 5.1 62.6 5.0 C 62.2 5.0 61.5 5.3 61.7 5.4 C 61.9 5.6 61.1 6.0 60.9 5.9 C 60.8 5.8 60.2 5.5 59.8 5.3 C 59.4 5.2 59.5 6.9 59.5 7.1 C 59.5 7.4 59.3 8.3 59.6 8.4 C 60.0 8.5 60.3 8.2 60.2 8.4 C 60.1 8.7 61.2 8.4 61.4 8.4 C 61.7 8.4 62.1 7.8 62.1 7.8 C 62.1 7.8 62.4 7.2 62.8 7.2 C 63.3 7.2 63.4 8.3 63.4 8.3 C 63.4 8.3 64.0 8.5 64.6 8.5 C 65.1 8.4 65.8 7.5 65.9 7.3 C 66.0 7.1 66.0 8.0 66.4 8.1 C 66.8 8.2 67.4 8.4 67.5 8.4 C 67.7 8.3 68.0 7.8 68.0 7.8 C 68.0 7.8 68.7 7.4 68.9 7.4 C 69.1 7.4 68.8 8.2 68.8 8.2 C 68.8 8.2 70.3 8.5 70.6 8.5 C 71.0 8.6 71.5 8.4 71.7 8.3 C 71.9 8.3 72.3 7.3 72.6 7.4 C 72.9 7.5 72.3 8.0 72.6 8.1 C 72.9 8.2 73.6 8.4 73.7 8.4 C 73.9 8.4 74.1 8.1 74.4 8.0 C 74.7 8.0 75.1 7.2 75.6 7.2 C 76.0 7.2 76.2 7.7 76.4 7.8 C 76.6 7.9 76.7 8.5 77.0 8.5 C 77.4 8.6 77.1 8.1 77.5 8.1 C 77.8 8.1 77.8 7.6 78.2 7.7 C 78.5 7.8 78.3 8.6 78.7 8.5 C 78.8 8.5 78.7 8.5 79.7 8.5 C 79.7 8.5 79.7 8.5 79.7 8.5 Z M 57.4 7.7 C 57.6 7.6 57.8 8.0 58.4 8.2 C 59.0 8.4 59.6 8.4 59.5 8.1 C 59.4 7.8 59.2 7.6 59.5 7.2 C 59.8 6.8 60.1 6.0 59.7 5.8 C 59.3 5.5 57.8 4.8 57.3 5.2 C 56.8 5.6 56.6 5.7 56.2 5.9 C 55.9 6.2 56.1 5.4 56.1 5.4 C 56.1 5.4 55.3 5.3 54.7 5.2 C 54.0 5.2 53.3 5.2 53.2 5.3 C 53.2 5.4 52.9 5.7 52.9 5.7 C 52.9 5.7 52.6 5.3 52.1 5.3 C 51.7 5.2 51.8 5.4 51.9 5.6 C 52.0 5.8 52.5 6.3 52.3 6.3 C 52.1 6.3 51.5 5.5 51.2 5.4 C 50.9 5.3 50.2 5.4 50.2 5.4 C 50.2 5.4 50.2 5.8 50.2 5.9 C 50.1 6.0 49.4 6.1 49.3 5.9 C 49.3 5.8 49.4 5.3 49.0 5.3 C 47.9 5.2 48.0 6.1 47.9 6.1 C 47.8 6.1 47.8 5.4 47.5 5.3 C 47.3 5.2 45.0 5.3 44.9 5.5 C 44.8 5.7 44.1 5.0 43.7 5.5 C 43.4 5.9 43.3 6.0 43.3 6.1 C 43.2 6.2 42.8 6.9 42.5 6.7 C 42.4 6.4 43.2 5.6 43.0 5.4 C 42.7 5.2 41.3 5.2 41.1 5.4 C 40.7 5.7 40.6 6.3 40.4 6.3 C 40.2 6.3 39.4 5.5 39.4 5.6 C 39.3 5.7 39.2 6.4 39.2 6.6 C 39.2 6.7 38.9 8.0 39.1 8.1 C 39.3 8.3 40.1 8.8 40.0 8.4 C 39.9 8.0 39.7 7.6 40.0 7.4 C 40.3 7.3 40.5 7.3 40.5 7.4 C 40.6 7.5 40.4 7.7 40.9 7.9 C 41.4 8.2 41.2 8.4 41.6 8.4 C 42.1 8.4 42.5 8.3 42.5 8.0 C 42.4 7.8 42.9 7.4 43.2 7.4 C 43.6 7.4 43.0 8.0 44.1 8.3 C 45.1 8.5 45.8 8.6 46.1 8.3 C 46.4 8.1 46.4 7.4 46.9 7.7 C 47.4 8.0 47.1 8.2 47.8 8.2 C 48.5 8.2 48.7 7.6 49.2 7.5 C 49.6 7.5 49.7 7.6 49.7 7.6 C 49.7 7.6 49.5 8.4 50.4 8.4 C 51.4 8.5 51.6 8.5 51.4 7.9 C 51.2 7.3 51.9 7.3 52.0 7.7 C 52.0 8.1 52.6 8.4 52.9 8.4 C 53.2 8.5 53.3 7.4 53.5 7.4 C 53.6 7.4 54.0 7.5 53.8 7.8 C 53.7 8.1 54.1 8.2 54.4 8.3 C 54.7 8.4 55.5 8.3 55.5 8.1 C 55.5 8.0 55.1 7.3 55.7 7.6 C 56.3 8.0 56.4 8.5 57.0 8.4 C 57.6 8.4 57.1 7.8 57.4 7.7 C 57.4 7.7 57.4 7.7 57.4 7.7 Z M 38.3 8.3 C 38.8 8.7 39.2 8.2 39.2 7.9 C 39.1 7.5 38.9 6.5 39.1 6.2 C 39.3 6.0 39.9 5.3 39.0 5.1 C 38.1 5.0 38.0 5.3 38.0 5.5 C 38.0 5.7 37.8 6.8 37.6 6.7 C 37.3 6.6 37.1 6.3 37.0 6.2 C 37.0 6.0 36.7 5.0 36.2 5.2 C 35.8 5.3 35.4 5.6 35.4 5.6 C 35.2 5.6 35.0 5.6 34.8 5.6 C 34.8 5.6 34.2 5.0 33.8 5.2 C 33.3 5.3 32.8 5.3 32.4 5.3 C 32.1 5.2 31.7 5.3 31.7 5.5 C 31.6 5.8 31.2 6.6 31.2 6.6 C 31.2 6.6 30.7 6.8 30.4 6.7 C 30.2 6.6 30.1 6.1 30.2 5.9 C 30.2 5.7 30.2 5.3 29.8 5.2 C 29.5 5.1 28.0 4.6 27.8 4.9 C 27.5 5.2 27.6 5.5 27.4 5.6 C 27.3 5.7 26.3 5.8 26.2 5.5 C 26.1 5.3 26.2 4.8 25.9 4.9 C 25.6 4.9 25.0 4.8 25.0 4.9 C 25.0 5.0 24.8 5.2 24.8 5.5 C 24.8 5.7 24.2 6.0 24.1 6.1 C 24.0 6.2 23.5 6.3 23.5 6.3 C 23.3 6.1 23.1 6.0 22.9 5.8 C 22.9 5.8 23.3 5.3 23.4 5.2 C 23.6 5.1 23.3 4.8 23.2 4.8 C 23.0 4.7 21.9 4.8 21.9 4.8 C 21.9 5.2 21.9 5.6 21.8 6.0 C 21.6 6.0 21.3 6.1 21.0 6.2 C 21.0 6.2 21.1 4.8 20.6 4.8 C 20.1 4.8 19.5 4.8 19.5 4.8 C 19.5 4.8 18.9 5.4 18.8 5.4 C 18.6 5.5 18.6 6.7 18.6 6.7 C 18.6 7.1 18.7 7.6 18.7 8.1 C 18.7 8.1 19.4 8.5 19.7 8.3 C 20.0 8.1 19.8 7.6 19.8 7.4 C 19.9 7.2 20.4 6.9 20.4 6.9 C 20.6 7.2 20.9 7.5 21.1 7.7 C 21.1 7.7 21.3 8.0 21.5 8.2 C 21.8 8.4 22.6 8.6 22.8 8.5 C 23.0 8.4 23.3 8.0 23.6 7.8 C 23.9 7.6 23.8 7.2 24.1 7.5 C 24.5 7.8 24.7 8.2 24.8 8.2 C 25.0 8.2 25.8 7.7 25.8 7.7 C 26.0 7.6 26.2 7.5 26.4 7.4 C 26.4 7.4 26.9 7.2 27.0 7.4 C 27.1 7.7 28.2 7.4 28.2 7.4 C 28.2 7.4 28.1 8.2 28.4 8.4 C 28.7 8.5 29.2 8.7 29.6 8.6 C 30.1 8.4 30.4 7.6 30.4 7.6 C 30.6 7.8 30.7 8.0 30.9 8.2 C 31.3 8.3 31.7 8.4 32.1 8.4 C 32.1 8.4 33.1 8.4 33.1 8.2 C 33.1 8.1 33.0 7.4 33.1 7.2 C 33.1 7.0 33.6 6.8 33.7 7.0 C 33.8 7.3 34.2 7.9 34.2 7.9 C 34.2 7.9 34.6 8.3 34.9 8.4 C 35.2 8.4 35.7 8.2 35.8 8.0 C 35.9 7.9 36.4 7.4 36.4 7.4 C 36.5 7.6 36.6 7.8 36.7 8.0 C 36.7 8.0 37.5 7.7 38.3 8.3 C 38.3 8.3 38.3 8.3 38.3 8.3 Z M 18.4 8.5 C 19.3 8.4 18.6 5.8 18.1 5.3 C 17.6 4.8 16.9 5.2 16.1 5.2 C 15.3 5.3 15.7 6.1 15.4 6.4 C 15.0 6.8 15.0 6.2 14.7 5.9 C 14.4 5.6 13.5 6.3 12.8 6.5 C 12.2 6.8 12.0 7.9 11.6 8.2 C 11.2 8.6 12.2 8.4 11.4 8.9 C 10.6 9.3 10.7 8.7 11.5 7.8 C 12.2 7.0 10.8 7.7 10.2 7.9 C 9.7 8.2 9.1 9.2 8.8 9.5 C 8.4 9.8 9.3 9.9 8.8 10.4 C 8.3 10.9 8.0 10.1 7.5 10.6 C 7.0 11.2 7.5 11.5 7.5 11.9 C 7.4 12.2 7.1 11.9 6.9 12.2 C 6.7 12.4 6.3 12.7 6.1 13.4 C 5.9 14.1 6.2 14.0 6.1 14.3 C 6.0 14.6 5.8 15.1 5.8 15.1 C 5.6 15.0 5.4 15.0 5.2 15.0 C 5.2 15.0 4.7 16.2 4.6 16.5 C 4.5 16.9 4.6 17.8 4.8 17.6 C 5.0 17.4 5.3 18.3 5.2 18.5 C 5.1 18.7 4.7 19.3 4.5 19.7 C 4.4 20.2 6.1 20.0 6.3 20.0 C 6.6 20.1 7.5 20.3 7.6 20.0 C 7.7 19.6 7.4 19.3 7.6 19.4 C 7.8 19.5 7.7 18.5 7.7 18.3 C 7.7 18.0 7.2 17.6 7.2 17.6 C 7.2 17.6 6.7 17.2 6.8 16.8 C 6.9 16.4 8.0 16.5 8.0 16.5 C 8.0 16.5 8.3 16.1 8.4 15.7 C 8.6 15.2 8.0 14.3 7.9 14.1 C 7.8 13.9 8.5 14.3 8.8 14.1 C 9.0 13.8 9.5 13.5 9.5 13.4 C 9.6 13.2 9.3 12.7 9.3 12.7 C 9.3 12.7 9.4 12.0 9.5 11.9 C 9.6 11.8 10.1 12.5 10.1 12.5 C 10.1 12.5 11.1 11.7 11.4 11.5 C 11.6 11.4 11.8 10.9 11.9 10.8 C 12.1 10.6 11.7 9.7 12.0 9.6 C 12.3 9.5 12.1 10.2 12.4 10.2 C 12.7 10.1 13.3 10.0 13.4 9.9 C 13.5 9.8 13.6 9.4 13.8 9.3 C 14.0 9.1 14.0 8.3 14.4 8.1 C 14.8 8.0 15.1 8.3 15.3 8.4 C 15.5 8.4 15.8 9.0 16.1 8.9 C 16.4 8.9 16.1 8.5 16.4 8.4 C 16.7 8.4 16.6 7.9 16.9 7.9 C 17.2 8.0 17.2 8.8 17.5 8.6 C 17.6 8.6 17.5 8.6 18.4 8.5 C 18.4 8.5 18.4 8.5 18.4 8.5 Z M 18.4 8.5 " fill="#794525"></path></g></svg>