<?xml version="1.0" encoding="UTF-8" standalone="no"?><svg xmlns="http://www.w3.org/2000/svg" xmlns:xlink="http://www.w3.org/1999/xlink" clip-rule="evenodd" stroke-miterlimit="10" viewBox="0 0 253 79"><desc>SVG generated by Keynote</desc><defs></defs><g transform="matrix(1.00, 0.00, -0.00, -1.00, 0.0, 79.0)"><image xlink:href="../../1E6779FB-9B16-4F0C-8AFF-8D3428667565/assets/904E49CEB9547E9C1621BE4BC4532D64.png" width="250.00" height="74.00" transform="matrix(1.00, 0.00, -0.00, -1.00, 1.6, 75.9)" opacity="0.50"></image><path d="M 6.4 22.1 C 6.3 21.9 6.8 21.7 7.0 21.2 C 7.1 20.6 7.2 19.9 6.8 20.0 C 6.5 20.2 6.3 20.4 5.9 20.1 C 5.5 19.8 4.8 19.4 4.6 19.8 C 4.3 20.2 3.6 21.8 3.9 22.3 C 4.3 22.8 4.5 22.9 4.7 23.3 C 4.9 23.7 4.1 23.4 4.1 23.4 C 4.1 23.4 4.1 24.3 4.0 24.9 C 3.9 25.5 3.9 26.2 4.1 26.3 C 4.2 26.4 4.5 26.6 4.5 26.6 C 4.5 26.6 4.1 26.9 4.0 27.4 C 3.9 27.9 4.2 27.7 4.3 27.6 C 4.5 27.6 5.1 27.0 5.1 27.2 C 5.1 27.4 4.3 28.0 4.2 28.3 C 4.1 28.7 4.2 29.4 4.2 29.4 C 4.2 29.4 4.6 29.3 4.7 29.4 C 4.8 29.5 4.9 30.2 4.7 30.2 C 4.5 30.3 4.1 30.2 4.0 30.5 C 4.0 31.7 4.8 31.5 4.9 31.6 C 4.9 31.7 4.2 31.7 4.1 32.0 C 4.0 32.3 4.1 34.5 4.3 34.6 C 4.4 34.7 3.8 35.5 4.2 35.8 C 4.7 36.1 4.8 36.2 4.9 36.3 C 5.0 36.4 5.7 36.8 5.4 37.0 C 5.2 37.2 4.4 36.3 4.2 36.6 C 4.0 36.9 3.9 38.3 4.1 38.5 C 4.4 38.8 5.1 38.9 5.1 39.1 C 5.1 39.3 4.2 40.1 4.4 40.2 C 4.5 40.2 5.2 40.3 5.3 40.3 C 5.5 40.3 6.7 40.6 6.9 40.4 C 7.1 40.3 7.5 39.4 7.2 39.5 C 6.8 39.6 6.4 39.8 6.2 39.5 C 6.0 39.3 6.0 39.1 6.2 39.0 C 6.3 38.9 6.4 39.1 6.7 38.6 C 6.9 38.1 7.2 38.4 7.2 37.9 C 7.2 37.5 7.1 37.0 6.8 37.1 C 6.5 37.1 6.1 36.6 6.2 36.3 C 6.2 36.0 6.8 36.5 7.0 35.5 C 7.3 34.5 7.3 33.8 7.1 33.5 C 6.9 33.2 6.1 33.1 6.4 32.6 C 6.8 32.1 7.0 32.4 6.9 31.7 C 6.9 31.1 6.3 30.8 6.3 30.4 C 6.3 30.0 6.3 29.8 6.3 29.8 C 6.3 29.8 7.2 30.1 7.2 29.1 C 7.2 28.1 7.3 27.9 6.7 28.1 C 6.1 28.3 6.1 27.6 6.5 27.6 C 6.9 27.5 7.1 27.0 7.2 26.6 C 7.2 26.3 6.2 26.2 6.2 26.1 C 6.2 26.0 6.2 25.6 6.5 25.7 C 6.9 25.9 6.9 25.5 7.1 25.2 C 7.2 24.9 7.1 24.0 6.9 24.0 C 6.7 24.0 6.1 24.5 6.4 23.9 C 6.7 23.3 7.2 23.1 7.2 22.5 C 7.2 22.0 6.6 22.5 6.4 22.1 C 6.4 22.1 6.4 22.1 6.4 22.1 Z M 7.2 40.8 C 7.2 39.8 4.5 40.4 4.0 40.8 C 3.5 41.2 3.8 41.9 3.7 42.6 C 3.6 43.3 4.4 43.1 4.7 43.5 C 4.9 43.9 4.4 43.7 4.0 43.9 C 3.6 44.1 4.0 45.1 3.9 45.7 C 3.9 46.4 4.8 47.0 4.8 47.5 C 4.9 48.0 5.3 47.1 5.2 48.0 C 5.2 48.9 4.7 48.5 4.4 47.4 C 4.1 46.4 3.9 47.8 3.8 48.4 C 3.7 49.0 4.1 49.9 4.1 50.4 C 4.0 50.8 4.7 50.3 4.7 50.9 C 4.6 51.6 4.0 51.3 3.9 51.9 C 3.7 52.6 4.4 52.5 4.5 52.9 C 4.7 53.2 4.3 53.1 4.2 53.4 C 4.2 53.7 4.0 54.1 4.1 54.8 C 4.3 55.4 4.5 55.2 4.5 55.5 C 4.6 55.8 4.6 56.3 4.6 56.3 C 4.4 56.3 4.1 56.4 3.9 56.4 C 3.9 56.4 3.9 57.6 3.8 57.9 C 3.8 58.2 4.1 59.0 4.2 58.8 C 4.3 58.6 4.8 59.4 4.7 59.5 C 4.6 59.7 4.3 60.4 4.1 60.8 C 4.0 61.3 5.7 61.0 6.0 61.0 C 6.2 60.9 7.1 61.1 7.2 60.8 C 7.3 60.4 6.9 60.2 7.2 60.2 C 7.4 60.3 7.2 59.3 7.2 59.0 C 7.2 58.7 6.5 58.4 6.5 58.4 C 6.5 58.4 6.0 58.1 6.0 57.7 C 6.0 57.2 7.1 57.0 7.1 57.0 C 7.1 57.0 7.3 56.5 7.2 55.9 C 7.2 55.3 6.3 54.7 6.1 54.6 C 5.9 54.5 6.7 54.5 6.8 54.1 C 6.9 53.7 7.2 53.1 7.1 52.9 C 7.1 52.8 6.5 52.5 6.5 52.5 C 6.5 52.5 6.2 51.8 6.2 51.6 C 6.2 51.4 7.0 51.7 7.0 51.7 C 7.0 51.7 7.2 50.2 7.3 49.8 C 7.4 49.5 7.1 49.0 7.1 48.8 C 7.0 48.6 6.1 48.2 6.2 47.9 C 6.3 47.5 6.8 48.2 6.9 47.9 C 7.0 47.5 7.2 46.9 7.2 46.8 C 7.2 46.6 6.8 46.4 6.8 46.1 C 6.7 45.8 6.0 45.4 6.0 44.9 C 6.0 44.5 6.4 44.3 6.5 44.1 C 6.6 43.9 7.3 43.8 7.3 43.4 C 7.3 43.1 6.9 43.3 6.9 43.0 C 6.9 42.7 6.4 42.7 6.5 42.3 C 6.6 42.0 7.4 42.2 7.3 41.8 C 7.2 41.6 7.3 41.8 7.2 40.8 C 7.2 40.8 7.2 40.8 7.2 40.8 Z M 7.2 61.5 C 7.5 61.0 7.0 60.7 6.7 60.8 C 6.3 60.9 5.4 61.1 5.1 61.0 C 4.8 60.8 4.0 60.2 4.0 61.2 C 3.9 62.2 4.3 62.4 4.5 62.3 C 4.7 62.3 5.8 62.3 5.7 62.5 C 5.7 62.8 5.5 63.1 5.3 63.2 C 5.2 63.2 4.4 63.9 4.6 64.3 C 4.9 64.7 5.3 64.9 5.3 64.9 C 5.4 65.2 5.5 65.4 5.6 65.6 C 5.6 65.6 5.4 66.4 5.7 66.8 C 6.1 67.1 6.4 67.6 6.5 68.0 C 6.7 68.3 7.0 68.5 7.2 68.4 C 7.5 68.4 8.4 68.2 8.4 68.2 C 8.4 68.2 8.9 68.4 8.9 68.7 C 9.0 68.9 8.7 69.3 8.5 69.4 C 8.4 69.5 8.1 69.8 8.3 70.2 C 8.5 70.5 9.4 71.9 9.8 71.9 C 10.2 71.8 10.3 71.4 10.5 71.5 C 10.7 71.5 11.6 72.0 11.6 72.3 C 11.6 72.5 11.3 72.9 11.6 73.0 C 11.9 73.1 12.4 73.5 12.5 73.4 C 12.5 73.3 12.8 73.2 12.9 73.0 C 13.0 72.8 13.7 72.8 13.8 72.7 C 14.0 72.6 14.5 72.7 14.5 72.7 C 14.6 72.9 14.7 73.1 14.9 73.3 C 14.9 73.3 14.4 73.7 14.2 73.7 C 14.0 73.8 14.2 74.2 14.4 74.3 C 14.5 74.4 15.8 74.6 15.8 74.6 C 15.9 74.2 16.0 73.8 16.1 73.4 C 16.4 73.4 16.7 73.4 17.0 73.3 C 17.0 73.3 16.7 74.7 17.3 74.7 C 17.9 74.8 18.6 74.8 18.6 74.8 C 18.6 74.8 19.2 74.3 19.3 74.2 C 19.4 74.2 19.5 73.0 19.5 73.0 C 19.5 72.5 19.4 72.1 19.4 71.6 C 19.4 71.6 18.7 71.1 18.4 71.3 C 18.1 71.5 18.3 72.0 18.3 72.2 C 18.2 72.5 17.7 72.7 17.7 72.7 C 17.5 72.4 17.3 72.1 17.1 71.8 C 17.1 71.8 16.9 71.6 16.7 71.3 C 16.6 71.0 15.9 70.8 15.7 70.8 C 15.5 70.8 15.2 71.1 14.9 71.2 C 14.6 71.4 14.5 71.8 14.3 71.4 C 14.1 70.9 14.1 70.5 14.0 70.5 C 13.8 70.4 13.0 70.5 13.0 70.5 C 12.8 70.6 12.6 70.6 12.3 70.5 C 12.3 70.5 11.8 70.5 11.9 70.2 C 12.0 69.9 10.9 69.6 10.9 69.6 C 10.9 69.6 11.5 69.0 11.4 68.7 C 11.3 68.5 11.2 68.1 10.8 67.9 C 10.4 67.7 9.6 68.1 9.6 68.1 C 9.7 67.8 9.8 67.6 9.8 67.4 C 9.6 67.0 9.5 66.7 9.3 66.4 C 9.3 66.4 8.8 65.7 8.7 65.8 C 8.6 65.9 8.0 66.3 7.8 66.4 C 7.6 66.4 7.2 66.1 7.4 65.9 C 7.5 65.8 7.9 65.1 7.9 65.1 C 7.9 65.1 8.1 64.6 8.1 64.4 C 8.0 64.1 7.7 63.8 7.5 63.8 C 7.3 63.7 6.7 63.5 6.7 63.5 C 6.9 63.3 7.1 63.1 7.3 63.0 C 7.3 63.0 6.7 62.3 7.2 61.5 C 7.2 61.5 7.2 61.5 7.2 61.5 Z M 19.8 71.2 C 18.8 71.2 19.5 73.9 19.9 74.4 C 20.3 75.0 20.9 74.6 21.6 74.7 C 22.3 74.8 22.1 74.0 22.5 73.7 C 22.9 73.5 22.7 74.0 22.9 74.4 C 23.1 74.8 24.1 74.5 24.8 74.5 C 25.4 74.5 26.0 73.7 26.6 73.6 C 27.1 73.6 26.1 73.1 27.0 73.2 C 27.9 73.2 27.5 73.7 26.4 74.0 C 25.4 74.3 26.9 74.5 27.4 74.6 C 28.0 74.7 29.0 74.3 29.4 74.4 C 29.9 74.4 29.3 73.7 30.0 73.7 C 30.6 73.8 30.3 74.5 30.9 74.6 C 31.6 74.7 31.5 74.0 31.9 73.9 C 32.2 73.7 32.1 74.1 32.4 74.2 C 32.7 74.2 33.2 74.4 33.8 74.3 C 34.4 74.1 34.2 73.9 34.5 73.9 C 34.8 73.8 35.3 73.8 35.3 73.8 C 35.4 74.1 35.4 74.3 35.4 74.5 C 35.4 74.5 36.6 74.6 36.9 74.6 C 37.3 74.7 38.0 74.4 37.8 74.2 C 37.6 74.1 38.4 73.6 38.6 73.7 C 38.7 73.8 39.3 74.2 39.7 74.3 C 40.1 74.5 40.0 72.7 40.0 72.5 C 40.0 72.3 40.2 71.3 39.9 71.2 C 39.5 71.1 39.2 71.5 39.3 71.2 C 39.4 71.0 38.3 71.2 38.1 71.2 C 37.8 71.2 37.4 71.9 37.4 71.9 C 37.4 71.9 37.1 72.4 36.7 72.4 C 36.2 72.4 36.1 71.3 36.1 71.3 C 36.1 71.3 35.5 71.1 34.9 71.2 C 34.4 71.2 33.7 72.1 33.6 72.3 C 33.5 72.5 33.5 71.7 33.1 71.6 C 32.7 71.5 32.1 71.2 32.0 71.3 C 31.8 71.3 31.5 71.9 31.5 71.9 C 31.5 71.9 30.8 72.2 30.6 72.2 C 30.4 72.2 30.7 71.4 30.7 71.4 C 30.7 71.4 29.2 71.2 28.9 71.1 C 28.5 71.1 28.0 71.3 27.8 71.3 C 27.6 71.4 27.2 72.4 26.9 72.3 C 26.6 72.2 27.2 71.6 26.9 71.5 C 26.6 71.4 25.9 71.2 25.8 71.2 C 25.6 71.2 25.4 71.6 25.1 71.6 C 24.8 71.7 24.4 72.4 24.0 72.4 C 23.5 72.4 23.3 72.0 23.1 71.9 C 22.9 71.8 22.8 71.1 22.5 71.1 C 22.1 71.1 22.4 71.5 22.0 71.5 C 21.7 71.5 21.7 72.0 21.3 71.9 C 21.0 71.8 21.2 71.0 20.8 71.1 C 20.7 71.2 20.8 71.1 19.8 71.2 C 19.8 71.2 19.8 71.2 19.8 71.2 Z M 40.7 71.3 C 40.2 71.0 39.8 71.4 39.9 71.8 C 39.9 72.2 40.1 73.1 39.9 73.4 C 39.7 73.7 39.2 74.4 40.0 74.5 C 40.9 74.7 41.1 74.4 41.1 74.1 C 41.1 73.9 41.2 72.9 41.5 73.0 C 41.7 73.1 41.9 73.4 42.0 73.5 C 42.1 73.6 42.4 74.6 42.8 74.5 C 43.2 74.3 43.6 74.0 43.6 74.0 C 43.8 74.0 44.0 74.0 44.2 74.0 C 44.2 74.0 44.8 74.6 45.3 74.5 C 45.7 74.3 46.3 74.3 46.6 74.4 C 46.9 74.4 47.3 74.3 47.4 74.1 C 47.4 73.9 47.9 73.0 47.9 73.0 C 47.9 73.0 48.4 72.8 48.6 72.9 C 48.8 73.1 48.9 73.5 48.8 73.7 C 48.8 73.9 48.8 74.4 49.2 74.5 C 49.5 74.6 51.0 75.0 51.3 74.7 C 51.5 74.5 51.4 74.1 51.6 74.0 C 51.8 73.9 52.8 73.9 52.9 74.1 C 52.9 74.3 52.9 74.8 53.2 74.8 C 53.5 74.7 54.0 74.9 54.0 74.7 C 54.0 74.6 54.2 74.5 54.2 74.2 C 54.3 73.9 54.8 73.7 55.0 73.5 C 55.1 73.4 55.5 73.4 55.5 73.4 C 55.7 73.5 55.9 73.7 56.1 73.8 C 56.1 73.8 55.8 74.3 55.6 74.4 C 55.4 74.5 55.7 74.8 55.9 74.9 C 56.1 74.9 57.1 74.8 57.1 74.8 C 57.2 74.5 57.2 74.1 57.2 73.7 C 57.5 73.6 57.7 73.5 58.0 73.4 C 58.0 73.4 57.9 74.8 58.4 74.8 C 58.9 74.8 59.6 74.8 59.6 74.8 C 59.6 74.8 60.1 74.3 60.2 74.2 C 60.4 74.2 60.4 73.0 60.4 73.0 C 60.4 72.5 60.4 72.1 60.3 71.6 C 60.3 71.6 59.7 71.1 59.3 71.3 C 59.0 71.5 59.3 72.0 59.2 72.2 C 59.2 72.5 58.6 72.7 58.6 72.7 C 58.4 72.4 58.2 72.2 57.9 71.9 C 57.9 71.9 57.7 71.7 57.5 71.5 C 57.3 71.2 56.5 71.1 56.2 71.2 C 56.0 71.3 55.8 71.6 55.5 71.8 C 55.2 72.1 55.2 72.5 54.9 72.2 C 54.5 71.8 54.4 71.5 54.2 71.5 C 54.0 71.5 53.3 71.9 53.3 71.9 C 53.1 72.0 52.9 72.1 52.7 72.2 C 52.7 72.2 52.1 72.5 52.0 72.2 C 51.9 71.9 50.8 72.2 50.8 72.2 C 50.8 72.2 50.9 71.4 50.6 71.3 C 50.3 71.1 49.9 71.0 49.4 71.1 C 49.0 71.2 48.6 72.0 48.6 72.0 C 48.5 71.8 48.3 71.6 48.2 71.4 C 47.8 71.3 47.3 71.3 46.9 71.2 C 46.9 71.2 45.9 71.3 45.9 71.4 C 45.9 71.6 46.0 72.2 46.0 72.4 C 45.9 72.6 45.4 72.8 45.3 72.6 C 45.3 72.4 44.8 71.7 44.8 71.7 C 44.8 71.7 44.4 71.3 44.1 71.3 C 43.8 71.2 43.4 71.5 43.3 71.6 C 43.1 71.7 42.7 72.2 42.7 72.2 C 42.6 72.0 42.4 71.8 42.3 71.6 C 42.3 71.6 41.5 71.9 40.7 71.3 C 40.7 71.3 40.7 71.3 40.7 71.3 Z M 60.7 71.2 C 59.7 71.2 60.4 73.9 60.8 74.4 C 61.2 75.0 61.9 74.6 62.6 74.7 C 63.2 74.8 63.0 74.0 63.4 73.7 C 63.8 73.5 63.7 74.0 63.8 74.4 C 64.0 74.8 65.1 74.5 65.7 74.5 C 66.3 74.5 67.0 73.7 67.5 73.6 C 68.0 73.6 67.0 73.1 68.0 73.2 C 68.9 73.2 68.4 73.7 67.4 74.0 C 66.3 74.3 67.8 74.5 68.4 74.6 C 68.9 74.7 69.9 74.3 70.3 74.4 C 70.8 74.4 70.2 73.7 70.9 73.7 C 71.5 73.8 71.2 74.5 71.9 74.6 C 72.5 74.7 72.5 74.0 72.8 73.9 C 73.1 73.7 73.1 74.1 73.4 74.2 C 73.6 74.2 74.1 74.4 74.7 74.3 C 75.4 74.1 75.2 73.9 75.5 73.9 C 75.7 73.8 76.3 73.8 76.3 73.8 C 76.3 74.1 76.3 74.3 76.4 74.5 C 76.4 74.5 77.5 74.6 77.9 74.6 C 78.2 74.7 79.0 74.4 78.8 74.2 C 78.6 74.1 79.3 73.6 79.5 73.7 C 79.7 73.8 80.2 74.2 80.6 74.3 C 81.0 74.5 80.9 72.7 80.9 72.5 C 80.9 72.3 81.1 71.3 80.8 71.2 C 80.5 71.1 80.2 71.5 80.2 71.2 C 80.3 71.0 79.3 71.2 79.0 71.2 C 78.7 71.2 78.4 71.9 78.4 71.9 C 78.4 71.9 78.1 72.4 77.6 72.4 C 77.2 72.4 77.0 71.3 77.0 71.3 C 77.0 71.3 76.4 71.1 75.9 71.2 C 75.3 71.2 74.7 72.1 74.6 72.3 C 74.4 72.5 74.5 71.7 74.1 71.6 C 73.7 71.5 73.1 71.2 72.9 71.3 C 72.7 71.3 72.4 71.9 72.4 71.9 C 72.4 71.9 71.7 72.2 71.5 72.2 C 71.4 72.2 71.7 71.4 71.7 71.4 C 71.7 71.4 70.1 71.2 69.8 71.1 C 69.5 71.1 69.0 71.3 68.7 71.3 C 68.5 71.4 68.2 72.4 67.8 72.3 C 67.5 72.2 68.2 71.6 67.8 71.5 C 67.5 71.4 66.9 71.2 66.7 71.2 C 66.5 71.2 66.3 71.6 66.0 71.6 C 65.7 71.7 65.3 72.4 64.9 72.4 C 64.4 72.4 64.2 72.0 64.0 71.9 C 63.9 71.8 63.7 71.1 63.4 71.1 C 63.0 71.1 63.3 71.5 63.0 71.5 C 62.6 71.5 62.6 72.0 62.3 71.9 C 61.9 71.8 62.1 71.0 61.8 71.1 C 61.6 71.2 61.8 71.1 60.7 71.2 C 60.7 71.2 60.7 71.2 60.7 71.2 Z M 83.0 72.0 C 82.8 72.1 82.6 71.6 82.0 71.4 C 81.5 71.3 80.8 71.3 80.9 71.6 C 81.1 71.9 81.3 72.1 81.0 72.5 C 80.7 72.9 80.3 73.6 80.7 73.9 C 81.1 74.1 82.7 74.8 83.2 74.5 C 83.7 74.1 83.8 73.9 84.2 73.7 C 84.6 73.5 84.3 74.3 84.3 74.3 C 84.3 74.3 85.2 74.4 85.8 74.4 C 86.4 74.5 87.1 74.5 87.2 74.4 C 87.3 74.2 87.5 73.9 87.5 73.9 C 87.5 73.9 87.8 74.3 88.3 74.4 C 88.8 74.5 88.6 74.2 88.5 74.1 C 88.5 73.9 87.9 73.4 88.1 73.4 C 88.3 73.4 88.9 74.2 89.2 74.2 C 89.5 74.3 90.3 74.3 90.3 74.3 C 90.3 74.3 90.2 73.8 90.3 73.7 C 90.3 73.6 91.1 73.5 91.1 73.7 C 91.1 73.9 91.1 74.3 91.4 74.4 C 92.6 74.5 92.4 73.6 92.5 73.5 C 92.6 73.5 92.6 74.2 92.9 74.3 C 93.2 74.4 95.4 74.3 95.5 74.2 C 95.6 74.0 96.4 74.6 96.7 74.2 C 97.0 73.8 97.1 73.6 97.2 73.5 C 97.3 73.4 97.7 72.7 97.9 73.0 C 98.1 73.3 97.2 74.0 97.5 74.2 C 97.7 74.4 99.1 74.5 99.4 74.3 C 99.7 74.0 99.8 73.3 100.0 73.3 C 100.2 73.3 101.0 74.2 101.1 74.0 C 101.1 73.9 101.2 73.2 101.2 73.1 C 101.2 72.9 101.5 71.7 101.3 71.5 C 101.2 71.4 100.3 70.9 100.4 71.2 C 100.5 71.6 100.7 72.0 100.4 72.2 C 100.1 72.4 100.0 72.4 99.9 72.3 C 99.8 72.1 100.0 72.0 99.5 71.7 C 99.0 71.5 99.3 71.2 98.8 71.2 C 98.3 71.3 97.9 71.3 98.0 71.6 C 98.0 71.9 97.5 72.3 97.2 72.3 C 96.9 72.2 97.4 71.6 96.4 71.4 C 95.3 71.1 94.7 71.1 94.4 71.3 C 94.1 71.6 94.0 72.3 93.5 72.0 C 93.0 71.6 93.3 71.5 92.6 71.5 C 92.0 71.5 91.7 72.1 91.3 72.1 C 90.8 72.1 90.7 72.1 90.7 72.1 C 90.7 72.1 91.0 71.3 90.0 71.2 C 89.0 71.2 88.8 71.1 89.0 71.7 C 89.2 72.3 88.5 72.3 88.5 72.0 C 88.4 71.6 87.9 71.3 87.5 71.2 C 87.2 71.2 87.1 72.2 87.0 72.2 C 86.8 72.3 86.5 72.2 86.6 71.9 C 86.8 71.5 86.4 71.5 86.1 71.4 C 85.8 71.2 84.9 71.3 84.9 71.5 C 84.9 71.7 85.4 72.4 84.8 72.0 C 84.2 71.7 84.0 71.2 83.4 71.2 C 82.9 71.2 83.4 71.8 83.0 72.0 C 83.0 72.0 83.0 72.0 83.0 72.0 Z M 102.1 71.3 C 101.6 71.0 101.2 71.4 101.3 71.8 C 101.3 72.2 101.5 73.1 101.3 73.4 C 101.1 73.7 100.6 74.4 101.4 74.5 C 102.3 74.7 102.5 74.4 102.5 74.1 C 102.5 73.9 102.6 72.9 102.9 73.0 C 103.1 73.1 103.3 73.4 103.4 73.5 C 103.5 73.6 103.8 74.6 104.2 74.5 C 104.6 74.3 105.0 74.0 105.0 74.0 C 105.2 74.0 105.4 74.0 105.6 74.0 C 105.6 74.0 106.2 74.6 106.7 74.5 C 107.1 74.3 107.7 74.3 108.0 74.4 C 108.3 74.4 108.7 74.3 108.7 74.1 C 108.8 73.9 109.3 73.0 109.3 73.0 C 109.3 73.0 109.8 72.8 110.0 72.9 C 110.2 73.1 110.3 73.5 110.2 73.7 C 110.2 73.9 110.2 74.4 110.6 74.5 C 110.9 74.6 112.4 75.0 112.7 74.7 C 112.9 74.5 112.8 74.1 113.0 74.0 C 113.2 73.9 114.2 73.9 114.3 74.1 C 114.3 74.3 114.3 74.8 114.6 74.8 C 114.9 74.7 115.4 74.9 115.4 74.7 C 115.4 74.6 115.6 74.5 115.6 74.2 C 115.7 73.9 116.2 73.7 116.4 73.5 C 116.5 73.4 116.9 73.4 116.9 73.4 C 117.1 73.5 117.3 73.7 117.5 73.8 C 117.5 73.8 117.2 74.3 117.0 74.4 C 116.8 74.5 117.1 74.8 117.3 74.9 C 117.5 74.9 118.5 74.8 118.5 74.8 C 118.6 74.5 118.6 74.1 118.6 73.7 C 118.9 73.6 119.1 73.5 119.4 73.4 C 119.4 73.4 119.3 74.8 119.8 74.8 C 120.3 74.8 121.0 74.8 121.0 74.8 C 121.0 74.8 121.5 74.3 121.6 74.2 C 121.8 74.2 121.8 73.0 121.8 73.0 C 121.8 72.5 121.8 72.1 121.7 71.6 C 121.7 71.6 121.1 71.1 120.7 71.3 C 120.4 71.5 120.7 72.0 120.6 72.2 C 120.6 72.5 120.0 72.7 120.0 72.7 C 119.8 72.4 119.6 72.2 119.3 71.9 C 119.3 71.9 119.1 71.7 118.9 71.5 C 118.7 71.2 117.9 71.1 117.6 71.2 C 117.4 71.3 117.2 71.6 116.9 71.8 C 116.6 72.1 116.6 72.5 116.3 72.2 C 115.9 71.8 115.8 71.5 115.6 71.5 C 115.4 71.5 114.7 71.9 114.7 71.9 C 114.5 72.0 114.3 72.1 114.0 72.2 C 114.0 72.2 113.5 72.5 113.4 72.2 C 113.3 71.9 112.2 72.2 112.2 72.2 C 112.2 72.2 112.3 71.4 112.0 71.3 C 111.7 71.1 111.3 71.0 110.8 71.1 C 110.4 71.2 110.0 72.0 110.0 72.0 C 109.9 71.8 109.7 71.6 109.6 71.4 C 109.2 71.3 108.7 71.3 108.3 71.2 C 108.3 71.2 107.3 71.3 107.3 71.4 C 107.3 71.6 107.4 72.2 107.4 72.4 C 107.3 72.6 106.8 72.8 106.7 72.6 C 106.7 72.4 106.2 71.7 106.2 71.7 C 106.2 71.7 105.8 71.3 105.5 71.3 C 105.2 71.2 104.8 71.5 104.7 71.6 C 104.5 71.7 104.1 72.2 104.1 72.2 C 104.0 72.0 103.8 71.8 103.7 71.6 C 103.7 71.6 102.9 71.9 102.1 71.3 C 102.1 71.3 102.1 71.3 102.1 71.3 Z M 122.1 71.2 C 121.1 71.2 121.8 73.9 122.2 74.4 C 122.6 75.0 123.3 74.6 124.0 74.7 C 124.6 74.8 124.4 74.0 124.8 73.7 C 125.2 73.5 125.1 74.0 125.2 74.4 C 125.4 74.8 126.5 74.5 127.1 74.5 C 127.7 74.5 128.4 73.7 128.9 73.6 C 129.4 73.6 128.4 73.1 129.4 73.2 C 130.3 73.2 129.8 73.7 128.8 74.0 C 127.7 74.3 129.2 74.5 129.8 74.6 C 130.3 74.7 131.3 74.3 131.7 74.4 C 132.2 74.4 131.6 73.7 132.3 73.7 C 132.9 73.8 132.6 74.5 133.3 74.6 C 133.9 74.7 133.9 74.0 134.2 73.9 C 134.5 73.7 134.5 74.1 134.8 74.2 C 135.0 74.2 135.5 74.4 136.1 74.3 C 136.7 74.1 136.6 73.9 136.9 73.9 C 137.1 73.8 137.7 73.8 137.7 73.8 C 137.7 74.1 137.7 74.3 137.8 74.5 C 137.8 74.5 138.9 74.6 139.2 74.6 C 139.6 74.7 140.4 74.4 140.2 74.2 C 140.0 74.1 140.7 73.6 140.9 73.7 C 141.1 73.8 141.6 74.2 142.0 74.3 C 142.4 74.5 142.3 72.7 142.3 72.5 C 142.3 72.3 142.5 71.3 142.2 71.2 C 141.9 71.1 141.6 71.5 141.6 71.2 C 141.7 71.0 140.7 71.2 140.4 71.2 C 140.1 71.2 139.8 71.9 139.8 71.9 C 139.8 71.9 139.5 72.4 139.0 72.4 C 138.6 72.4 138.4 71.3 138.4 71.3 C 138.4 71.3 137.8 71.1 137.3 71.2 C 136.7 71.2 136.1 72.1 136.0 72.3 C 135.8 72.5 135.9 71.7 135.5 71.6 C 135.1 71.5 134.5 71.2 134.3 71.3 C 134.1 71.3 133.8 71.9 133.8 71.9 C 133.8 71.9 133.1 72.2 132.9 72.2 C 132.8 72.2 133.1 71.4 133.1 71.4 C 133.1 71.4 131.5 71.2 131.2 71.1 C 130.9 71.1 130.4 71.3 130.1 71.3 C 129.9 71.4 129.6 72.4 129.2 72.3 C 128.9 72.2 129.6 71.6 129.2 71.5 C 128.9 71.4 128.3 71.2 128.1 71.2 C 127.9 71.2 127.7 71.6 127.4 71.6 C 127.1 71.7 126.7 72.4 126.3 72.4 C 125.8 72.4 125.6 72.0 125.4 71.9 C 125.3 71.8 125.1 71.1 124.8 71.1 C 124.4 71.1 124.7 71.5 124.4 71.5 C 124.0 71.5 124.0 72.0 123.7 71.9 C 123.3 71.8 123.5 71.0 123.2 71.1 C 123.0 71.2 123.2 71.1 122.1 71.2 C 122.1 71.2 122.1 71.2 122.1 71.2 Z M 143.1 71.3 C 142.6 71.0 142.1 71.4 142.2 71.8 C 142.3 72.2 142.4 73.1 142.3 73.4 C 142.1 73.7 141.5 74.4 142.4 74.5 C 143.2 74.7 143.4 74.4 143.4 74.1 C 143.4 73.9 143.6 72.9 143.8 73.0 C 144.0 73.1 144.3 73.4 144.3 73.5 C 144.4 73.6 144.7 74.6 145.1 74.5 C 145.5 74.3 145.9 74.0 145.9 74.0 C 146.1 74.0 146.4 74.0 146.6 74.0 C 146.6 74.0 147.1 74.6 147.6 74.5 C 148.1 74.3 148.6 74.3 148.9 74.4 C 149.3 74.4 149.6 74.3 149.7 74.1 C 149.7 73.9 150.2 73.0 150.2 73.0 C 150.2 73.0 150.7 72.8 150.9 72.9 C 151.2 73.1 151.2 73.5 151.2 73.7 C 151.1 73.9 151.2 74.4 151.5 74.5 C 151.9 74.6 153.4 75.0 153.6 74.7 C 153.8 74.5 153.8 74.1 153.9 74.0 C 154.1 73.9 155.1 73.9 155.2 74.1 C 155.3 74.3 155.2 74.8 155.5 74.8 C 155.8 74.7 156.4 74.9 156.4 74.7 C 156.4 74.6 156.6 74.5 156.6 74.2 C 156.6 73.9 157.2 73.7 157.3 73.5 C 157.4 73.4 157.9 73.4 157.9 73.4 C 158.0 73.5 158.2 73.7 158.4 73.8 C 158.4 73.8 158.1 74.3 157.9 74.4 C 157.7 74.5 158.0 74.8 158.2 74.9 C 158.4 74.9 159.5 74.8 159.5 74.8 C 159.5 74.5 159.5 74.1 159.5 73.7 C 159.8 73.6 160.1 73.5 160.3 73.4 C 160.3 73.4 160.2 74.8 160.7 74.8 C 161.3 74.8 161.9 74.8 161.9 74.8 C 161.9 74.8 162.4 74.3 162.6 74.2 C 162.7 74.2 162.8 73.0 162.8 73.0 C 162.7 72.5 162.7 72.1 162.6 71.6 C 162.6 71.6 162.0 71.1 161.7 71.3 C 161.3 71.5 161.6 72.0 161.6 72.2 C 161.5 72.5 161.0 72.7 161.0 72.7 C 160.7 72.4 160.5 72.2 160.3 71.9 C 160.3 71.9 160.1 71.7 159.8 71.5 C 159.6 71.2 158.8 71.1 158.6 71.2 C 158.3 71.3 158.1 71.6 157.8 71.8 C 157.5 72.1 157.6 72.5 157.2 72.2 C 156.9 71.8 156.7 71.5 156.5 71.5 C 156.4 71.5 155.6 71.9 155.6 71.9 C 155.4 72.0 155.2 72.1 155.0 72.2 C 155.0 72.2 154.4 72.5 154.3 72.2 C 154.3 71.9 153.1 72.2 153.1 72.2 C 153.1 72.2 153.3 71.4 153.0 71.3 C 152.7 71.1 152.2 71.0 151.8 71.1 C 151.3 71.2 150.9 72.0 150.9 72.0 C 150.8 71.8 150.7 71.6 150.5 71.4 C 150.1 71.3 149.7 71.3 149.2 71.2 C 149.2 71.2 148.2 71.3 148.2 71.4 C 148.2 71.6 148.4 72.2 148.3 72.4 C 148.2 72.6 147.7 72.8 147.7 72.6 C 147.6 72.4 147.1 71.7 147.1 71.7 C 147.1 71.7 146.7 71.3 146.5 71.3 C 146.2 71.2 145.7 71.5 145.6 71.6 C 145.5 71.7 145.0 72.2 145.0 72.2 C 144.9 72.0 144.8 71.8 144.6 71.6 C 144.6 71.6 143.9 71.9 143.1 71.3 C 143.1 71.3 143.1 71.3 143.1 71.3 Z M 163.1 71.2 C 162.0 71.2 162.7 73.9 163.1 74.4 C 163.5 75.0 164.2 74.6 164.9 74.7 C 165.6 74.8 165.3 74.0 165.7 73.7 C 166.1 73.5 166.0 74.0 166.2 74.4 C 166.3 74.8 167.4 74.5 168.0 74.5 C 168.6 74.5 169.3 73.7 169.8 73.6 C 170.3 73.6 169.4 73.1 170.3 73.2 C 171.2 73.2 170.7 73.7 169.7 74.0 C 168.7 74.3 170.1 74.5 170.7 74.6 C 171.3 74.7 172.2 74.3 172.7 74.4 C 173.1 74.4 172.6 73.7 173.2 73.7 C 173.9 73.8 173.5 74.5 174.2 74.6 C 174.9 74.7 174.8 74.0 175.1 73.9 C 175.5 73.7 175.4 74.1 175.7 74.2 C 176.0 74.2 176.4 74.4 177.1 74.3 C 177.7 74.1 177.5 73.9 177.8 73.9 C 178.1 73.8 178.6 73.8 178.6 73.8 C 178.6 74.1 178.7 74.3 178.7 74.5 C 178.7 74.5 179.8 74.6 180.2 74.6 C 180.5 74.7 181.3 74.4 181.1 74.2 C 180.9 74.1 181.7 73.6 181.8 73.7 C 182.0 73.8 182.6 74.2 183.0 74.3 C 183.4 74.5 183.3 72.7 183.3 72.5 C 183.3 72.3 183.5 71.3 183.1 71.2 C 182.8 71.1 182.5 71.5 182.6 71.2 C 182.6 71.0 181.6 71.2 181.3 71.2 C 181.0 71.2 180.7 71.9 180.7 71.9 C 180.7 71.9 180.4 72.4 180.0 72.4 C 179.5 72.4 179.3 71.3 179.3 71.3 C 179.3 71.3 178.8 71.1 178.2 71.2 C 177.6 71.2 177.0 72.1 176.9 72.3 C 176.8 72.5 176.8 71.7 176.4 71.6 C 176.0 71.5 175.4 71.2 175.2 71.3 C 175.1 71.3 174.8 71.9 174.8 71.9 C 174.8 71.9 174.0 72.2 173.9 72.2 C 173.7 72.2 174.0 71.4 174.0 71.4 C 174.0 71.4 172.4 71.2 172.1 71.1 C 171.8 71.1 171.3 71.3 171.1 71.3 C 170.8 71.4 170.5 72.4 170.2 72.3 C 169.8 72.2 170.5 71.6 170.2 71.5 C 169.8 71.4 169.2 71.2 169.0 71.2 C 168.9 71.2 168.6 71.6 168.4 71.6 C 168.1 71.7 167.7 72.4 167.2 72.4 C 166.8 72.4 166.5 72.0 166.4 71.9 C 166.2 71.8 166.1 71.1 165.7 71.1 C 165.4 71.1 165.6 71.5 165.3 71.5 C 164.9 71.5 164.9 72.0 164.6 71.9 C 164.3 71.8 164.5 71.0 164.1 71.1 C 163.9 71.2 164.1 71.1 163.1 71.2 C 163.1 71.2 163.1 71.2 163.1 71.2 Z M 184.0 71.3 C 183.5 71.0 183.1 71.4 183.1 71.8 C 183.2 72.2 183.4 73.1 183.2 73.4 C 183.0 73.7 182.4 74.4 183.3 74.5 C 184.2 74.7 184.3 74.4 184.3 74.1 C 184.3 73.9 184.5 72.9 184.7 73.0 C 185.0 73.1 185.2 73.4 185.3 73.5 C 185.3 73.6 185.6 74.6 186.1 74.5 C 186.5 74.3 186.9 74.0 186.9 74.0 C 187.1 74.0 187.3 74.0 187.5 74.0 C 187.5 74.0 188.1 74.6 188.5 74.5 C 189.0 74.3 189.5 74.3 189.9 74.4 C 190.2 74.4 190.6 74.3 190.6 74.1 C 190.7 73.9 191.1 73.0 191.1 73.0 C 191.1 73.0 191.6 72.8 191.9 72.9 C 192.1 73.1 192.2 73.5 192.1 73.7 C 192.1 73.9 192.1 74.4 192.5 74.5 C 192.8 74.6 194.3 75.0 194.5 74.7 C 194.8 74.5 194.7 74.1 194.9 74.0 C 195.0 73.9 196.0 73.9 196.1 74.1 C 196.2 74.3 196.1 74.8 196.4 74.8 C 196.7 74.7 197.3 74.9 197.3 74.7 C 197.3 74.6 197.5 74.5 197.5 74.2 C 197.5 73.9 198.1 73.7 198.2 73.5 C 198.3 73.4 198.8 73.4 198.8 73.4 C 199.0 73.5 199.2 73.7 199.4 73.8 C 199.4 73.8 199.0 74.3 198.9 74.4 C 198.7 74.5 199.0 74.8 199.1 74.9 C 199.3 74.9 200.4 74.8 200.4 74.8 C 200.4 74.5 200.4 74.1 200.5 73.7 C 200.7 73.6 201.0 73.5 201.3 73.4 C 201.3 73.4 201.2 74.8 201.7 74.8 C 202.2 74.8 202.8 74.8 202.8 74.8 C 202.8 74.8 203.4 74.3 203.5 74.2 C 203.6 74.2 203.7 73.0 203.7 73.0 C 203.7 72.5 203.6 72.1 203.6 71.6 C 203.6 71.6 202.9 71.1 202.6 71.3 C 202.3 71.5 202.5 72.0 202.5 72.2 C 202.4 72.5 201.9 72.7 201.9 72.7 C 201.7 72.4 201.4 72.2 201.2 71.9 C 201.2 71.9 201.0 71.7 200.8 71.5 C 200.5 71.2 199.7 71.1 199.5 71.2 C 199.3 71.3 199.0 71.6 198.7 71.8 C 198.4 72.1 198.5 72.5 198.2 72.2 C 197.8 71.8 197.6 71.5 197.5 71.5 C 197.3 71.5 196.6 71.9 196.6 71.9 C 196.3 72.0 196.1 72.1 195.9 72.2 C 195.9 72.2 195.4 72.5 195.3 72.2 C 195.2 71.9 194.1 72.2 194.1 72.2 C 194.1 72.2 194.2 71.4 193.9 71.3 C 193.6 71.1 193.1 71.0 192.7 71.1 C 192.2 71.2 191.9 72.0 191.9 72.0 C 191.7 71.8 191.6 71.6 191.4 71.4 C 191.0 71.3 190.6 71.3 190.2 71.2 C 190.2 71.2 189.2 71.3 189.2 71.4 C 189.2 71.6 189.3 72.2 189.2 72.4 C 189.2 72.6 188.7 72.8 188.6 72.6 C 188.5 72.4 188.1 71.7 188.1 71.7 C 188.1 71.7 187.7 71.3 187.4 71.3 C 187.1 71.2 186.6 71.5 186.5 71.6 C 186.4 71.7 185.9 72.2 185.9 72.2 C 185.8 72.0 185.7 71.8 185.6 71.6 C 185.6 71.6 184.8 71.9 184.0 71.3 C 184.0 71.3 184.0 71.3 184.0 71.3 Z M 204.0 71.2 C 203.0 71.2 203.7 73.9 204.1 74.4 C 204.5 75.0 205.1 74.6 205.8 74.7 C 206.5 74.8 206.3 74.0 206.7 73.7 C 207.1 73.5 206.9 74.0 207.1 74.4 C 207.3 74.8 208.3 74.5 209.0 74.5 C 209.6 74.5 210.2 73.7 210.8 73.6 C 211.3 73.6 210.3 73.1 211.2 73.2 C 212.1 73.2 211.7 73.7 210.6 74.0 C 209.6 74.3 211.0 74.5 211.6 74.6 C 212.2 74.7 213.2 74.3 213.6 74.4 C 214.1 74.4 213.5 73.7 214.2 73.7 C 214.8 73.8 214.5 74.5 215.1 74.6 C 215.8 74.7 215.7 74.0 216.1 73.9 C 216.4 73.7 216.3 74.1 216.6 74.2 C 216.9 74.2 217.4 74.4 218.0 74.3 C 218.6 74.1 218.4 73.9 218.7 73.9 C 219.0 73.8 219.5 73.8 219.5 73.8 C 219.6 74.1 219.6 74.3 219.6 74.5 C 219.6 74.5 220.8 74.6 221.1 74.6 C 221.5 74.7 222.2 74.4 222.0 74.2 C 221.8 74.1 222.6 73.6 222.8 73.7 C 222.9 73.8 223.5 74.2 223.9 74.3 C 224.3 74.5 224.2 72.7 224.2 72.5 C 224.2 72.3 224.4 71.3 224.1 71.2 C 223.7 71.1 223.4 71.5 223.5 71.2 C 223.6 71.0 222.5 71.2 222.3 71.2 C 222.0 71.2 221.6 71.9 221.6 71.9 C 221.6 71.9 221.3 72.4 220.9 72.4 C 220.4 72.4 220.3 71.3 220.3 71.3 C 220.3 71.3 219.7 71.1 219.1 71.2 C 218.6 71.2 217.9 72.1 217.8 72.3 C 217.7 72.5 217.7 71.7 217.3 71.6 C 216.9 71.5 216.3 71.2 216.2 71.3 C 216.0 71.3 215.7 71.9 215.7 71.9 C 215.7 71.9 215.0 72.2 214.8 72.2 C 214.6 72.2 214.9 71.4 214.9 71.4 C 214.9 71.4 213.4 71.2 213.1 71.1 C 212.7 71.1 212.2 71.3 212.0 71.3 C 211.8 71.4 211.4 72.4 211.1 72.3 C 210.8 72.2 211.4 71.6 211.1 71.5 C 210.8 71.4 210.1 71.2 210.0 71.2 C 209.8 71.2 209.6 71.6 209.3 71.6 C 209.0 71.7 208.6 72.4 208.1 72.4 C 207.7 72.4 207.5 72.0 207.3 71.9 C 207.1 71.8 207.0 71.1 206.7 71.1 C 206.3 71.1 206.6 71.5 206.2 71.5 C 205.9 71.5 205.9 72.0 205.5 71.9 C 205.2 71.8 205.4 71.0 205.0 71.1 C 204.9 71.2 205.0 71.1 204.0 71.2 C 204.0 71.2 204.0 71.2 204.0 71.2 Z M 226.3 72.0 C 226.1 72.1 225.9 71.6 225.3 71.4 C 224.7 71.3 224.1 71.3 224.2 71.6 C 224.3 71.9 224.5 72.1 224.2 72.5 C 223.9 72.9 223.6 73.6 224.0 73.9 C 224.4 74.1 225.9 74.8 226.4 74.5 C 226.9 74.1 227.1 73.9 227.5 73.7 C 227.8 73.5 227.6 74.3 227.6 74.3 C 227.6 74.3 228.4 74.4 229.0 74.4 C 229.7 74.5 230.4 74.5 230.5 74.4 C 230.5 74.2 230.8 73.9 230.8 73.9 C 230.8 73.9 231.1 74.3 231.6 74.4 C 232.0 74.5 231.9 74.2 231.8 74.1 C 231.7 73.9 231.2 73.4 231.4 73.4 C 231.6 73.4 232.2 74.2 232.5 74.2 C 232.8 74.3 233.5 74.3 233.5 74.3 C 233.5 74.3 233.5 73.8 233.5 73.7 C 233.6 73.6 234.4 73.5 234.4 73.7 C 234.5 73.9 234.4 74.3 234.8 74.3 C 236.1 74.4 235.8 73.4 235.9 73.4 C 236.0 73.4 236.1 74.0 236.4 74.1 C 236.8 74.2 239.1 73.4 239.2 73.2 C 239.2 73.0 240.2 73.2 240.4 72.7 C 240.5 72.1 240.5 72.0 240.5 71.8 C 240.5 71.7 240.5 70.9 240.9 71.0 C 241.2 71.2 240.8 72.3 241.1 72.3 C 241.5 72.4 242.8 71.5 242.8 71.2 C 242.9 70.8 242.6 70.2 242.7 70.1 C 242.9 70.0 244.1 70.0 244.0 69.9 C 244.0 69.7 243.5 69.2 243.5 69.1 C 243.4 69.0 242.6 67.9 242.4 67.9 C 242.2 67.9 241.3 68.1 241.7 68.3 C 242.0 68.5 242.4 68.7 242.3 69.0 C 242.2 69.3 242.1 69.4 242.0 69.3 C 241.8 69.3 241.9 69.1 241.4 69.1 C 240.9 69.2 240.9 68.9 240.6 69.1 C 240.3 69.4 240.0 69.6 240.2 69.8 C 240.4 70.0 240.2 70.6 239.9 70.7 C 239.6 70.9 239.8 70.1 238.9 70.3 C 237.9 70.5 237.4 70.6 237.2 70.9 C 237.0 71.2 237.1 71.9 236.6 71.7 C 236.1 71.5 236.3 71.2 235.7 71.3 C 235.1 71.4 234.9 72.0 234.5 72.1 C 234.1 72.1 234.0 72.1 234.0 72.1 C 234.0 72.1 234.2 71.3 233.2 71.2 C 232.3 71.2 232.1 71.1 232.3 71.7 C 232.5 72.3 231.8 72.3 231.7 72.0 C 231.7 71.6 231.1 71.3 230.8 71.2 C 230.5 71.2 230.4 72.2 230.2 72.2 C 230.1 72.3 229.7 72.2 229.9 71.9 C 230.0 71.5 229.6 71.5 229.3 71.4 C 229.0 71.2 228.2 71.3 228.2 71.5 C 228.2 71.7 228.6 72.4 228.0 72.0 C 227.4 71.7 227.3 71.2 226.7 71.2 C 226.1 71.2 226.6 71.8 226.3 72.0 C 226.3 72.0 226.3 72.0 226.3 72.0 Z M 242.7 67.3 C 242.2 67.4 242.3 67.9 242.6 68.1 C 242.9 68.4 243.7 68.9 243.8 69.2 C 243.8 69.6 243.9 70.5 244.6 69.9 C 245.4 69.3 245.3 69.0 245.1 68.8 C 244.9 68.7 244.2 67.9 244.4 67.8 C 244.7 67.7 245.0 67.6 245.2 67.7 C 245.3 67.7 246.3 68.0 246.4 67.5 C 246.6 67.0 246.5 66.5 246.5 66.5 C 246.6 66.3 246.7 66.1 246.8 65.9 C 246.8 65.9 247.6 65.6 247.7 65.1 C 247.7 64.5 247.9 64.0 248.0 63.6 C 248.2 63.3 248.2 62.9 248.0 62.8 C 247.7 62.7 247.0 62.0 247.0 62.0 C 247.0 62.0 246.9 61.5 247.0 61.3 C 247.2 61.0 247.7 61.0 247.8 61.1 C 248.0 61.2 248.5 61.2 248.6 60.8 C 248.7 60.4 249.2 58.8 248.9 58.6 C 248.6 58.3 248.3 58.4 248.2 58.2 C 248.1 58.0 248.0 57.1 248.3 57.0 C 248.5 56.9 249.0 57.0 249.0 56.7 C 248.9 56.4 249.1 55.8 248.9 55.8 C 248.8 55.8 248.6 55.6 248.4 55.6 C 248.1 55.6 247.9 55.0 247.7 54.9 C 247.6 54.8 247.5 54.3 247.5 54.3 C 247.7 54.1 247.8 53.9 248.0 53.7 C 248.0 53.7 248.5 54.1 248.6 54.2 C 248.7 54.4 249.0 54.1 249.1 54.0 C 249.1 53.8 249.0 52.7 249.0 52.7 C 248.6 52.7 248.3 52.7 247.9 52.6 C 247.8 52.4 247.7 52.1 247.6 51.8 C 247.6 51.8 249.0 51.9 249.0 51.4 C 249.0 50.9 249.0 50.3 249.0 50.3 C 249.0 50.3 248.5 49.7 248.4 49.6 C 248.4 49.5 247.2 49.4 247.2 49.4 C 246.7 49.4 246.2 49.5 245.8 49.5 C 245.8 49.5 245.3 50.2 245.5 50.5 C 245.7 50.8 246.2 50.6 246.4 50.6 C 246.7 50.7 246.9 51.2 246.9 51.2 C 246.6 51.4 246.4 51.7 246.1 51.9 C 246.1 51.9 245.9 52.1 245.6 52.3 C 245.4 52.6 245.3 53.4 245.4 53.6 C 245.5 53.8 245.8 54.1 246.0 54.4 C 246.2 54.6 246.7 54.6 246.3 54.9 C 246.0 55.3 245.6 55.5 245.6 55.6 C 245.6 55.8 246.1 56.5 246.1 56.5 C 246.2 56.8 246.3 57.0 246.4 57.2 C 246.4 57.2 246.7 57.7 246.4 57.8 C 246.1 57.9 246.4 59.0 246.4 59.0 C 246.4 59.0 245.6 58.9 245.5 59.2 C 245.3 59.5 245.1 59.9 245.3 60.3 C 245.4 60.8 246.1 61.2 246.1 61.2 C 245.9 61.3 245.7 61.4 245.5 61.5 C 245.3 61.9 245.2 62.2 245.1 62.6 C 245.1 62.6 244.9 63.4 245.0 63.4 C 245.1 63.5 245.8 63.6 246.0 63.7 C 246.1 63.8 246.2 64.4 245.9 64.4 C 245.7 64.3 245.0 64.5 245.0 64.5 C 245.0 64.5 244.4 64.6 244.3 64.8 C 244.1 65.0 244.1 65.5 244.2 65.6 C 244.3 65.8 244.5 66.4 244.5 66.4 C 244.3 66.4 244.0 66.4 243.8 66.3 C 243.8 66.3 243.6 67.1 242.7 67.3 C 242.7 67.3 242.7 67.3 242.7 67.3 Z M 245.4 49.1 C 245.4 50.1 248.0 49.4 248.6 49.0 C 249.1 48.6 248.8 48.0 248.9 47.3 C 249.0 46.6 248.1 46.8 247.9 46.4 C 247.7 46.0 248.2 46.2 248.6 46.0 C 249.0 45.8 248.6 44.8 248.7 44.1 C 248.7 43.5 247.8 42.9 247.8 42.3 C 247.7 41.8 247.3 42.8 247.4 41.9 C 247.4 41.0 247.9 41.4 248.2 42.5 C 248.4 43.5 248.7 42.1 248.8 41.5 C 248.9 40.9 248.5 39.9 248.5 39.5 C 248.6 39.0 247.9 39.6 247.9 38.9 C 247.9 38.3 248.6 38.6 248.7 38.0 C 248.8 37.3 248.2 37.4 248.0 37.0 C 247.9 36.7 248.3 36.8 248.3 36.5 C 248.4 36.2 248.6 35.7 248.4 35.1 C 248.3 34.5 248.1 34.7 248.0 34.4 C 248.0 34.1 248.0 33.6 248.0 33.6 C 248.2 33.5 248.4 33.5 248.7 33.5 C 248.7 33.5 248.7 32.3 248.8 32.0 C 248.8 31.6 248.5 30.9 248.4 31.1 C 248.2 31.3 247.8 30.5 247.9 30.3 C 248.0 30.2 248.3 29.6 248.5 29.2 C 248.6 28.8 246.9 28.9 246.7 28.9 C 246.4 28.9 245.5 28.7 245.4 29.0 C 245.3 29.4 245.7 29.7 245.4 29.6 C 245.2 29.5 245.4 30.6 245.4 30.8 C 245.4 31.1 246.0 31.5 246.0 31.5 C 246.0 31.5 246.6 31.8 246.6 32.2 C 246.6 32.7 245.5 32.8 245.5 32.8 C 245.5 32.8 245.3 33.4 245.4 34.0 C 245.4 34.5 246.3 35.2 246.5 35.3 C 246.7 35.4 245.9 35.4 245.8 35.8 C 245.7 36.2 245.4 36.8 245.5 36.9 C 245.5 37.1 246.0 37.4 246.0 37.4 C 246.0 37.4 246.4 38.1 246.4 38.3 C 246.4 38.5 245.6 38.2 245.6 38.2 C 245.6 38.2 245.4 39.7 245.3 40.0 C 245.2 40.4 245.4 40.9 245.5 41.1 C 245.5 41.3 246.5 41.7 246.4 42.0 C 246.3 42.3 245.8 41.7 245.7 42.0 C 245.6 42.3 245.4 43.0 245.4 43.1 C 245.4 43.3 245.7 43.5 245.8 43.8 C 245.8 44.1 246.6 44.5 246.6 44.9 C 246.6 45.4 246.1 45.6 246.0 45.8 C 245.9 46.0 245.3 46.1 245.3 46.4 C 245.3 46.8 245.7 46.5 245.7 46.9 C 245.7 47.2 246.2 47.2 246.1 47.6 C 246.0 47.9 245.2 47.7 245.3 48.1 C 245.4 48.2 245.3 48.1 245.4 49.1 C 245.4 49.1 245.4 49.1 245.4 49.1 Z M 245.5 28.2 C 245.1 28.7 245.6 29.1 246.0 29.0 C 246.3 29.0 247.3 28.8 247.6 29.0 C 247.9 29.2 248.5 29.7 248.7 28.9 C 248.8 28.0 248.5 27.8 248.3 27.8 C 248.1 27.8 247.1 27.7 247.2 27.4 C 247.3 27.2 247.5 27.0 247.7 26.9 C 247.8 26.8 248.8 26.5 248.6 26.1 C 248.5 25.7 248.2 25.3 248.2 25.3 C 248.2 25.1 248.2 24.9 248.2 24.7 C 248.2 24.7 248.8 24.1 248.6 23.6 C 248.5 23.2 248.5 22.6 248.5 22.3 C 248.6 22.0 248.5 21.6 248.3 21.5 C 248.0 21.5 247.2 21.0 247.2 21.0 C 247.2 21.0 247.0 20.5 247.1 20.3 C 247.3 20.1 247.7 20.0 247.9 20.1 C 248.1 20.1 248.6 20.1 248.6 19.7 C 248.7 19.3 249.0 17.5 248.7 17.3 C 248.4 17.0 248.0 17.2 247.9 17.0 C 247.8 16.9 247.4 15.8 247.6 15.7 C 247.8 15.5 248.4 15.4 248.2 15.1 C 248.1 14.8 247.9 14.2 247.8 14.2 C 247.7 14.3 247.5 14.2 247.2 14.2 C 247.0 14.3 246.5 13.9 246.3 13.8 C 246.1 13.8 245.9 13.4 245.9 13.4 C 245.9 13.1 246.0 12.9 246.0 12.6 C 246.0 12.6 246.6 12.7 246.8 12.8 C 247.0 12.9 247.1 12.5 247.0 12.3 C 247.0 12.1 246.2 11.2 246.2 11.2 C 245.9 11.4 245.6 11.6 245.3 11.8 C 245.0 11.6 244.8 11.4 244.6 11.3 C 244.6 11.3 245.7 10.5 245.3 10.1 C 244.9 9.6 244.4 9.1 244.4 9.1 C 244.4 9.1 243.7 9.1 243.5 9.0 C 243.4 9.0 242.6 9.9 242.6 9.9 C 242.3 10.2 242.0 10.6 241.7 11.0 C 241.7 11.0 241.8 11.7 242.2 11.8 C 242.5 11.8 242.7 11.3 242.9 11.2 C 243.1 11.1 243.6 11.3 243.6 11.3 C 243.6 11.6 243.5 11.9 243.4 12.3 C 243.4 12.3 243.4 12.6 243.3 12.9 C 243.2 13.2 243.5 13.8 243.7 13.9 C 243.9 14.0 244.2 14.0 244.6 14.2 C 244.9 14.3 245.2 14.1 245.1 14.5 C 244.9 14.9 244.7 15.2 244.7 15.3 C 244.8 15.5 245.4 15.9 245.4 15.9 C 245.6 16.1 245.8 16.2 245.9 16.4 C 245.9 16.4 246.3 16.9 246.0 17.0 C 245.8 17.1 246.3 18.1 246.3 18.1 C 246.3 18.1 245.5 18.1 245.4 18.4 C 245.3 18.7 245.1 19.1 245.3 19.5 C 245.4 19.9 246.2 20.3 246.2 20.3 C 246.0 20.4 245.8 20.6 245.6 20.7 C 245.5 21.1 245.5 21.6 245.4 22.0 C 245.4 22.0 245.5 23.0 245.6 23.0 C 245.7 23.0 246.4 22.9 246.6 22.9 C 246.8 23.0 247.0 23.5 246.8 23.6 C 246.6 23.6 245.9 24.1 245.9 24.1 C 245.9 24.1 245.5 24.5 245.5 24.8 C 245.4 25.1 245.6 25.5 245.8 25.6 C 245.9 25.8 246.4 26.2 246.4 26.2 C 246.2 26.3 246.0 26.5 245.8 26.6 C 245.8 26.6 246.1 27.4 245.5 28.2 C 245.5 28.2 245.5 28.2 245.5 28.2 Z M 240.4 9.5 C 240.6 9.5 240.5 10.0 240.8 10.4 C 241.1 10.8 241.5 11.2 241.6 10.9 C 241.7 10.6 241.7 10.3 242.2 10.2 C 242.7 10.1 243.4 9.8 243.3 9.3 C 243.1 8.8 242.2 7.3 241.5 7.3 C 240.9 7.3 240.6 7.4 240.2 7.4 C 239.8 7.5 240.3 6.9 240.3 6.9 C 240.3 6.9 239.6 6.4 238.9 6.1 C 238.3 5.8 237.5 5.6 237.4 5.7 C 237.3 5.8 237.0 6.0 237.0 6.0 C 237.0 6.0 236.7 5.6 236.2 5.4 C 235.7 5.3 235.8 5.5 235.9 5.7 C 236.0 5.9 236.5 6.5 236.2 6.5 C 236.0 6.4 235.5 5.6 235.1 5.5 C 234.8 5.4 233.9 5.4 233.9 5.4 C 233.9 5.4 234.0 5.8 233.9 5.9 C 233.9 6.0 233.1 6.1 233.1 5.9 C 233.1 5.8 233.1 5.3 232.8 5.3 C 231.6 5.2 231.8 6.1 231.7 6.1 C 231.6 6.1 231.6 5.4 231.3 5.3 C 231.1 5.2 228.8 5.3 228.7 5.5 C 228.6 5.7 227.9 5.0 227.5 5.5 C 227.2 5.9 227.1 6.0 227.0 6.1 C 227.0 6.2 226.5 6.9 226.3 6.7 C 226.1 6.4 227.0 5.6 226.7 5.4 C 226.5 5.2 225.1 5.2 224.8 5.4 C 224.5 5.7 224.4 6.3 224.2 6.3 C 224.0 6.3 223.2 5.5 223.2 5.6 C 223.1 5.7 223.0 6.4 223.0 6.6 C 223.0 6.7 222.7 8.0 222.9 8.1 C 223.1 8.3 223.9 8.8 223.8 8.4 C 223.7 8.0 223.5 7.6 223.8 7.4 C 224.1 7.3 224.2 7.3 224.3 7.4 C 224.4 7.5 224.2 7.7 224.7 7.9 C 225.2 8.2 224.9 8.4 225.4 8.4 C 225.9 8.4 226.3 8.3 226.2 8.0 C 226.2 7.8 226.7 7.4 227.0 7.4 C 227.4 7.4 226.8 8.0 227.8 8.3 C 228.9 8.5 229.5 8.6 229.8 8.3 C 230.1 8.1 230.2 7.4 230.7 7.7 C 231.2 8.0 230.9 8.2 231.6 8.2 C 232.3 8.2 232.5 7.6 232.9 7.5 C 233.4 7.5 233.5 7.6 233.5 7.6 C 233.5 7.6 233.3 8.4 234.2 8.4 C 235.1 8.5 235.2 8.6 235.1 8.0 C 235.0 7.4 235.7 7.4 235.7 7.8 C 235.6 8.2 236.1 8.6 236.4 8.7 C 236.7 8.8 237.0 7.8 237.1 7.8 C 237.2 7.8 237.6 8.0 237.3 8.3 C 237.1 8.5 237.4 8.7 237.6 8.9 C 237.8 9.1 238.6 9.3 238.6 9.1 C 238.7 9.0 238.6 8.2 239.0 8.7 C 239.3 9.2 239.2 9.8 239.6 10.0 C 240.1 10.2 240.0 9.4 240.4 9.5 C 240.4 9.5 240.4 9.5 240.4 9.5 Z M 222.1 8.3 C 222.6 8.7 223.0 8.2 223.0 7.9 C 222.9 7.5 222.7 6.5 222.9 6.2 C 223.1 6.0 223.7 5.3 222.8 5.1 C 221.9 5.0 221.7 5.3 221.7 5.5 C 221.7 5.7 221.6 6.8 221.3 6.7 C 221.1 6.6 220.9 6.3 220.8 6.2 C 220.8 6.0 220.4 5.0 220.0 5.2 C 219.6 5.3 219.2 5.6 219.2 5.6 C 219.0 5.6 218.8 5.6 218.6 5.6 C 218.6 5.6 218.0 5.0 217.5 5.2 C 217.1 5.3 216.6 5.3 216.2 5.3 C 215.9 5.2 215.5 5.3 215.5 5.5 C 215.4 5.8 215.0 6.6 215.0 6.6 C 215.0 6.6 214.4 6.8 214.2 6.7 C 214.0 6.6 213.9 6.1 214.0 5.9 C 214.0 5.7 214.0 5.3 213.6 5.2 C 213.3 5.1 211.8 4.6 211.5 4.9 C 211.3 5.2 211.4 5.5 211.2 5.6 C 211.0 5.7 210.0 5.8 210.0 5.5 C 209.9 5.3 209.9 4.8 209.7 4.9 C 209.4 4.9 208.8 4.8 208.8 4.9 C 208.8 5.0 208.6 5.2 208.6 5.5 C 208.6 5.7 208.0 6.0 207.9 6.1 C 207.7 6.2 207.3 6.3 207.3 6.3 C 207.1 6.1 206.9 6.0 206.7 5.8 C 206.7 5.8 207.1 5.3 207.2 5.2 C 207.4 5.1 207.1 4.8 206.9 4.8 C 206.8 4.7 205.7 4.8 205.7 4.8 C 205.7 5.2 205.6 5.6 205.6 6.0 C 205.3 6.0 205.1 6.1 204.8 6.2 C 204.8 6.2 204.9 4.8 204.4 4.8 C 203.9 4.8 203.3 4.8 203.3 4.8 C 203.3 4.8 202.7 5.4 202.6 5.4 C 202.4 5.5 202.4 6.7 202.4 6.7 C 202.4 7.1 202.5 7.6 202.5 8.0 C 202.5 8.0 203.1 8.5 203.5 8.3 C 203.8 8.1 203.5 7.6 203.6 7.4 C 203.7 7.2 204.2 6.9 204.2 6.9 C 204.4 7.2 204.6 7.5 204.9 7.7 C 204.9 7.7 205.1 8.0 205.3 8.2 C 205.6 8.4 206.4 8.6 206.6 8.5 C 206.8 8.4 207.1 8.0 207.3 7.8 C 207.6 7.6 207.6 7.2 207.9 7.5 C 208.3 7.8 208.4 8.2 208.6 8.2 C 208.8 8.2 209.5 7.7 209.5 7.7 C 209.7 7.6 210.0 7.5 210.2 7.4 C 210.2 7.4 210.7 7.2 210.8 7.4 C 210.9 7.7 212.0 7.4 212.0 7.4 C 212.0 7.4 211.9 8.2 212.2 8.4 C 212.5 8.5 212.9 8.7 213.4 8.6 C 213.9 8.4 214.2 7.6 214.2 7.6 C 214.3 7.8 214.5 8.0 214.6 8.2 C 215.1 8.3 215.5 8.4 215.9 8.4 C 215.9 8.4 216.9 8.4 216.9 8.2 C 216.9 8.1 216.8 7.4 216.8 7.2 C 216.9 7.0 217.4 6.8 217.5 7.0 C 217.5 7.3 218.0 7.9 218.0 7.9 C 218.0 7.9 218.4 8.3 218.7 8.4 C 219.0 8.4 219.4 8.2 219.6 8.0 C 219.7 7.9 220.1 7.4 220.1 7.4 C 220.3 7.6 220.4 7.8 220.5 8.0 C 220.5 8.0 221.3 7.7 222.1 8.3 C 222.1 8.3 222.1 8.3 222.1 8.3 Z M 200.3 7.7 C 200.5 7.6 200.7 8.0 201.2 8.2 C 201.8 8.4 202.5 8.4 202.4 8.1 C 202.2 7.8 202.0 7.6 202.3 7.2 C 202.6 6.8 203.0 6.0 202.6 5.8 C 202.2 5.5 200.6 4.8 200.1 5.2 C 199.6 5.6 199.5 5.7 199.1 5.9 C 198.7 6.2 199.0 5.4 199.0 5.4 C 199.0 5.4 198.1 5.3 197.5 5.2 C 196.9 5.2 196.2 5.2 196.1 5.3 C 196.0 5.4 195.8 5.7 195.8 5.7 C 195.8 5.7 195.5 5.3 195.0 5.3 C 194.5 5.2 194.7 5.4 194.8 5.6 C 194.8 5.8 195.4 6.3 195.2 6.3 C 195.0 6.3 194.4 5.5 194.1 5.4 C 193.7 5.3 193.0 5.4 193.0 5.4 C 193.0 5.4 193.1 5.8 193.0 5.9 C 192.9 6.0 192.2 6.1 192.2 5.9 C 192.1 5.8 192.2 5.3 191.8 5.3 C 190.7 5.2 190.9 6.1 190.8 6.1 C 190.7 6.1 190.7 5.4 190.4 5.3 C 190.1 5.2 187.9 5.3 187.8 5.5 C 187.7 5.7 186.9 5.0 186.6 5.5 C 186.3 5.9 186.2 6.0 186.1 6.1 C 186.0 6.2 185.6 6.9 185.4 6.7 C 185.2 6.4 186.1 5.6 185.8 5.4 C 185.5 5.2 184.1 5.2 183.9 5.4 C 183.6 5.7 183.5 6.3 183.3 6.3 C 183.1 6.3 182.3 5.5 182.2 5.6 C 182.2 5.7 182.1 6.4 182.1 6.6 C 182.1 6.7 181.8 8.0 182.0 8.1 C 182.1 8.3 183.0 8.8 182.9 8.4 C 182.8 8.0 182.6 7.6 182.9 7.4 C 183.1 7.3 183.3 7.3 183.4 7.4 C 183.4 7.5 183.3 7.7 183.8 7.9 C 184.3 8.2 184.0 8.4 184.5 8.4 C 184.9 8.4 185.4 8.3 185.3 8.0 C 185.3 7.8 185.8 7.4 186.1 7.4 C 186.4 7.4 185.9 8.0 186.9 8.3 C 187.9 8.5 188.6 8.6 188.9 8.3 C 189.2 8.1 189.3 7.4 189.8 7.7 C 190.3 8.0 190.0 8.2 190.7 8.2 C 191.3 8.2 191.6 7.6 192.0 7.5 C 192.4 7.5 192.6 7.6 192.6 7.6 C 192.6 7.6 192.3 8.4 193.3 8.4 C 194.3 8.5 194.5 8.5 194.3 7.9 C 194.1 7.3 194.8 7.3 194.8 7.7 C 194.9 8.1 195.4 8.4 195.8 8.4 C 196.1 8.5 196.2 7.4 196.3 7.4 C 196.4 7.4 196.8 7.5 196.7 7.8 C 196.5 8.1 196.9 8.2 197.2 8.3 C 197.5 8.4 198.4 8.3 198.4 8.1 C 198.4 8.0 197.9 7.3 198.5 7.6 C 199.1 8.0 199.3 8.5 199.8 8.4 C 200.4 8.4 199.9 7.8 200.3 7.7 C 200.3 7.7 200.3 7.7 200.3 7.7 Z M 181.2 8.3 C 181.6 8.7 182.1 8.2 182.0 7.9 C 182.0 7.5 181.8 6.5 182.0 6.2 C 182.1 6.0 182.7 5.3 181.9 5.1 C 181.0 5.0 180.8 5.3 180.8 5.5 C 180.8 5.7 180.6 6.8 180.4 6.7 C 180.2 6.6 180.0 6.3 179.9 6.2 C 179.8 6.0 179.5 5.0 179.1 5.2 C 178.7 5.3 178.3 5.6 178.3 5.6 C 178.1 5.6 177.9 5.6 177.6 5.6 C 177.6 5.6 177.1 5.0 176.6 5.2 C 176.1 5.3 175.6 5.3 175.3 5.3 C 174.9 5.2 174.6 5.3 174.5 5.5 C 174.5 5.8 174.0 6.6 174.0 6.6 C 174.0 6.6 173.5 6.8 173.3 6.7 C 173.0 6.6 173.0 6.1 173.0 5.9 C 173.1 5.7 173.0 5.3 172.7 5.2 C 172.3 5.1 170.8 4.6 170.6 4.9 C 170.4 5.2 170.4 5.5 170.3 5.6 C 170.1 5.7 169.1 5.8 169.0 5.5 C 168.9 5.3 169.0 4.8 168.7 4.9 C 168.4 4.9 167.9 4.8 167.9 4.9 C 167.9 5.0 167.7 5.2 167.6 5.5 C 167.6 5.7 167.0 6.0 166.9 6.1 C 166.8 6.2 166.4 6.3 166.4 6.3 C 166.2 6.1 166.0 6.0 165.8 5.8 C 165.8 5.8 166.1 5.3 166.3 5.2 C 166.5 5.1 166.2 4.8 166.0 4.8 C 165.8 4.7 164.7 4.8 164.7 4.8 C 164.7 5.2 164.7 5.6 164.7 6.0 C 164.4 6.0 164.1 6.1 163.9 6.2 C 163.9 6.2 164.0 4.8 163.5 4.8 C 163.0 4.8 162.3 4.8 162.3 4.8 C 162.3 4.8 161.8 5.4 161.6 5.4 C 161.5 5.5 161.5 6.7 161.5 6.7 C 161.5 7.1 161.5 7.6 161.6 8.0 C 161.6 8.0 162.2 8.5 162.6 8.3 C 162.9 8.1 162.6 7.6 162.7 7.4 C 162.7 7.2 163.2 6.9 163.2 6.9 C 163.5 7.2 163.7 7.5 164.0 7.7 C 164.0 7.7 164.2 8.0 164.4 8.2 C 164.6 8.4 165.4 8.6 165.7 8.5 C 165.9 8.4 166.1 8.0 166.4 7.8 C 166.7 7.6 166.6 7.2 167.0 7.5 C 167.3 7.8 167.5 8.2 167.7 8.2 C 167.9 8.2 168.6 7.7 168.6 7.7 C 168.8 7.6 169.0 7.5 169.2 7.4 C 169.2 7.4 169.8 7.2 169.9 7.4 C 169.9 7.7 171.1 7.4 171.1 7.4 C 171.1 7.4 171.0 8.2 171.3 8.4 C 171.5 8.5 172.0 8.7 172.5 8.6 C 172.9 8.4 173.3 7.6 173.3 7.6 C 173.4 7.8 173.6 8.0 173.7 8.2 C 174.1 8.3 174.6 8.4 175.0 8.4 C 175.0 8.4 176.0 8.4 176.0 8.2 C 176.0 8.1 175.9 7.4 175.9 7.2 C 176.0 7.0 176.5 6.8 176.6 7.0 C 176.6 7.3 177.1 7.9 177.1 7.9 C 177.1 7.9 177.5 8.3 177.8 8.4 C 178.1 8.4 178.5 8.2 178.6 8.0 C 178.7 7.9 179.2 7.4 179.2 7.4 C 179.3 7.6 179.4 7.8 179.6 8.0 C 179.6 8.0 180.4 7.7 181.2 8.3 C 181.2 8.3 181.2 8.3 181.2 8.3 Z M 159.3 7.7 C 159.6 7.6 159.7 8.0 160.3 8.2 C 160.9 8.4 161.6 8.4 161.4 8.1 C 161.3 7.8 161.1 7.6 161.4 7.2 C 161.7 6.8 162.0 6.0 161.6 5.8 C 161.2 5.5 159.7 4.8 159.2 5.2 C 158.7 5.6 158.5 5.7 158.2 5.9 C 157.8 6.2 158.0 5.4 158.0 5.4 C 158.0 5.4 157.2 5.3 156.6 5.2 C 155.9 5.2 155.2 5.2 155.2 5.3 C 155.1 5.4 154.8 5.7 154.8 5.7 C 154.8 5.7 154.5 5.3 154.1 5.3 C 153.6 5.2 153.8 5.4 153.8 5.6 C 153.9 5.8 154.5 6.3 154.3 6.3 C 154.1 6.3 153.5 5.5 153.1 5.4 C 152.8 5.3 152.1 5.4 152.1 5.4 C 152.1 5.4 152.1 5.8 152.1 5.9 C 152.0 6.0 151.3 6.1 151.2 5.9 C 151.2 5.8 151.3 5.3 150.9 5.3 C 149.8 5.2 149.9 6.1 149.8 6.1 C 149.7 6.1 149.7 5.4 149.5 5.3 C 149.2 5.2 147.0 5.3 146.8 5.5 C 146.7 5.7 146.0 5.0 145.7 5.5 C 145.3 5.9 145.2 6.0 145.2 6.1 C 145.1 6.2 144.7 6.9 144.5 6.7 C 144.3 6.4 145.1 5.6 144.9 5.4 C 144.6 5.2 143.2 5.2 143.0 5.4 C 142.6 5.7 142.5 6.3 142.4 6.3 C 142.2 6.3 141.4 5.5 141.3 5.6 C 141.2 5.7 141.1 6.4 141.1 6.6 C 141.1 6.7 140.9 8.0 141.0 8.1 C 141.2 8.3 142.0 8.8 141.9 8.4 C 141.8 8.0 141.6 7.6 141.9 7.4 C 142.2 7.3 142.4 7.3 142.4 7.4 C 142.5 7.5 142.4 7.7 142.8 7.9 C 143.3 8.2 143.1 8.4 143.5 8.4 C 144.0 8.4 144.4 8.3 144.4 8.0 C 144.3 7.8 144.8 7.4 145.2 7.4 C 145.5 7.4 144.9 8.0 146.0 8.3 C 147.0 8.5 147.7 8.6 148.0 8.3 C 148.3 8.1 148.3 7.4 148.8 7.7 C 149.3 8.0 149.1 8.2 149.7 8.2 C 150.4 8.2 150.7 7.6 151.1 7.5 C 151.5 7.5 151.6 7.6 151.6 7.6 C 151.6 7.6 151.4 8.4 152.4 8.4 C 153.3 8.5 153.5 8.5 153.3 7.9 C 153.1 7.3 153.9 7.3 153.9 7.7 C 153.9 8.1 154.5 8.4 154.8 8.4 C 155.2 8.5 155.2 7.4 155.4 7.4 C 155.5 7.4 155.9 7.5 155.7 7.8 C 155.6 8.1 156.0 8.2 156.3 8.3 C 156.6 8.4 157.5 8.3 157.4 8.1 C 157.4 8.0 157.0 7.3 157.6 7.6 C 158.2 8.0 158.3 8.5 158.9 8.4 C 159.5 8.4 159.0 7.8 159.3 7.7 C 159.3 7.7 159.3 7.7 159.3 7.7 Z M 140.7 8.5 C 141.7 8.4 141.0 5.8 140.6 5.2 C 140.2 4.7 139.5 5.0 138.9 4.9 C 138.2 4.8 138.4 5.7 138.0 5.9 C 137.6 6.2 137.8 5.6 137.6 5.2 C 137.4 4.8 136.4 5.2 135.7 5.1 C 135.1 5.1 134.4 6.0 133.9 6.0 C 133.4 6.1 134.4 6.5 133.5 6.5 C 132.6 6.4 133.0 5.9 134.0 5.6 C 135.1 5.4 133.6 5.1 133.1 5.0 C 132.5 4.9 131.5 5.3 131.1 5.3 C 130.6 5.2 131.2 5.9 130.5 5.9 C 129.9 5.9 130.2 5.2 129.5 5.1 C 128.9 5.0 129.0 5.6 128.6 5.8 C 128.3 5.9 128.3 5.5 128.1 5.5 C 127.8 5.4 127.3 5.2 126.7 5.4 C 126.1 5.5 126.2 5.7 126.0 5.8 C 125.7 5.8 125.2 5.8 125.2 5.8 C 125.1 5.6 125.1 5.4 125.1 5.1 C 125.1 5.1 123.9 5.1 123.6 5.0 C 123.2 5.0 122.5 5.3 122.7 5.4 C 122.9 5.6 122.1 6.0 121.9 5.9 C 121.8 5.8 121.2 5.5 120.8 5.3 C 120.4 5.2 120.5 6.9 120.5 7.1 C 120.5 7.4 120.3 8.3 120.6 8.4 C 121.0 8.5 121.2 8.2 121.2 8.4 C 121.1 8.7 122.2 8.4 122.4 8.4 C 122.7 8.4 123.1 7.8 123.1 7.8 C 123.1 7.8 123.3 7.2 123.8 7.2 C 124.3 7.2 124.4 8.3 124.4 8.3 C 124.4 8.3 125.0 8.5 125.6 8.5 C 126.1 8.4 126.8 7.5 126.9 7.3 C 127.0 7.1 127.0 8.0 127.4 8.1 C 127.8 8.2 128.3 8.4 128.5 8.4 C 128.7 8.3 129.0 7.8 129.0 7.8 C 129.0 7.8 129.7 7.4 129.9 7.4 C 130.1 7.4 129.8 8.2 129.8 8.2 C 129.8 8.2 131.3 8.5 131.6 8.5 C 131.9 8.6 132.4 8.4 132.7 8.3 C 132.9 8.3 133.2 7.3 133.6 7.4 C 133.9 7.5 133.2 8.0 133.6 8.1 C 133.9 8.2 134.5 8.4 134.7 8.4 C 134.9 8.4 135.1 8.1 135.4 8.0 C 135.7 8.0 136.1 7.2 136.5 7.2 C 137.0 7.2 137.2 7.7 137.4 7.8 C 137.6 7.9 137.7 8.5 138.0 8.5 C 138.4 8.6 138.1 8.1 138.5 8.1 C 138.8 8.1 138.8 7.6 139.1 7.7 C 139.5 7.8 139.3 8.6 139.7 8.5 C 139.8 8.5 139.7 8.5 140.7 8.5 C 140.7 8.5 140.7 8.5 140.7 8.5 Z M 119.8 8.3 C 120.2 8.7 120.7 8.2 120.6 7.9 C 120.6 7.5 120.4 6.5 120.6 6.2 C 120.7 6.0 121.3 5.3 120.5 5.1 C 119.6 5.0 119.4 5.3 119.4 5.5 C 119.4 5.7 119.2 6.8 119.0 6.7 C 118.8 6.6 118.6 6.3 118.5 6.2 C 118.4 6.0 118.1 5.0 117.7 5.2 C 117.3 5.3 116.9 5.6 116.9 5.6 C 116.7 5.6 116.5 5.6 116.2 5.6 C 116.2 5.6 115.7 5.0 115.2 5.2 C 114.7 5.3 114.2 5.3 113.9 5.3 C 113.5 5.2 113.2 5.3 113.1 5.5 C 113.1 5.8 112.6 6.6 112.6 6.6 C 112.6 6.6 112.1 6.8 111.9 6.7 C 111.6 6.6 111.6 6.1 111.6 5.9 C 111.7 5.7 111.6 5.3 111.3 5.2 C 110.9 5.1 109.4 4.6 109.2 4.9 C 109.0 5.2 109.0 5.5 108.9 5.6 C 108.7 5.7 107.7 5.8 107.6 5.5 C 107.5 5.3 107.6 4.8 107.3 4.9 C 107.0 4.9 106.5 4.8 106.5 4.9 C 106.5 5.0 106.3 5.2 106.2 5.5 C 106.2 5.7 105.6 6.0 105.5 6.1 C 105.4 6.2 105.0 6.3 105.0 6.3 C 104.8 6.1 104.6 6.0 104.4 5.8 C 104.4 5.8 104.7 5.3 104.9 5.2 C 105.1 5.1 104.8 4.8 104.6 4.8 C 104.4 4.7 103.3 4.8 103.3 4.8 C 103.3 5.2 103.3 5.6 103.3 6.0 C 103.0 6.0 102.8 6.1 102.5 6.2 C 102.5 6.2 102.6 4.8 102.1 4.8 C 101.6 4.8 100.9 4.8 100.9 4.8 C 100.9 4.8 100.4 5.4 100.2 5.4 C 100.1 5.5 100.1 6.7 100.1 6.7 C 100.1 7.1 100.1 7.6 100.2 8.0 C 100.2 8.0 100.8 8.5 101.2 8.3 C 101.5 8.1 101.2 7.6 101.3 7.4 C 101.3 7.2 101.8 6.9 101.8 6.9 C 102.1 7.2 102.3 7.5 102.6 7.7 C 102.6 7.7 102.8 8.0 103.0 8.2 C 103.2 8.4 104.0 8.6 104.3 8.5 C 104.5 8.4 104.7 8.0 105.0 7.8 C 105.3 7.6 105.2 7.2 105.6 7.5 C 105.9 7.8 106.1 8.2 106.3 8.2 C 106.5 8.2 107.2 7.7 107.2 7.7 C 107.4 7.6 107.6 7.5 107.8 7.4 C 107.8 7.4 108.4 7.2 108.5 7.4 C 108.5 7.7 109.7 7.4 109.7 7.4 C 109.7 7.4 109.6 8.2 109.9 8.4 C 110.1 8.5 110.6 8.7 111.1 8.6 C 111.5 8.4 111.9 7.6 111.9 7.6 C 112.0 7.8 112.2 8.0 112.3 8.2 C 112.7 8.3 113.2 8.4 113.6 8.4 C 113.6 8.4 114.6 8.4 114.6 8.2 C 114.6 8.1 114.5 7.4 114.5 7.2 C 114.6 7.0 115.1 6.8 115.2 7.0 C 115.2 7.3 115.7 7.9 115.7 7.9 C 115.7 7.9 116.1 8.3 116.4 8.4 C 116.7 8.4 117.1 8.2 117.2 8.0 C 117.3 7.9 117.8 7.4 117.8 7.4 C 117.9 7.6 118.0 7.8 118.2 8.0 C 118.2 8.0 119.0 7.7 119.8 8.3 C 119.8 8.3 119.8 8.3 119.8 8.3 Z M 97.9 7.7 C 98.2 7.6 98.3 8.0 98.9 8.2 C 99.5 8.4 100.2 8.4 100.0 8.1 C 99.9 7.8 99.7 7.6 100.0 7.2 C 100.3 6.8 100.6 6.0 100.2 5.8 C 99.8 5.5 98.3 4.8 97.8 5.2 C 97.3 5.6 97.1 5.7 96.8 5.9 C 96.4 6.2 96.6 5.4 96.6 5.4 C 96.6 5.4 95.8 5.3 95.2 5.2 C 94.5 5.2 93.8 5.2 93.8 5.3 C 93.7 5.4 93.4 5.7 93.4 5.7 C 93.4 5.7 93.1 5.3 92.7 5.3 C 92.2 5.2 92.4 5.4 92.4 5.6 C 92.5 5.8 93.1 6.3 92.9 6.3 C 92.7 6.3 92.1 5.5 91.7 5.4 C 91.4 5.3 90.7 5.4 90.7 5.4 C 90.7 5.4 90.7 5.8 90.7 5.9 C 90.6 6.0 89.9 6.1 89.8 5.9 C 89.8 5.8 89.9 5.3 89.5 5.3 C 88.4 5.2 88.5 6.1 88.4 6.1 C 88.3 6.1 88.3 5.4 88.1 5.3 C 87.8 5.2 85.6 5.3 85.4 5.5 C 85.3 5.7 84.6 5.0 84.3 5.5 C 83.9 5.9 83.8 6.0 83.8 6.1 C 83.7 6.2 83.3 6.9 83.1 6.7 C 82.9 6.4 83.7 5.6 83.5 5.4 C 83.2 5.2 81.8 5.2 81.6 5.4 C 81.2 5.7 81.1 6.3 81.0 6.3 C 80.8 6.3 80.0 5.5 79.9 5.6 C 79.8 5.7 79.7 6.4 79.7 6.6 C 79.7 6.7 79.5 8.0 79.6 8.1 C 79.8 8.3 80.6 8.8 80.5 8.4 C 80.4 8.0 80.2 7.6 80.5 7.4 C 80.8 7.3 81.0 7.3 81.1 7.4 C 81.1 7.5 81.0 7.7 81.5 7.9 C 81.9 8.2 81.7 8.4 82.1 8.4 C 82.6 8.4 83.0 8.3 83.0 8.0 C 82.9 7.8 83.4 7.4 83.8 7.4 C 84.1 7.4 83.5 8.0 84.6 8.3 C 85.6 8.5 86.3 8.6 86.6 8.3 C 86.9 8.1 86.9 7.4 87.4 7.7 C 87.9 8.0 87.7 8.2 88.3 8.2 C 89.0 8.2 89.3 7.6 89.7 7.5 C 90.1 7.5 90.2 7.6 90.2 7.6 C 90.2 7.6 90.0 8.4 91.0 8.4 C 91.9 8.5 92.1 8.5 91.9 7.9 C 91.7 7.3 92.5 7.3 92.5 7.7 C 92.5 8.1 93.1 8.4 93.4 8.4 C 93.8 8.5 93.8 7.4 94.0 7.4 C 94.1 7.4 94.5 7.5 94.3 7.8 C 94.2 8.1 94.6 8.2 94.9 8.3 C 95.2 8.4 96.1 8.3 96.0 8.1 C 96.0 8.0 95.6 7.3 96.2 7.6 C 96.8 8.0 97.0 8.5 97.5 8.4 C 98.1 8.4 97.6 7.8 97.9 7.7 C 97.9 7.7 97.9 7.7 97.9 7.7 Z M 79.3 8.5 C 80.3 8.4 79.6 5.8 79.2 5.2 C 78.8 4.7 78.1 5.0 77.5 4.9 C 76.8 4.8 77.0 5.7 76.6 5.9 C 76.2 6.2 76.4 5.6 76.2 5.2 C 76.0 4.8 75.0 5.2 74.3 5.1 C 73.7 5.1 73.0 6.0 72.5 6.0 C 72.0 6.1 73.0 6.5 72.1 6.5 C 71.2 6.4 71.6 5.9 72.6 5.6 C 73.7 5.4 72.2 5.1 71.7 5.0 C 71.1 4.9 70.1 5.3 69.7 5.3 C 69.2 5.2 69.8 5.9 69.1 5.9 C 68.5 5.9 68.8 5.2 68.1 5.1 C 67.5 5.0 67.6 5.6 67.2 5.8 C 66.9 5.9 66.9 5.5 66.7 5.5 C 66.4 5.4 65.9 5.2 65.3 5.4 C 64.7 5.5 64.8 5.7 64.6 5.8 C 64.3 5.8 63.8 5.8 63.8 5.8 C 63.7 5.6 63.7 5.4 63.7 5.1 C 63.7 5.1 62.5 5.1 62.2 5.0 C 61.8 5.0 61.1 5.3 61.3 5.4 C 61.5 5.6 60.7 6.0 60.5 5.9 C 60.4 5.8 59.8 5.5 59.4 5.3 C 59.0 5.2 59.1 6.9 59.1 7.1 C 59.1 7.4 58.9 8.3 59.2 8.4 C 59.6 8.5 59.8 8.2 59.8 8.4 C 59.7 8.7 60.8 8.4 61.0 8.4 C 61.3 8.4 61.7 7.8 61.7 7.8 C 61.7 7.8 61.9 7.2 62.4 7.2 C 62.9 7.2 63.0 8.3 63.0 8.3 C 63.0 8.3 63.6 8.5 64.2 8.5 C 64.7 8.4 65.4 7.5 65.5 7.3 C 65.6 7.1 65.6 8.0 66.0 8.1 C 66.4 8.2 66.9 8.4 67.1 8.4 C 67.3 8.3 67.6 7.8 67.6 7.8 C 67.6 7.8 68.3 7.4 68.5 7.4 C 68.7 7.4 68.4 8.2 68.4 8.2 C 68.4 8.2 69.9 8.5 70.2 8.5 C 70.5 8.6 71.0 8.4 71.3 8.3 C 71.5 8.3 71.8 7.3 72.2 7.4 C 72.5 7.5 71.8 8.0 72.2 8.1 C 72.5 8.2 73.1 8.4 73.3 8.4 C 73.5 8.4 73.7 8.1 74.0 8.0 C 74.3 8.0 74.7 7.2 75.1 7.2 C 75.6 7.2 75.8 7.7 76.0 7.8 C 76.2 7.9 76.3 8.5 76.6 8.5 C 77.0 8.6 76.7 8.1 77.1 8.1 C 77.4 8.1 77.4 7.6 77.7 7.7 C 78.1 7.8 77.9 8.6 78.3 8.5 C 78.4 8.5 78.3 8.5 79.3 8.5 C 79.3 8.5 79.3 8.5 79.3 8.5 Z M 57.0 7.7 C 57.2 7.6 57.4 8.0 58.0 8.2 C 58.5 8.4 59.2 8.4 59.1 8.1 C 59.0 7.8 58.8 7.6 59.1 7.2 C 59.4 6.8 59.7 6.0 59.3 5.8 C 58.9 5.5 57.3 4.8 56.8 5.2 C 56.4 5.6 56.2 5.7 55.8 5.9 C 55.5 6.2 55.7 5.4 55.7 5.4 C 55.7 5.4 54.9 5.3 54.2 5.2 C 53.6 5.2 52.9 5.2 52.8 5.3 C 52.8 5.4 52.5 5.7 52.5 5.7 C 52.5 5.7 52.2 5.3 51.7 5.3 C 51.3 5.2 51.4 5.4 51.5 5.6 C 51.6 5.8 52.1 6.3 51.9 6.3 C 51.7 6.3 51.1 5.5 50.8 5.4 C 50.5 5.3 49.7 5.4 49.7 5.4 C 49.7 5.4 49.8 5.8 49.7 5.9 C 49.7 6.0 48.9 6.1 48.9 5.9 C 48.9 5.8 48.9 5.3 48.6 5.3 C 47.4 5.2 47.6 6.1 47.5 6.1 C 47.4 6.1 47.4 5.4 47.1 5.3 C 46.9 5.2 44.6 5.3 44.5 5.5 C 44.4 5.7 43.7 5.0 43.3 5.5 C 43.0 5.9 42.9 6.0 42.8 6.1 C 42.8 6.2 42.3 6.9 42.1 6.7 C 41.9 6.4 42.8 5.6 42.5 5.4 C 42.3 5.2 40.9 5.2 40.6 5.4 C 40.3 5.7 40.2 6.3 40.0 6.3 C 39.8 6.3 39.0 5.5 39.0 5.6 C 38.9 5.7 38.8 6.4 38.8 6.6 C 38.8 6.7 38.5 8.0 38.7 8.1 C 38.9 8.3 39.7 8.8 39.6 8.4 C 39.5 8.0 39.3 7.6 39.6 7.4 C 39.9 7.3 40.0 7.3 40.1 7.4 C 40.2 7.5 40.0 7.7 40.5 7.9 C 41.0 8.2 40.7 8.4 41.2 8.4 C 41.7 8.4 42.1 8.3 42.0 8.0 C 42.0 7.8 42.5 7.4 42.8 7.4 C 43.2 7.4 42.6 8.0 43.6 8.3 C 44.7 8.5 45.3 8.6 45.6 8.3 C 45.9 8.1 46.0 7.4 46.5 7.7 C 47.0 8.0 46.7 8.2 47.4 8.2 C 48.1 8.2 48.3 7.6 48.8 7.5 C 49.2 7.5 49.3 7.6 49.3 7.6 C 49.3 7.6 49.1 8.4 50.0 8.4 C 51.0 8.5 51.2 8.5 51.0 7.9 C 50.8 7.3 51.5 7.3 51.6 7.7 C 51.6 8.1 52.2 8.4 52.5 8.4 C 52.8 8.5 52.9 7.4 53.0 7.4 C 53.2 7.4 53.6 7.5 53.4 7.8 C 53.3 8.1 53.6 8.2 53.9 8.3 C 54.2 8.4 55.1 8.3 55.1 8.1 C 55.1 8.0 54.7 7.3 55.3 7.6 C 55.9 8.0 56.0 8.5 56.6 8.4 C 57.2 8.4 56.7 7.8 57.0 7.7 C 57.0 7.7 57.0 7.7 57.0 7.7 Z M 37.9 8.3 C 38.4 8.7 38.8 8.2 38.8 7.9 C 38.7 7.5 38.5 6.5 38.7 6.2 C 38.9 6.0 39.5 5.3 38.6 5.1 C 37.7 5.0 37.5 5.3 37.5 5.5 C 37.5 5.7 37.4 6.8 37.1 6.7 C 36.9 6.6 36.7 6.3 36.6 6.2 C 36.6 6.0 36.2 5.0 35.8 5.2 C 35.4 5.3 35.0 5.6 35.0 5.6 C 34.8 5.6 34.6 5.6 34.4 5.6 C 34.4 5.6 33.8 5.0 33.3 5.2 C 32.9 5.3 32.4 5.3 32.0 5.3 C 31.7 5.2 31.3 5.3 31.3 5.5 C 31.2 5.8 30.8 6.6 30.8 6.6 C 30.8 6.6 30.2 6.8 30.0 6.7 C 29.8 6.6 29.7 6.1 29.8 5.9 C 29.8 5.7 29.8 5.3 29.4 5.2 C 29.1 5.1 27.6 4.6 27.4 4.9 C 27.1 5.2 27.2 5.5 27.0 5.6 C 26.8 5.7 25.8 5.8 25.8 5.5 C 25.7 5.3 25.7 4.8 25.5 4.9 C 25.2 4.9 24.6 4.8 24.6 4.9 C 24.6 5.0 24.4 5.2 24.4 5.5 C 24.4 5.7 23.8 6.0 23.7 6.1 C 23.5 6.2 23.1 6.3 23.1 6.3 C 22.9 6.1 22.7 6.0 22.5 5.8 C 22.5 5.8 22.9 5.3 23.0 5.2 C 23.2 5.1 22.9 4.8 22.7 4.8 C 22.6 4.7 21.5 4.8 21.5 4.8 C 21.5 5.2 21.4 5.6 21.4 6.0 C 21.2 6.0 20.9 6.1 20.6 6.2 C 20.6 6.2 20.7 4.8 20.2 4.8 C 19.7 4.8 19.1 4.8 19.1 4.8 C 19.1 4.8 18.5 5.4 18.3 5.4 C 18.2 5.5 18.2 6.7 18.2 6.7 C 18.2 7.1 18.3 7.6 18.3 8.1 C 18.3 8.1 18.9 8.5 19.3 8.3 C 19.6 8.1 19.3 7.6 19.4 7.4 C 19.5 7.2 20.0 6.9 20.0 6.9 C 20.2 7.2 20.4 7.5 20.7 7.7 C 20.7 7.7 20.9 8.0 21.1 8.2 C 21.4 8.4 22.2 8.6 22.4 8.5 C 22.6 8.4 22.9 8.0 23.1 7.8 C 23.4 7.6 23.4 7.2 23.7 7.5 C 24.1 7.8 24.2 8.2 24.4 8.2 C 24.6 8.2 25.3 7.7 25.3 7.7 C 25.5 7.6 25.8 7.5 26.0 7.4 C 26.0 7.4 26.5 7.2 26.6 7.4 C 26.7 7.7 27.8 7.4 27.8 7.4 C 27.8 7.4 27.7 8.2 28.0 8.4 C 28.3 8.5 28.7 8.7 29.2 8.6 C 29.7 8.4 30.0 7.6 30.0 7.6 C 30.1 7.8 30.3 8.0 30.4 8.2 C 30.9 8.3 31.3 8.4 31.7 8.4 C 31.7 8.4 32.7 8.4 32.7 8.2 C 32.7 8.1 32.6 7.4 32.7 7.2 C 32.7 7.0 33.2 6.8 33.3 7.0 C 33.3 7.3 33.8 7.9 33.8 7.9 C 33.8 7.9 34.2 8.3 34.5 8.4 C 34.8 8.4 35.2 8.2 35.4 8.0 C 35.5 7.9 35.9 7.4 35.9 7.4 C 36.1 7.6 36.2 7.8 36.3 8.0 C 36.3 8.0 37.1 7.7 37.9 8.3 C 37.9 8.3 37.9 8.3 37.9 8.3 Z M 18.0 8.5 C 18.9 8.4 18.2 5.8 17.7 5.3 C 17.2 4.8 16.4 5.2 15.7 5.2 C 14.9 5.3 15.3 6.1 15.0 6.4 C 14.6 6.8 14.6 6.2 14.3 5.9 C 14.0 5.6 13.0 6.3 12.4 6.5 C 11.7 6.8 11.6 7.9 11.2 8.2 C 10.7 8.6 11.8 8.4 11.0 8.9 C 10.2 9.3 10.3 8.7 11.0 7.8 C 11.8 7.0 10.4 7.7 9.8 7.9 C 9.3 8.2 8.7 9.2 8.3 9.5 C 8.0 9.8 8.9 9.9 8.4 10.4 C 7.9 10.9 7.6 10.1 7.1 10.6 C 6.5 11.2 7.1 11.5 7.0 11.9 C 7.0 12.2 6.7 11.9 6.5 12.2 C 6.3 12.4 5.8 12.7 5.7 13.4 C 5.5 14.1 5.8 14.0 5.7 14.3 C 5.6 14.6 5.4 15.1 5.4 15.1 C 5.2 15.0 5.0 15.0 4.7 15.0 C 4.7 15.0 4.3 16.2 4.2 16.5 C 4.0 16.9 4.2 17.8 4.4 17.6 C 4.6 17.4 4.9 18.3 4.8 18.5 C 4.6 18.7 4.3 19.3 4.1 19.7 C 3.9 20.2 5.7 20.0 5.9 20.0 C 6.1 20.1 7.1 20.3 7.2 20.0 C 7.3 19.6 6.9 19.3 7.2 19.4 C 7.4 19.5 7.3 18.5 7.3 18.3 C 7.3 18.0 6.8 17.6 6.8 17.6 C 6.8 17.6 6.3 17.2 6.4 16.8 C 6.5 16.4 7.6 16.5 7.6 16.5 C 7.6 16.5 7.9 16.1 8.0 15.7 C 8.2 15.2 7.6 14.3 7.5 14.1 C 7.4 13.9 8.1 14.3 8.3 14.1 C 8.6 13.8 9.1 13.5 9.1 13.4 C 9.2 13.2 8.9 12.7 8.9 12.7 C 8.9 12.7 9.0 12.0 9.1 11.9 C 9.2 11.8 9.7 12.5 9.7 12.5 C 9.7 12.5 10.7 11.7 11.0 11.5 C 11.2 11.4 11.4 10.9 11.5 10.8 C 11.6 10.6 11.3 9.7 11.6 9.6 C 11.9 9.5 11.7 10.2 12.0 10.2 C 12.3 10.1 12.9 10.0 13.0 9.9 C 13.1 9.8 13.1 9.4 13.3 9.3 C 13.5 9.1 13.6 8.3 14.0 8.1 C 14.4 8.0 14.7 8.3 14.9 8.4 C 15.1 8.4 15.4 9.0 15.7 8.9 C 16.0 8.9 15.6 8.5 15.9 8.4 C 16.2 8.4 16.1 7.9 16.5 7.9 C 16.8 8.0 16.7 8.8 17.1 8.6 C 17.2 8.6 17.0 8.6 18.0 8.5 C 18.0 8.5 18.0 8.5 18.0 8.5 Z M 18.0 8.5 " fill="#794525"></path></g></svg>