<?xml version="1.0" encoding="UTF-8" standalone="no"?><svg xmlns="http://www.w3.org/2000/svg" xmlns:xlink="http://www.w3.org/1999/xlink" clip-rule="evenodd" stroke-miterlimit="10" viewBox="0 0 250 46"><desc>SVG generated by Keynote</desc><defs></defs><g transform="matrix(1.00, 0.00, -0.00, -1.00, 0.0, 46.0)"><g><clipPath id="clip0x608003eaee80"><path d="M 102.1 0.3 L 147.4 0.3 L 147.4 45.6 L 102.1 45.6 Z M 102.1 0.3 "></path></clipPath><g clip-path="url(#clip0x608003eaee80)"><image xlink:href="../../E956202A-5A08-4010-BB84-F14BBC8E5ACC/assets/AF7AAEF826D5791934A0F06AF4F91478.png" width="43.00" height="43.00" transform="matrix(1.01, 0.00, -0.00, -1.01, 103.1, 44.6)" opacity="0.30"></image></g></g><g><clipPath id="clip0x608003ead440"><path d="M 138.2 38.1 C 145.5 30.9 145.5 19.0 138.2 11.8 C 130.9 4.5 119.1 4.5 111.8 11.8 C 104.5 19.0 104.5 30.9 111.8 38.1 C 119.1 45.4 130.9 45.4 138.2 38.1 Z M 138.2 38.1 "></path></clipPath><g clip-path="url(#clip0x608003ead440)"><g><clipPath id="clip0x608003eaf1e0"><path d="M 102.1 0.3 L 147.4 0.3 L 147.4 45.6 L 102.1 45.6 Z M 102.1 0.3 "></path></clipPath><g clip-path="url(#clip0x608003eaf1e0)"><image xlink:href="DC03B7B6C1E2D68BA875BBB064E770D2.png" width="500.00" height="500.00" transform="matrix(0.50, 0.00, -0.00, -0.50, 106.3, 43.6)"></image></g></g></g></g><g><clipPath id="clip0x6000036ba640"><path d="M 203.9 0.3 L 249.2 0.3 L 249.2 45.6 L 203.9 45.6 Z M 203.9 0.3 "></path></clipPath><g clip-path="url(#clip0x6000036ba640)"><image xlink:href="../../E956202A-5A08-4010-BB84-F14BBC8E5ACC/assets/AF7AAEF826D5791934A0F06AF4F91478.png" width="43.00" height="43.00" transform="matrix(1.01, 0.00, -0.00, -1.01, 204.9, 44.6)" opacity="0.30"></image></g></g><g><clipPath id="clip0x6000036ba6a0"><path d="M 239.9 38.1 C 247.2 30.9 247.2 19.0 239.9 11.8 C 232.6 4.5 220.8 4.5 213.5 11.8 C 206.2 19.0 206.2 30.9 213.5 38.1 C 220.8 45.4 232.6 45.4 239.9 38.1 Z M 239.9 38.1 "></path></clipPath><g clip-path="url(#clip0x6000036ba6a0)"><g><clipPath id="clip0x6000036baa00"><path d="M 203.9 0.3 L 249.2 0.3 L 249.2 45.6 L 203.9 45.6 Z M 203.9 0.3 "></path></clipPath><g clip-path="url(#clip0x6000036baa00)"><image xlink:href="../../E956202A-5A08-4010-BB84-F14BBC8E5ACC/assets/DC03B7B6C1E2D68BA875BBB064E770D2.png" width="500.00" height="500.00" transform="matrix(0.50, 0.00, -0.00, -0.50, 208.1, 43.6)"></image></g></g></g></g><g><clipPath id="clip0x608003eae0a0"><path d="M 0.4 0.3 L 45.7 0.3 L 45.7 45.6 L 0.4 45.6 Z M 0.4 0.3 "></path></clipPath><g clip-path="url(#clip0x608003eae0a0)"><image xlink:href="../../E956202A-5A08-4010-BB84-F14BBC8E5ACC/assets/AF7AAEF826D5791934A0F06AF4F91478.png" width="43.00" height="43.00" transform="matrix(1.01, 0.00, -0.00, -1.01, 1.4, 44.6)" opacity="0.30"></image></g></g><g><clipPath id="clip0x608003eae640"><path d="M 36.5 38.1 C 43.8 30.9 43.8 19.0 36.5 11.8 C 29.2 4.5 17.4 4.5 10.1 11.8 C 2.8 19.0 2.8 30.9 10.1 38.1 C 17.4 45.4 29.2 45.4 36.5 38.1 Z M 36.5 38.1 "></path></clipPath><g clip-path="url(#clip0x608003eae640)"><g><clipPath id="clip0x608003eaf000"><path d="M 0.4 0.3 L 45.7 0.3 L 45.7 45.6 L 0.4 45.6 Z M 0.4 0.3 "></path></clipPath><g clip-path="url(#clip0x608003eaf000)"><image xlink:href="../../E956202A-5A08-4010-BB84-F14BBC8E5ACC/assets/DC03B7B6C1E2D68BA875BBB064E770D2.png" width="500.00" height="500.00" transform="matrix(0.50, 0.00, -0.00, -0.50, 4.6, 43.6)"></image></g></g></g></g></g></svg>