<?xml version="1.0" encoding="UTF-8" standalone="no"?><svg xmlns="http://www.w3.org/2000/svg" xmlns:xlink="http://www.w3.org/1999/xlink" clip-rule="evenodd" stroke-miterlimit="10" viewBox="0 0 250 47"><desc>SVG generated by Keynote</desc><defs></defs><g transform="matrix(1.00, 0.00, -0.00, -1.00, 0.0, 47.0)"><g><clipPath id="clip0x6000036bc5c0"><path d="M 102.1 1.0 L 147.4 1.0 L 147.4 46.3 L 102.1 46.3 Z M 102.1 1.0 "></path></clipPath><g clip-path="url(#clip0x6000036bc5c0)"><image xlink:href="../../E956202A-5A08-4010-BB84-F14BBC8E5ACC/assets/AF7AAEF826D5791934A0F06AF4F91478.png" width="43.00" height="43.00" transform="matrix(1.01, 0.00, -0.00, -1.01, 103.1, 45.3)" opacity="0.30"></image></g></g><g><clipPath id="clip0x6000036bbde0"><path d="M 138.2 38.8 C 145.5 31.5 145.5 19.7 138.2 12.4 C 130.9 5.1 119.1 5.1 111.8 12.4 C 104.5 19.7 104.5 31.5 111.8 38.8 C 119.1 46.1 130.9 46.1 138.2 38.8 Z M 138.2 38.8 "></path></clipPath><g clip-path="url(#clip0x6000036bbde0)"><g><clipPath id="clip0x6000036bc7a0"><path d="M 102.1 1.0 L 147.4 1.0 L 147.4 46.3 L 102.1 46.3 Z M 102.1 1.0 "></path></clipPath><g clip-path="url(#clip0x6000036bc7a0)"><image xlink:href="../../E956202A-5A08-4010-BB84-F14BBC8E5ACC/assets/DC03B7B6C1E2D68BA875BBB064E770D2.png" width="500.00" height="500.00" transform="matrix(0.50, 0.00, -0.00, -0.50, 106.3, 44.3)"></image></g></g></g></g><g><clipPath id="clip0x608003ead920"><path d="M 203.9 1.0 L 249.2 1.0 L 249.2 46.3 L 203.9 46.3 Z M 203.9 1.0 "></path></clipPath><g clip-path="url(#clip0x608003ead920)"><image xlink:href="../../E956202A-5A08-4010-BB84-F14BBC8E5ACC/assets/AF7AAEF826D5791934A0F06AF4F91478.png" width="43.00" height="43.00" transform="matrix(1.01, 0.00, -0.00, -1.01, 204.9, 45.3)" opacity="0.30"></image></g></g><g><clipPath id="clip0x608003eb0ce0"><path d="M 239.9 38.8 C 247.2 31.5 247.2 19.7 239.9 12.4 C 232.6 5.1 220.8 5.1 213.5 12.4 C 206.2 19.7 206.2 31.5 213.5 38.8 C 220.8 46.1 232.6 46.1 239.9 38.8 Z M 239.9 38.8 "></path></clipPath><g clip-path="url(#clip0x608003eb0ce0)"><g><clipPath id="clip0x608003eb1040"><path d="M 203.9 1.0 L 249.2 1.0 L 249.2 46.3 L 203.9 46.3 Z M 203.9 1.0 "></path></clipPath><g clip-path="url(#clip0x608003eb1040)"><image xlink:href="../../E956202A-5A08-4010-BB84-F14BBC8E5ACC/assets/DC03B7B6C1E2D68BA875BBB064E770D2.png" width="500.00" height="500.00" transform="matrix(0.50, 0.00, -0.00, -0.50, 208.1, 44.3)"></image></g></g></g></g><g><clipPath id="clip0x6000036bc9e0"><path d="M 0.4 1.0 L 45.7 1.0 L 45.7 46.3 L 0.4 46.3 Z M 0.4 1.0 "></path></clipPath><g clip-path="url(#clip0x6000036bc9e0)"><image xlink:href="../../E956202A-5A08-4010-BB84-F14BBC8E5ACC/assets/AF7AAEF826D5791934A0F06AF4F91478.png" width="43.00" height="43.00" transform="matrix(1.01, 0.00, -0.00, -1.01, 1.4, 45.3)" opacity="0.30"></image></g></g><g><clipPath id="clip0x6000036bca40"><path d="M 36.5 38.8 C 43.8 31.5 43.8 19.7 36.5 12.4 C 29.2 5.1 17.4 5.1 10.1 12.4 C 2.8 19.7 2.8 31.5 10.1 38.8 C 17.4 46.1 29.2 46.1 36.5 38.8 Z M 36.5 38.8 "></path></clipPath><g clip-path="url(#clip0x6000036bca40)"><g><clipPath id="clip0x6000036bcda0"><path d="M 0.4 1.0 L 45.7 1.0 L 45.7 46.3 L 0.4 46.3 Z M 0.4 1.0 "></path></clipPath><g clip-path="url(#clip0x6000036bcda0)"><image xlink:href="../../E956202A-5A08-4010-BB84-F14BBC8E5ACC/assets/DC03B7B6C1E2D68BA875BBB064E770D2.png" width="500.00" height="500.00" transform="matrix(0.50, 0.00, -0.00, -0.50, 4.6, 44.3)"></image></g></g></g></g></g></svg>