<?xml version="1.0" encoding="UTF-8" standalone="no"?><svg xmlns="http://www.w3.org/2000/svg" xmlns:xlink="http://www.w3.org/1999/xlink" clip-rule="evenodd" stroke-miterlimit="10" viewBox="0 0 250 46"><desc>SVG generated by Keynote</desc><defs></defs><g transform="matrix(1.00, 0.00, -0.00, -1.00, 0.0, 46.0)"><g><clipPath id="clip0x6000036bb720"><path d="M 102.1 0.6 L 147.4 0.6 L 147.4 45.9 L 102.1 45.9 Z M 102.1 0.6 "></path></clipPath><g clip-path="url(#clip0x6000036bb720)"><image xlink:href="../../E956202A-5A08-4010-BB84-F14BBC8E5ACC/assets/AF7AAEF826D5791934A0F06AF4F91478.png" width="43.00" height="43.00" transform="matrix(1.01, 0.00, -0.00, -1.01, 103.1, 44.9)" opacity="0.30"></image></g></g><g><clipPath id="clip0x6000036baca0"><path d="M 138.2 38.5 C 145.5 31.2 145.5 19.4 138.2 12.1 C 130.9 4.8 119.1 4.8 111.8 12.1 C 104.5 19.4 104.5 31.2 111.8 38.5 C 119.1 45.8 130.9 45.8 138.2 38.5 Z M 138.2 38.5 "></path></clipPath><g clip-path="url(#clip0x6000036baca0)"><g><clipPath id="clip0x6000036bb960"><path d="M 102.1 0.6 L 147.4 0.6 L 147.4 45.9 L 102.1 45.9 Z M 102.1 0.6 "></path></clipPath><g clip-path="url(#clip0x6000036bb960)"><image xlink:href="../../E956202A-5A08-4010-BB84-F14BBC8E5ACC/assets/DC03B7B6C1E2D68BA875BBB064E770D2.png" width="500.00" height="500.00" transform="matrix(0.50, 0.00, -0.00, -0.50, 106.3, 43.9)"></image></g></g></g></g><g><clipPath id="clip0x608003eaf360"><path d="M 203.9 0.6 L 249.2 0.6 L 249.2 45.9 L 203.9 45.9 Z M 203.9 0.6 "></path></clipPath><g clip-path="url(#clip0x608003eaf360)"><image xlink:href="../../E956202A-5A08-4010-BB84-F14BBC8E5ACC/assets/AF7AAEF826D5791934A0F06AF4F91478.png" width="43.00" height="43.00" transform="matrix(1.01, 0.00, -0.00, -1.01, 204.9, 44.9)" opacity="0.30"></image></g></g><g><clipPath id="clip0x608003eafc60"><path d="M 239.9 38.5 C 247.2 31.2 247.2 19.4 239.9 12.1 C 232.6 4.8 220.8 4.8 213.5 12.1 C 206.2 19.4 206.2 31.2 213.5 38.5 C 220.8 45.8 232.6 45.8 239.9 38.5 Z M 239.9 38.5 "></path></clipPath><g clip-path="url(#clip0x608003eafc60)"><g><clipPath id="clip0x608003eaf120"><path d="M 203.9 0.6 L 249.2 0.6 L 249.2 45.9 L 203.9 45.9 Z M 203.9 0.6 "></path></clipPath><g clip-path="url(#clip0x608003eaf120)"><image xlink:href="../../E956202A-5A08-4010-BB84-F14BBC8E5ACC/assets/DC03B7B6C1E2D68BA875BBB064E770D2.png" width="500.00" height="500.00" transform="matrix(0.50, 0.00, -0.00, -0.50, 208.1, 43.9)"></image></g></g></g></g><g><clipPath id="clip0x608003ead380"><path d="M 0.4 0.6 L 45.7 0.6 L 45.7 45.9 L 0.4 45.9 Z M 0.4 0.6 "></path></clipPath><g clip-path="url(#clip0x608003ead380)"><image xlink:href="../../E956202A-5A08-4010-BB84-F14BBC8E5ACC/assets/AF7AAEF826D5791934A0F06AF4F91478.png" width="43.00" height="43.00" transform="matrix(1.01, 0.00, -0.00, -1.01, 1.4, 44.9)" opacity="0.30"></image></g></g><g><clipPath id="clip0x608003eb0260"><path d="M 36.5 38.5 C 43.8 31.2 43.8 19.4 36.5 12.1 C 29.2 4.8 17.4 4.8 10.1 12.1 C 2.8 19.4 2.8 31.2 10.1 38.5 C 17.4 45.8 29.2 45.8 36.5 38.5 Z M 36.5 38.5 "></path></clipPath><g clip-path="url(#clip0x608003eb0260)"><g><clipPath id="clip0x608003ead860"><path d="M 0.4 0.6 L 45.7 0.6 L 45.7 45.9 L 0.4 45.9 Z M 0.4 0.6 "></path></clipPath><g clip-path="url(#clip0x608003ead860)"><image xlink:href="../../E956202A-5A08-4010-BB84-F14BBC8E5ACC/assets/DC03B7B6C1E2D68BA875BBB064E770D2.png" width="500.00" height="500.00" transform="matrix(0.50, 0.00, -0.00, -0.50, 4.6, 43.9)"></image></g></g></g></g></g></svg>